M48
;DRILL file {KiCad 4.0.2+e4-6225~38~ubuntu15.04.1-stable} date Fri 21 Oct 2016 22:40:57 ACDT
;FORMAT={-:-/ absolute / metric / decimal}
FMAT,2
METRIC,TZ
T1C0.400
T2C0.599
T3C1.016
T4C1.300
T5C2.750
%
G90
G05
M71
T1
X94.25Y-102.25
X94.25Y-105.
X96.Y-98.
X97.Y-84.75
X99.75Y-85.704
X101.5Y-97.
X101.8Y-85.704
X104.8Y-84.4
X104.8Y-85.704
X107.4Y-84.4
X108.208Y-85.728
X109.15Y-100.4
X110.15Y-107.
X111.Y-70.5
X111.Y-76.75
X111.5Y-79.75
X111.65Y-106.75
X112.25Y-94.5
X113.4Y-78.6
X115.Y-76.76
X115.75Y-96.45
X116.25Y-83.25
X116.597Y-78.817
X116.865Y-92.232
X117.25Y-74.25
X119.104Y-91.177
X119.2Y-77.6
X120.25Y-76.184
X122.85Y-89.95
X124.388Y-72.613
X125.5Y-63.5
X126.Y-68.
X126.Y-92.
X126.2Y-97.4
X127.688Y-86.137
X129.Y-79.5
X130.Y-71.75
X131.Y-88.25
X131.313Y-73.96
X132.25Y-80.
X133.Y-86.6
X135.75Y-79.5
X145.4Y-69.35
X147.759Y-70.459
X148.6Y-65.5
X150.15Y-68.475
X152.5Y-71.4
X152.7Y-74.526
T2
X118.364Y-82.321
X118.364Y-83.82
T3
X98.871Y-62.234
X98.871Y-64.774
X101.411Y-62.234
X101.411Y-64.774
X101.472Y-69.338
X101.472Y-71.878
X101.472Y-74.418
X101.472Y-76.958
X102.108Y-91.948
X102.108Y-94.488
X103.951Y-62.234
X103.951Y-64.774
X105.Y-101.46
X105.Y-104.
X106.172Y-79.756
X106.172Y-82.296
X106.491Y-62.234
X106.491Y-64.774
X109.031Y-62.234
X109.031Y-64.774
X111.571Y-62.234
X111.571Y-64.774
X114.111Y-62.234
X114.111Y-64.774
X114.3Y-105.41
X116.651Y-62.234
X116.651Y-64.774
X116.84Y-105.41
X119.191Y-62.234
X119.191Y-64.774
X119.38Y-105.41
X121.731Y-62.234
X121.731Y-64.774
X121.92Y-105.41
X124.271Y-62.234
X124.271Y-64.774
X124.46Y-105.41
X126.811Y-62.234
X126.811Y-64.774
X127.Y-105.41
X129.351Y-62.234
X129.351Y-64.774
X129.54Y-105.41
X131.891Y-62.234
X131.891Y-64.774
X132.08Y-105.41
X134.431Y-62.234
X134.431Y-64.774
X136.5Y-81.92
X136.5Y-84.46
X136.5Y-87.
X136.5Y-89.54
X136.971Y-62.234
X136.971Y-64.774
X138.6Y-111.46
X138.6Y-114.
X139.04Y-81.92
X139.04Y-84.46
X139.04Y-87.
X139.04Y-89.54
X139.511Y-62.234
X139.511Y-64.774
X141.Y-69.
X141.Y-71.54
X142.051Y-62.234
X142.051Y-64.774
X144.591Y-62.234
X144.591Y-64.774
X147.131Y-62.234
X147.131Y-64.774
T4
X100.Y-111.
X105.Y-111.
T5
X94.001Y-63.504
X94.001Y-112.504
X152.001Y-63.504
X152.001Y-112.504
T0
M30
