G04 #@! TF.FileFunction,Paste,Top*
%FSLAX46Y46*%
G04 Gerber Fmt 4.6, Leading zero omitted, Abs format (unit mm)*
G04 Created by KiCad (PCBNEW 4.0.2+e4-6225~38~ubuntu15.04.1-stable) date Fri 21 Oct 2016 22:21:09 ACDT*
%MOMM*%
G01*
G04 APERTURE LIST*
%ADD10C,0.100000*%
%ADD11R,1.250000X1.000000*%
%ADD12R,1.000000X1.250000*%
%ADD13R,1.198880X1.198880*%
%ADD14R,1.600000X3.500000*%
%ADD15R,0.800100X0.800100*%
%ADD16R,0.700000X1.300000*%
%ADD17R,1.300000X0.700000*%
%ADD18R,1.100000X1.800000*%
%ADD19R,0.508000X1.143000*%
%ADD20R,1.000760X0.690880*%
%ADD21R,1.501140X1.000760*%
%ADD22R,2.999740X1.998980*%
%ADD23R,0.450000X1.450000*%
G04 APERTURE END LIST*
D10*
D11*
X153728000Y-71482000D03*
X153728000Y-73482000D03*
D12*
X111644000Y-107760000D03*
X109644000Y-107760000D03*
X109644000Y-109792000D03*
X111644000Y-109792000D03*
X103616000Y-98044000D03*
X101616000Y-98044000D03*
D11*
X116332000Y-74184000D03*
X116332000Y-76184000D03*
X111268000Y-92472000D03*
X111268000Y-94472000D03*
D12*
X118348000Y-80264000D03*
X116348000Y-80264000D03*
X118348000Y-85852000D03*
X116348000Y-85852000D03*
D11*
X118364000Y-76184000D03*
X118364000Y-74184000D03*
X128016000Y-77466000D03*
X128016000Y-79466000D03*
D12*
X123000000Y-70612000D03*
X125000000Y-70612000D03*
D13*
X121028000Y-84010980D03*
X121028000Y-86109020D03*
X124584000Y-84010980D03*
X124584000Y-86109020D03*
D14*
X98561600Y-102000000D03*
X103438400Y-102000000D03*
D15*
X94950000Y-104999240D03*
X93050000Y-104999240D03*
X94000000Y-106998220D03*
X97094000Y-92440760D03*
X98994000Y-92440760D03*
X98044000Y-90441780D03*
X98994000Y-85867240D03*
X97094000Y-85867240D03*
X98044000Y-87866220D03*
X108219240Y-97094000D03*
X108219240Y-98994000D03*
X110218220Y-98044000D03*
X114808000Y-98260000D03*
X114808000Y-96360000D03*
X112809020Y-97310000D03*
D16*
X144142000Y-71466000D03*
X146042000Y-71466000D03*
X144142000Y-73498000D03*
X146042000Y-73498000D03*
X144142000Y-69434000D03*
X146042000Y-69434000D03*
X97050000Y-98000000D03*
X98950000Y-98000000D03*
X94950000Y-98000000D03*
X93050000Y-98000000D03*
X98994000Y-94488000D03*
X97094000Y-94488000D03*
X124150000Y-95850000D03*
X122250000Y-95850000D03*
D17*
X128800000Y-94596000D03*
X128800000Y-96496000D03*
X126260000Y-94596000D03*
X126260000Y-96496000D03*
D16*
X108778000Y-79756000D03*
X110678000Y-79756000D03*
D17*
X121028000Y-88174000D03*
X121028000Y-90074000D03*
X106172000Y-98994000D03*
X106172000Y-97094000D03*
X124584000Y-88174000D03*
X124584000Y-90074000D03*
D18*
X113610000Y-70560000D03*
X113610000Y-76760000D03*
X109910000Y-70560000D03*
X109910000Y-76760000D03*
D19*
X147759000Y-69307000D03*
X149029000Y-69307000D03*
X150299000Y-69307000D03*
X151569000Y-69307000D03*
X151569000Y-75657000D03*
X150299000Y-75657000D03*
X149029000Y-75657000D03*
X147759000Y-75657000D03*
D20*
X95300480Y-101949960D03*
X95300480Y-101000000D03*
X95300480Y-100050040D03*
X92699520Y-100050040D03*
X92699520Y-101000000D03*
X92699520Y-101949960D03*
D21*
X109039660Y-94973140D03*
X109039660Y-93472000D03*
X109039660Y-91970860D03*
D22*
X106088180Y-93472000D03*
D10*
G36*
X107562650Y-92471240D02*
X108311950Y-92971620D01*
X108311950Y-93972380D01*
X107562650Y-94472760D01*
X107562650Y-92471240D01*
X107562650Y-92471240D01*
G37*
D23*
X120519000Y-80166000D03*
X121169000Y-80166000D03*
X121819000Y-80166000D03*
X122469000Y-80166000D03*
X123119000Y-80166000D03*
X123769000Y-80166000D03*
X124419000Y-80166000D03*
X125069000Y-80166000D03*
X125719000Y-80166000D03*
X126369000Y-80166000D03*
X126369000Y-74266000D03*
X125719000Y-74266000D03*
X125069000Y-74266000D03*
X124419000Y-74266000D03*
X123769000Y-74266000D03*
X123119000Y-74266000D03*
X122469000Y-74266000D03*
X121819000Y-74266000D03*
X121169000Y-74266000D03*
X120519000Y-74266000D03*
D21*
X109320000Y-100894860D03*
X109320000Y-102396000D03*
X109320000Y-103897140D03*
D22*
X112271480Y-102396000D03*
D10*
G36*
X110797010Y-103396760D02*
X110047710Y-102896380D01*
X110047710Y-101895620D01*
X110797010Y-101395240D01*
X110797010Y-103396760D01*
X110797010Y-103396760D01*
G37*
M02*
