G04 #@! TF.FileFunction,Soldermask,Top*
%FSLAX46Y46*%
G04 Gerber Fmt 4.6, Leading zero omitted, Abs format (unit mm)*
G04 Created by KiCad (PCBNEW 4.0.2+e4-6225~38~ubuntu15.04.1-stable) date Fri 21 Oct 2016 22:40:54 ACDT*
%MOMM*%
G01*
G04 APERTURE LIST*
%ADD10C,0.100000*%
%ADD11R,1.650000X1.400000*%
%ADD12R,1.400000X1.650000*%
%ADD13R,1.598880X1.598880*%
%ADD14R,2.000000X3.900000*%
%ADD15R,2.127200X2.127200*%
%ADD16O,2.127200X2.127200*%
%ADD17C,6.250000*%
%ADD18R,1.400000X2.400000*%
%ADD19R,1.600000X2.600000*%
%ADD20R,2.900000X2.900000*%
%ADD21C,2.900000*%
%ADD22R,2.127200X2.432000*%
%ADD23O,2.127200X2.432000*%
%ADD24R,2.432000X2.127200*%
%ADD25O,2.432000X2.127200*%
%ADD26R,2.432000X2.432000*%
%ADD27O,2.432000X2.432000*%
%ADD28R,1.200100X1.200100*%
%ADD29R,1.100000X1.700000*%
%ADD30R,1.700000X1.100000*%
%ADD31R,1.500000X2.200000*%
%ADD32R,0.908000X1.543000*%
%ADD33R,1.400760X1.090880*%
%ADD34R,1.901140X1.400760*%
%ADD35R,3.399740X2.398980*%
%ADD36R,0.850000X1.850000*%
%ADD37C,1.400760*%
G04 APERTURE END LIST*
D10*
D11*
X153728000Y-71482000D03*
X153728000Y-73482000D03*
D12*
X111644000Y-107760000D03*
X109644000Y-107760000D03*
X109644000Y-109792000D03*
X111644000Y-109792000D03*
X103616000Y-98044000D03*
X101616000Y-98044000D03*
D11*
X116332000Y-74184000D03*
X116332000Y-76184000D03*
X111268000Y-92472000D03*
X111268000Y-94472000D03*
D12*
X118348000Y-80264000D03*
X116348000Y-80264000D03*
X118348000Y-85852000D03*
X116348000Y-85852000D03*
D11*
X118364000Y-76184000D03*
X118364000Y-74184000D03*
X128016000Y-77466000D03*
X128016000Y-79466000D03*
D12*
X123000000Y-70612000D03*
X125000000Y-70612000D03*
D13*
X121028000Y-84010980D03*
X121028000Y-86109020D03*
X124584000Y-84010980D03*
X124584000Y-86109020D03*
D14*
X97561600Y-103000000D03*
X102438400Y-103000000D03*
D15*
X98871100Y-64773600D03*
D16*
X98871100Y-62233600D03*
X101411100Y-64773600D03*
X101411100Y-62233600D03*
X103951100Y-64773600D03*
X103951100Y-62233600D03*
X106491100Y-64773600D03*
X106491100Y-62233600D03*
X109031100Y-64773600D03*
X109031100Y-62233600D03*
X111571100Y-64773600D03*
X111571100Y-62233600D03*
X114111100Y-64773600D03*
X114111100Y-62233600D03*
X116651100Y-64773600D03*
X116651100Y-62233600D03*
X119191100Y-64773600D03*
X119191100Y-62233600D03*
X121731100Y-64773600D03*
X121731100Y-62233600D03*
X124271100Y-64773600D03*
X124271100Y-62233600D03*
X126811100Y-64773600D03*
X126811100Y-62233600D03*
X129351100Y-64773600D03*
X129351100Y-62233600D03*
X131891100Y-64773600D03*
X131891100Y-62233600D03*
X134431100Y-64773600D03*
X134431100Y-62233600D03*
X136971100Y-64773600D03*
X136971100Y-62233600D03*
X139511100Y-64773600D03*
X139511100Y-62233600D03*
X142051100Y-64773600D03*
X142051100Y-62233600D03*
X144591100Y-64773600D03*
X144591100Y-62233600D03*
X147131100Y-64773600D03*
X147131100Y-62233600D03*
D17*
X94001100Y-63503600D03*
X152001100Y-63503600D03*
X94001100Y-112503600D03*
X152001100Y-112503600D03*
D18*
X118200000Y-95800000D03*
D19*
X119400000Y-95800000D03*
D18*
X120600000Y-95800000D03*
D20*
X100000000Y-111000000D03*
D21*
X105000000Y-111000000D03*
D22*
X121920000Y-105410000D03*
D23*
X119380000Y-105410000D03*
X116840000Y-105410000D03*
X114300000Y-105410000D03*
D22*
X132080000Y-105410000D03*
D23*
X129540000Y-105410000D03*
X127000000Y-105410000D03*
X124460000Y-105410000D03*
D24*
X101472000Y-69338000D03*
D25*
X101472000Y-71878000D03*
X101472000Y-74418000D03*
X101472000Y-76958000D03*
D18*
X131000000Y-95800000D03*
D19*
X132200000Y-95800000D03*
D18*
X133400000Y-95800000D03*
X127600000Y-92000000D03*
D19*
X128800000Y-92000000D03*
D18*
X130000000Y-92000000D03*
D26*
X141000000Y-71540000D03*
D27*
X141000000Y-69000000D03*
D26*
X106172000Y-79756000D03*
D27*
X106172000Y-82296000D03*
D15*
X139040000Y-89540000D03*
D16*
X136500000Y-89540000D03*
X139040000Y-87000000D03*
X136500000Y-87000000D03*
X139040000Y-84460000D03*
X136500000Y-84460000D03*
X139040000Y-81920000D03*
X136500000Y-81920000D03*
D28*
X94950000Y-104999240D03*
X93050000Y-104999240D03*
X94000000Y-106998220D03*
X97094000Y-92440760D03*
X98994000Y-92440760D03*
X98044000Y-90441780D03*
X98994000Y-85867240D03*
X97094000Y-85867240D03*
X98044000Y-87866220D03*
X108219240Y-97094000D03*
X108219240Y-98994000D03*
X110218220Y-98044000D03*
X114808000Y-98260000D03*
X114808000Y-96360000D03*
X112809020Y-97310000D03*
D29*
X144142000Y-71466000D03*
X146042000Y-71466000D03*
X144142000Y-73498000D03*
X146042000Y-73498000D03*
X144142000Y-69434000D03*
X146042000Y-69434000D03*
X97050000Y-98000000D03*
X98950000Y-98000000D03*
X94950000Y-98000000D03*
X93050000Y-98000000D03*
X98994000Y-94488000D03*
X97094000Y-94488000D03*
X124150000Y-95850000D03*
X122250000Y-95850000D03*
D30*
X128800000Y-94596000D03*
X128800000Y-96496000D03*
X126260000Y-94596000D03*
X126260000Y-96496000D03*
D29*
X108778000Y-79756000D03*
X110678000Y-79756000D03*
D30*
X121028000Y-88174000D03*
X121028000Y-90074000D03*
X106172000Y-98994000D03*
X106172000Y-97094000D03*
X124584000Y-88174000D03*
X124584000Y-90074000D03*
D31*
X113610000Y-70560000D03*
X113610000Y-76760000D03*
X109910000Y-70560000D03*
X109910000Y-76760000D03*
D32*
X147759000Y-69307000D03*
X149029000Y-69307000D03*
X150299000Y-69307000D03*
X151569000Y-69307000D03*
X151569000Y-75657000D03*
X150299000Y-75657000D03*
X149029000Y-75657000D03*
X147759000Y-75657000D03*
D33*
X95300480Y-101949960D03*
X95300480Y-101000000D03*
X95300480Y-100050040D03*
X92699520Y-100050040D03*
X92699520Y-101000000D03*
X92699520Y-101949960D03*
D34*
X109039660Y-94973140D03*
X109039660Y-93472000D03*
X109039660Y-91970860D03*
D35*
X106088180Y-93472000D03*
D10*
G36*
X107362650Y-92271240D02*
X108511950Y-92771620D01*
X108511950Y-94172380D01*
X107362650Y-94672760D01*
X107362650Y-92271240D01*
X107362650Y-92271240D01*
G37*
D36*
X120519000Y-80166000D03*
X121169000Y-80166000D03*
X121819000Y-80166000D03*
X122469000Y-80166000D03*
X123119000Y-80166000D03*
X123769000Y-80166000D03*
X124419000Y-80166000D03*
X125069000Y-80166000D03*
X125719000Y-80166000D03*
X126369000Y-80166000D03*
X126369000Y-74266000D03*
X125719000Y-74266000D03*
X125069000Y-74266000D03*
X124419000Y-74266000D03*
X123769000Y-74266000D03*
X123119000Y-74266000D03*
X122469000Y-74266000D03*
X121819000Y-74266000D03*
X121169000Y-74266000D03*
X120519000Y-74266000D03*
D34*
X108070000Y-100894860D03*
X108070000Y-102396000D03*
X108070000Y-103897140D03*
D35*
X111021480Y-102396000D03*
D10*
G36*
X109747010Y-103596760D02*
X108597710Y-103096380D01*
X108597710Y-101695620D01*
X109747010Y-101195240D01*
X109747010Y-103596760D01*
X109747010Y-103596760D01*
G37*
D37*
X118364000Y-83820000D03*
X118364000Y-82321400D03*
D26*
X105000000Y-104000000D03*
D27*
X105000000Y-101460000D03*
D26*
X102108000Y-94488000D03*
D27*
X102108000Y-91948000D03*
D26*
X138600000Y-111460000D03*
D27*
X138600000Y-114000000D03*
M02*
