G04 #@! TF.FileFunction,Paste,Top*
%FSLAX46Y46*%
G04 Gerber Fmt 4.6, Leading zero omitted, Abs format (unit mm)*
G04 Created by KiCad (PCBNEW 4.0.2+e4-6225~38~ubuntu15.04.1-stable) date Sat 22 Oct 2016 20:53:22 ACDT*
%MOMM*%
G01*
G04 APERTURE LIST*
%ADD10C,0.100000*%
%ADD11R,1.250000X1.000000*%
%ADD12R,1.000000X1.250000*%
%ADD13R,1.198880X1.198880*%
%ADD14R,1.600000X3.500000*%
%ADD15R,0.800100X0.800100*%
%ADD16R,0.700000X1.300000*%
%ADD17R,1.300000X0.700000*%
%ADD18R,1.100000X1.800000*%
%ADD19R,0.508000X1.143000*%
%ADD20R,1.000760X0.690880*%
%ADD21R,1.501140X1.000760*%
%ADD22R,2.999740X1.998980*%
%ADD23R,0.450000X1.450000*%
G04 APERTURE END LIST*
D10*
D11*
X153228000Y-71482000D03*
X153228000Y-73482000D03*
D12*
X111144000Y-107760000D03*
X109144000Y-107760000D03*
X109144000Y-109792000D03*
X111144000Y-109792000D03*
X103116000Y-98044000D03*
X101116000Y-98044000D03*
D11*
X115832000Y-74184000D03*
X115832000Y-76184000D03*
X110768000Y-92472000D03*
X110768000Y-94472000D03*
D12*
X117848000Y-80264000D03*
X115848000Y-80264000D03*
X117848000Y-85852000D03*
X115848000Y-85852000D03*
D11*
X117864000Y-76184000D03*
X117864000Y-74184000D03*
X127516000Y-77466000D03*
X127516000Y-79466000D03*
D12*
X122500000Y-71500000D03*
X124500000Y-71500000D03*
D13*
X120528000Y-84010980D03*
X120528000Y-86109020D03*
X124084000Y-84010980D03*
X124084000Y-86109020D03*
D14*
X97061600Y-103000000D03*
X101938400Y-103000000D03*
D15*
X94450000Y-104999240D03*
X92550000Y-104999240D03*
X93500000Y-106998220D03*
X96594000Y-92440760D03*
X98494000Y-92440760D03*
X97544000Y-90441780D03*
X98494000Y-85867240D03*
X96594000Y-85867240D03*
X97544000Y-87866220D03*
X107719240Y-97094000D03*
X107719240Y-98994000D03*
X109718220Y-98044000D03*
X114308000Y-98260000D03*
X114308000Y-96360000D03*
X112309020Y-97310000D03*
D16*
X143642000Y-71466000D03*
X145542000Y-71466000D03*
X143642000Y-73498000D03*
X145542000Y-73498000D03*
X143642000Y-69434000D03*
X145542000Y-69434000D03*
X96550000Y-98000000D03*
X98450000Y-98000000D03*
X94450000Y-98000000D03*
X92550000Y-98000000D03*
X98494000Y-94488000D03*
X96594000Y-94488000D03*
X123650000Y-95850000D03*
X121750000Y-95850000D03*
D17*
X128300000Y-94596000D03*
X128300000Y-96496000D03*
X125760000Y-94596000D03*
X125760000Y-96496000D03*
D16*
X108278000Y-79756000D03*
X110178000Y-79756000D03*
D17*
X120528000Y-88174000D03*
X120528000Y-90074000D03*
X105672000Y-98994000D03*
X105672000Y-97094000D03*
X124084000Y-88174000D03*
X124084000Y-90074000D03*
D18*
X113110000Y-70560000D03*
X113110000Y-76760000D03*
X109410000Y-70560000D03*
X109410000Y-76760000D03*
D19*
X147259000Y-69307000D03*
X148529000Y-69307000D03*
X149799000Y-69307000D03*
X151069000Y-69307000D03*
X151069000Y-75657000D03*
X149799000Y-75657000D03*
X148529000Y-75657000D03*
X147259000Y-75657000D03*
D20*
X94800480Y-101949960D03*
X94800480Y-101000000D03*
X94800480Y-100050040D03*
X92199520Y-100050040D03*
X92199520Y-101000000D03*
X92199520Y-101949960D03*
D21*
X108539660Y-94973140D03*
X108539660Y-93472000D03*
X108539660Y-91970860D03*
D22*
X105588180Y-93472000D03*
D10*
G36*
X107062650Y-92471240D02*
X107811950Y-92971620D01*
X107811950Y-93972380D01*
X107062650Y-94472760D01*
X107062650Y-92471240D01*
X107062650Y-92471240D01*
G37*
D23*
X120019000Y-80166000D03*
X120669000Y-80166000D03*
X121319000Y-80166000D03*
X121969000Y-80166000D03*
X122619000Y-80166000D03*
X123269000Y-80166000D03*
X123919000Y-80166000D03*
X124569000Y-80166000D03*
X125219000Y-80166000D03*
X125869000Y-80166000D03*
X125869000Y-74266000D03*
X125219000Y-74266000D03*
X124569000Y-74266000D03*
X123919000Y-74266000D03*
X123269000Y-74266000D03*
X122619000Y-74266000D03*
X121969000Y-74266000D03*
X121319000Y-74266000D03*
X120669000Y-74266000D03*
X120019000Y-74266000D03*
D21*
X107570000Y-100894860D03*
X107570000Y-102396000D03*
X107570000Y-103897140D03*
D22*
X110521480Y-102396000D03*
D10*
G36*
X109047010Y-103396760D02*
X108297710Y-102896380D01*
X108297710Y-101895620D01*
X109047010Y-101395240D01*
X109047010Y-103396760D01*
X109047010Y-103396760D01*
G37*
M02*
