G04 #@! TF.FileFunction,Copper,L2,Bot,Signal*
%FSLAX46Y46*%
G04 Gerber Fmt 4.6, Leading zero omitted, Abs format (unit mm)*
G04 Created by KiCad (PCBNEW 4.0.2+e4-6225~38~ubuntu15.04.1-stable) date Fri 21 Oct 2016 22:40:54 ACDT*
%MOMM*%
G01*
G04 APERTURE LIST*
%ADD10C,0.100000*%
%ADD11R,1.727200X1.727200*%
%ADD12O,1.727200X1.727200*%
%ADD13R,2.500000X2.500000*%
%ADD14C,2.500000*%
%ADD15R,1.727200X2.032000*%
%ADD16O,1.727200X2.032000*%
%ADD17R,2.032000X1.727200*%
%ADD18O,2.032000X1.727200*%
%ADD19R,2.032000X2.032000*%
%ADD20O,2.032000X2.032000*%
%ADD21C,1.000760*%
%ADD22C,0.600000*%
%ADD23C,1.000000*%
%ADD24C,0.250000*%
%ADD25C,0.200000*%
G04 APERTURE END LIST*
D10*
D11*
X98871100Y-64773600D03*
D12*
X98871100Y-62233600D03*
X101411100Y-64773600D03*
X101411100Y-62233600D03*
X103951100Y-64773600D03*
X103951100Y-62233600D03*
X106491100Y-64773600D03*
X106491100Y-62233600D03*
X109031100Y-64773600D03*
X109031100Y-62233600D03*
X111571100Y-64773600D03*
X111571100Y-62233600D03*
X114111100Y-64773600D03*
X114111100Y-62233600D03*
X116651100Y-64773600D03*
X116651100Y-62233600D03*
X119191100Y-64773600D03*
X119191100Y-62233600D03*
X121731100Y-64773600D03*
X121731100Y-62233600D03*
X124271100Y-64773600D03*
X124271100Y-62233600D03*
X126811100Y-64773600D03*
X126811100Y-62233600D03*
X129351100Y-64773600D03*
X129351100Y-62233600D03*
X131891100Y-64773600D03*
X131891100Y-62233600D03*
X134431100Y-64773600D03*
X134431100Y-62233600D03*
X136971100Y-64773600D03*
X136971100Y-62233600D03*
X139511100Y-64773600D03*
X139511100Y-62233600D03*
X142051100Y-64773600D03*
X142051100Y-62233600D03*
X144591100Y-64773600D03*
X144591100Y-62233600D03*
X147131100Y-64773600D03*
X147131100Y-62233600D03*
D13*
X100000000Y-111000000D03*
D14*
X105000000Y-111000000D03*
D15*
X121920000Y-105410000D03*
D16*
X119380000Y-105410000D03*
X116840000Y-105410000D03*
X114300000Y-105410000D03*
D15*
X132080000Y-105410000D03*
D16*
X129540000Y-105410000D03*
X127000000Y-105410000D03*
X124460000Y-105410000D03*
D17*
X101472000Y-69338000D03*
D18*
X101472000Y-71878000D03*
X101472000Y-74418000D03*
X101472000Y-76958000D03*
D19*
X141000000Y-71540000D03*
D20*
X141000000Y-69000000D03*
D19*
X106172000Y-79756000D03*
D20*
X106172000Y-82296000D03*
D11*
X139040000Y-89540000D03*
D12*
X136500000Y-89540000D03*
X139040000Y-87000000D03*
X136500000Y-87000000D03*
X139040000Y-84460000D03*
X136500000Y-84460000D03*
X139040000Y-81920000D03*
X136500000Y-81920000D03*
D21*
X118364000Y-83820000D03*
X118364000Y-82321400D03*
D19*
X105000000Y-104000000D03*
D20*
X105000000Y-101460000D03*
D19*
X102108000Y-94488000D03*
D20*
X102108000Y-91948000D03*
D19*
X138600000Y-111460000D03*
D20*
X138600000Y-114000000D03*
D22*
X152500000Y-71400000D03*
X147759000Y-70459000D03*
X126200000Y-97400000D03*
X124387675Y-72612771D03*
X109150000Y-100400000D03*
X152700000Y-74526000D03*
X129000000Y-79500000D03*
X117250000Y-74250000D03*
X111000000Y-70500000D03*
X111000000Y-76750000D03*
X111500000Y-79750000D03*
X116250000Y-83250000D03*
X122850000Y-89950000D03*
X110150000Y-107000000D03*
X115750000Y-96450000D03*
X97000000Y-84750000D03*
X96000000Y-98000000D03*
X112250000Y-94500000D03*
X101500000Y-97000000D03*
X111650000Y-106750000D03*
X115000000Y-76760000D03*
X119200000Y-77600000D03*
X135750000Y-79500000D03*
X132250000Y-80000000D03*
X120250000Y-76184000D03*
X108208101Y-85728445D03*
X104800000Y-85704026D03*
X101800000Y-85704026D03*
X99749990Y-85704026D03*
X116864558Y-92231747D03*
X119104292Y-91176626D03*
X104800000Y-84400000D03*
X107400000Y-84400000D03*
X131313203Y-73960171D03*
X131000000Y-88250000D03*
X127688259Y-86137088D03*
X125500000Y-63500000D03*
X126000000Y-68000000D03*
X130000000Y-71750000D03*
X145400000Y-69350000D03*
X148600000Y-65500000D03*
X150150000Y-68475010D03*
X126000000Y-92000000D03*
X133000000Y-86600000D03*
X113400000Y-78600000D03*
X116597287Y-78816941D03*
X94250000Y-102250000D03*
X94250000Y-105000000D03*
D23*
X147759000Y-70459000D02*
X151559000Y-70459000D01*
X151559000Y-70459000D02*
X152500000Y-71400000D01*
X131648759Y-107747649D02*
X131758351Y-107747649D01*
X131758351Y-107747649D02*
X132080000Y-107426000D01*
X132080000Y-107426000D02*
X132080000Y-105410000D01*
X131648759Y-107747649D02*
X132073023Y-107747649D01*
X112647649Y-107747649D02*
X131648759Y-107747649D01*
X111650000Y-106750000D02*
X112647649Y-107747649D01*
D24*
X115840000Y-77600000D02*
X115000000Y-76760000D01*
X119200000Y-77600000D02*
X115840000Y-77600000D01*
D23*
X132750000Y-79500000D02*
X135750000Y-79500000D01*
X132250000Y-80000000D02*
X132750000Y-79500000D01*
X106172000Y-82296000D02*
X106500000Y-82624000D01*
D24*
X108183682Y-85704026D02*
X108208101Y-85728445D01*
X104800000Y-85704026D02*
X108183682Y-85704026D01*
X99749990Y-85704026D02*
X101800000Y-85704026D01*
X117164557Y-91931748D02*
X116864558Y-92231747D01*
X117919679Y-91176626D02*
X117164557Y-91931748D01*
X119104292Y-91176626D02*
X117919679Y-91176626D01*
X107400000Y-84400000D02*
X104800000Y-84400000D01*
X131013204Y-74260170D02*
X131313203Y-73960171D01*
X131000000Y-74273374D02*
X131013204Y-74260170D01*
X131000000Y-88250000D02*
X131000000Y-74273374D01*
X127988258Y-85837089D02*
X127688259Y-86137088D01*
X130000000Y-83825347D02*
X127988258Y-85837089D01*
X130000000Y-71750000D02*
X130000000Y-83825347D01*
X126000000Y-68000000D02*
X125500000Y-67500000D01*
X125500000Y-67500000D02*
X125500000Y-65221630D01*
X125500000Y-65221630D02*
X125500000Y-63500000D01*
X145400000Y-69350000D02*
X145400000Y-67550000D01*
X145400000Y-67550000D02*
X143812201Y-65962201D01*
X143812201Y-65962201D02*
X133079701Y-65962201D01*
X133079701Y-65962201D02*
X131891100Y-64773600D01*
X148600000Y-65500000D02*
X148600000Y-66925010D01*
X148600000Y-66925010D02*
X150150000Y-68475010D01*
X132700001Y-88299999D02*
X129000000Y-92000000D01*
X129000000Y-92000000D02*
X126000000Y-92000000D01*
X133000000Y-86600000D02*
X132700001Y-86899999D01*
X132700001Y-86899999D02*
X132700001Y-88299999D01*
X116597287Y-78816941D02*
X113616941Y-78816941D01*
X113616941Y-78816941D02*
X113400000Y-78600000D01*
X94250000Y-105000000D02*
X94250000Y-102250000D01*
D25*
G36*
X150176671Y-60767984D02*
X149268673Y-61674399D01*
X148776662Y-62859294D01*
X148775542Y-64142278D01*
X149265484Y-65328029D01*
X150171899Y-66236027D01*
X151356794Y-66728038D01*
X152639778Y-66729158D01*
X153825529Y-66239216D01*
X154733527Y-65332801D01*
X155150000Y-64329822D01*
X155150000Y-111679395D01*
X154736716Y-110679171D01*
X153830301Y-109771173D01*
X152645406Y-109279162D01*
X151362422Y-109278042D01*
X150176671Y-109767984D01*
X149268673Y-110674399D01*
X148776662Y-111859294D01*
X148775542Y-113142278D01*
X149265484Y-114328029D01*
X150171899Y-115236027D01*
X151168857Y-115650000D01*
X94831355Y-115650000D01*
X95825529Y-115239216D01*
X96733527Y-114332801D01*
X96871717Y-114000000D01*
X137207238Y-114000000D01*
X137311219Y-114522746D01*
X137607330Y-114965908D01*
X138050492Y-115262019D01*
X138573238Y-115366000D01*
X138626762Y-115366000D01*
X139149508Y-115262019D01*
X139592670Y-114965908D01*
X139888781Y-114522746D01*
X139992762Y-114000000D01*
X139888781Y-113477254D01*
X139592670Y-113034092D01*
X139291499Y-112832856D01*
X139616000Y-112832856D01*
X139745702Y-112808451D01*
X139864825Y-112731797D01*
X139944741Y-112614837D01*
X139972856Y-112476000D01*
X139972856Y-110444000D01*
X139948451Y-110314298D01*
X139871797Y-110195175D01*
X139754837Y-110115259D01*
X139616000Y-110087144D01*
X137584000Y-110087144D01*
X137454298Y-110111549D01*
X137335175Y-110188203D01*
X137255259Y-110305163D01*
X137227144Y-110444000D01*
X137227144Y-112476000D01*
X137251549Y-112605702D01*
X137328203Y-112724825D01*
X137445163Y-112804741D01*
X137584000Y-112832856D01*
X137908501Y-112832856D01*
X137607330Y-113034092D01*
X137311219Y-113477254D01*
X137207238Y-114000000D01*
X96871717Y-114000000D01*
X97225538Y-113147906D01*
X97226658Y-111864922D01*
X96736716Y-110679171D01*
X95830301Y-109771173D01*
X95779311Y-109750000D01*
X98393144Y-109750000D01*
X98393144Y-112250000D01*
X98417549Y-112379702D01*
X98494203Y-112498825D01*
X98611163Y-112578741D01*
X98750000Y-112606856D01*
X101250000Y-112606856D01*
X101379702Y-112582451D01*
X101498825Y-112505797D01*
X101578741Y-112388837D01*
X101606856Y-112250000D01*
X101606856Y-112192565D01*
X104019567Y-112192565D01*
X104166534Y-112402363D01*
X104766639Y-112614568D01*
X105402271Y-112580970D01*
X105833466Y-112402363D01*
X105980433Y-112192565D01*
X105000000Y-111212132D01*
X104019567Y-112192565D01*
X101606856Y-112192565D01*
X101606856Y-110766639D01*
X103385432Y-110766639D01*
X103419030Y-111402271D01*
X103597637Y-111833466D01*
X103807435Y-111980433D01*
X104787868Y-111000000D01*
X105212132Y-111000000D01*
X106192565Y-111980433D01*
X106402363Y-111833466D01*
X106614568Y-111233361D01*
X106580970Y-110597729D01*
X106402363Y-110166534D01*
X106192565Y-110019567D01*
X105212132Y-111000000D01*
X104787868Y-111000000D01*
X103807435Y-110019567D01*
X103597637Y-110166534D01*
X103385432Y-110766639D01*
X101606856Y-110766639D01*
X101606856Y-109807435D01*
X104019567Y-109807435D01*
X105000000Y-110787868D01*
X105980433Y-109807435D01*
X105833466Y-109597637D01*
X105233361Y-109385432D01*
X104597729Y-109419030D01*
X104166534Y-109597637D01*
X104019567Y-109807435D01*
X101606856Y-109807435D01*
X101606856Y-109750000D01*
X101582451Y-109620298D01*
X101505797Y-109501175D01*
X101388837Y-109421259D01*
X101250000Y-109393144D01*
X98750000Y-109393144D01*
X98620298Y-109417549D01*
X98501175Y-109494203D01*
X98421259Y-109611163D01*
X98393144Y-109750000D01*
X95779311Y-109750000D01*
X94645406Y-109279162D01*
X93362422Y-109278042D01*
X92176671Y-109767984D01*
X91268673Y-110674399D01*
X90850000Y-111682676D01*
X90850000Y-106750000D01*
X110800000Y-106750000D01*
X110864702Y-107075281D01*
X111048959Y-107351041D01*
X112046608Y-108348690D01*
X112322368Y-108532947D01*
X112647649Y-108597650D01*
X112647654Y-108597649D01*
X132073023Y-108597649D01*
X132398304Y-108532947D01*
X132674064Y-108348690D01*
X132858321Y-108072930D01*
X132923023Y-107747649D01*
X132894522Y-107604362D01*
X132930000Y-107426000D01*
X132930000Y-106782856D01*
X132943600Y-106782856D01*
X133073302Y-106758451D01*
X133192425Y-106681797D01*
X133272341Y-106564837D01*
X133300456Y-106426000D01*
X133300456Y-104394000D01*
X133276051Y-104264298D01*
X133199397Y-104145175D01*
X133082437Y-104065259D01*
X132943600Y-104037144D01*
X131216400Y-104037144D01*
X131086698Y-104061549D01*
X130967575Y-104138203D01*
X130887659Y-104255163D01*
X130859544Y-104394000D01*
X130859544Y-106426000D01*
X130883949Y-106555702D01*
X130960603Y-106674825D01*
X131077563Y-106754741D01*
X131216400Y-106782856D01*
X131230000Y-106782856D01*
X131230000Y-106897649D01*
X112999731Y-106897649D01*
X112251041Y-106148959D01*
X111975281Y-105964702D01*
X111650000Y-105900000D01*
X111324719Y-105964702D01*
X111048959Y-106148959D01*
X110864702Y-106424719D01*
X110800000Y-106750000D01*
X90850000Y-106750000D01*
X90850000Y-105749902D01*
X113100820Y-105749902D01*
X113263856Y-106194536D01*
X113584636Y-106542933D01*
X113963454Y-106728402D01*
X114150000Y-106678465D01*
X114150000Y-105560000D01*
X114450000Y-105560000D01*
X114450000Y-106678465D01*
X114636546Y-106728402D01*
X115015364Y-106542933D01*
X115336144Y-106194536D01*
X115499180Y-105749902D01*
X115640820Y-105749902D01*
X115803856Y-106194536D01*
X116124636Y-106542933D01*
X116503454Y-106728402D01*
X116690000Y-106678465D01*
X116690000Y-105560000D01*
X116990000Y-105560000D01*
X116990000Y-106678465D01*
X117176546Y-106728402D01*
X117555364Y-106542933D01*
X117876144Y-106194536D01*
X118039180Y-105749902D01*
X117966248Y-105560000D01*
X116990000Y-105560000D01*
X116690000Y-105560000D01*
X115713752Y-105560000D01*
X115640820Y-105749902D01*
X115499180Y-105749902D01*
X115426248Y-105560000D01*
X114450000Y-105560000D01*
X114150000Y-105560000D01*
X113173752Y-105560000D01*
X113100820Y-105749902D01*
X90850000Y-105749902D01*
X90850000Y-102378726D01*
X93599888Y-102378726D01*
X93698636Y-102617714D01*
X93775000Y-102694212D01*
X93775000Y-104555734D01*
X93699278Y-104631324D01*
X93600113Y-104870140D01*
X93599888Y-105128726D01*
X93698636Y-105367714D01*
X93881324Y-105550722D01*
X94120140Y-105649887D01*
X94378726Y-105650112D01*
X94617714Y-105551364D01*
X94800722Y-105368676D01*
X94899887Y-105129860D01*
X94900112Y-104871274D01*
X94801364Y-104632286D01*
X94725000Y-104555788D01*
X94725000Y-102694266D01*
X94800722Y-102618676D01*
X94899887Y-102379860D01*
X94900112Y-102121274D01*
X94801364Y-101882286D01*
X94618676Y-101699278D01*
X94379860Y-101600113D01*
X94121274Y-101599888D01*
X93882286Y-101698636D01*
X93699278Y-101881324D01*
X93600113Y-102120140D01*
X93599888Y-102378726D01*
X90850000Y-102378726D01*
X90850000Y-101460000D01*
X103607238Y-101460000D01*
X103711219Y-101982746D01*
X104007330Y-102425908D01*
X104308501Y-102627144D01*
X103984000Y-102627144D01*
X103854298Y-102651549D01*
X103735175Y-102728203D01*
X103655259Y-102845163D01*
X103627144Y-102984000D01*
X103627144Y-105016000D01*
X103651549Y-105145702D01*
X103728203Y-105264825D01*
X103845163Y-105344741D01*
X103984000Y-105372856D01*
X106016000Y-105372856D01*
X106145702Y-105348451D01*
X106264825Y-105271797D01*
X106344741Y-105154837D01*
X106361900Y-105070098D01*
X113100820Y-105070098D01*
X113173752Y-105260000D01*
X114150000Y-105260000D01*
X114150000Y-104141535D01*
X114450000Y-104141535D01*
X114450000Y-105260000D01*
X115426248Y-105260000D01*
X115499180Y-105070098D01*
X115640820Y-105070098D01*
X115713752Y-105260000D01*
X116690000Y-105260000D01*
X116690000Y-104141535D01*
X116990000Y-104141535D01*
X116990000Y-105260000D01*
X117966248Y-105260000D01*
X117977447Y-105230838D01*
X118166400Y-105230838D01*
X118166400Y-105589162D01*
X118258780Y-106053587D01*
X118521855Y-106447307D01*
X118915575Y-106710382D01*
X119380000Y-106802762D01*
X119844425Y-106710382D01*
X120238145Y-106447307D01*
X120501220Y-106053587D01*
X120593600Y-105589162D01*
X120593600Y-105230838D01*
X120501220Y-104766413D01*
X120252382Y-104394000D01*
X120699544Y-104394000D01*
X120699544Y-106426000D01*
X120723949Y-106555702D01*
X120800603Y-106674825D01*
X120917563Y-106754741D01*
X121056400Y-106782856D01*
X122783600Y-106782856D01*
X122913302Y-106758451D01*
X123032425Y-106681797D01*
X123112341Y-106564837D01*
X123140456Y-106426000D01*
X123140456Y-105749902D01*
X123260820Y-105749902D01*
X123423856Y-106194536D01*
X123744636Y-106542933D01*
X124123454Y-106728402D01*
X124310000Y-106678465D01*
X124310000Y-105560000D01*
X124610000Y-105560000D01*
X124610000Y-106678465D01*
X124796546Y-106728402D01*
X125175364Y-106542933D01*
X125496144Y-106194536D01*
X125659180Y-105749902D01*
X125586248Y-105560000D01*
X124610000Y-105560000D01*
X124310000Y-105560000D01*
X123333752Y-105560000D01*
X123260820Y-105749902D01*
X123140456Y-105749902D01*
X123140456Y-105070098D01*
X123260820Y-105070098D01*
X123333752Y-105260000D01*
X124310000Y-105260000D01*
X124310000Y-104141535D01*
X124610000Y-104141535D01*
X124610000Y-105260000D01*
X125586248Y-105260000D01*
X125597447Y-105230838D01*
X125786400Y-105230838D01*
X125786400Y-105589162D01*
X125878780Y-106053587D01*
X126141855Y-106447307D01*
X126535575Y-106710382D01*
X127000000Y-106802762D01*
X127464425Y-106710382D01*
X127858145Y-106447307D01*
X128121220Y-106053587D01*
X128213600Y-105589162D01*
X128213600Y-105230838D01*
X128326400Y-105230838D01*
X128326400Y-105589162D01*
X128418780Y-106053587D01*
X128681855Y-106447307D01*
X129075575Y-106710382D01*
X129540000Y-106802762D01*
X130004425Y-106710382D01*
X130398145Y-106447307D01*
X130661220Y-106053587D01*
X130753600Y-105589162D01*
X130753600Y-105230838D01*
X130661220Y-104766413D01*
X130398145Y-104372693D01*
X130004425Y-104109618D01*
X129540000Y-104017238D01*
X129075575Y-104109618D01*
X128681855Y-104372693D01*
X128418780Y-104766413D01*
X128326400Y-105230838D01*
X128213600Y-105230838D01*
X128121220Y-104766413D01*
X127858145Y-104372693D01*
X127464425Y-104109618D01*
X127000000Y-104017238D01*
X126535575Y-104109618D01*
X126141855Y-104372693D01*
X125878780Y-104766413D01*
X125786400Y-105230838D01*
X125597447Y-105230838D01*
X125659180Y-105070098D01*
X125496144Y-104625464D01*
X125175364Y-104277067D01*
X124796546Y-104091598D01*
X124610000Y-104141535D01*
X124310000Y-104141535D01*
X124123454Y-104091598D01*
X123744636Y-104277067D01*
X123423856Y-104625464D01*
X123260820Y-105070098D01*
X123140456Y-105070098D01*
X123140456Y-104394000D01*
X123116051Y-104264298D01*
X123039397Y-104145175D01*
X122922437Y-104065259D01*
X122783600Y-104037144D01*
X121056400Y-104037144D01*
X120926698Y-104061549D01*
X120807575Y-104138203D01*
X120727659Y-104255163D01*
X120699544Y-104394000D01*
X120252382Y-104394000D01*
X120238145Y-104372693D01*
X119844425Y-104109618D01*
X119380000Y-104017238D01*
X118915575Y-104109618D01*
X118521855Y-104372693D01*
X118258780Y-104766413D01*
X118166400Y-105230838D01*
X117977447Y-105230838D01*
X118039180Y-105070098D01*
X117876144Y-104625464D01*
X117555364Y-104277067D01*
X117176546Y-104091598D01*
X116990000Y-104141535D01*
X116690000Y-104141535D01*
X116503454Y-104091598D01*
X116124636Y-104277067D01*
X115803856Y-104625464D01*
X115640820Y-105070098D01*
X115499180Y-105070098D01*
X115336144Y-104625464D01*
X115015364Y-104277067D01*
X114636546Y-104091598D01*
X114450000Y-104141535D01*
X114150000Y-104141535D01*
X113963454Y-104091598D01*
X113584636Y-104277067D01*
X113263856Y-104625464D01*
X113100820Y-105070098D01*
X106361900Y-105070098D01*
X106372856Y-105016000D01*
X106372856Y-102984000D01*
X106348451Y-102854298D01*
X106271797Y-102735175D01*
X106154837Y-102655259D01*
X106016000Y-102627144D01*
X105691499Y-102627144D01*
X105992670Y-102425908D01*
X106288781Y-101982746D01*
X106392762Y-101460000D01*
X106288781Y-100937254D01*
X105992670Y-100494092D01*
X105549508Y-100197981D01*
X105026762Y-100094000D01*
X104973238Y-100094000D01*
X104450492Y-100197981D01*
X104007330Y-100494092D01*
X103711219Y-100937254D01*
X103607238Y-101460000D01*
X90850000Y-101460000D01*
X90850000Y-97559095D01*
X90854388Y-97537034D01*
X91391422Y-97000000D01*
X134150000Y-97000000D01*
X134150000Y-112000000D01*
X134252763Y-112516623D01*
X134545406Y-112954594D01*
X134983377Y-113247237D01*
X135500000Y-113350000D01*
X136016623Y-113247237D01*
X136454594Y-112954594D01*
X136747237Y-112516623D01*
X136850000Y-112000000D01*
X136850000Y-97000000D01*
X136747237Y-96483377D01*
X136454594Y-96045406D01*
X136016623Y-95752763D01*
X135500000Y-95650000D01*
X134983377Y-95752763D01*
X134545406Y-96045406D01*
X134252763Y-96483377D01*
X134150000Y-97000000D01*
X91391422Y-97000000D01*
X91537034Y-96854388D01*
X91559095Y-96850000D01*
X95000000Y-96850000D01*
X95038906Y-96842121D01*
X95070711Y-96820711D01*
X95359268Y-96532154D01*
X95363668Y-96529214D01*
X95363671Y-96529213D01*
X95529211Y-96363673D01*
X95532155Y-96359267D01*
X95820711Y-96070711D01*
X95842650Y-96037629D01*
X95850000Y-96000000D01*
X95850000Y-91948000D01*
X100715238Y-91948000D01*
X100819219Y-92470746D01*
X101115330Y-92913908D01*
X101416501Y-93115144D01*
X101092000Y-93115144D01*
X100962298Y-93139549D01*
X100843175Y-93216203D01*
X100763259Y-93333163D01*
X100735144Y-93472000D01*
X100735144Y-95504000D01*
X100759549Y-95633702D01*
X100836203Y-95752825D01*
X100953163Y-95832741D01*
X101092000Y-95860856D01*
X103124000Y-95860856D01*
X103253702Y-95836451D01*
X103372825Y-95759797D01*
X103452741Y-95642837D01*
X103480856Y-95504000D01*
X103480856Y-93472000D01*
X103456451Y-93342298D01*
X103379797Y-93223175D01*
X103262837Y-93143259D01*
X103124000Y-93115144D01*
X102799499Y-93115144D01*
X103100670Y-92913908D01*
X103396781Y-92470746D01*
X103418715Y-92360473D01*
X116214446Y-92360473D01*
X116313194Y-92599461D01*
X116495882Y-92782469D01*
X116734698Y-92881634D01*
X116993284Y-92881859D01*
X117232272Y-92783111D01*
X117415280Y-92600423D01*
X117514445Y-92361607D01*
X117514539Y-92253518D01*
X117639331Y-92128726D01*
X125349888Y-92128726D01*
X125448636Y-92367714D01*
X125631324Y-92550722D01*
X125870140Y-92649887D01*
X126128726Y-92650112D01*
X126367714Y-92551364D01*
X126444212Y-92475000D01*
X129000000Y-92475000D01*
X129181775Y-92438843D01*
X129335876Y-92335876D01*
X132131751Y-89540000D01*
X135262624Y-89540000D01*
X135355004Y-90004425D01*
X135618079Y-90398145D01*
X136011799Y-90661220D01*
X136476224Y-90753600D01*
X136523776Y-90753600D01*
X136988201Y-90661220D01*
X137381921Y-90398145D01*
X137644996Y-90004425D01*
X137737376Y-89540000D01*
X137644996Y-89075575D01*
X137381921Y-88681855D01*
X137373758Y-88676400D01*
X137819544Y-88676400D01*
X137819544Y-90403600D01*
X137843949Y-90533302D01*
X137920603Y-90652425D01*
X138037563Y-90732341D01*
X138176400Y-90760456D01*
X139903600Y-90760456D01*
X140033302Y-90736051D01*
X140152425Y-90659397D01*
X140232341Y-90542437D01*
X140260456Y-90403600D01*
X140260456Y-88676400D01*
X140236051Y-88546698D01*
X140159397Y-88427575D01*
X140042437Y-88347659D01*
X139903600Y-88319544D01*
X138176400Y-88319544D01*
X138046698Y-88343949D01*
X137927575Y-88420603D01*
X137847659Y-88537563D01*
X137819544Y-88676400D01*
X137373758Y-88676400D01*
X136988201Y-88418780D01*
X136523776Y-88326400D01*
X136476224Y-88326400D01*
X136011799Y-88418780D01*
X135618079Y-88681855D01*
X135355004Y-89075575D01*
X135262624Y-89540000D01*
X132131751Y-89540000D01*
X133035874Y-88635877D01*
X133035877Y-88635875D01*
X133138844Y-88481774D01*
X133159116Y-88379860D01*
X133175002Y-88299999D01*
X133175001Y-88299994D01*
X133175001Y-87230992D01*
X133367714Y-87151364D01*
X133519343Y-87000000D01*
X135262624Y-87000000D01*
X135355004Y-87464425D01*
X135618079Y-87858145D01*
X136011799Y-88121220D01*
X136476224Y-88213600D01*
X136523776Y-88213600D01*
X136988201Y-88121220D01*
X137381921Y-87858145D01*
X137644996Y-87464425D01*
X137737376Y-87000000D01*
X137802624Y-87000000D01*
X137895004Y-87464425D01*
X138158079Y-87858145D01*
X138551799Y-88121220D01*
X139016224Y-88213600D01*
X139063776Y-88213600D01*
X139528201Y-88121220D01*
X139921921Y-87858145D01*
X140184996Y-87464425D01*
X140277376Y-87000000D01*
X140184996Y-86535575D01*
X139921921Y-86141855D01*
X139528201Y-85878780D01*
X139063776Y-85786400D01*
X139016224Y-85786400D01*
X138551799Y-85878780D01*
X138158079Y-86141855D01*
X137895004Y-86535575D01*
X137802624Y-87000000D01*
X137737376Y-87000000D01*
X137644996Y-86535575D01*
X137381921Y-86141855D01*
X136988201Y-85878780D01*
X136523776Y-85786400D01*
X136476224Y-85786400D01*
X136011799Y-85878780D01*
X135618079Y-86141855D01*
X135355004Y-86535575D01*
X135262624Y-87000000D01*
X133519343Y-87000000D01*
X133550722Y-86968676D01*
X133649887Y-86729860D01*
X133650112Y-86471274D01*
X133551364Y-86232286D01*
X133368676Y-86049278D01*
X133129860Y-85950113D01*
X132871274Y-85949888D01*
X132632286Y-86048636D01*
X132449278Y-86231324D01*
X132350113Y-86470140D01*
X132350013Y-86585243D01*
X132261158Y-86718224D01*
X132225001Y-86899999D01*
X132225001Y-88103248D01*
X128803248Y-91525000D01*
X126444266Y-91525000D01*
X126368676Y-91449278D01*
X126129860Y-91350113D01*
X125871274Y-91349888D01*
X125632286Y-91448636D01*
X125449278Y-91631324D01*
X125350113Y-91870140D01*
X125349888Y-92128726D01*
X117639331Y-92128726D01*
X118116431Y-91651626D01*
X118660026Y-91651626D01*
X118735616Y-91727348D01*
X118974432Y-91826513D01*
X119233018Y-91826738D01*
X119472006Y-91727990D01*
X119655014Y-91545302D01*
X119754179Y-91306486D01*
X119754404Y-91047900D01*
X119655656Y-90808912D01*
X119472968Y-90625904D01*
X119234152Y-90526739D01*
X118975566Y-90526514D01*
X118736578Y-90625262D01*
X118660080Y-90701626D01*
X117919684Y-90701626D01*
X117919679Y-90701625D01*
X117768063Y-90731784D01*
X117737904Y-90737783D01*
X117632892Y-90807950D01*
X117583803Y-90840750D01*
X116842825Y-91581728D01*
X116735832Y-91581635D01*
X116496844Y-91680383D01*
X116313836Y-91863071D01*
X116214671Y-92101887D01*
X116214446Y-92360473D01*
X103418715Y-92360473D01*
X103500762Y-91948000D01*
X103396781Y-91425254D01*
X103100670Y-90982092D01*
X102657508Y-90685981D01*
X102134762Y-90582000D01*
X102081238Y-90582000D01*
X101558492Y-90685981D01*
X101115330Y-90982092D01*
X100819219Y-91425254D01*
X100715238Y-91948000D01*
X95850000Y-91948000D01*
X95850000Y-88378726D01*
X130349888Y-88378726D01*
X130448636Y-88617714D01*
X130631324Y-88800722D01*
X130870140Y-88899887D01*
X131128726Y-88900112D01*
X131367714Y-88801364D01*
X131550722Y-88618676D01*
X131649887Y-88379860D01*
X131650112Y-88121274D01*
X131551364Y-87882286D01*
X131475000Y-87805788D01*
X131475000Y-84460000D01*
X135262624Y-84460000D01*
X135355004Y-84924425D01*
X135618079Y-85318145D01*
X136011799Y-85581220D01*
X136476224Y-85673600D01*
X136523776Y-85673600D01*
X136988201Y-85581220D01*
X137381921Y-85318145D01*
X137644996Y-84924425D01*
X137670432Y-84796546D01*
X137873998Y-84796546D01*
X137977526Y-85046522D01*
X138282854Y-85408467D01*
X138703451Y-85626016D01*
X138890000Y-85576808D01*
X138890000Y-84610000D01*
X139190000Y-84610000D01*
X139190000Y-85576808D01*
X139376549Y-85626016D01*
X139797146Y-85408467D01*
X140102474Y-85046522D01*
X140206002Y-84796546D01*
X140156065Y-84610000D01*
X139190000Y-84610000D01*
X138890000Y-84610000D01*
X137923935Y-84610000D01*
X137873998Y-84796546D01*
X137670432Y-84796546D01*
X137737376Y-84460000D01*
X137670433Y-84123454D01*
X137873998Y-84123454D01*
X137923935Y-84310000D01*
X138890000Y-84310000D01*
X138890000Y-83343192D01*
X139190000Y-83343192D01*
X139190000Y-84310000D01*
X140156065Y-84310000D01*
X140206002Y-84123454D01*
X140102474Y-83873478D01*
X139797146Y-83511533D01*
X139376549Y-83293984D01*
X139190000Y-83343192D01*
X138890000Y-83343192D01*
X138703451Y-83293984D01*
X138282854Y-83511533D01*
X137977526Y-83873478D01*
X137873998Y-84123454D01*
X137670433Y-84123454D01*
X137644996Y-83995575D01*
X137381921Y-83601855D01*
X136988201Y-83338780D01*
X136523776Y-83246400D01*
X136476224Y-83246400D01*
X136011799Y-83338780D01*
X135618079Y-83601855D01*
X135355004Y-83995575D01*
X135262624Y-84460000D01*
X131475000Y-84460000D01*
X131475000Y-81920000D01*
X135262624Y-81920000D01*
X135355004Y-82384425D01*
X135618079Y-82778145D01*
X136011799Y-83041220D01*
X136476224Y-83133600D01*
X136523776Y-83133600D01*
X136988201Y-83041220D01*
X137381921Y-82778145D01*
X137644996Y-82384425D01*
X137670432Y-82256546D01*
X137873998Y-82256546D01*
X137977526Y-82506522D01*
X138282854Y-82868467D01*
X138703451Y-83086016D01*
X138890000Y-83036808D01*
X138890000Y-82070000D01*
X139190000Y-82070000D01*
X139190000Y-83036808D01*
X139376549Y-83086016D01*
X139797146Y-82868467D01*
X140102474Y-82506522D01*
X140206002Y-82256546D01*
X140156065Y-82070000D01*
X139190000Y-82070000D01*
X138890000Y-82070000D01*
X137923935Y-82070000D01*
X137873998Y-82256546D01*
X137670432Y-82256546D01*
X137737376Y-81920000D01*
X137670433Y-81583454D01*
X137873998Y-81583454D01*
X137923935Y-81770000D01*
X138890000Y-81770000D01*
X138890000Y-80803192D01*
X139190000Y-80803192D01*
X139190000Y-81770000D01*
X140156065Y-81770000D01*
X140206002Y-81583454D01*
X140102474Y-81333478D01*
X139797146Y-80971533D01*
X139376549Y-80753984D01*
X139190000Y-80803192D01*
X138890000Y-80803192D01*
X138703451Y-80753984D01*
X138282854Y-80971533D01*
X137977526Y-81333478D01*
X137873998Y-81583454D01*
X137670433Y-81583454D01*
X137644996Y-81455575D01*
X137381921Y-81061855D01*
X136988201Y-80798780D01*
X136523776Y-80706400D01*
X136476224Y-80706400D01*
X136011799Y-80798780D01*
X135618079Y-81061855D01*
X135355004Y-81455575D01*
X135262624Y-81920000D01*
X131475000Y-81920000D01*
X131475000Y-80340693D01*
X131648959Y-80601041D01*
X131924719Y-80785298D01*
X132250000Y-80850000D01*
X132575281Y-80785298D01*
X132851041Y-80601041D01*
X133102082Y-80350000D01*
X135750000Y-80350000D01*
X136075281Y-80285298D01*
X136351041Y-80101041D01*
X136535298Y-79825281D01*
X136600000Y-79500000D01*
X136535298Y-79174719D01*
X136351041Y-78898959D01*
X136075281Y-78714702D01*
X135750000Y-78650000D01*
X132750000Y-78650000D01*
X132424719Y-78714702D01*
X132148959Y-78898959D01*
X131648959Y-79398959D01*
X131475000Y-79659307D01*
X131475000Y-74596618D01*
X131680917Y-74511535D01*
X131863925Y-74328847D01*
X131963090Y-74090031D01*
X131963315Y-73831445D01*
X131864567Y-73592457D01*
X131681879Y-73409449D01*
X131443063Y-73310284D01*
X131184477Y-73310059D01*
X130945489Y-73408807D01*
X130762481Y-73591495D01*
X130663316Y-73830311D01*
X130663222Y-73938849D01*
X130561157Y-74091599D01*
X130525000Y-74273374D01*
X130525000Y-87805734D01*
X130449278Y-87881324D01*
X130350113Y-88120140D01*
X130349888Y-88378726D01*
X95850000Y-88378726D01*
X95850000Y-85832752D01*
X99099878Y-85832752D01*
X99198626Y-86071740D01*
X99381314Y-86254748D01*
X99620130Y-86353913D01*
X99878716Y-86354138D01*
X100117704Y-86255390D01*
X100194202Y-86179026D01*
X101355734Y-86179026D01*
X101431324Y-86254748D01*
X101670140Y-86353913D01*
X101928726Y-86354138D01*
X102167714Y-86255390D01*
X102350722Y-86072702D01*
X102449887Y-85833886D01*
X102449887Y-85832752D01*
X104149888Y-85832752D01*
X104248636Y-86071740D01*
X104431324Y-86254748D01*
X104670140Y-86353913D01*
X104928726Y-86354138D01*
X105167714Y-86255390D01*
X105244212Y-86179026D01*
X107739459Y-86179026D01*
X107839425Y-86279167D01*
X108078241Y-86378332D01*
X108336827Y-86378557D01*
X108575815Y-86279809D01*
X108589834Y-86265814D01*
X127038147Y-86265814D01*
X127136895Y-86504802D01*
X127319583Y-86687810D01*
X127558399Y-86786975D01*
X127816985Y-86787200D01*
X128055973Y-86688452D01*
X128238981Y-86505764D01*
X128338146Y-86266948D01*
X128338240Y-86158859D01*
X130335876Y-84161223D01*
X130400755Y-84064124D01*
X130438843Y-84007122D01*
X130455178Y-83925000D01*
X130475001Y-83825347D01*
X130475000Y-83825342D01*
X130475000Y-72194266D01*
X130550722Y-72118676D01*
X130649887Y-71879860D01*
X130650112Y-71621274D01*
X130551364Y-71382286D01*
X130368676Y-71199278D01*
X130129860Y-71100113D01*
X129871274Y-71099888D01*
X129632286Y-71198636D01*
X129449278Y-71381324D01*
X129350113Y-71620140D01*
X129349888Y-71878726D01*
X129448636Y-72117714D01*
X129525000Y-72194212D01*
X129525000Y-83628595D01*
X127666526Y-85487069D01*
X127559533Y-85486976D01*
X127320545Y-85585724D01*
X127137537Y-85768412D01*
X127038372Y-86007228D01*
X127038147Y-86265814D01*
X108589834Y-86265814D01*
X108758823Y-86097121D01*
X108857988Y-85858305D01*
X108858213Y-85599719D01*
X108759465Y-85360731D01*
X108576777Y-85177723D01*
X108337961Y-85078558D01*
X108079375Y-85078333D01*
X107840387Y-85177081D01*
X107788351Y-85229026D01*
X105244266Y-85229026D01*
X105168676Y-85153304D01*
X104929860Y-85054139D01*
X104671274Y-85053914D01*
X104432286Y-85152662D01*
X104249278Y-85335350D01*
X104150113Y-85574166D01*
X104149888Y-85832752D01*
X102449887Y-85832752D01*
X102450112Y-85575300D01*
X102351364Y-85336312D01*
X102168676Y-85153304D01*
X101929860Y-85054139D01*
X101671274Y-85053914D01*
X101432286Y-85152662D01*
X101355788Y-85229026D01*
X100194256Y-85229026D01*
X100118666Y-85153304D01*
X99879850Y-85054139D01*
X99621264Y-85053914D01*
X99382276Y-85152662D01*
X99199268Y-85335350D01*
X99100103Y-85574166D01*
X99099878Y-85832752D01*
X95850000Y-85832752D01*
X95850000Y-84528726D01*
X104149888Y-84528726D01*
X104248636Y-84767714D01*
X104431324Y-84950722D01*
X104670140Y-85049887D01*
X104928726Y-85050112D01*
X105167714Y-84951364D01*
X105244212Y-84875000D01*
X106955734Y-84875000D01*
X107031324Y-84950722D01*
X107270140Y-85049887D01*
X107528726Y-85050112D01*
X107767714Y-84951364D01*
X107950722Y-84768676D01*
X108049887Y-84529860D01*
X108050112Y-84271274D01*
X107951364Y-84032286D01*
X107768676Y-83849278D01*
X107529860Y-83750113D01*
X107271274Y-83749888D01*
X107032286Y-83848636D01*
X106955788Y-83925000D01*
X105244266Y-83925000D01*
X105168676Y-83849278D01*
X104929860Y-83750113D01*
X104671274Y-83749888D01*
X104432286Y-83848636D01*
X104249278Y-84031324D01*
X104150113Y-84270140D01*
X104149888Y-84528726D01*
X95850000Y-84528726D01*
X95850000Y-82296000D01*
X104779238Y-82296000D01*
X104883219Y-82818746D01*
X105179330Y-83261908D01*
X105622492Y-83558019D01*
X106145238Y-83662000D01*
X106198762Y-83662000D01*
X106721508Y-83558019D01*
X107164670Y-83261908D01*
X107460781Y-82818746D01*
X107526210Y-82489809D01*
X117513473Y-82489809D01*
X117642662Y-82802472D01*
X117881669Y-83041897D01*
X117950819Y-83070610D01*
X117882928Y-83098662D01*
X117643503Y-83337669D01*
X117513768Y-83650107D01*
X117513473Y-83988409D01*
X117642662Y-84301072D01*
X117881669Y-84540497D01*
X118194107Y-84670232D01*
X118532409Y-84670527D01*
X118845072Y-84541338D01*
X119084497Y-84302331D01*
X119214232Y-83989893D01*
X119214527Y-83651591D01*
X119085338Y-83338928D01*
X118846331Y-83099503D01*
X118777181Y-83070790D01*
X118845072Y-83042738D01*
X119084497Y-82803731D01*
X119214232Y-82491293D01*
X119214527Y-82152991D01*
X119085338Y-81840328D01*
X118846331Y-81600903D01*
X118533893Y-81471168D01*
X118195591Y-81470873D01*
X117882928Y-81600062D01*
X117643503Y-81839069D01*
X117513768Y-82151507D01*
X117513473Y-82489809D01*
X107526210Y-82489809D01*
X107564762Y-82296000D01*
X107460781Y-81773254D01*
X107164670Y-81330092D01*
X106863499Y-81128856D01*
X107188000Y-81128856D01*
X107317702Y-81104451D01*
X107436825Y-81027797D01*
X107516741Y-80910837D01*
X107544856Y-80772000D01*
X107544856Y-78740000D01*
X107542735Y-78728726D01*
X112749888Y-78728726D01*
X112848636Y-78967714D01*
X113031324Y-79150722D01*
X113270140Y-79249887D01*
X113426544Y-79250023D01*
X113435166Y-79255784D01*
X113616941Y-79291941D01*
X116153021Y-79291941D01*
X116228611Y-79367663D01*
X116467427Y-79466828D01*
X116726013Y-79467053D01*
X116965001Y-79368305D01*
X117148009Y-79185617D01*
X117247174Y-78946801D01*
X117247399Y-78688215D01*
X117148651Y-78449227D01*
X116965963Y-78266219D01*
X116727147Y-78167054D01*
X116468561Y-78166829D01*
X116229573Y-78265577D01*
X116153075Y-78341941D01*
X113996673Y-78341941D01*
X113951364Y-78232286D01*
X113768676Y-78049278D01*
X113529860Y-77950113D01*
X113271274Y-77949888D01*
X113032286Y-78048636D01*
X112849278Y-78231324D01*
X112750113Y-78470140D01*
X112749888Y-78728726D01*
X107542735Y-78728726D01*
X107520451Y-78610298D01*
X107443797Y-78491175D01*
X107326837Y-78411259D01*
X107188000Y-78383144D01*
X105156000Y-78383144D01*
X105026298Y-78407549D01*
X104907175Y-78484203D01*
X104827259Y-78601163D01*
X104799144Y-78740000D01*
X104799144Y-80772000D01*
X104823549Y-80901702D01*
X104900203Y-81020825D01*
X105017163Y-81100741D01*
X105156000Y-81128856D01*
X105480501Y-81128856D01*
X105179330Y-81330092D01*
X104883219Y-81773254D01*
X104779238Y-82296000D01*
X95850000Y-82296000D01*
X95850000Y-80000000D01*
X95842121Y-79961094D01*
X95820711Y-79929289D01*
X95532155Y-79640733D01*
X95529211Y-79636327D01*
X95363671Y-79470787D01*
X95363668Y-79470786D01*
X95359268Y-79467846D01*
X95070711Y-79179289D01*
X95037629Y-79157350D01*
X95000000Y-79150000D01*
X91559095Y-79150000D01*
X91537034Y-79145612D01*
X90854388Y-78462966D01*
X90850000Y-78440905D01*
X90850000Y-76958000D01*
X100079238Y-76958000D01*
X100171618Y-77422425D01*
X100434693Y-77816145D01*
X100828413Y-78079220D01*
X101292838Y-78171600D01*
X101651162Y-78171600D01*
X102115587Y-78079220D01*
X102509307Y-77816145D01*
X102772382Y-77422425D01*
X102864762Y-76958000D01*
X102850983Y-76888726D01*
X114349888Y-76888726D01*
X114448636Y-77127714D01*
X114631324Y-77310722D01*
X114870140Y-77409887D01*
X114978229Y-77409981D01*
X115504122Y-77935873D01*
X115504124Y-77935876D01*
X115658225Y-78038843D01*
X115840000Y-78075000D01*
X118755734Y-78075000D01*
X118831324Y-78150722D01*
X119070140Y-78249887D01*
X119328726Y-78250112D01*
X119567714Y-78151364D01*
X119750722Y-77968676D01*
X119849887Y-77729860D01*
X119850112Y-77471274D01*
X119751364Y-77232286D01*
X119568676Y-77049278D01*
X119329860Y-76950113D01*
X119071274Y-76949888D01*
X118832286Y-77048636D01*
X118755788Y-77125000D01*
X116036751Y-77125000D01*
X115650019Y-76738267D01*
X115650112Y-76631274D01*
X115551364Y-76392286D01*
X115471944Y-76312726D01*
X119599888Y-76312726D01*
X119698636Y-76551714D01*
X119881324Y-76734722D01*
X120120140Y-76833887D01*
X120378726Y-76834112D01*
X120617714Y-76735364D01*
X120800722Y-76552676D01*
X120899887Y-76313860D01*
X120900112Y-76055274D01*
X120801364Y-75816286D01*
X120618676Y-75633278D01*
X120379860Y-75534113D01*
X120121274Y-75533888D01*
X119882286Y-75632636D01*
X119699278Y-75815324D01*
X119600113Y-76054140D01*
X119599888Y-76312726D01*
X115471944Y-76312726D01*
X115368676Y-76209278D01*
X115129860Y-76110113D01*
X114871274Y-76109888D01*
X114632286Y-76208636D01*
X114449278Y-76391324D01*
X114350113Y-76630140D01*
X114349888Y-76888726D01*
X102850983Y-76888726D01*
X102772382Y-76493575D01*
X102509307Y-76099855D01*
X102115587Y-75836780D01*
X101651162Y-75744400D01*
X101292838Y-75744400D01*
X100828413Y-75836780D01*
X100434693Y-76099855D01*
X100171618Y-76493575D01*
X100079238Y-76958000D01*
X90850000Y-76958000D01*
X90850000Y-74754546D01*
X100153598Y-74754546D01*
X100339067Y-75133364D01*
X100687464Y-75454144D01*
X101132098Y-75617180D01*
X101322000Y-75544248D01*
X101322000Y-74568000D01*
X101622000Y-74568000D01*
X101622000Y-75544248D01*
X101811902Y-75617180D01*
X102256536Y-75454144D01*
X102604933Y-75133364D01*
X102790402Y-74754546D01*
X102740465Y-74568000D01*
X101622000Y-74568000D01*
X101322000Y-74568000D01*
X100203535Y-74568000D01*
X100153598Y-74754546D01*
X90850000Y-74754546D01*
X90850000Y-74081454D01*
X100153598Y-74081454D01*
X100203535Y-74268000D01*
X101322000Y-74268000D01*
X101322000Y-73291752D01*
X101622000Y-73291752D01*
X101622000Y-74268000D01*
X102740465Y-74268000D01*
X102790402Y-74081454D01*
X102604933Y-73702636D01*
X102256536Y-73381856D01*
X101811902Y-73218820D01*
X101622000Y-73291752D01*
X101322000Y-73291752D01*
X101132098Y-73218820D01*
X100687464Y-73381856D01*
X100339067Y-73702636D01*
X100153598Y-74081454D01*
X90850000Y-74081454D01*
X90850000Y-71878000D01*
X100079238Y-71878000D01*
X100171618Y-72342425D01*
X100434693Y-72736145D01*
X100828413Y-72999220D01*
X101292838Y-73091600D01*
X101651162Y-73091600D01*
X102115587Y-72999220D01*
X102509307Y-72736145D01*
X102772382Y-72342425D01*
X102864762Y-71878000D01*
X102772382Y-71413575D01*
X102509307Y-71019855D01*
X102115587Y-70756780D01*
X101651162Y-70664400D01*
X101292838Y-70664400D01*
X100828413Y-70756780D01*
X100434693Y-71019855D01*
X100171618Y-71413575D01*
X100079238Y-71878000D01*
X90850000Y-71878000D01*
X90850000Y-68474400D01*
X100099144Y-68474400D01*
X100099144Y-70201600D01*
X100123549Y-70331302D01*
X100200203Y-70450425D01*
X100317163Y-70530341D01*
X100456000Y-70558456D01*
X102488000Y-70558456D01*
X102617702Y-70534051D01*
X102633321Y-70524000D01*
X139627144Y-70524000D01*
X139627144Y-72556000D01*
X139651549Y-72685702D01*
X139728203Y-72804825D01*
X139845163Y-72884741D01*
X139984000Y-72912856D01*
X142016000Y-72912856D01*
X142145702Y-72888451D01*
X142264825Y-72811797D01*
X142344741Y-72694837D01*
X142372856Y-72556000D01*
X142372856Y-70524000D01*
X142360626Y-70459000D01*
X146909000Y-70459000D01*
X146973702Y-70784281D01*
X147157959Y-71060041D01*
X147433719Y-71244298D01*
X147759000Y-71309000D01*
X151206918Y-71309000D01*
X151898959Y-72001041D01*
X152174719Y-72185298D01*
X152500000Y-72250000D01*
X152825281Y-72185298D01*
X153101041Y-72001041D01*
X153285298Y-71725281D01*
X153350000Y-71400000D01*
X153285298Y-71074719D01*
X153101041Y-70798959D01*
X152160041Y-69857959D01*
X151884281Y-69673702D01*
X151559000Y-69609000D01*
X147759000Y-69609000D01*
X147433719Y-69673702D01*
X147157959Y-69857959D01*
X146973702Y-70133719D01*
X146909000Y-70459000D01*
X142360626Y-70459000D01*
X142348451Y-70394298D01*
X142271797Y-70275175D01*
X142154837Y-70195259D01*
X142016000Y-70167144D01*
X141661548Y-70167144D01*
X141837319Y-70079300D01*
X142186612Y-69676715D01*
X142317558Y-69360550D01*
X142269670Y-69150000D01*
X141150000Y-69150000D01*
X141150000Y-69170000D01*
X140850000Y-69170000D01*
X140850000Y-69150000D01*
X139730330Y-69150000D01*
X139682442Y-69360550D01*
X139813388Y-69676715D01*
X140162681Y-70079300D01*
X140338452Y-70167144D01*
X139984000Y-70167144D01*
X139854298Y-70191549D01*
X139735175Y-70268203D01*
X139655259Y-70385163D01*
X139627144Y-70524000D01*
X102633321Y-70524000D01*
X102736825Y-70457397D01*
X102816741Y-70340437D01*
X102844856Y-70201600D01*
X102844856Y-68474400D01*
X102820451Y-68344698D01*
X102743797Y-68225575D01*
X102626837Y-68145659D01*
X102488000Y-68117544D01*
X100456000Y-68117544D01*
X100326298Y-68141949D01*
X100207175Y-68218603D01*
X100127259Y-68335563D01*
X100099144Y-68474400D01*
X90850000Y-68474400D01*
X90850000Y-64322480D01*
X91265484Y-65328029D01*
X92171899Y-66236027D01*
X93356794Y-66728038D01*
X94639778Y-66729158D01*
X95825529Y-66239216D01*
X96733527Y-65332801D01*
X97225538Y-64147906D01*
X97225745Y-63910000D01*
X97650644Y-63910000D01*
X97650644Y-65637200D01*
X97675049Y-65766902D01*
X97751703Y-65886025D01*
X97868663Y-65965941D01*
X98007500Y-65994056D01*
X99734700Y-65994056D01*
X99864402Y-65969651D01*
X99983525Y-65892997D01*
X100063441Y-65776037D01*
X100091556Y-65637200D01*
X100091556Y-64749824D01*
X100197500Y-64749824D01*
X100197500Y-64797376D01*
X100289880Y-65261801D01*
X100552955Y-65655521D01*
X100946675Y-65918596D01*
X101411100Y-66010976D01*
X101875525Y-65918596D01*
X102269245Y-65655521D01*
X102532320Y-65261801D01*
X102624700Y-64797376D01*
X102624700Y-64749824D01*
X102737500Y-64749824D01*
X102737500Y-64797376D01*
X102829880Y-65261801D01*
X103092955Y-65655521D01*
X103486675Y-65918596D01*
X103951100Y-66010976D01*
X104415525Y-65918596D01*
X104809245Y-65655521D01*
X105072320Y-65261801D01*
X105164700Y-64797376D01*
X105164700Y-64749824D01*
X105277500Y-64749824D01*
X105277500Y-64797376D01*
X105369880Y-65261801D01*
X105632955Y-65655521D01*
X106026675Y-65918596D01*
X106491100Y-66010976D01*
X106955525Y-65918596D01*
X107349245Y-65655521D01*
X107612320Y-65261801D01*
X107642485Y-65110149D01*
X107865084Y-65110149D01*
X108082633Y-65530746D01*
X108444578Y-65836074D01*
X108694554Y-65939602D01*
X108881100Y-65889665D01*
X108881100Y-64923600D01*
X109181100Y-64923600D01*
X109181100Y-65889665D01*
X109367646Y-65939602D01*
X109617622Y-65836074D01*
X109979567Y-65530746D01*
X110197116Y-65110149D01*
X110147908Y-64923600D01*
X109181100Y-64923600D01*
X108881100Y-64923600D01*
X107914292Y-64923600D01*
X107865084Y-65110149D01*
X107642485Y-65110149D01*
X107704700Y-64797376D01*
X107704700Y-64749824D01*
X110357500Y-64749824D01*
X110357500Y-64797376D01*
X110449880Y-65261801D01*
X110712955Y-65655521D01*
X111106675Y-65918596D01*
X111571100Y-66010976D01*
X112035525Y-65918596D01*
X112429245Y-65655521D01*
X112692320Y-65261801D01*
X112784700Y-64797376D01*
X112784700Y-64749824D01*
X112897500Y-64749824D01*
X112897500Y-64797376D01*
X112989880Y-65261801D01*
X113252955Y-65655521D01*
X113646675Y-65918596D01*
X114111100Y-66010976D01*
X114575525Y-65918596D01*
X114969245Y-65655521D01*
X115232320Y-65261801D01*
X115324700Y-64797376D01*
X115324700Y-64749824D01*
X115437500Y-64749824D01*
X115437500Y-64797376D01*
X115529880Y-65261801D01*
X115792955Y-65655521D01*
X116186675Y-65918596D01*
X116651100Y-66010976D01*
X117115525Y-65918596D01*
X117509245Y-65655521D01*
X117772320Y-65261801D01*
X117864700Y-64797376D01*
X117864700Y-64749824D01*
X117977500Y-64749824D01*
X117977500Y-64797376D01*
X118069880Y-65261801D01*
X118332955Y-65655521D01*
X118726675Y-65918596D01*
X119191100Y-66010976D01*
X119655525Y-65918596D01*
X120049245Y-65655521D01*
X120312320Y-65261801D01*
X120404700Y-64797376D01*
X120404700Y-64749824D01*
X120517500Y-64749824D01*
X120517500Y-64797376D01*
X120609880Y-65261801D01*
X120872955Y-65655521D01*
X121266675Y-65918596D01*
X121731100Y-66010976D01*
X122195525Y-65918596D01*
X122589245Y-65655521D01*
X122852320Y-65261801D01*
X122944700Y-64797376D01*
X122944700Y-64749824D01*
X122852320Y-64285399D01*
X122589245Y-63891679D01*
X122195525Y-63628604D01*
X121731100Y-63536224D01*
X121266675Y-63628604D01*
X120872955Y-63891679D01*
X120609880Y-64285399D01*
X120517500Y-64749824D01*
X120404700Y-64749824D01*
X120312320Y-64285399D01*
X120049245Y-63891679D01*
X119655525Y-63628604D01*
X119191100Y-63536224D01*
X118726675Y-63628604D01*
X118332955Y-63891679D01*
X118069880Y-64285399D01*
X117977500Y-64749824D01*
X117864700Y-64749824D01*
X117772320Y-64285399D01*
X117509245Y-63891679D01*
X117115525Y-63628604D01*
X116651100Y-63536224D01*
X116186675Y-63628604D01*
X115792955Y-63891679D01*
X115529880Y-64285399D01*
X115437500Y-64749824D01*
X115324700Y-64749824D01*
X115232320Y-64285399D01*
X114969245Y-63891679D01*
X114575525Y-63628604D01*
X114111100Y-63536224D01*
X113646675Y-63628604D01*
X113252955Y-63891679D01*
X112989880Y-64285399D01*
X112897500Y-64749824D01*
X112784700Y-64749824D01*
X112692320Y-64285399D01*
X112429245Y-63891679D01*
X112035525Y-63628604D01*
X111571100Y-63536224D01*
X111106675Y-63628604D01*
X110712955Y-63891679D01*
X110449880Y-64285399D01*
X110357500Y-64749824D01*
X107704700Y-64749824D01*
X107642486Y-64437051D01*
X107865084Y-64437051D01*
X107914292Y-64623600D01*
X108881100Y-64623600D01*
X108881100Y-63657535D01*
X109181100Y-63657535D01*
X109181100Y-64623600D01*
X110147908Y-64623600D01*
X110197116Y-64437051D01*
X109979567Y-64016454D01*
X109617622Y-63711126D01*
X109367646Y-63607598D01*
X109181100Y-63657535D01*
X108881100Y-63657535D01*
X108694554Y-63607598D01*
X108444578Y-63711126D01*
X108082633Y-64016454D01*
X107865084Y-64437051D01*
X107642486Y-64437051D01*
X107612320Y-64285399D01*
X107349245Y-63891679D01*
X106955525Y-63628604D01*
X106491100Y-63536224D01*
X106026675Y-63628604D01*
X105632955Y-63891679D01*
X105369880Y-64285399D01*
X105277500Y-64749824D01*
X105164700Y-64749824D01*
X105072320Y-64285399D01*
X104809245Y-63891679D01*
X104415525Y-63628604D01*
X103951100Y-63536224D01*
X103486675Y-63628604D01*
X103092955Y-63891679D01*
X102829880Y-64285399D01*
X102737500Y-64749824D01*
X102624700Y-64749824D01*
X102532320Y-64285399D01*
X102269245Y-63891679D01*
X101875525Y-63628604D01*
X101411100Y-63536224D01*
X100946675Y-63628604D01*
X100552955Y-63891679D01*
X100289880Y-64285399D01*
X100197500Y-64749824D01*
X100091556Y-64749824D01*
X100091556Y-63910000D01*
X100067151Y-63780298D01*
X99990497Y-63661175D01*
X99873537Y-63581259D01*
X99734700Y-63553144D01*
X98007500Y-63553144D01*
X97877798Y-63577549D01*
X97758675Y-63654203D01*
X97678759Y-63771163D01*
X97650644Y-63910000D01*
X97225745Y-63910000D01*
X97226658Y-62864922D01*
X96955978Y-62209824D01*
X97657500Y-62209824D01*
X97657500Y-62257376D01*
X97749880Y-62721801D01*
X98012955Y-63115521D01*
X98406675Y-63378596D01*
X98871100Y-63470976D01*
X99335525Y-63378596D01*
X99729245Y-63115521D01*
X99992320Y-62721801D01*
X100084700Y-62257376D01*
X100084700Y-62209824D01*
X100197500Y-62209824D01*
X100197500Y-62257376D01*
X100289880Y-62721801D01*
X100552955Y-63115521D01*
X100946675Y-63378596D01*
X101411100Y-63470976D01*
X101875525Y-63378596D01*
X102269245Y-63115521D01*
X102532320Y-62721801D01*
X102562485Y-62570149D01*
X102785084Y-62570149D01*
X103002633Y-62990746D01*
X103364578Y-63296074D01*
X103614554Y-63399602D01*
X103801100Y-63349665D01*
X103801100Y-62383600D01*
X104101100Y-62383600D01*
X104101100Y-63349665D01*
X104287646Y-63399602D01*
X104537622Y-63296074D01*
X104899567Y-62990746D01*
X105117116Y-62570149D01*
X105067908Y-62383600D01*
X104101100Y-62383600D01*
X103801100Y-62383600D01*
X102834292Y-62383600D01*
X102785084Y-62570149D01*
X102562485Y-62570149D01*
X102624700Y-62257376D01*
X102624700Y-62209824D01*
X105277500Y-62209824D01*
X105277500Y-62257376D01*
X105369880Y-62721801D01*
X105632955Y-63115521D01*
X106026675Y-63378596D01*
X106491100Y-63470976D01*
X106955525Y-63378596D01*
X107349245Y-63115521D01*
X107612320Y-62721801D01*
X107704700Y-62257376D01*
X107704700Y-62209824D01*
X107817500Y-62209824D01*
X107817500Y-62257376D01*
X107909880Y-62721801D01*
X108172955Y-63115521D01*
X108566675Y-63378596D01*
X109031100Y-63470976D01*
X109495525Y-63378596D01*
X109889245Y-63115521D01*
X110152320Y-62721801D01*
X110244700Y-62257376D01*
X110244700Y-62209824D01*
X110357500Y-62209824D01*
X110357500Y-62257376D01*
X110449880Y-62721801D01*
X110712955Y-63115521D01*
X111106675Y-63378596D01*
X111571100Y-63470976D01*
X112035525Y-63378596D01*
X112429245Y-63115521D01*
X112692320Y-62721801D01*
X112722485Y-62570149D01*
X112945084Y-62570149D01*
X113162633Y-62990746D01*
X113524578Y-63296074D01*
X113774554Y-63399602D01*
X113961100Y-63349665D01*
X113961100Y-62383600D01*
X114261100Y-62383600D01*
X114261100Y-63349665D01*
X114447646Y-63399602D01*
X114697622Y-63296074D01*
X115059567Y-62990746D01*
X115277116Y-62570149D01*
X115227908Y-62383600D01*
X114261100Y-62383600D01*
X113961100Y-62383600D01*
X112994292Y-62383600D01*
X112945084Y-62570149D01*
X112722485Y-62570149D01*
X112784700Y-62257376D01*
X112784700Y-62209824D01*
X115437500Y-62209824D01*
X115437500Y-62257376D01*
X115529880Y-62721801D01*
X115792955Y-63115521D01*
X116186675Y-63378596D01*
X116651100Y-63470976D01*
X117115525Y-63378596D01*
X117509245Y-63115521D01*
X117772320Y-62721801D01*
X117864700Y-62257376D01*
X117864700Y-62209824D01*
X117977500Y-62209824D01*
X117977500Y-62257376D01*
X118069880Y-62721801D01*
X118332955Y-63115521D01*
X118726675Y-63378596D01*
X119191100Y-63470976D01*
X119655525Y-63378596D01*
X120049245Y-63115521D01*
X120312320Y-62721801D01*
X120342485Y-62570149D01*
X120565084Y-62570149D01*
X120782633Y-62990746D01*
X121144578Y-63296074D01*
X121394554Y-63399602D01*
X121581100Y-63349665D01*
X121581100Y-62383600D01*
X121881100Y-62383600D01*
X121881100Y-63349665D01*
X122067646Y-63399602D01*
X122317622Y-63296074D01*
X122679567Y-62990746D01*
X122897116Y-62570149D01*
X122847908Y-62383600D01*
X121881100Y-62383600D01*
X121581100Y-62383600D01*
X120614292Y-62383600D01*
X120565084Y-62570149D01*
X120342485Y-62570149D01*
X120404700Y-62257376D01*
X120404700Y-62209824D01*
X123057500Y-62209824D01*
X123057500Y-62257376D01*
X123149880Y-62721801D01*
X123412955Y-63115521D01*
X123806675Y-63378596D01*
X124271100Y-63470976D01*
X124735525Y-63378596D01*
X124889254Y-63275878D01*
X124850113Y-63370140D01*
X124849888Y-63628726D01*
X124893434Y-63734115D01*
X124735525Y-63628604D01*
X124271100Y-63536224D01*
X123806675Y-63628604D01*
X123412955Y-63891679D01*
X123149880Y-64285399D01*
X123057500Y-64749824D01*
X123057500Y-64797376D01*
X123149880Y-65261801D01*
X123412955Y-65655521D01*
X123806675Y-65918596D01*
X124271100Y-66010976D01*
X124735525Y-65918596D01*
X125025000Y-65725175D01*
X125025000Y-67500000D01*
X125061157Y-67681775D01*
X125164124Y-67835876D01*
X125349981Y-68021733D01*
X125349888Y-68128726D01*
X125448636Y-68367714D01*
X125631324Y-68550722D01*
X125870140Y-68649887D01*
X126128726Y-68650112D01*
X126154529Y-68639450D01*
X139682442Y-68639450D01*
X139730330Y-68850000D01*
X140850000Y-68850000D01*
X140850000Y-67729748D01*
X141150000Y-67729748D01*
X141150000Y-68850000D01*
X142269670Y-68850000D01*
X142317558Y-68639450D01*
X142186612Y-68323285D01*
X141837319Y-67920700D01*
X141360552Y-67682429D01*
X141150000Y-67729748D01*
X140850000Y-67729748D01*
X140639448Y-67682429D01*
X140162681Y-67920700D01*
X139813388Y-68323285D01*
X139682442Y-68639450D01*
X126154529Y-68639450D01*
X126367714Y-68551364D01*
X126550722Y-68368676D01*
X126649887Y-68129860D01*
X126650112Y-67871274D01*
X126551364Y-67632286D01*
X126368676Y-67449278D01*
X126129860Y-67350113D01*
X126021771Y-67350019D01*
X125975000Y-67303248D01*
X125975000Y-65670251D01*
X126346675Y-65918596D01*
X126811100Y-66010976D01*
X127275525Y-65918596D01*
X127669245Y-65655521D01*
X127932320Y-65261801D01*
X127962485Y-65110149D01*
X128185084Y-65110149D01*
X128402633Y-65530746D01*
X128764578Y-65836074D01*
X129014554Y-65939602D01*
X129201100Y-65889665D01*
X129201100Y-64923600D01*
X129501100Y-64923600D01*
X129501100Y-65889665D01*
X129687646Y-65939602D01*
X129937622Y-65836074D01*
X130299567Y-65530746D01*
X130517116Y-65110149D01*
X130467908Y-64923600D01*
X129501100Y-64923600D01*
X129201100Y-64923600D01*
X128234292Y-64923600D01*
X128185084Y-65110149D01*
X127962485Y-65110149D01*
X128024700Y-64797376D01*
X128024700Y-64749824D01*
X130677500Y-64749824D01*
X130677500Y-64797376D01*
X130769880Y-65261801D01*
X131032955Y-65655521D01*
X131426675Y-65918596D01*
X131891100Y-66010976D01*
X132355525Y-65918596D01*
X132360812Y-65915063D01*
X132743823Y-66298074D01*
X132743825Y-66298077D01*
X132897926Y-66401044D01*
X132928085Y-66407043D01*
X133079701Y-66437202D01*
X133079706Y-66437201D01*
X143615449Y-66437201D01*
X144925000Y-67746752D01*
X144925000Y-68905734D01*
X144849278Y-68981324D01*
X144750113Y-69220140D01*
X144749888Y-69478726D01*
X144848636Y-69717714D01*
X145031324Y-69900722D01*
X145270140Y-69999887D01*
X145528726Y-70000112D01*
X145767714Y-69901364D01*
X145950722Y-69718676D01*
X146049887Y-69479860D01*
X146050112Y-69221274D01*
X145951364Y-68982286D01*
X145875000Y-68905788D01*
X145875000Y-67550000D01*
X145838843Y-67368225D01*
X145735876Y-67214124D01*
X144518234Y-65996482D01*
X144591100Y-66010976D01*
X145055525Y-65918596D01*
X145449245Y-65655521D01*
X145712320Y-65261801D01*
X145742485Y-65110149D01*
X145965084Y-65110149D01*
X146182633Y-65530746D01*
X146544578Y-65836074D01*
X146794554Y-65939602D01*
X146981100Y-65889665D01*
X146981100Y-64923600D01*
X147281100Y-64923600D01*
X147281100Y-65889665D01*
X147467646Y-65939602D01*
X147717622Y-65836074D01*
X147953385Y-65637190D01*
X148048636Y-65867714D01*
X148125000Y-65944212D01*
X148125000Y-66925010D01*
X148161157Y-67106785D01*
X148264124Y-67260886D01*
X149499981Y-68496743D01*
X149499888Y-68603736D01*
X149598636Y-68842724D01*
X149781324Y-69025732D01*
X150020140Y-69124897D01*
X150278726Y-69125122D01*
X150517714Y-69026374D01*
X150700722Y-68843686D01*
X150799887Y-68604870D01*
X150800112Y-68346284D01*
X150701364Y-68107296D01*
X150518676Y-67924288D01*
X150279860Y-67825123D01*
X150171771Y-67825029D01*
X149075000Y-66728258D01*
X149075000Y-65944266D01*
X149150722Y-65868676D01*
X149249887Y-65629860D01*
X149250112Y-65371274D01*
X149151364Y-65132286D01*
X148968676Y-64949278D01*
X148729860Y-64850113D01*
X148471274Y-64849888D01*
X148252328Y-64940355D01*
X148247908Y-64923600D01*
X147281100Y-64923600D01*
X146981100Y-64923600D01*
X146014292Y-64923600D01*
X145965084Y-65110149D01*
X145742485Y-65110149D01*
X145804700Y-64797376D01*
X145804700Y-64749824D01*
X145742486Y-64437051D01*
X145965084Y-64437051D01*
X146014292Y-64623600D01*
X146981100Y-64623600D01*
X146981100Y-63657535D01*
X147281100Y-63657535D01*
X147281100Y-64623600D01*
X148247908Y-64623600D01*
X148297116Y-64437051D01*
X148079567Y-64016454D01*
X147717622Y-63711126D01*
X147467646Y-63607598D01*
X147281100Y-63657535D01*
X146981100Y-63657535D01*
X146794554Y-63607598D01*
X146544578Y-63711126D01*
X146182633Y-64016454D01*
X145965084Y-64437051D01*
X145742486Y-64437051D01*
X145712320Y-64285399D01*
X145449245Y-63891679D01*
X145055525Y-63628604D01*
X144591100Y-63536224D01*
X144126675Y-63628604D01*
X143732955Y-63891679D01*
X143469880Y-64285399D01*
X143377500Y-64749824D01*
X143377500Y-64797376D01*
X143469880Y-65261801D01*
X143620487Y-65487201D01*
X143021713Y-65487201D01*
X143172320Y-65261801D01*
X143264700Y-64797376D01*
X143264700Y-64749824D01*
X143172320Y-64285399D01*
X142909245Y-63891679D01*
X142515525Y-63628604D01*
X142051100Y-63536224D01*
X141586675Y-63628604D01*
X141192955Y-63891679D01*
X140929880Y-64285399D01*
X140837500Y-64749824D01*
X140837500Y-64797376D01*
X140929880Y-65261801D01*
X141080487Y-65487201D01*
X140481713Y-65487201D01*
X140632320Y-65261801D01*
X140724700Y-64797376D01*
X140724700Y-64749824D01*
X140632320Y-64285399D01*
X140369245Y-63891679D01*
X139975525Y-63628604D01*
X139511100Y-63536224D01*
X139046675Y-63628604D01*
X138652955Y-63891679D01*
X138389880Y-64285399D01*
X138297500Y-64749824D01*
X138297500Y-64797376D01*
X138389880Y-65261801D01*
X138540487Y-65487201D01*
X137941713Y-65487201D01*
X138092320Y-65261801D01*
X138184700Y-64797376D01*
X138184700Y-64749824D01*
X138092320Y-64285399D01*
X137829245Y-63891679D01*
X137435525Y-63628604D01*
X136971100Y-63536224D01*
X136506675Y-63628604D01*
X136112955Y-63891679D01*
X135849880Y-64285399D01*
X135757500Y-64749824D01*
X135757500Y-64797376D01*
X135849880Y-65261801D01*
X136000487Y-65487201D01*
X135401713Y-65487201D01*
X135552320Y-65261801D01*
X135644700Y-64797376D01*
X135644700Y-64749824D01*
X135552320Y-64285399D01*
X135289245Y-63891679D01*
X134895525Y-63628604D01*
X134431100Y-63536224D01*
X133966675Y-63628604D01*
X133572955Y-63891679D01*
X133309880Y-64285399D01*
X133217500Y-64749824D01*
X133217500Y-64797376D01*
X133309880Y-65261801D01*
X133460487Y-65487201D01*
X133276452Y-65487201D01*
X133018746Y-65229495D01*
X133104700Y-64797376D01*
X133104700Y-64749824D01*
X133012320Y-64285399D01*
X132749245Y-63891679D01*
X132355525Y-63628604D01*
X131891100Y-63536224D01*
X131426675Y-63628604D01*
X131032955Y-63891679D01*
X130769880Y-64285399D01*
X130677500Y-64749824D01*
X128024700Y-64749824D01*
X127962486Y-64437051D01*
X128185084Y-64437051D01*
X128234292Y-64623600D01*
X129201100Y-64623600D01*
X129201100Y-63657535D01*
X129501100Y-63657535D01*
X129501100Y-64623600D01*
X130467908Y-64623600D01*
X130517116Y-64437051D01*
X130299567Y-64016454D01*
X129937622Y-63711126D01*
X129687646Y-63607598D01*
X129501100Y-63657535D01*
X129201100Y-63657535D01*
X129014554Y-63607598D01*
X128764578Y-63711126D01*
X128402633Y-64016454D01*
X128185084Y-64437051D01*
X127962486Y-64437051D01*
X127932320Y-64285399D01*
X127669245Y-63891679D01*
X127275525Y-63628604D01*
X126811100Y-63536224D01*
X126346675Y-63628604D01*
X126075044Y-63810102D01*
X126149887Y-63629860D01*
X126150112Y-63371274D01*
X126079326Y-63199959D01*
X126346675Y-63378596D01*
X126811100Y-63470976D01*
X127275525Y-63378596D01*
X127669245Y-63115521D01*
X127932320Y-62721801D01*
X128024700Y-62257376D01*
X128024700Y-62209824D01*
X128137500Y-62209824D01*
X128137500Y-62257376D01*
X128229880Y-62721801D01*
X128492955Y-63115521D01*
X128886675Y-63378596D01*
X129351100Y-63470976D01*
X129815525Y-63378596D01*
X130209245Y-63115521D01*
X130472320Y-62721801D01*
X130564700Y-62257376D01*
X130564700Y-62209824D01*
X130677500Y-62209824D01*
X130677500Y-62257376D01*
X130769880Y-62721801D01*
X131032955Y-63115521D01*
X131426675Y-63378596D01*
X131891100Y-63470976D01*
X132355525Y-63378596D01*
X132749245Y-63115521D01*
X133012320Y-62721801D01*
X133042485Y-62570149D01*
X133265084Y-62570149D01*
X133482633Y-62990746D01*
X133844578Y-63296074D01*
X134094554Y-63399602D01*
X134281100Y-63349665D01*
X134281100Y-62383600D01*
X134581100Y-62383600D01*
X134581100Y-63349665D01*
X134767646Y-63399602D01*
X135017622Y-63296074D01*
X135379567Y-62990746D01*
X135597116Y-62570149D01*
X135547908Y-62383600D01*
X134581100Y-62383600D01*
X134281100Y-62383600D01*
X133314292Y-62383600D01*
X133265084Y-62570149D01*
X133042485Y-62570149D01*
X133104700Y-62257376D01*
X133104700Y-62209824D01*
X135757500Y-62209824D01*
X135757500Y-62257376D01*
X135849880Y-62721801D01*
X136112955Y-63115521D01*
X136506675Y-63378596D01*
X136971100Y-63470976D01*
X137435525Y-63378596D01*
X137829245Y-63115521D01*
X138092320Y-62721801D01*
X138122485Y-62570149D01*
X138345084Y-62570149D01*
X138562633Y-62990746D01*
X138924578Y-63296074D01*
X139174554Y-63399602D01*
X139361100Y-63349665D01*
X139361100Y-62383600D01*
X139661100Y-62383600D01*
X139661100Y-63349665D01*
X139847646Y-63399602D01*
X140097622Y-63296074D01*
X140459567Y-62990746D01*
X140677116Y-62570149D01*
X140627908Y-62383600D01*
X139661100Y-62383600D01*
X139361100Y-62383600D01*
X138394292Y-62383600D01*
X138345084Y-62570149D01*
X138122485Y-62570149D01*
X138184700Y-62257376D01*
X138184700Y-62209824D01*
X140837500Y-62209824D01*
X140837500Y-62257376D01*
X140929880Y-62721801D01*
X141192955Y-63115521D01*
X141586675Y-63378596D01*
X142051100Y-63470976D01*
X142515525Y-63378596D01*
X142909245Y-63115521D01*
X143172320Y-62721801D01*
X143264700Y-62257376D01*
X143264700Y-62209824D01*
X143377500Y-62209824D01*
X143377500Y-62257376D01*
X143469880Y-62721801D01*
X143732955Y-63115521D01*
X144126675Y-63378596D01*
X144591100Y-63470976D01*
X145055525Y-63378596D01*
X145449245Y-63115521D01*
X145712320Y-62721801D01*
X145804700Y-62257376D01*
X145804700Y-62209824D01*
X145917500Y-62209824D01*
X145917500Y-62257376D01*
X146009880Y-62721801D01*
X146272955Y-63115521D01*
X146666675Y-63378596D01*
X147131100Y-63470976D01*
X147595525Y-63378596D01*
X147989245Y-63115521D01*
X148252320Y-62721801D01*
X148344700Y-62257376D01*
X148344700Y-62209824D01*
X148252320Y-61745399D01*
X147989245Y-61351679D01*
X147595525Y-61088604D01*
X147131100Y-60996224D01*
X146666675Y-61088604D01*
X146272955Y-61351679D01*
X146009880Y-61745399D01*
X145917500Y-62209824D01*
X145804700Y-62209824D01*
X145712320Y-61745399D01*
X145449245Y-61351679D01*
X145055525Y-61088604D01*
X144591100Y-60996224D01*
X144126675Y-61088604D01*
X143732955Y-61351679D01*
X143469880Y-61745399D01*
X143377500Y-62209824D01*
X143264700Y-62209824D01*
X143172320Y-61745399D01*
X142909245Y-61351679D01*
X142515525Y-61088604D01*
X142051100Y-60996224D01*
X141586675Y-61088604D01*
X141192955Y-61351679D01*
X140929880Y-61745399D01*
X140837500Y-62209824D01*
X138184700Y-62209824D01*
X138122486Y-61897051D01*
X138345084Y-61897051D01*
X138394292Y-62083600D01*
X139361100Y-62083600D01*
X139361100Y-61117535D01*
X139661100Y-61117535D01*
X139661100Y-62083600D01*
X140627908Y-62083600D01*
X140677116Y-61897051D01*
X140459567Y-61476454D01*
X140097622Y-61171126D01*
X139847646Y-61067598D01*
X139661100Y-61117535D01*
X139361100Y-61117535D01*
X139174554Y-61067598D01*
X138924578Y-61171126D01*
X138562633Y-61476454D01*
X138345084Y-61897051D01*
X138122486Y-61897051D01*
X138092320Y-61745399D01*
X137829245Y-61351679D01*
X137435525Y-61088604D01*
X136971100Y-60996224D01*
X136506675Y-61088604D01*
X136112955Y-61351679D01*
X135849880Y-61745399D01*
X135757500Y-62209824D01*
X133104700Y-62209824D01*
X133042486Y-61897051D01*
X133265084Y-61897051D01*
X133314292Y-62083600D01*
X134281100Y-62083600D01*
X134281100Y-61117535D01*
X134581100Y-61117535D01*
X134581100Y-62083600D01*
X135547908Y-62083600D01*
X135597116Y-61897051D01*
X135379567Y-61476454D01*
X135017622Y-61171126D01*
X134767646Y-61067598D01*
X134581100Y-61117535D01*
X134281100Y-61117535D01*
X134094554Y-61067598D01*
X133844578Y-61171126D01*
X133482633Y-61476454D01*
X133265084Y-61897051D01*
X133042486Y-61897051D01*
X133012320Y-61745399D01*
X132749245Y-61351679D01*
X132355525Y-61088604D01*
X131891100Y-60996224D01*
X131426675Y-61088604D01*
X131032955Y-61351679D01*
X130769880Y-61745399D01*
X130677500Y-62209824D01*
X130564700Y-62209824D01*
X130472320Y-61745399D01*
X130209245Y-61351679D01*
X129815525Y-61088604D01*
X129351100Y-60996224D01*
X128886675Y-61088604D01*
X128492955Y-61351679D01*
X128229880Y-61745399D01*
X128137500Y-62209824D01*
X128024700Y-62209824D01*
X127932320Y-61745399D01*
X127669245Y-61351679D01*
X127275525Y-61088604D01*
X126811100Y-60996224D01*
X126346675Y-61088604D01*
X125952955Y-61351679D01*
X125689880Y-61745399D01*
X125597500Y-62209824D01*
X125597500Y-62257376D01*
X125689880Y-62721801D01*
X125831584Y-62933876D01*
X125629860Y-62850113D01*
X125371274Y-62849888D01*
X125282121Y-62886725D01*
X125392320Y-62721801D01*
X125484700Y-62257376D01*
X125484700Y-62209824D01*
X125392320Y-61745399D01*
X125129245Y-61351679D01*
X124735525Y-61088604D01*
X124271100Y-60996224D01*
X123806675Y-61088604D01*
X123412955Y-61351679D01*
X123149880Y-61745399D01*
X123057500Y-62209824D01*
X120404700Y-62209824D01*
X120342486Y-61897051D01*
X120565084Y-61897051D01*
X120614292Y-62083600D01*
X121581100Y-62083600D01*
X121581100Y-61117535D01*
X121881100Y-61117535D01*
X121881100Y-62083600D01*
X122847908Y-62083600D01*
X122897116Y-61897051D01*
X122679567Y-61476454D01*
X122317622Y-61171126D01*
X122067646Y-61067598D01*
X121881100Y-61117535D01*
X121581100Y-61117535D01*
X121394554Y-61067598D01*
X121144578Y-61171126D01*
X120782633Y-61476454D01*
X120565084Y-61897051D01*
X120342486Y-61897051D01*
X120312320Y-61745399D01*
X120049245Y-61351679D01*
X119655525Y-61088604D01*
X119191100Y-60996224D01*
X118726675Y-61088604D01*
X118332955Y-61351679D01*
X118069880Y-61745399D01*
X117977500Y-62209824D01*
X117864700Y-62209824D01*
X117772320Y-61745399D01*
X117509245Y-61351679D01*
X117115525Y-61088604D01*
X116651100Y-60996224D01*
X116186675Y-61088604D01*
X115792955Y-61351679D01*
X115529880Y-61745399D01*
X115437500Y-62209824D01*
X112784700Y-62209824D01*
X112722486Y-61897051D01*
X112945084Y-61897051D01*
X112994292Y-62083600D01*
X113961100Y-62083600D01*
X113961100Y-61117535D01*
X114261100Y-61117535D01*
X114261100Y-62083600D01*
X115227908Y-62083600D01*
X115277116Y-61897051D01*
X115059567Y-61476454D01*
X114697622Y-61171126D01*
X114447646Y-61067598D01*
X114261100Y-61117535D01*
X113961100Y-61117535D01*
X113774554Y-61067598D01*
X113524578Y-61171126D01*
X113162633Y-61476454D01*
X112945084Y-61897051D01*
X112722486Y-61897051D01*
X112692320Y-61745399D01*
X112429245Y-61351679D01*
X112035525Y-61088604D01*
X111571100Y-60996224D01*
X111106675Y-61088604D01*
X110712955Y-61351679D01*
X110449880Y-61745399D01*
X110357500Y-62209824D01*
X110244700Y-62209824D01*
X110152320Y-61745399D01*
X109889245Y-61351679D01*
X109495525Y-61088604D01*
X109031100Y-60996224D01*
X108566675Y-61088604D01*
X108172955Y-61351679D01*
X107909880Y-61745399D01*
X107817500Y-62209824D01*
X107704700Y-62209824D01*
X107612320Y-61745399D01*
X107349245Y-61351679D01*
X106955525Y-61088604D01*
X106491100Y-60996224D01*
X106026675Y-61088604D01*
X105632955Y-61351679D01*
X105369880Y-61745399D01*
X105277500Y-62209824D01*
X102624700Y-62209824D01*
X102562486Y-61897051D01*
X102785084Y-61897051D01*
X102834292Y-62083600D01*
X103801100Y-62083600D01*
X103801100Y-61117535D01*
X104101100Y-61117535D01*
X104101100Y-62083600D01*
X105067908Y-62083600D01*
X105117116Y-61897051D01*
X104899567Y-61476454D01*
X104537622Y-61171126D01*
X104287646Y-61067598D01*
X104101100Y-61117535D01*
X103801100Y-61117535D01*
X103614554Y-61067598D01*
X103364578Y-61171126D01*
X103002633Y-61476454D01*
X102785084Y-61897051D01*
X102562486Y-61897051D01*
X102532320Y-61745399D01*
X102269245Y-61351679D01*
X101875525Y-61088604D01*
X101411100Y-60996224D01*
X100946675Y-61088604D01*
X100552955Y-61351679D01*
X100289880Y-61745399D01*
X100197500Y-62209824D01*
X100084700Y-62209824D01*
X99992320Y-61745399D01*
X99729245Y-61351679D01*
X99335525Y-61088604D01*
X98871100Y-60996224D01*
X98406675Y-61088604D01*
X98012955Y-61351679D01*
X97749880Y-61745399D01*
X97657500Y-62209824D01*
X96955978Y-62209824D01*
X96736716Y-61679171D01*
X95830301Y-60771173D01*
X94816003Y-60350000D01*
X151188270Y-60350000D01*
X150176671Y-60767984D01*
X150176671Y-60767984D01*
G37*
X150176671Y-60767984D02*
X149268673Y-61674399D01*
X148776662Y-62859294D01*
X148775542Y-64142278D01*
X149265484Y-65328029D01*
X150171899Y-66236027D01*
X151356794Y-66728038D01*
X152639778Y-66729158D01*
X153825529Y-66239216D01*
X154733527Y-65332801D01*
X155150000Y-64329822D01*
X155150000Y-111679395D01*
X154736716Y-110679171D01*
X153830301Y-109771173D01*
X152645406Y-109279162D01*
X151362422Y-109278042D01*
X150176671Y-109767984D01*
X149268673Y-110674399D01*
X148776662Y-111859294D01*
X148775542Y-113142278D01*
X149265484Y-114328029D01*
X150171899Y-115236027D01*
X151168857Y-115650000D01*
X94831355Y-115650000D01*
X95825529Y-115239216D01*
X96733527Y-114332801D01*
X96871717Y-114000000D01*
X137207238Y-114000000D01*
X137311219Y-114522746D01*
X137607330Y-114965908D01*
X138050492Y-115262019D01*
X138573238Y-115366000D01*
X138626762Y-115366000D01*
X139149508Y-115262019D01*
X139592670Y-114965908D01*
X139888781Y-114522746D01*
X139992762Y-114000000D01*
X139888781Y-113477254D01*
X139592670Y-113034092D01*
X139291499Y-112832856D01*
X139616000Y-112832856D01*
X139745702Y-112808451D01*
X139864825Y-112731797D01*
X139944741Y-112614837D01*
X139972856Y-112476000D01*
X139972856Y-110444000D01*
X139948451Y-110314298D01*
X139871797Y-110195175D01*
X139754837Y-110115259D01*
X139616000Y-110087144D01*
X137584000Y-110087144D01*
X137454298Y-110111549D01*
X137335175Y-110188203D01*
X137255259Y-110305163D01*
X137227144Y-110444000D01*
X137227144Y-112476000D01*
X137251549Y-112605702D01*
X137328203Y-112724825D01*
X137445163Y-112804741D01*
X137584000Y-112832856D01*
X137908501Y-112832856D01*
X137607330Y-113034092D01*
X137311219Y-113477254D01*
X137207238Y-114000000D01*
X96871717Y-114000000D01*
X97225538Y-113147906D01*
X97226658Y-111864922D01*
X96736716Y-110679171D01*
X95830301Y-109771173D01*
X95779311Y-109750000D01*
X98393144Y-109750000D01*
X98393144Y-112250000D01*
X98417549Y-112379702D01*
X98494203Y-112498825D01*
X98611163Y-112578741D01*
X98750000Y-112606856D01*
X101250000Y-112606856D01*
X101379702Y-112582451D01*
X101498825Y-112505797D01*
X101578741Y-112388837D01*
X101606856Y-112250000D01*
X101606856Y-112192565D01*
X104019567Y-112192565D01*
X104166534Y-112402363D01*
X104766639Y-112614568D01*
X105402271Y-112580970D01*
X105833466Y-112402363D01*
X105980433Y-112192565D01*
X105000000Y-111212132D01*
X104019567Y-112192565D01*
X101606856Y-112192565D01*
X101606856Y-110766639D01*
X103385432Y-110766639D01*
X103419030Y-111402271D01*
X103597637Y-111833466D01*
X103807435Y-111980433D01*
X104787868Y-111000000D01*
X105212132Y-111000000D01*
X106192565Y-111980433D01*
X106402363Y-111833466D01*
X106614568Y-111233361D01*
X106580970Y-110597729D01*
X106402363Y-110166534D01*
X106192565Y-110019567D01*
X105212132Y-111000000D01*
X104787868Y-111000000D01*
X103807435Y-110019567D01*
X103597637Y-110166534D01*
X103385432Y-110766639D01*
X101606856Y-110766639D01*
X101606856Y-109807435D01*
X104019567Y-109807435D01*
X105000000Y-110787868D01*
X105980433Y-109807435D01*
X105833466Y-109597637D01*
X105233361Y-109385432D01*
X104597729Y-109419030D01*
X104166534Y-109597637D01*
X104019567Y-109807435D01*
X101606856Y-109807435D01*
X101606856Y-109750000D01*
X101582451Y-109620298D01*
X101505797Y-109501175D01*
X101388837Y-109421259D01*
X101250000Y-109393144D01*
X98750000Y-109393144D01*
X98620298Y-109417549D01*
X98501175Y-109494203D01*
X98421259Y-109611163D01*
X98393144Y-109750000D01*
X95779311Y-109750000D01*
X94645406Y-109279162D01*
X93362422Y-109278042D01*
X92176671Y-109767984D01*
X91268673Y-110674399D01*
X90850000Y-111682676D01*
X90850000Y-106750000D01*
X110800000Y-106750000D01*
X110864702Y-107075281D01*
X111048959Y-107351041D01*
X112046608Y-108348690D01*
X112322368Y-108532947D01*
X112647649Y-108597650D01*
X112647654Y-108597649D01*
X132073023Y-108597649D01*
X132398304Y-108532947D01*
X132674064Y-108348690D01*
X132858321Y-108072930D01*
X132923023Y-107747649D01*
X132894522Y-107604362D01*
X132930000Y-107426000D01*
X132930000Y-106782856D01*
X132943600Y-106782856D01*
X133073302Y-106758451D01*
X133192425Y-106681797D01*
X133272341Y-106564837D01*
X133300456Y-106426000D01*
X133300456Y-104394000D01*
X133276051Y-104264298D01*
X133199397Y-104145175D01*
X133082437Y-104065259D01*
X132943600Y-104037144D01*
X131216400Y-104037144D01*
X131086698Y-104061549D01*
X130967575Y-104138203D01*
X130887659Y-104255163D01*
X130859544Y-104394000D01*
X130859544Y-106426000D01*
X130883949Y-106555702D01*
X130960603Y-106674825D01*
X131077563Y-106754741D01*
X131216400Y-106782856D01*
X131230000Y-106782856D01*
X131230000Y-106897649D01*
X112999731Y-106897649D01*
X112251041Y-106148959D01*
X111975281Y-105964702D01*
X111650000Y-105900000D01*
X111324719Y-105964702D01*
X111048959Y-106148959D01*
X110864702Y-106424719D01*
X110800000Y-106750000D01*
X90850000Y-106750000D01*
X90850000Y-105749902D01*
X113100820Y-105749902D01*
X113263856Y-106194536D01*
X113584636Y-106542933D01*
X113963454Y-106728402D01*
X114150000Y-106678465D01*
X114150000Y-105560000D01*
X114450000Y-105560000D01*
X114450000Y-106678465D01*
X114636546Y-106728402D01*
X115015364Y-106542933D01*
X115336144Y-106194536D01*
X115499180Y-105749902D01*
X115640820Y-105749902D01*
X115803856Y-106194536D01*
X116124636Y-106542933D01*
X116503454Y-106728402D01*
X116690000Y-106678465D01*
X116690000Y-105560000D01*
X116990000Y-105560000D01*
X116990000Y-106678465D01*
X117176546Y-106728402D01*
X117555364Y-106542933D01*
X117876144Y-106194536D01*
X118039180Y-105749902D01*
X117966248Y-105560000D01*
X116990000Y-105560000D01*
X116690000Y-105560000D01*
X115713752Y-105560000D01*
X115640820Y-105749902D01*
X115499180Y-105749902D01*
X115426248Y-105560000D01*
X114450000Y-105560000D01*
X114150000Y-105560000D01*
X113173752Y-105560000D01*
X113100820Y-105749902D01*
X90850000Y-105749902D01*
X90850000Y-102378726D01*
X93599888Y-102378726D01*
X93698636Y-102617714D01*
X93775000Y-102694212D01*
X93775000Y-104555734D01*
X93699278Y-104631324D01*
X93600113Y-104870140D01*
X93599888Y-105128726D01*
X93698636Y-105367714D01*
X93881324Y-105550722D01*
X94120140Y-105649887D01*
X94378726Y-105650112D01*
X94617714Y-105551364D01*
X94800722Y-105368676D01*
X94899887Y-105129860D01*
X94900112Y-104871274D01*
X94801364Y-104632286D01*
X94725000Y-104555788D01*
X94725000Y-102694266D01*
X94800722Y-102618676D01*
X94899887Y-102379860D01*
X94900112Y-102121274D01*
X94801364Y-101882286D01*
X94618676Y-101699278D01*
X94379860Y-101600113D01*
X94121274Y-101599888D01*
X93882286Y-101698636D01*
X93699278Y-101881324D01*
X93600113Y-102120140D01*
X93599888Y-102378726D01*
X90850000Y-102378726D01*
X90850000Y-101460000D01*
X103607238Y-101460000D01*
X103711219Y-101982746D01*
X104007330Y-102425908D01*
X104308501Y-102627144D01*
X103984000Y-102627144D01*
X103854298Y-102651549D01*
X103735175Y-102728203D01*
X103655259Y-102845163D01*
X103627144Y-102984000D01*
X103627144Y-105016000D01*
X103651549Y-105145702D01*
X103728203Y-105264825D01*
X103845163Y-105344741D01*
X103984000Y-105372856D01*
X106016000Y-105372856D01*
X106145702Y-105348451D01*
X106264825Y-105271797D01*
X106344741Y-105154837D01*
X106361900Y-105070098D01*
X113100820Y-105070098D01*
X113173752Y-105260000D01*
X114150000Y-105260000D01*
X114150000Y-104141535D01*
X114450000Y-104141535D01*
X114450000Y-105260000D01*
X115426248Y-105260000D01*
X115499180Y-105070098D01*
X115640820Y-105070098D01*
X115713752Y-105260000D01*
X116690000Y-105260000D01*
X116690000Y-104141535D01*
X116990000Y-104141535D01*
X116990000Y-105260000D01*
X117966248Y-105260000D01*
X117977447Y-105230838D01*
X118166400Y-105230838D01*
X118166400Y-105589162D01*
X118258780Y-106053587D01*
X118521855Y-106447307D01*
X118915575Y-106710382D01*
X119380000Y-106802762D01*
X119844425Y-106710382D01*
X120238145Y-106447307D01*
X120501220Y-106053587D01*
X120593600Y-105589162D01*
X120593600Y-105230838D01*
X120501220Y-104766413D01*
X120252382Y-104394000D01*
X120699544Y-104394000D01*
X120699544Y-106426000D01*
X120723949Y-106555702D01*
X120800603Y-106674825D01*
X120917563Y-106754741D01*
X121056400Y-106782856D01*
X122783600Y-106782856D01*
X122913302Y-106758451D01*
X123032425Y-106681797D01*
X123112341Y-106564837D01*
X123140456Y-106426000D01*
X123140456Y-105749902D01*
X123260820Y-105749902D01*
X123423856Y-106194536D01*
X123744636Y-106542933D01*
X124123454Y-106728402D01*
X124310000Y-106678465D01*
X124310000Y-105560000D01*
X124610000Y-105560000D01*
X124610000Y-106678465D01*
X124796546Y-106728402D01*
X125175364Y-106542933D01*
X125496144Y-106194536D01*
X125659180Y-105749902D01*
X125586248Y-105560000D01*
X124610000Y-105560000D01*
X124310000Y-105560000D01*
X123333752Y-105560000D01*
X123260820Y-105749902D01*
X123140456Y-105749902D01*
X123140456Y-105070098D01*
X123260820Y-105070098D01*
X123333752Y-105260000D01*
X124310000Y-105260000D01*
X124310000Y-104141535D01*
X124610000Y-104141535D01*
X124610000Y-105260000D01*
X125586248Y-105260000D01*
X125597447Y-105230838D01*
X125786400Y-105230838D01*
X125786400Y-105589162D01*
X125878780Y-106053587D01*
X126141855Y-106447307D01*
X126535575Y-106710382D01*
X127000000Y-106802762D01*
X127464425Y-106710382D01*
X127858145Y-106447307D01*
X128121220Y-106053587D01*
X128213600Y-105589162D01*
X128213600Y-105230838D01*
X128326400Y-105230838D01*
X128326400Y-105589162D01*
X128418780Y-106053587D01*
X128681855Y-106447307D01*
X129075575Y-106710382D01*
X129540000Y-106802762D01*
X130004425Y-106710382D01*
X130398145Y-106447307D01*
X130661220Y-106053587D01*
X130753600Y-105589162D01*
X130753600Y-105230838D01*
X130661220Y-104766413D01*
X130398145Y-104372693D01*
X130004425Y-104109618D01*
X129540000Y-104017238D01*
X129075575Y-104109618D01*
X128681855Y-104372693D01*
X128418780Y-104766413D01*
X128326400Y-105230838D01*
X128213600Y-105230838D01*
X128121220Y-104766413D01*
X127858145Y-104372693D01*
X127464425Y-104109618D01*
X127000000Y-104017238D01*
X126535575Y-104109618D01*
X126141855Y-104372693D01*
X125878780Y-104766413D01*
X125786400Y-105230838D01*
X125597447Y-105230838D01*
X125659180Y-105070098D01*
X125496144Y-104625464D01*
X125175364Y-104277067D01*
X124796546Y-104091598D01*
X124610000Y-104141535D01*
X124310000Y-104141535D01*
X124123454Y-104091598D01*
X123744636Y-104277067D01*
X123423856Y-104625464D01*
X123260820Y-105070098D01*
X123140456Y-105070098D01*
X123140456Y-104394000D01*
X123116051Y-104264298D01*
X123039397Y-104145175D01*
X122922437Y-104065259D01*
X122783600Y-104037144D01*
X121056400Y-104037144D01*
X120926698Y-104061549D01*
X120807575Y-104138203D01*
X120727659Y-104255163D01*
X120699544Y-104394000D01*
X120252382Y-104394000D01*
X120238145Y-104372693D01*
X119844425Y-104109618D01*
X119380000Y-104017238D01*
X118915575Y-104109618D01*
X118521855Y-104372693D01*
X118258780Y-104766413D01*
X118166400Y-105230838D01*
X117977447Y-105230838D01*
X118039180Y-105070098D01*
X117876144Y-104625464D01*
X117555364Y-104277067D01*
X117176546Y-104091598D01*
X116990000Y-104141535D01*
X116690000Y-104141535D01*
X116503454Y-104091598D01*
X116124636Y-104277067D01*
X115803856Y-104625464D01*
X115640820Y-105070098D01*
X115499180Y-105070098D01*
X115336144Y-104625464D01*
X115015364Y-104277067D01*
X114636546Y-104091598D01*
X114450000Y-104141535D01*
X114150000Y-104141535D01*
X113963454Y-104091598D01*
X113584636Y-104277067D01*
X113263856Y-104625464D01*
X113100820Y-105070098D01*
X106361900Y-105070098D01*
X106372856Y-105016000D01*
X106372856Y-102984000D01*
X106348451Y-102854298D01*
X106271797Y-102735175D01*
X106154837Y-102655259D01*
X106016000Y-102627144D01*
X105691499Y-102627144D01*
X105992670Y-102425908D01*
X106288781Y-101982746D01*
X106392762Y-101460000D01*
X106288781Y-100937254D01*
X105992670Y-100494092D01*
X105549508Y-100197981D01*
X105026762Y-100094000D01*
X104973238Y-100094000D01*
X104450492Y-100197981D01*
X104007330Y-100494092D01*
X103711219Y-100937254D01*
X103607238Y-101460000D01*
X90850000Y-101460000D01*
X90850000Y-97559095D01*
X90854388Y-97537034D01*
X91391422Y-97000000D01*
X134150000Y-97000000D01*
X134150000Y-112000000D01*
X134252763Y-112516623D01*
X134545406Y-112954594D01*
X134983377Y-113247237D01*
X135500000Y-113350000D01*
X136016623Y-113247237D01*
X136454594Y-112954594D01*
X136747237Y-112516623D01*
X136850000Y-112000000D01*
X136850000Y-97000000D01*
X136747237Y-96483377D01*
X136454594Y-96045406D01*
X136016623Y-95752763D01*
X135500000Y-95650000D01*
X134983377Y-95752763D01*
X134545406Y-96045406D01*
X134252763Y-96483377D01*
X134150000Y-97000000D01*
X91391422Y-97000000D01*
X91537034Y-96854388D01*
X91559095Y-96850000D01*
X95000000Y-96850000D01*
X95038906Y-96842121D01*
X95070711Y-96820711D01*
X95359268Y-96532154D01*
X95363668Y-96529214D01*
X95363671Y-96529213D01*
X95529211Y-96363673D01*
X95532155Y-96359267D01*
X95820711Y-96070711D01*
X95842650Y-96037629D01*
X95850000Y-96000000D01*
X95850000Y-91948000D01*
X100715238Y-91948000D01*
X100819219Y-92470746D01*
X101115330Y-92913908D01*
X101416501Y-93115144D01*
X101092000Y-93115144D01*
X100962298Y-93139549D01*
X100843175Y-93216203D01*
X100763259Y-93333163D01*
X100735144Y-93472000D01*
X100735144Y-95504000D01*
X100759549Y-95633702D01*
X100836203Y-95752825D01*
X100953163Y-95832741D01*
X101092000Y-95860856D01*
X103124000Y-95860856D01*
X103253702Y-95836451D01*
X103372825Y-95759797D01*
X103452741Y-95642837D01*
X103480856Y-95504000D01*
X103480856Y-93472000D01*
X103456451Y-93342298D01*
X103379797Y-93223175D01*
X103262837Y-93143259D01*
X103124000Y-93115144D01*
X102799499Y-93115144D01*
X103100670Y-92913908D01*
X103396781Y-92470746D01*
X103418715Y-92360473D01*
X116214446Y-92360473D01*
X116313194Y-92599461D01*
X116495882Y-92782469D01*
X116734698Y-92881634D01*
X116993284Y-92881859D01*
X117232272Y-92783111D01*
X117415280Y-92600423D01*
X117514445Y-92361607D01*
X117514539Y-92253518D01*
X117639331Y-92128726D01*
X125349888Y-92128726D01*
X125448636Y-92367714D01*
X125631324Y-92550722D01*
X125870140Y-92649887D01*
X126128726Y-92650112D01*
X126367714Y-92551364D01*
X126444212Y-92475000D01*
X129000000Y-92475000D01*
X129181775Y-92438843D01*
X129335876Y-92335876D01*
X132131751Y-89540000D01*
X135262624Y-89540000D01*
X135355004Y-90004425D01*
X135618079Y-90398145D01*
X136011799Y-90661220D01*
X136476224Y-90753600D01*
X136523776Y-90753600D01*
X136988201Y-90661220D01*
X137381921Y-90398145D01*
X137644996Y-90004425D01*
X137737376Y-89540000D01*
X137644996Y-89075575D01*
X137381921Y-88681855D01*
X137373758Y-88676400D01*
X137819544Y-88676400D01*
X137819544Y-90403600D01*
X137843949Y-90533302D01*
X137920603Y-90652425D01*
X138037563Y-90732341D01*
X138176400Y-90760456D01*
X139903600Y-90760456D01*
X140033302Y-90736051D01*
X140152425Y-90659397D01*
X140232341Y-90542437D01*
X140260456Y-90403600D01*
X140260456Y-88676400D01*
X140236051Y-88546698D01*
X140159397Y-88427575D01*
X140042437Y-88347659D01*
X139903600Y-88319544D01*
X138176400Y-88319544D01*
X138046698Y-88343949D01*
X137927575Y-88420603D01*
X137847659Y-88537563D01*
X137819544Y-88676400D01*
X137373758Y-88676400D01*
X136988201Y-88418780D01*
X136523776Y-88326400D01*
X136476224Y-88326400D01*
X136011799Y-88418780D01*
X135618079Y-88681855D01*
X135355004Y-89075575D01*
X135262624Y-89540000D01*
X132131751Y-89540000D01*
X133035874Y-88635877D01*
X133035877Y-88635875D01*
X133138844Y-88481774D01*
X133159116Y-88379860D01*
X133175002Y-88299999D01*
X133175001Y-88299994D01*
X133175001Y-87230992D01*
X133367714Y-87151364D01*
X133519343Y-87000000D01*
X135262624Y-87000000D01*
X135355004Y-87464425D01*
X135618079Y-87858145D01*
X136011799Y-88121220D01*
X136476224Y-88213600D01*
X136523776Y-88213600D01*
X136988201Y-88121220D01*
X137381921Y-87858145D01*
X137644996Y-87464425D01*
X137737376Y-87000000D01*
X137802624Y-87000000D01*
X137895004Y-87464425D01*
X138158079Y-87858145D01*
X138551799Y-88121220D01*
X139016224Y-88213600D01*
X139063776Y-88213600D01*
X139528201Y-88121220D01*
X139921921Y-87858145D01*
X140184996Y-87464425D01*
X140277376Y-87000000D01*
X140184996Y-86535575D01*
X139921921Y-86141855D01*
X139528201Y-85878780D01*
X139063776Y-85786400D01*
X139016224Y-85786400D01*
X138551799Y-85878780D01*
X138158079Y-86141855D01*
X137895004Y-86535575D01*
X137802624Y-87000000D01*
X137737376Y-87000000D01*
X137644996Y-86535575D01*
X137381921Y-86141855D01*
X136988201Y-85878780D01*
X136523776Y-85786400D01*
X136476224Y-85786400D01*
X136011799Y-85878780D01*
X135618079Y-86141855D01*
X135355004Y-86535575D01*
X135262624Y-87000000D01*
X133519343Y-87000000D01*
X133550722Y-86968676D01*
X133649887Y-86729860D01*
X133650112Y-86471274D01*
X133551364Y-86232286D01*
X133368676Y-86049278D01*
X133129860Y-85950113D01*
X132871274Y-85949888D01*
X132632286Y-86048636D01*
X132449278Y-86231324D01*
X132350113Y-86470140D01*
X132350013Y-86585243D01*
X132261158Y-86718224D01*
X132225001Y-86899999D01*
X132225001Y-88103248D01*
X128803248Y-91525000D01*
X126444266Y-91525000D01*
X126368676Y-91449278D01*
X126129860Y-91350113D01*
X125871274Y-91349888D01*
X125632286Y-91448636D01*
X125449278Y-91631324D01*
X125350113Y-91870140D01*
X125349888Y-92128726D01*
X117639331Y-92128726D01*
X118116431Y-91651626D01*
X118660026Y-91651626D01*
X118735616Y-91727348D01*
X118974432Y-91826513D01*
X119233018Y-91826738D01*
X119472006Y-91727990D01*
X119655014Y-91545302D01*
X119754179Y-91306486D01*
X119754404Y-91047900D01*
X119655656Y-90808912D01*
X119472968Y-90625904D01*
X119234152Y-90526739D01*
X118975566Y-90526514D01*
X118736578Y-90625262D01*
X118660080Y-90701626D01*
X117919684Y-90701626D01*
X117919679Y-90701625D01*
X117768063Y-90731784D01*
X117737904Y-90737783D01*
X117632892Y-90807950D01*
X117583803Y-90840750D01*
X116842825Y-91581728D01*
X116735832Y-91581635D01*
X116496844Y-91680383D01*
X116313836Y-91863071D01*
X116214671Y-92101887D01*
X116214446Y-92360473D01*
X103418715Y-92360473D01*
X103500762Y-91948000D01*
X103396781Y-91425254D01*
X103100670Y-90982092D01*
X102657508Y-90685981D01*
X102134762Y-90582000D01*
X102081238Y-90582000D01*
X101558492Y-90685981D01*
X101115330Y-90982092D01*
X100819219Y-91425254D01*
X100715238Y-91948000D01*
X95850000Y-91948000D01*
X95850000Y-88378726D01*
X130349888Y-88378726D01*
X130448636Y-88617714D01*
X130631324Y-88800722D01*
X130870140Y-88899887D01*
X131128726Y-88900112D01*
X131367714Y-88801364D01*
X131550722Y-88618676D01*
X131649887Y-88379860D01*
X131650112Y-88121274D01*
X131551364Y-87882286D01*
X131475000Y-87805788D01*
X131475000Y-84460000D01*
X135262624Y-84460000D01*
X135355004Y-84924425D01*
X135618079Y-85318145D01*
X136011799Y-85581220D01*
X136476224Y-85673600D01*
X136523776Y-85673600D01*
X136988201Y-85581220D01*
X137381921Y-85318145D01*
X137644996Y-84924425D01*
X137670432Y-84796546D01*
X137873998Y-84796546D01*
X137977526Y-85046522D01*
X138282854Y-85408467D01*
X138703451Y-85626016D01*
X138890000Y-85576808D01*
X138890000Y-84610000D01*
X139190000Y-84610000D01*
X139190000Y-85576808D01*
X139376549Y-85626016D01*
X139797146Y-85408467D01*
X140102474Y-85046522D01*
X140206002Y-84796546D01*
X140156065Y-84610000D01*
X139190000Y-84610000D01*
X138890000Y-84610000D01*
X137923935Y-84610000D01*
X137873998Y-84796546D01*
X137670432Y-84796546D01*
X137737376Y-84460000D01*
X137670433Y-84123454D01*
X137873998Y-84123454D01*
X137923935Y-84310000D01*
X138890000Y-84310000D01*
X138890000Y-83343192D01*
X139190000Y-83343192D01*
X139190000Y-84310000D01*
X140156065Y-84310000D01*
X140206002Y-84123454D01*
X140102474Y-83873478D01*
X139797146Y-83511533D01*
X139376549Y-83293984D01*
X139190000Y-83343192D01*
X138890000Y-83343192D01*
X138703451Y-83293984D01*
X138282854Y-83511533D01*
X137977526Y-83873478D01*
X137873998Y-84123454D01*
X137670433Y-84123454D01*
X137644996Y-83995575D01*
X137381921Y-83601855D01*
X136988201Y-83338780D01*
X136523776Y-83246400D01*
X136476224Y-83246400D01*
X136011799Y-83338780D01*
X135618079Y-83601855D01*
X135355004Y-83995575D01*
X135262624Y-84460000D01*
X131475000Y-84460000D01*
X131475000Y-81920000D01*
X135262624Y-81920000D01*
X135355004Y-82384425D01*
X135618079Y-82778145D01*
X136011799Y-83041220D01*
X136476224Y-83133600D01*
X136523776Y-83133600D01*
X136988201Y-83041220D01*
X137381921Y-82778145D01*
X137644996Y-82384425D01*
X137670432Y-82256546D01*
X137873998Y-82256546D01*
X137977526Y-82506522D01*
X138282854Y-82868467D01*
X138703451Y-83086016D01*
X138890000Y-83036808D01*
X138890000Y-82070000D01*
X139190000Y-82070000D01*
X139190000Y-83036808D01*
X139376549Y-83086016D01*
X139797146Y-82868467D01*
X140102474Y-82506522D01*
X140206002Y-82256546D01*
X140156065Y-82070000D01*
X139190000Y-82070000D01*
X138890000Y-82070000D01*
X137923935Y-82070000D01*
X137873998Y-82256546D01*
X137670432Y-82256546D01*
X137737376Y-81920000D01*
X137670433Y-81583454D01*
X137873998Y-81583454D01*
X137923935Y-81770000D01*
X138890000Y-81770000D01*
X138890000Y-80803192D01*
X139190000Y-80803192D01*
X139190000Y-81770000D01*
X140156065Y-81770000D01*
X140206002Y-81583454D01*
X140102474Y-81333478D01*
X139797146Y-80971533D01*
X139376549Y-80753984D01*
X139190000Y-80803192D01*
X138890000Y-80803192D01*
X138703451Y-80753984D01*
X138282854Y-80971533D01*
X137977526Y-81333478D01*
X137873998Y-81583454D01*
X137670433Y-81583454D01*
X137644996Y-81455575D01*
X137381921Y-81061855D01*
X136988201Y-80798780D01*
X136523776Y-80706400D01*
X136476224Y-80706400D01*
X136011799Y-80798780D01*
X135618079Y-81061855D01*
X135355004Y-81455575D01*
X135262624Y-81920000D01*
X131475000Y-81920000D01*
X131475000Y-80340693D01*
X131648959Y-80601041D01*
X131924719Y-80785298D01*
X132250000Y-80850000D01*
X132575281Y-80785298D01*
X132851041Y-80601041D01*
X133102082Y-80350000D01*
X135750000Y-80350000D01*
X136075281Y-80285298D01*
X136351041Y-80101041D01*
X136535298Y-79825281D01*
X136600000Y-79500000D01*
X136535298Y-79174719D01*
X136351041Y-78898959D01*
X136075281Y-78714702D01*
X135750000Y-78650000D01*
X132750000Y-78650000D01*
X132424719Y-78714702D01*
X132148959Y-78898959D01*
X131648959Y-79398959D01*
X131475000Y-79659307D01*
X131475000Y-74596618D01*
X131680917Y-74511535D01*
X131863925Y-74328847D01*
X131963090Y-74090031D01*
X131963315Y-73831445D01*
X131864567Y-73592457D01*
X131681879Y-73409449D01*
X131443063Y-73310284D01*
X131184477Y-73310059D01*
X130945489Y-73408807D01*
X130762481Y-73591495D01*
X130663316Y-73830311D01*
X130663222Y-73938849D01*
X130561157Y-74091599D01*
X130525000Y-74273374D01*
X130525000Y-87805734D01*
X130449278Y-87881324D01*
X130350113Y-88120140D01*
X130349888Y-88378726D01*
X95850000Y-88378726D01*
X95850000Y-85832752D01*
X99099878Y-85832752D01*
X99198626Y-86071740D01*
X99381314Y-86254748D01*
X99620130Y-86353913D01*
X99878716Y-86354138D01*
X100117704Y-86255390D01*
X100194202Y-86179026D01*
X101355734Y-86179026D01*
X101431324Y-86254748D01*
X101670140Y-86353913D01*
X101928726Y-86354138D01*
X102167714Y-86255390D01*
X102350722Y-86072702D01*
X102449887Y-85833886D01*
X102449887Y-85832752D01*
X104149888Y-85832752D01*
X104248636Y-86071740D01*
X104431324Y-86254748D01*
X104670140Y-86353913D01*
X104928726Y-86354138D01*
X105167714Y-86255390D01*
X105244212Y-86179026D01*
X107739459Y-86179026D01*
X107839425Y-86279167D01*
X108078241Y-86378332D01*
X108336827Y-86378557D01*
X108575815Y-86279809D01*
X108589834Y-86265814D01*
X127038147Y-86265814D01*
X127136895Y-86504802D01*
X127319583Y-86687810D01*
X127558399Y-86786975D01*
X127816985Y-86787200D01*
X128055973Y-86688452D01*
X128238981Y-86505764D01*
X128338146Y-86266948D01*
X128338240Y-86158859D01*
X130335876Y-84161223D01*
X130400755Y-84064124D01*
X130438843Y-84007122D01*
X130455178Y-83925000D01*
X130475001Y-83825347D01*
X130475000Y-83825342D01*
X130475000Y-72194266D01*
X130550722Y-72118676D01*
X130649887Y-71879860D01*
X130650112Y-71621274D01*
X130551364Y-71382286D01*
X130368676Y-71199278D01*
X130129860Y-71100113D01*
X129871274Y-71099888D01*
X129632286Y-71198636D01*
X129449278Y-71381324D01*
X129350113Y-71620140D01*
X129349888Y-71878726D01*
X129448636Y-72117714D01*
X129525000Y-72194212D01*
X129525000Y-83628595D01*
X127666526Y-85487069D01*
X127559533Y-85486976D01*
X127320545Y-85585724D01*
X127137537Y-85768412D01*
X127038372Y-86007228D01*
X127038147Y-86265814D01*
X108589834Y-86265814D01*
X108758823Y-86097121D01*
X108857988Y-85858305D01*
X108858213Y-85599719D01*
X108759465Y-85360731D01*
X108576777Y-85177723D01*
X108337961Y-85078558D01*
X108079375Y-85078333D01*
X107840387Y-85177081D01*
X107788351Y-85229026D01*
X105244266Y-85229026D01*
X105168676Y-85153304D01*
X104929860Y-85054139D01*
X104671274Y-85053914D01*
X104432286Y-85152662D01*
X104249278Y-85335350D01*
X104150113Y-85574166D01*
X104149888Y-85832752D01*
X102449887Y-85832752D01*
X102450112Y-85575300D01*
X102351364Y-85336312D01*
X102168676Y-85153304D01*
X101929860Y-85054139D01*
X101671274Y-85053914D01*
X101432286Y-85152662D01*
X101355788Y-85229026D01*
X100194256Y-85229026D01*
X100118666Y-85153304D01*
X99879850Y-85054139D01*
X99621264Y-85053914D01*
X99382276Y-85152662D01*
X99199268Y-85335350D01*
X99100103Y-85574166D01*
X99099878Y-85832752D01*
X95850000Y-85832752D01*
X95850000Y-84528726D01*
X104149888Y-84528726D01*
X104248636Y-84767714D01*
X104431324Y-84950722D01*
X104670140Y-85049887D01*
X104928726Y-85050112D01*
X105167714Y-84951364D01*
X105244212Y-84875000D01*
X106955734Y-84875000D01*
X107031324Y-84950722D01*
X107270140Y-85049887D01*
X107528726Y-85050112D01*
X107767714Y-84951364D01*
X107950722Y-84768676D01*
X108049887Y-84529860D01*
X108050112Y-84271274D01*
X107951364Y-84032286D01*
X107768676Y-83849278D01*
X107529860Y-83750113D01*
X107271274Y-83749888D01*
X107032286Y-83848636D01*
X106955788Y-83925000D01*
X105244266Y-83925000D01*
X105168676Y-83849278D01*
X104929860Y-83750113D01*
X104671274Y-83749888D01*
X104432286Y-83848636D01*
X104249278Y-84031324D01*
X104150113Y-84270140D01*
X104149888Y-84528726D01*
X95850000Y-84528726D01*
X95850000Y-82296000D01*
X104779238Y-82296000D01*
X104883219Y-82818746D01*
X105179330Y-83261908D01*
X105622492Y-83558019D01*
X106145238Y-83662000D01*
X106198762Y-83662000D01*
X106721508Y-83558019D01*
X107164670Y-83261908D01*
X107460781Y-82818746D01*
X107526210Y-82489809D01*
X117513473Y-82489809D01*
X117642662Y-82802472D01*
X117881669Y-83041897D01*
X117950819Y-83070610D01*
X117882928Y-83098662D01*
X117643503Y-83337669D01*
X117513768Y-83650107D01*
X117513473Y-83988409D01*
X117642662Y-84301072D01*
X117881669Y-84540497D01*
X118194107Y-84670232D01*
X118532409Y-84670527D01*
X118845072Y-84541338D01*
X119084497Y-84302331D01*
X119214232Y-83989893D01*
X119214527Y-83651591D01*
X119085338Y-83338928D01*
X118846331Y-83099503D01*
X118777181Y-83070790D01*
X118845072Y-83042738D01*
X119084497Y-82803731D01*
X119214232Y-82491293D01*
X119214527Y-82152991D01*
X119085338Y-81840328D01*
X118846331Y-81600903D01*
X118533893Y-81471168D01*
X118195591Y-81470873D01*
X117882928Y-81600062D01*
X117643503Y-81839069D01*
X117513768Y-82151507D01*
X117513473Y-82489809D01*
X107526210Y-82489809D01*
X107564762Y-82296000D01*
X107460781Y-81773254D01*
X107164670Y-81330092D01*
X106863499Y-81128856D01*
X107188000Y-81128856D01*
X107317702Y-81104451D01*
X107436825Y-81027797D01*
X107516741Y-80910837D01*
X107544856Y-80772000D01*
X107544856Y-78740000D01*
X107542735Y-78728726D01*
X112749888Y-78728726D01*
X112848636Y-78967714D01*
X113031324Y-79150722D01*
X113270140Y-79249887D01*
X113426544Y-79250023D01*
X113435166Y-79255784D01*
X113616941Y-79291941D01*
X116153021Y-79291941D01*
X116228611Y-79367663D01*
X116467427Y-79466828D01*
X116726013Y-79467053D01*
X116965001Y-79368305D01*
X117148009Y-79185617D01*
X117247174Y-78946801D01*
X117247399Y-78688215D01*
X117148651Y-78449227D01*
X116965963Y-78266219D01*
X116727147Y-78167054D01*
X116468561Y-78166829D01*
X116229573Y-78265577D01*
X116153075Y-78341941D01*
X113996673Y-78341941D01*
X113951364Y-78232286D01*
X113768676Y-78049278D01*
X113529860Y-77950113D01*
X113271274Y-77949888D01*
X113032286Y-78048636D01*
X112849278Y-78231324D01*
X112750113Y-78470140D01*
X112749888Y-78728726D01*
X107542735Y-78728726D01*
X107520451Y-78610298D01*
X107443797Y-78491175D01*
X107326837Y-78411259D01*
X107188000Y-78383144D01*
X105156000Y-78383144D01*
X105026298Y-78407549D01*
X104907175Y-78484203D01*
X104827259Y-78601163D01*
X104799144Y-78740000D01*
X104799144Y-80772000D01*
X104823549Y-80901702D01*
X104900203Y-81020825D01*
X105017163Y-81100741D01*
X105156000Y-81128856D01*
X105480501Y-81128856D01*
X105179330Y-81330092D01*
X104883219Y-81773254D01*
X104779238Y-82296000D01*
X95850000Y-82296000D01*
X95850000Y-80000000D01*
X95842121Y-79961094D01*
X95820711Y-79929289D01*
X95532155Y-79640733D01*
X95529211Y-79636327D01*
X95363671Y-79470787D01*
X95363668Y-79470786D01*
X95359268Y-79467846D01*
X95070711Y-79179289D01*
X95037629Y-79157350D01*
X95000000Y-79150000D01*
X91559095Y-79150000D01*
X91537034Y-79145612D01*
X90854388Y-78462966D01*
X90850000Y-78440905D01*
X90850000Y-76958000D01*
X100079238Y-76958000D01*
X100171618Y-77422425D01*
X100434693Y-77816145D01*
X100828413Y-78079220D01*
X101292838Y-78171600D01*
X101651162Y-78171600D01*
X102115587Y-78079220D01*
X102509307Y-77816145D01*
X102772382Y-77422425D01*
X102864762Y-76958000D01*
X102850983Y-76888726D01*
X114349888Y-76888726D01*
X114448636Y-77127714D01*
X114631324Y-77310722D01*
X114870140Y-77409887D01*
X114978229Y-77409981D01*
X115504122Y-77935873D01*
X115504124Y-77935876D01*
X115658225Y-78038843D01*
X115840000Y-78075000D01*
X118755734Y-78075000D01*
X118831324Y-78150722D01*
X119070140Y-78249887D01*
X119328726Y-78250112D01*
X119567714Y-78151364D01*
X119750722Y-77968676D01*
X119849887Y-77729860D01*
X119850112Y-77471274D01*
X119751364Y-77232286D01*
X119568676Y-77049278D01*
X119329860Y-76950113D01*
X119071274Y-76949888D01*
X118832286Y-77048636D01*
X118755788Y-77125000D01*
X116036751Y-77125000D01*
X115650019Y-76738267D01*
X115650112Y-76631274D01*
X115551364Y-76392286D01*
X115471944Y-76312726D01*
X119599888Y-76312726D01*
X119698636Y-76551714D01*
X119881324Y-76734722D01*
X120120140Y-76833887D01*
X120378726Y-76834112D01*
X120617714Y-76735364D01*
X120800722Y-76552676D01*
X120899887Y-76313860D01*
X120900112Y-76055274D01*
X120801364Y-75816286D01*
X120618676Y-75633278D01*
X120379860Y-75534113D01*
X120121274Y-75533888D01*
X119882286Y-75632636D01*
X119699278Y-75815324D01*
X119600113Y-76054140D01*
X119599888Y-76312726D01*
X115471944Y-76312726D01*
X115368676Y-76209278D01*
X115129860Y-76110113D01*
X114871274Y-76109888D01*
X114632286Y-76208636D01*
X114449278Y-76391324D01*
X114350113Y-76630140D01*
X114349888Y-76888726D01*
X102850983Y-76888726D01*
X102772382Y-76493575D01*
X102509307Y-76099855D01*
X102115587Y-75836780D01*
X101651162Y-75744400D01*
X101292838Y-75744400D01*
X100828413Y-75836780D01*
X100434693Y-76099855D01*
X100171618Y-76493575D01*
X100079238Y-76958000D01*
X90850000Y-76958000D01*
X90850000Y-74754546D01*
X100153598Y-74754546D01*
X100339067Y-75133364D01*
X100687464Y-75454144D01*
X101132098Y-75617180D01*
X101322000Y-75544248D01*
X101322000Y-74568000D01*
X101622000Y-74568000D01*
X101622000Y-75544248D01*
X101811902Y-75617180D01*
X102256536Y-75454144D01*
X102604933Y-75133364D01*
X102790402Y-74754546D01*
X102740465Y-74568000D01*
X101622000Y-74568000D01*
X101322000Y-74568000D01*
X100203535Y-74568000D01*
X100153598Y-74754546D01*
X90850000Y-74754546D01*
X90850000Y-74081454D01*
X100153598Y-74081454D01*
X100203535Y-74268000D01*
X101322000Y-74268000D01*
X101322000Y-73291752D01*
X101622000Y-73291752D01*
X101622000Y-74268000D01*
X102740465Y-74268000D01*
X102790402Y-74081454D01*
X102604933Y-73702636D01*
X102256536Y-73381856D01*
X101811902Y-73218820D01*
X101622000Y-73291752D01*
X101322000Y-73291752D01*
X101132098Y-73218820D01*
X100687464Y-73381856D01*
X100339067Y-73702636D01*
X100153598Y-74081454D01*
X90850000Y-74081454D01*
X90850000Y-71878000D01*
X100079238Y-71878000D01*
X100171618Y-72342425D01*
X100434693Y-72736145D01*
X100828413Y-72999220D01*
X101292838Y-73091600D01*
X101651162Y-73091600D01*
X102115587Y-72999220D01*
X102509307Y-72736145D01*
X102772382Y-72342425D01*
X102864762Y-71878000D01*
X102772382Y-71413575D01*
X102509307Y-71019855D01*
X102115587Y-70756780D01*
X101651162Y-70664400D01*
X101292838Y-70664400D01*
X100828413Y-70756780D01*
X100434693Y-71019855D01*
X100171618Y-71413575D01*
X100079238Y-71878000D01*
X90850000Y-71878000D01*
X90850000Y-68474400D01*
X100099144Y-68474400D01*
X100099144Y-70201600D01*
X100123549Y-70331302D01*
X100200203Y-70450425D01*
X100317163Y-70530341D01*
X100456000Y-70558456D01*
X102488000Y-70558456D01*
X102617702Y-70534051D01*
X102633321Y-70524000D01*
X139627144Y-70524000D01*
X139627144Y-72556000D01*
X139651549Y-72685702D01*
X139728203Y-72804825D01*
X139845163Y-72884741D01*
X139984000Y-72912856D01*
X142016000Y-72912856D01*
X142145702Y-72888451D01*
X142264825Y-72811797D01*
X142344741Y-72694837D01*
X142372856Y-72556000D01*
X142372856Y-70524000D01*
X142360626Y-70459000D01*
X146909000Y-70459000D01*
X146973702Y-70784281D01*
X147157959Y-71060041D01*
X147433719Y-71244298D01*
X147759000Y-71309000D01*
X151206918Y-71309000D01*
X151898959Y-72001041D01*
X152174719Y-72185298D01*
X152500000Y-72250000D01*
X152825281Y-72185298D01*
X153101041Y-72001041D01*
X153285298Y-71725281D01*
X153350000Y-71400000D01*
X153285298Y-71074719D01*
X153101041Y-70798959D01*
X152160041Y-69857959D01*
X151884281Y-69673702D01*
X151559000Y-69609000D01*
X147759000Y-69609000D01*
X147433719Y-69673702D01*
X147157959Y-69857959D01*
X146973702Y-70133719D01*
X146909000Y-70459000D01*
X142360626Y-70459000D01*
X142348451Y-70394298D01*
X142271797Y-70275175D01*
X142154837Y-70195259D01*
X142016000Y-70167144D01*
X141661548Y-70167144D01*
X141837319Y-70079300D01*
X142186612Y-69676715D01*
X142317558Y-69360550D01*
X142269670Y-69150000D01*
X141150000Y-69150000D01*
X141150000Y-69170000D01*
X140850000Y-69170000D01*
X140850000Y-69150000D01*
X139730330Y-69150000D01*
X139682442Y-69360550D01*
X139813388Y-69676715D01*
X140162681Y-70079300D01*
X140338452Y-70167144D01*
X139984000Y-70167144D01*
X139854298Y-70191549D01*
X139735175Y-70268203D01*
X139655259Y-70385163D01*
X139627144Y-70524000D01*
X102633321Y-70524000D01*
X102736825Y-70457397D01*
X102816741Y-70340437D01*
X102844856Y-70201600D01*
X102844856Y-68474400D01*
X102820451Y-68344698D01*
X102743797Y-68225575D01*
X102626837Y-68145659D01*
X102488000Y-68117544D01*
X100456000Y-68117544D01*
X100326298Y-68141949D01*
X100207175Y-68218603D01*
X100127259Y-68335563D01*
X100099144Y-68474400D01*
X90850000Y-68474400D01*
X90850000Y-64322480D01*
X91265484Y-65328029D01*
X92171899Y-66236027D01*
X93356794Y-66728038D01*
X94639778Y-66729158D01*
X95825529Y-66239216D01*
X96733527Y-65332801D01*
X97225538Y-64147906D01*
X97225745Y-63910000D01*
X97650644Y-63910000D01*
X97650644Y-65637200D01*
X97675049Y-65766902D01*
X97751703Y-65886025D01*
X97868663Y-65965941D01*
X98007500Y-65994056D01*
X99734700Y-65994056D01*
X99864402Y-65969651D01*
X99983525Y-65892997D01*
X100063441Y-65776037D01*
X100091556Y-65637200D01*
X100091556Y-64749824D01*
X100197500Y-64749824D01*
X100197500Y-64797376D01*
X100289880Y-65261801D01*
X100552955Y-65655521D01*
X100946675Y-65918596D01*
X101411100Y-66010976D01*
X101875525Y-65918596D01*
X102269245Y-65655521D01*
X102532320Y-65261801D01*
X102624700Y-64797376D01*
X102624700Y-64749824D01*
X102737500Y-64749824D01*
X102737500Y-64797376D01*
X102829880Y-65261801D01*
X103092955Y-65655521D01*
X103486675Y-65918596D01*
X103951100Y-66010976D01*
X104415525Y-65918596D01*
X104809245Y-65655521D01*
X105072320Y-65261801D01*
X105164700Y-64797376D01*
X105164700Y-64749824D01*
X105277500Y-64749824D01*
X105277500Y-64797376D01*
X105369880Y-65261801D01*
X105632955Y-65655521D01*
X106026675Y-65918596D01*
X106491100Y-66010976D01*
X106955525Y-65918596D01*
X107349245Y-65655521D01*
X107612320Y-65261801D01*
X107642485Y-65110149D01*
X107865084Y-65110149D01*
X108082633Y-65530746D01*
X108444578Y-65836074D01*
X108694554Y-65939602D01*
X108881100Y-65889665D01*
X108881100Y-64923600D01*
X109181100Y-64923600D01*
X109181100Y-65889665D01*
X109367646Y-65939602D01*
X109617622Y-65836074D01*
X109979567Y-65530746D01*
X110197116Y-65110149D01*
X110147908Y-64923600D01*
X109181100Y-64923600D01*
X108881100Y-64923600D01*
X107914292Y-64923600D01*
X107865084Y-65110149D01*
X107642485Y-65110149D01*
X107704700Y-64797376D01*
X107704700Y-64749824D01*
X110357500Y-64749824D01*
X110357500Y-64797376D01*
X110449880Y-65261801D01*
X110712955Y-65655521D01*
X111106675Y-65918596D01*
X111571100Y-66010976D01*
X112035525Y-65918596D01*
X112429245Y-65655521D01*
X112692320Y-65261801D01*
X112784700Y-64797376D01*
X112784700Y-64749824D01*
X112897500Y-64749824D01*
X112897500Y-64797376D01*
X112989880Y-65261801D01*
X113252955Y-65655521D01*
X113646675Y-65918596D01*
X114111100Y-66010976D01*
X114575525Y-65918596D01*
X114969245Y-65655521D01*
X115232320Y-65261801D01*
X115324700Y-64797376D01*
X115324700Y-64749824D01*
X115437500Y-64749824D01*
X115437500Y-64797376D01*
X115529880Y-65261801D01*
X115792955Y-65655521D01*
X116186675Y-65918596D01*
X116651100Y-66010976D01*
X117115525Y-65918596D01*
X117509245Y-65655521D01*
X117772320Y-65261801D01*
X117864700Y-64797376D01*
X117864700Y-64749824D01*
X117977500Y-64749824D01*
X117977500Y-64797376D01*
X118069880Y-65261801D01*
X118332955Y-65655521D01*
X118726675Y-65918596D01*
X119191100Y-66010976D01*
X119655525Y-65918596D01*
X120049245Y-65655521D01*
X120312320Y-65261801D01*
X120404700Y-64797376D01*
X120404700Y-64749824D01*
X120517500Y-64749824D01*
X120517500Y-64797376D01*
X120609880Y-65261801D01*
X120872955Y-65655521D01*
X121266675Y-65918596D01*
X121731100Y-66010976D01*
X122195525Y-65918596D01*
X122589245Y-65655521D01*
X122852320Y-65261801D01*
X122944700Y-64797376D01*
X122944700Y-64749824D01*
X122852320Y-64285399D01*
X122589245Y-63891679D01*
X122195525Y-63628604D01*
X121731100Y-63536224D01*
X121266675Y-63628604D01*
X120872955Y-63891679D01*
X120609880Y-64285399D01*
X120517500Y-64749824D01*
X120404700Y-64749824D01*
X120312320Y-64285399D01*
X120049245Y-63891679D01*
X119655525Y-63628604D01*
X119191100Y-63536224D01*
X118726675Y-63628604D01*
X118332955Y-63891679D01*
X118069880Y-64285399D01*
X117977500Y-64749824D01*
X117864700Y-64749824D01*
X117772320Y-64285399D01*
X117509245Y-63891679D01*
X117115525Y-63628604D01*
X116651100Y-63536224D01*
X116186675Y-63628604D01*
X115792955Y-63891679D01*
X115529880Y-64285399D01*
X115437500Y-64749824D01*
X115324700Y-64749824D01*
X115232320Y-64285399D01*
X114969245Y-63891679D01*
X114575525Y-63628604D01*
X114111100Y-63536224D01*
X113646675Y-63628604D01*
X113252955Y-63891679D01*
X112989880Y-64285399D01*
X112897500Y-64749824D01*
X112784700Y-64749824D01*
X112692320Y-64285399D01*
X112429245Y-63891679D01*
X112035525Y-63628604D01*
X111571100Y-63536224D01*
X111106675Y-63628604D01*
X110712955Y-63891679D01*
X110449880Y-64285399D01*
X110357500Y-64749824D01*
X107704700Y-64749824D01*
X107642486Y-64437051D01*
X107865084Y-64437051D01*
X107914292Y-64623600D01*
X108881100Y-64623600D01*
X108881100Y-63657535D01*
X109181100Y-63657535D01*
X109181100Y-64623600D01*
X110147908Y-64623600D01*
X110197116Y-64437051D01*
X109979567Y-64016454D01*
X109617622Y-63711126D01*
X109367646Y-63607598D01*
X109181100Y-63657535D01*
X108881100Y-63657535D01*
X108694554Y-63607598D01*
X108444578Y-63711126D01*
X108082633Y-64016454D01*
X107865084Y-64437051D01*
X107642486Y-64437051D01*
X107612320Y-64285399D01*
X107349245Y-63891679D01*
X106955525Y-63628604D01*
X106491100Y-63536224D01*
X106026675Y-63628604D01*
X105632955Y-63891679D01*
X105369880Y-64285399D01*
X105277500Y-64749824D01*
X105164700Y-64749824D01*
X105072320Y-64285399D01*
X104809245Y-63891679D01*
X104415525Y-63628604D01*
X103951100Y-63536224D01*
X103486675Y-63628604D01*
X103092955Y-63891679D01*
X102829880Y-64285399D01*
X102737500Y-64749824D01*
X102624700Y-64749824D01*
X102532320Y-64285399D01*
X102269245Y-63891679D01*
X101875525Y-63628604D01*
X101411100Y-63536224D01*
X100946675Y-63628604D01*
X100552955Y-63891679D01*
X100289880Y-64285399D01*
X100197500Y-64749824D01*
X100091556Y-64749824D01*
X100091556Y-63910000D01*
X100067151Y-63780298D01*
X99990497Y-63661175D01*
X99873537Y-63581259D01*
X99734700Y-63553144D01*
X98007500Y-63553144D01*
X97877798Y-63577549D01*
X97758675Y-63654203D01*
X97678759Y-63771163D01*
X97650644Y-63910000D01*
X97225745Y-63910000D01*
X97226658Y-62864922D01*
X96955978Y-62209824D01*
X97657500Y-62209824D01*
X97657500Y-62257376D01*
X97749880Y-62721801D01*
X98012955Y-63115521D01*
X98406675Y-63378596D01*
X98871100Y-63470976D01*
X99335525Y-63378596D01*
X99729245Y-63115521D01*
X99992320Y-62721801D01*
X100084700Y-62257376D01*
X100084700Y-62209824D01*
X100197500Y-62209824D01*
X100197500Y-62257376D01*
X100289880Y-62721801D01*
X100552955Y-63115521D01*
X100946675Y-63378596D01*
X101411100Y-63470976D01*
X101875525Y-63378596D01*
X102269245Y-63115521D01*
X102532320Y-62721801D01*
X102562485Y-62570149D01*
X102785084Y-62570149D01*
X103002633Y-62990746D01*
X103364578Y-63296074D01*
X103614554Y-63399602D01*
X103801100Y-63349665D01*
X103801100Y-62383600D01*
X104101100Y-62383600D01*
X104101100Y-63349665D01*
X104287646Y-63399602D01*
X104537622Y-63296074D01*
X104899567Y-62990746D01*
X105117116Y-62570149D01*
X105067908Y-62383600D01*
X104101100Y-62383600D01*
X103801100Y-62383600D01*
X102834292Y-62383600D01*
X102785084Y-62570149D01*
X102562485Y-62570149D01*
X102624700Y-62257376D01*
X102624700Y-62209824D01*
X105277500Y-62209824D01*
X105277500Y-62257376D01*
X105369880Y-62721801D01*
X105632955Y-63115521D01*
X106026675Y-63378596D01*
X106491100Y-63470976D01*
X106955525Y-63378596D01*
X107349245Y-63115521D01*
X107612320Y-62721801D01*
X107704700Y-62257376D01*
X107704700Y-62209824D01*
X107817500Y-62209824D01*
X107817500Y-62257376D01*
X107909880Y-62721801D01*
X108172955Y-63115521D01*
X108566675Y-63378596D01*
X109031100Y-63470976D01*
X109495525Y-63378596D01*
X109889245Y-63115521D01*
X110152320Y-62721801D01*
X110244700Y-62257376D01*
X110244700Y-62209824D01*
X110357500Y-62209824D01*
X110357500Y-62257376D01*
X110449880Y-62721801D01*
X110712955Y-63115521D01*
X111106675Y-63378596D01*
X111571100Y-63470976D01*
X112035525Y-63378596D01*
X112429245Y-63115521D01*
X112692320Y-62721801D01*
X112722485Y-62570149D01*
X112945084Y-62570149D01*
X113162633Y-62990746D01*
X113524578Y-63296074D01*
X113774554Y-63399602D01*
X113961100Y-63349665D01*
X113961100Y-62383600D01*
X114261100Y-62383600D01*
X114261100Y-63349665D01*
X114447646Y-63399602D01*
X114697622Y-63296074D01*
X115059567Y-62990746D01*
X115277116Y-62570149D01*
X115227908Y-62383600D01*
X114261100Y-62383600D01*
X113961100Y-62383600D01*
X112994292Y-62383600D01*
X112945084Y-62570149D01*
X112722485Y-62570149D01*
X112784700Y-62257376D01*
X112784700Y-62209824D01*
X115437500Y-62209824D01*
X115437500Y-62257376D01*
X115529880Y-62721801D01*
X115792955Y-63115521D01*
X116186675Y-63378596D01*
X116651100Y-63470976D01*
X117115525Y-63378596D01*
X117509245Y-63115521D01*
X117772320Y-62721801D01*
X117864700Y-62257376D01*
X117864700Y-62209824D01*
X117977500Y-62209824D01*
X117977500Y-62257376D01*
X118069880Y-62721801D01*
X118332955Y-63115521D01*
X118726675Y-63378596D01*
X119191100Y-63470976D01*
X119655525Y-63378596D01*
X120049245Y-63115521D01*
X120312320Y-62721801D01*
X120342485Y-62570149D01*
X120565084Y-62570149D01*
X120782633Y-62990746D01*
X121144578Y-63296074D01*
X121394554Y-63399602D01*
X121581100Y-63349665D01*
X121581100Y-62383600D01*
X121881100Y-62383600D01*
X121881100Y-63349665D01*
X122067646Y-63399602D01*
X122317622Y-63296074D01*
X122679567Y-62990746D01*
X122897116Y-62570149D01*
X122847908Y-62383600D01*
X121881100Y-62383600D01*
X121581100Y-62383600D01*
X120614292Y-62383600D01*
X120565084Y-62570149D01*
X120342485Y-62570149D01*
X120404700Y-62257376D01*
X120404700Y-62209824D01*
X123057500Y-62209824D01*
X123057500Y-62257376D01*
X123149880Y-62721801D01*
X123412955Y-63115521D01*
X123806675Y-63378596D01*
X124271100Y-63470976D01*
X124735525Y-63378596D01*
X124889254Y-63275878D01*
X124850113Y-63370140D01*
X124849888Y-63628726D01*
X124893434Y-63734115D01*
X124735525Y-63628604D01*
X124271100Y-63536224D01*
X123806675Y-63628604D01*
X123412955Y-63891679D01*
X123149880Y-64285399D01*
X123057500Y-64749824D01*
X123057500Y-64797376D01*
X123149880Y-65261801D01*
X123412955Y-65655521D01*
X123806675Y-65918596D01*
X124271100Y-66010976D01*
X124735525Y-65918596D01*
X125025000Y-65725175D01*
X125025000Y-67500000D01*
X125061157Y-67681775D01*
X125164124Y-67835876D01*
X125349981Y-68021733D01*
X125349888Y-68128726D01*
X125448636Y-68367714D01*
X125631324Y-68550722D01*
X125870140Y-68649887D01*
X126128726Y-68650112D01*
X126154529Y-68639450D01*
X139682442Y-68639450D01*
X139730330Y-68850000D01*
X140850000Y-68850000D01*
X140850000Y-67729748D01*
X141150000Y-67729748D01*
X141150000Y-68850000D01*
X142269670Y-68850000D01*
X142317558Y-68639450D01*
X142186612Y-68323285D01*
X141837319Y-67920700D01*
X141360552Y-67682429D01*
X141150000Y-67729748D01*
X140850000Y-67729748D01*
X140639448Y-67682429D01*
X140162681Y-67920700D01*
X139813388Y-68323285D01*
X139682442Y-68639450D01*
X126154529Y-68639450D01*
X126367714Y-68551364D01*
X126550722Y-68368676D01*
X126649887Y-68129860D01*
X126650112Y-67871274D01*
X126551364Y-67632286D01*
X126368676Y-67449278D01*
X126129860Y-67350113D01*
X126021771Y-67350019D01*
X125975000Y-67303248D01*
X125975000Y-65670251D01*
X126346675Y-65918596D01*
X126811100Y-66010976D01*
X127275525Y-65918596D01*
X127669245Y-65655521D01*
X127932320Y-65261801D01*
X127962485Y-65110149D01*
X128185084Y-65110149D01*
X128402633Y-65530746D01*
X128764578Y-65836074D01*
X129014554Y-65939602D01*
X129201100Y-65889665D01*
X129201100Y-64923600D01*
X129501100Y-64923600D01*
X129501100Y-65889665D01*
X129687646Y-65939602D01*
X129937622Y-65836074D01*
X130299567Y-65530746D01*
X130517116Y-65110149D01*
X130467908Y-64923600D01*
X129501100Y-64923600D01*
X129201100Y-64923600D01*
X128234292Y-64923600D01*
X128185084Y-65110149D01*
X127962485Y-65110149D01*
X128024700Y-64797376D01*
X128024700Y-64749824D01*
X130677500Y-64749824D01*
X130677500Y-64797376D01*
X130769880Y-65261801D01*
X131032955Y-65655521D01*
X131426675Y-65918596D01*
X131891100Y-66010976D01*
X132355525Y-65918596D01*
X132360812Y-65915063D01*
X132743823Y-66298074D01*
X132743825Y-66298077D01*
X132897926Y-66401044D01*
X132928085Y-66407043D01*
X133079701Y-66437202D01*
X133079706Y-66437201D01*
X143615449Y-66437201D01*
X144925000Y-67746752D01*
X144925000Y-68905734D01*
X144849278Y-68981324D01*
X144750113Y-69220140D01*
X144749888Y-69478726D01*
X144848636Y-69717714D01*
X145031324Y-69900722D01*
X145270140Y-69999887D01*
X145528726Y-70000112D01*
X145767714Y-69901364D01*
X145950722Y-69718676D01*
X146049887Y-69479860D01*
X146050112Y-69221274D01*
X145951364Y-68982286D01*
X145875000Y-68905788D01*
X145875000Y-67550000D01*
X145838843Y-67368225D01*
X145735876Y-67214124D01*
X144518234Y-65996482D01*
X144591100Y-66010976D01*
X145055525Y-65918596D01*
X145449245Y-65655521D01*
X145712320Y-65261801D01*
X145742485Y-65110149D01*
X145965084Y-65110149D01*
X146182633Y-65530746D01*
X146544578Y-65836074D01*
X146794554Y-65939602D01*
X146981100Y-65889665D01*
X146981100Y-64923600D01*
X147281100Y-64923600D01*
X147281100Y-65889665D01*
X147467646Y-65939602D01*
X147717622Y-65836074D01*
X147953385Y-65637190D01*
X148048636Y-65867714D01*
X148125000Y-65944212D01*
X148125000Y-66925010D01*
X148161157Y-67106785D01*
X148264124Y-67260886D01*
X149499981Y-68496743D01*
X149499888Y-68603736D01*
X149598636Y-68842724D01*
X149781324Y-69025732D01*
X150020140Y-69124897D01*
X150278726Y-69125122D01*
X150517714Y-69026374D01*
X150700722Y-68843686D01*
X150799887Y-68604870D01*
X150800112Y-68346284D01*
X150701364Y-68107296D01*
X150518676Y-67924288D01*
X150279860Y-67825123D01*
X150171771Y-67825029D01*
X149075000Y-66728258D01*
X149075000Y-65944266D01*
X149150722Y-65868676D01*
X149249887Y-65629860D01*
X149250112Y-65371274D01*
X149151364Y-65132286D01*
X148968676Y-64949278D01*
X148729860Y-64850113D01*
X148471274Y-64849888D01*
X148252328Y-64940355D01*
X148247908Y-64923600D01*
X147281100Y-64923600D01*
X146981100Y-64923600D01*
X146014292Y-64923600D01*
X145965084Y-65110149D01*
X145742485Y-65110149D01*
X145804700Y-64797376D01*
X145804700Y-64749824D01*
X145742486Y-64437051D01*
X145965084Y-64437051D01*
X146014292Y-64623600D01*
X146981100Y-64623600D01*
X146981100Y-63657535D01*
X147281100Y-63657535D01*
X147281100Y-64623600D01*
X148247908Y-64623600D01*
X148297116Y-64437051D01*
X148079567Y-64016454D01*
X147717622Y-63711126D01*
X147467646Y-63607598D01*
X147281100Y-63657535D01*
X146981100Y-63657535D01*
X146794554Y-63607598D01*
X146544578Y-63711126D01*
X146182633Y-64016454D01*
X145965084Y-64437051D01*
X145742486Y-64437051D01*
X145712320Y-64285399D01*
X145449245Y-63891679D01*
X145055525Y-63628604D01*
X144591100Y-63536224D01*
X144126675Y-63628604D01*
X143732955Y-63891679D01*
X143469880Y-64285399D01*
X143377500Y-64749824D01*
X143377500Y-64797376D01*
X143469880Y-65261801D01*
X143620487Y-65487201D01*
X143021713Y-65487201D01*
X143172320Y-65261801D01*
X143264700Y-64797376D01*
X143264700Y-64749824D01*
X143172320Y-64285399D01*
X142909245Y-63891679D01*
X142515525Y-63628604D01*
X142051100Y-63536224D01*
X141586675Y-63628604D01*
X141192955Y-63891679D01*
X140929880Y-64285399D01*
X140837500Y-64749824D01*
X140837500Y-64797376D01*
X140929880Y-65261801D01*
X141080487Y-65487201D01*
X140481713Y-65487201D01*
X140632320Y-65261801D01*
X140724700Y-64797376D01*
X140724700Y-64749824D01*
X140632320Y-64285399D01*
X140369245Y-63891679D01*
X139975525Y-63628604D01*
X139511100Y-63536224D01*
X139046675Y-63628604D01*
X138652955Y-63891679D01*
X138389880Y-64285399D01*
X138297500Y-64749824D01*
X138297500Y-64797376D01*
X138389880Y-65261801D01*
X138540487Y-65487201D01*
X137941713Y-65487201D01*
X138092320Y-65261801D01*
X138184700Y-64797376D01*
X138184700Y-64749824D01*
X138092320Y-64285399D01*
X137829245Y-63891679D01*
X137435525Y-63628604D01*
X136971100Y-63536224D01*
X136506675Y-63628604D01*
X136112955Y-63891679D01*
X135849880Y-64285399D01*
X135757500Y-64749824D01*
X135757500Y-64797376D01*
X135849880Y-65261801D01*
X136000487Y-65487201D01*
X135401713Y-65487201D01*
X135552320Y-65261801D01*
X135644700Y-64797376D01*
X135644700Y-64749824D01*
X135552320Y-64285399D01*
X135289245Y-63891679D01*
X134895525Y-63628604D01*
X134431100Y-63536224D01*
X133966675Y-63628604D01*
X133572955Y-63891679D01*
X133309880Y-64285399D01*
X133217500Y-64749824D01*
X133217500Y-64797376D01*
X133309880Y-65261801D01*
X133460487Y-65487201D01*
X133276452Y-65487201D01*
X133018746Y-65229495D01*
X133104700Y-64797376D01*
X133104700Y-64749824D01*
X133012320Y-64285399D01*
X132749245Y-63891679D01*
X132355525Y-63628604D01*
X131891100Y-63536224D01*
X131426675Y-63628604D01*
X131032955Y-63891679D01*
X130769880Y-64285399D01*
X130677500Y-64749824D01*
X128024700Y-64749824D01*
X127962486Y-64437051D01*
X128185084Y-64437051D01*
X128234292Y-64623600D01*
X129201100Y-64623600D01*
X129201100Y-63657535D01*
X129501100Y-63657535D01*
X129501100Y-64623600D01*
X130467908Y-64623600D01*
X130517116Y-64437051D01*
X130299567Y-64016454D01*
X129937622Y-63711126D01*
X129687646Y-63607598D01*
X129501100Y-63657535D01*
X129201100Y-63657535D01*
X129014554Y-63607598D01*
X128764578Y-63711126D01*
X128402633Y-64016454D01*
X128185084Y-64437051D01*
X127962486Y-64437051D01*
X127932320Y-64285399D01*
X127669245Y-63891679D01*
X127275525Y-63628604D01*
X126811100Y-63536224D01*
X126346675Y-63628604D01*
X126075044Y-63810102D01*
X126149887Y-63629860D01*
X126150112Y-63371274D01*
X126079326Y-63199959D01*
X126346675Y-63378596D01*
X126811100Y-63470976D01*
X127275525Y-63378596D01*
X127669245Y-63115521D01*
X127932320Y-62721801D01*
X128024700Y-62257376D01*
X128024700Y-62209824D01*
X128137500Y-62209824D01*
X128137500Y-62257376D01*
X128229880Y-62721801D01*
X128492955Y-63115521D01*
X128886675Y-63378596D01*
X129351100Y-63470976D01*
X129815525Y-63378596D01*
X130209245Y-63115521D01*
X130472320Y-62721801D01*
X130564700Y-62257376D01*
X130564700Y-62209824D01*
X130677500Y-62209824D01*
X130677500Y-62257376D01*
X130769880Y-62721801D01*
X131032955Y-63115521D01*
X131426675Y-63378596D01*
X131891100Y-63470976D01*
X132355525Y-63378596D01*
X132749245Y-63115521D01*
X133012320Y-62721801D01*
X133042485Y-62570149D01*
X133265084Y-62570149D01*
X133482633Y-62990746D01*
X133844578Y-63296074D01*
X134094554Y-63399602D01*
X134281100Y-63349665D01*
X134281100Y-62383600D01*
X134581100Y-62383600D01*
X134581100Y-63349665D01*
X134767646Y-63399602D01*
X135017622Y-63296074D01*
X135379567Y-62990746D01*
X135597116Y-62570149D01*
X135547908Y-62383600D01*
X134581100Y-62383600D01*
X134281100Y-62383600D01*
X133314292Y-62383600D01*
X133265084Y-62570149D01*
X133042485Y-62570149D01*
X133104700Y-62257376D01*
X133104700Y-62209824D01*
X135757500Y-62209824D01*
X135757500Y-62257376D01*
X135849880Y-62721801D01*
X136112955Y-63115521D01*
X136506675Y-63378596D01*
X136971100Y-63470976D01*
X137435525Y-63378596D01*
X137829245Y-63115521D01*
X138092320Y-62721801D01*
X138122485Y-62570149D01*
X138345084Y-62570149D01*
X138562633Y-62990746D01*
X138924578Y-63296074D01*
X139174554Y-63399602D01*
X139361100Y-63349665D01*
X139361100Y-62383600D01*
X139661100Y-62383600D01*
X139661100Y-63349665D01*
X139847646Y-63399602D01*
X140097622Y-63296074D01*
X140459567Y-62990746D01*
X140677116Y-62570149D01*
X140627908Y-62383600D01*
X139661100Y-62383600D01*
X139361100Y-62383600D01*
X138394292Y-62383600D01*
X138345084Y-62570149D01*
X138122485Y-62570149D01*
X138184700Y-62257376D01*
X138184700Y-62209824D01*
X140837500Y-62209824D01*
X140837500Y-62257376D01*
X140929880Y-62721801D01*
X141192955Y-63115521D01*
X141586675Y-63378596D01*
X142051100Y-63470976D01*
X142515525Y-63378596D01*
X142909245Y-63115521D01*
X143172320Y-62721801D01*
X143264700Y-62257376D01*
X143264700Y-62209824D01*
X143377500Y-62209824D01*
X143377500Y-62257376D01*
X143469880Y-62721801D01*
X143732955Y-63115521D01*
X144126675Y-63378596D01*
X144591100Y-63470976D01*
X145055525Y-63378596D01*
X145449245Y-63115521D01*
X145712320Y-62721801D01*
X145804700Y-62257376D01*
X145804700Y-62209824D01*
X145917500Y-62209824D01*
X145917500Y-62257376D01*
X146009880Y-62721801D01*
X146272955Y-63115521D01*
X146666675Y-63378596D01*
X147131100Y-63470976D01*
X147595525Y-63378596D01*
X147989245Y-63115521D01*
X148252320Y-62721801D01*
X148344700Y-62257376D01*
X148344700Y-62209824D01*
X148252320Y-61745399D01*
X147989245Y-61351679D01*
X147595525Y-61088604D01*
X147131100Y-60996224D01*
X146666675Y-61088604D01*
X146272955Y-61351679D01*
X146009880Y-61745399D01*
X145917500Y-62209824D01*
X145804700Y-62209824D01*
X145712320Y-61745399D01*
X145449245Y-61351679D01*
X145055525Y-61088604D01*
X144591100Y-60996224D01*
X144126675Y-61088604D01*
X143732955Y-61351679D01*
X143469880Y-61745399D01*
X143377500Y-62209824D01*
X143264700Y-62209824D01*
X143172320Y-61745399D01*
X142909245Y-61351679D01*
X142515525Y-61088604D01*
X142051100Y-60996224D01*
X141586675Y-61088604D01*
X141192955Y-61351679D01*
X140929880Y-61745399D01*
X140837500Y-62209824D01*
X138184700Y-62209824D01*
X138122486Y-61897051D01*
X138345084Y-61897051D01*
X138394292Y-62083600D01*
X139361100Y-62083600D01*
X139361100Y-61117535D01*
X139661100Y-61117535D01*
X139661100Y-62083600D01*
X140627908Y-62083600D01*
X140677116Y-61897051D01*
X140459567Y-61476454D01*
X140097622Y-61171126D01*
X139847646Y-61067598D01*
X139661100Y-61117535D01*
X139361100Y-61117535D01*
X139174554Y-61067598D01*
X138924578Y-61171126D01*
X138562633Y-61476454D01*
X138345084Y-61897051D01*
X138122486Y-61897051D01*
X138092320Y-61745399D01*
X137829245Y-61351679D01*
X137435525Y-61088604D01*
X136971100Y-60996224D01*
X136506675Y-61088604D01*
X136112955Y-61351679D01*
X135849880Y-61745399D01*
X135757500Y-62209824D01*
X133104700Y-62209824D01*
X133042486Y-61897051D01*
X133265084Y-61897051D01*
X133314292Y-62083600D01*
X134281100Y-62083600D01*
X134281100Y-61117535D01*
X134581100Y-61117535D01*
X134581100Y-62083600D01*
X135547908Y-62083600D01*
X135597116Y-61897051D01*
X135379567Y-61476454D01*
X135017622Y-61171126D01*
X134767646Y-61067598D01*
X134581100Y-61117535D01*
X134281100Y-61117535D01*
X134094554Y-61067598D01*
X133844578Y-61171126D01*
X133482633Y-61476454D01*
X133265084Y-61897051D01*
X133042486Y-61897051D01*
X133012320Y-61745399D01*
X132749245Y-61351679D01*
X132355525Y-61088604D01*
X131891100Y-60996224D01*
X131426675Y-61088604D01*
X131032955Y-61351679D01*
X130769880Y-61745399D01*
X130677500Y-62209824D01*
X130564700Y-62209824D01*
X130472320Y-61745399D01*
X130209245Y-61351679D01*
X129815525Y-61088604D01*
X129351100Y-60996224D01*
X128886675Y-61088604D01*
X128492955Y-61351679D01*
X128229880Y-61745399D01*
X128137500Y-62209824D01*
X128024700Y-62209824D01*
X127932320Y-61745399D01*
X127669245Y-61351679D01*
X127275525Y-61088604D01*
X126811100Y-60996224D01*
X126346675Y-61088604D01*
X125952955Y-61351679D01*
X125689880Y-61745399D01*
X125597500Y-62209824D01*
X125597500Y-62257376D01*
X125689880Y-62721801D01*
X125831584Y-62933876D01*
X125629860Y-62850113D01*
X125371274Y-62849888D01*
X125282121Y-62886725D01*
X125392320Y-62721801D01*
X125484700Y-62257376D01*
X125484700Y-62209824D01*
X125392320Y-61745399D01*
X125129245Y-61351679D01*
X124735525Y-61088604D01*
X124271100Y-60996224D01*
X123806675Y-61088604D01*
X123412955Y-61351679D01*
X123149880Y-61745399D01*
X123057500Y-62209824D01*
X120404700Y-62209824D01*
X120342486Y-61897051D01*
X120565084Y-61897051D01*
X120614292Y-62083600D01*
X121581100Y-62083600D01*
X121581100Y-61117535D01*
X121881100Y-61117535D01*
X121881100Y-62083600D01*
X122847908Y-62083600D01*
X122897116Y-61897051D01*
X122679567Y-61476454D01*
X122317622Y-61171126D01*
X122067646Y-61067598D01*
X121881100Y-61117535D01*
X121581100Y-61117535D01*
X121394554Y-61067598D01*
X121144578Y-61171126D01*
X120782633Y-61476454D01*
X120565084Y-61897051D01*
X120342486Y-61897051D01*
X120312320Y-61745399D01*
X120049245Y-61351679D01*
X119655525Y-61088604D01*
X119191100Y-60996224D01*
X118726675Y-61088604D01*
X118332955Y-61351679D01*
X118069880Y-61745399D01*
X117977500Y-62209824D01*
X117864700Y-62209824D01*
X117772320Y-61745399D01*
X117509245Y-61351679D01*
X117115525Y-61088604D01*
X116651100Y-60996224D01*
X116186675Y-61088604D01*
X115792955Y-61351679D01*
X115529880Y-61745399D01*
X115437500Y-62209824D01*
X112784700Y-62209824D01*
X112722486Y-61897051D01*
X112945084Y-61897051D01*
X112994292Y-62083600D01*
X113961100Y-62083600D01*
X113961100Y-61117535D01*
X114261100Y-61117535D01*
X114261100Y-62083600D01*
X115227908Y-62083600D01*
X115277116Y-61897051D01*
X115059567Y-61476454D01*
X114697622Y-61171126D01*
X114447646Y-61067598D01*
X114261100Y-61117535D01*
X113961100Y-61117535D01*
X113774554Y-61067598D01*
X113524578Y-61171126D01*
X113162633Y-61476454D01*
X112945084Y-61897051D01*
X112722486Y-61897051D01*
X112692320Y-61745399D01*
X112429245Y-61351679D01*
X112035525Y-61088604D01*
X111571100Y-60996224D01*
X111106675Y-61088604D01*
X110712955Y-61351679D01*
X110449880Y-61745399D01*
X110357500Y-62209824D01*
X110244700Y-62209824D01*
X110152320Y-61745399D01*
X109889245Y-61351679D01*
X109495525Y-61088604D01*
X109031100Y-60996224D01*
X108566675Y-61088604D01*
X108172955Y-61351679D01*
X107909880Y-61745399D01*
X107817500Y-62209824D01*
X107704700Y-62209824D01*
X107612320Y-61745399D01*
X107349245Y-61351679D01*
X106955525Y-61088604D01*
X106491100Y-60996224D01*
X106026675Y-61088604D01*
X105632955Y-61351679D01*
X105369880Y-61745399D01*
X105277500Y-62209824D01*
X102624700Y-62209824D01*
X102562486Y-61897051D01*
X102785084Y-61897051D01*
X102834292Y-62083600D01*
X103801100Y-62083600D01*
X103801100Y-61117535D01*
X104101100Y-61117535D01*
X104101100Y-62083600D01*
X105067908Y-62083600D01*
X105117116Y-61897051D01*
X104899567Y-61476454D01*
X104537622Y-61171126D01*
X104287646Y-61067598D01*
X104101100Y-61117535D01*
X103801100Y-61117535D01*
X103614554Y-61067598D01*
X103364578Y-61171126D01*
X103002633Y-61476454D01*
X102785084Y-61897051D01*
X102562486Y-61897051D01*
X102532320Y-61745399D01*
X102269245Y-61351679D01*
X101875525Y-61088604D01*
X101411100Y-60996224D01*
X100946675Y-61088604D01*
X100552955Y-61351679D01*
X100289880Y-61745399D01*
X100197500Y-62209824D01*
X100084700Y-62209824D01*
X99992320Y-61745399D01*
X99729245Y-61351679D01*
X99335525Y-61088604D01*
X98871100Y-60996224D01*
X98406675Y-61088604D01*
X98012955Y-61351679D01*
X97749880Y-61745399D01*
X97657500Y-62209824D01*
X96955978Y-62209824D01*
X96736716Y-61679171D01*
X95830301Y-60771173D01*
X94816003Y-60350000D01*
X151188270Y-60350000D01*
X150176671Y-60767984D01*
M02*
