G04 #@! TF.FileFunction,Copper,L1,Top,Signal*
%FSLAX46Y46*%
G04 Gerber Fmt 4.6, Leading zero omitted, Abs format (unit mm)*
G04 Created by KiCad (PCBNEW 4.0.2+e4-6225~38~ubuntu15.04.1-stable) date Sat 22 Oct 2016 20:53:22 ACDT*
%MOMM*%
G01*
G04 APERTURE LIST*
%ADD10C,0.100000*%
%ADD11R,1.250000X1.000000*%
%ADD12R,1.000000X1.250000*%
%ADD13R,1.198880X1.198880*%
%ADD14R,1.600000X3.500000*%
%ADD15R,1.727200X1.727200*%
%ADD16O,1.727200X1.727200*%
%ADD17R,1.000000X2.000000*%
%ADD18R,2.500000X2.500000*%
%ADD19C,2.500000*%
%ADD20R,1.727200X2.032000*%
%ADD21O,1.727200X2.032000*%
%ADD22R,2.032000X1.727200*%
%ADD23O,2.032000X1.727200*%
%ADD24R,2.032000X2.032000*%
%ADD25O,2.032000X2.032000*%
%ADD26R,0.800100X0.800100*%
%ADD27R,0.700000X1.300000*%
%ADD28R,1.300000X0.700000*%
%ADD29R,1.100000X1.800000*%
%ADD30R,0.508000X1.143000*%
%ADD31R,1.000760X0.690880*%
%ADD32R,1.501140X1.000760*%
%ADD33R,2.999740X1.998980*%
%ADD34R,0.450000X1.450000*%
%ADD35C,1.000760*%
%ADD36C,0.500000*%
%ADD37C,0.600000*%
%ADD38C,1.000000*%
%ADD39C,0.750000*%
%ADD40C,0.250000*%
%ADD41C,0.400000*%
%ADD42C,0.200000*%
%ADD43C,0.500000*%
G04 APERTURE END LIST*
D10*
D11*
X153228000Y-71482000D03*
X153228000Y-73482000D03*
D12*
X111144000Y-107760000D03*
X109144000Y-107760000D03*
X109144000Y-109792000D03*
X111144000Y-109792000D03*
X103116000Y-98044000D03*
X101116000Y-98044000D03*
D11*
X115832000Y-74184000D03*
X115832000Y-76184000D03*
X110768000Y-92472000D03*
X110768000Y-94472000D03*
D12*
X117848000Y-80264000D03*
X115848000Y-80264000D03*
X117848000Y-85852000D03*
X115848000Y-85852000D03*
D11*
X117864000Y-76184000D03*
X117864000Y-74184000D03*
X127516000Y-77466000D03*
X127516000Y-79466000D03*
D12*
X122500000Y-71500000D03*
X124500000Y-71500000D03*
D13*
X120528000Y-84010980D03*
X120528000Y-86109020D03*
X124084000Y-84010980D03*
X124084000Y-86109020D03*
D14*
X97061600Y-103000000D03*
X101938400Y-103000000D03*
D15*
X98371100Y-64773600D03*
D16*
X98371100Y-62233600D03*
X100911100Y-64773600D03*
X100911100Y-62233600D03*
X103451100Y-64773600D03*
X103451100Y-62233600D03*
X105991100Y-64773600D03*
X105991100Y-62233600D03*
X108531100Y-64773600D03*
X108531100Y-62233600D03*
X111071100Y-64773600D03*
X111071100Y-62233600D03*
X113611100Y-64773600D03*
X113611100Y-62233600D03*
X116151100Y-64773600D03*
X116151100Y-62233600D03*
X118691100Y-64773600D03*
X118691100Y-62233600D03*
X121231100Y-64773600D03*
X121231100Y-62233600D03*
X123771100Y-64773600D03*
X123771100Y-62233600D03*
X126311100Y-64773600D03*
X126311100Y-62233600D03*
X128851100Y-64773600D03*
X128851100Y-62233600D03*
X131391100Y-64773600D03*
X131391100Y-62233600D03*
X133931100Y-64773600D03*
X133931100Y-62233600D03*
X136471100Y-64773600D03*
X136471100Y-62233600D03*
X139011100Y-64773600D03*
X139011100Y-62233600D03*
X141551100Y-64773600D03*
X141551100Y-62233600D03*
X144091100Y-64773600D03*
X144091100Y-62233600D03*
X146631100Y-64773600D03*
X146631100Y-62233600D03*
D17*
X117700000Y-95800000D03*
X118900000Y-95800000D03*
X120100000Y-95800000D03*
D18*
X99500000Y-111000000D03*
D19*
X104500000Y-111000000D03*
D20*
X121420000Y-105410000D03*
D21*
X118880000Y-105410000D03*
X116340000Y-105410000D03*
X113800000Y-105410000D03*
D20*
X131580000Y-105410000D03*
D21*
X129040000Y-105410000D03*
X126500000Y-105410000D03*
X123960000Y-105410000D03*
D22*
X100972000Y-69338000D03*
D23*
X100972000Y-71878000D03*
X100972000Y-74418000D03*
X100972000Y-76958000D03*
D17*
X130500000Y-95800000D03*
X131700000Y-95800000D03*
X132900000Y-95800000D03*
X127100000Y-92000000D03*
X128300000Y-92000000D03*
X129500000Y-92000000D03*
D24*
X140500000Y-71540000D03*
D25*
X140500000Y-69000000D03*
D24*
X105672000Y-79756000D03*
D25*
X105672000Y-82296000D03*
D15*
X138540000Y-89540000D03*
D16*
X136000000Y-89540000D03*
X138540000Y-87000000D03*
X136000000Y-87000000D03*
X138540000Y-84460000D03*
X136000000Y-84460000D03*
X138540000Y-81920000D03*
X136000000Y-81920000D03*
D26*
X94450000Y-104999240D03*
X92550000Y-104999240D03*
X93500000Y-106998220D03*
X96594000Y-92440760D03*
X98494000Y-92440760D03*
X97544000Y-90441780D03*
X98494000Y-85867240D03*
X96594000Y-85867240D03*
X97544000Y-87866220D03*
X107719240Y-97094000D03*
X107719240Y-98994000D03*
X109718220Y-98044000D03*
X114308000Y-98260000D03*
X114308000Y-96360000D03*
X112309020Y-97310000D03*
D27*
X143642000Y-71466000D03*
X145542000Y-71466000D03*
X143642000Y-73498000D03*
X145542000Y-73498000D03*
X143642000Y-69434000D03*
X145542000Y-69434000D03*
X96550000Y-98000000D03*
X98450000Y-98000000D03*
X94450000Y-98000000D03*
X92550000Y-98000000D03*
X98494000Y-94488000D03*
X96594000Y-94488000D03*
X123650000Y-95850000D03*
X121750000Y-95850000D03*
D28*
X128300000Y-94596000D03*
X128300000Y-96496000D03*
X125760000Y-94596000D03*
X125760000Y-96496000D03*
D27*
X108278000Y-79756000D03*
X110178000Y-79756000D03*
D28*
X120528000Y-88174000D03*
X120528000Y-90074000D03*
X105672000Y-98994000D03*
X105672000Y-97094000D03*
X124084000Y-88174000D03*
X124084000Y-90074000D03*
D29*
X113110000Y-70560000D03*
X113110000Y-76760000D03*
X109410000Y-70560000D03*
X109410000Y-76760000D03*
D30*
X147259000Y-69307000D03*
X148529000Y-69307000D03*
X149799000Y-69307000D03*
X151069000Y-69307000D03*
X151069000Y-75657000D03*
X149799000Y-75657000D03*
X148529000Y-75657000D03*
X147259000Y-75657000D03*
D31*
X94800480Y-101949960D03*
X94800480Y-101000000D03*
X94800480Y-100050040D03*
X92199520Y-100050040D03*
X92199520Y-101000000D03*
X92199520Y-101949960D03*
D32*
X108539660Y-94973140D03*
X108539660Y-93472000D03*
X108539660Y-91970860D03*
D33*
X105588180Y-93472000D03*
D10*
G36*
X107062650Y-92471240D02*
X107811950Y-92971620D01*
X107811950Y-93972380D01*
X107062650Y-94472760D01*
X107062650Y-92471240D01*
X107062650Y-92471240D01*
G37*
D34*
X120019000Y-80166000D03*
X120669000Y-80166000D03*
X121319000Y-80166000D03*
X121969000Y-80166000D03*
X122619000Y-80166000D03*
X123269000Y-80166000D03*
X123919000Y-80166000D03*
X124569000Y-80166000D03*
X125219000Y-80166000D03*
X125869000Y-80166000D03*
X125869000Y-74266000D03*
X125219000Y-74266000D03*
X124569000Y-74266000D03*
X123919000Y-74266000D03*
X123269000Y-74266000D03*
X122619000Y-74266000D03*
X121969000Y-74266000D03*
X121319000Y-74266000D03*
X120669000Y-74266000D03*
X120019000Y-74266000D03*
D32*
X107570000Y-100894860D03*
X107570000Y-102396000D03*
X107570000Y-103897140D03*
D33*
X110521480Y-102396000D03*
D10*
G36*
X109047010Y-103396760D02*
X108297710Y-102896380D01*
X108297710Y-101895620D01*
X109047010Y-101395240D01*
X109047010Y-103396760D01*
X109047010Y-103396760D01*
G37*
D35*
X117864000Y-83820000D03*
X117864000Y-82321400D03*
D24*
X104500000Y-104000000D03*
D25*
X104500000Y-101460000D03*
D24*
X101608000Y-94488000D03*
D25*
X101608000Y-91948000D03*
D24*
X138100000Y-111460000D03*
D25*
X138100000Y-114000000D03*
D36*
X98000000Y-114000000D03*
X145000000Y-76000000D03*
X129500000Y-82000000D03*
X116000000Y-72000000D03*
D37*
X152000000Y-71400000D03*
X147259000Y-70459000D03*
X123740851Y-72791607D03*
X125700000Y-97400000D03*
X108650000Y-100400000D03*
X152200000Y-74526000D03*
X128500000Y-79500000D03*
X116750000Y-74250000D03*
X110500000Y-70500000D03*
X110500000Y-76750000D03*
X111000000Y-79750000D03*
X115750000Y-83250000D03*
X122350000Y-89950000D03*
X109650000Y-107000000D03*
X115250000Y-96450000D03*
X96500000Y-84750000D03*
X95500000Y-98000000D03*
X111750000Y-94500000D03*
X101000000Y-97000000D03*
X111150000Y-106750000D03*
X114500000Y-76760000D03*
X118700000Y-77600000D03*
X131750000Y-80000000D03*
X135500000Y-79500000D03*
X107708101Y-85728445D03*
X104300000Y-85704026D03*
X101300000Y-85704026D03*
X99249990Y-85704026D03*
X116364558Y-92231747D03*
X118604292Y-91176626D03*
X104300000Y-84400000D03*
X106900000Y-84400000D03*
X130813203Y-73960171D03*
X130500000Y-88250000D03*
X127188259Y-86137088D03*
X125000000Y-63500000D03*
X125500000Y-68000000D03*
X129500000Y-71750000D03*
X144900000Y-69350000D03*
X148100000Y-65500000D03*
X149650000Y-68475010D03*
X125500000Y-92000000D03*
X132500000Y-86600000D03*
X112900000Y-78600000D03*
X116097287Y-78816941D03*
X93750000Y-102250000D03*
X93750000Y-105000000D03*
D38*
X137900000Y-66750000D02*
X137900000Y-72232002D01*
X141700009Y-89799991D02*
X138100000Y-93400000D01*
X137900000Y-72232002D02*
X141700009Y-76032011D01*
X141700009Y-76032011D02*
X141700009Y-89799991D01*
X138100000Y-93400000D02*
X138100000Y-111460000D01*
X137900000Y-66750000D02*
X142908000Y-66750000D01*
X119446186Y-66750000D02*
X137900000Y-66750000D01*
X151146240Y-67900000D02*
X151747502Y-67900000D01*
X151747502Y-67900000D02*
X153228000Y-69380498D01*
X153228000Y-69380498D02*
X153228000Y-69982000D01*
X150271231Y-67024991D02*
X151146240Y-67900000D01*
X145616000Y-67484000D02*
X146075010Y-67024990D01*
X146075010Y-67024990D02*
X150271231Y-67024991D01*
X143642000Y-67484000D02*
X145616000Y-67484000D01*
X153228000Y-71482000D02*
X153228000Y-69982000D01*
X143182990Y-67024990D02*
X142908000Y-66750000D01*
X142908000Y-66750000D02*
X143642000Y-67484000D01*
D39*
X143642000Y-67484000D02*
X143642000Y-69434000D01*
D38*
X118691100Y-64773600D02*
X118691100Y-65994914D01*
X118691100Y-65994914D02*
X119446186Y-66750000D01*
X152000000Y-71400000D02*
X153146000Y-71400000D01*
X153146000Y-71400000D02*
X153228000Y-71482000D01*
X147259000Y-69307000D02*
X147259000Y-70459000D01*
D39*
X143642000Y-71466000D02*
X143642000Y-73498000D01*
X143642000Y-69434000D02*
X143642000Y-71466000D01*
D38*
X124497062Y-71359111D02*
X124497062Y-72003383D01*
X124497062Y-72003383D02*
X124467771Y-72032674D01*
X124040850Y-72491608D02*
X123740851Y-72791607D01*
X124467771Y-72064687D02*
X124040850Y-72491608D01*
X124467771Y-72032674D02*
X124467771Y-72064687D01*
D40*
X125760000Y-96496000D02*
X125760000Y-97340000D01*
X125760000Y-97340000D02*
X125700000Y-97400000D01*
D38*
X124472674Y-72032674D02*
X124467771Y-72032674D01*
X124500000Y-72060000D02*
X124472674Y-72032674D01*
X108539660Y-94973140D02*
X110266860Y-94973140D01*
X110266860Y-94973140D02*
X110768000Y-94472000D01*
D40*
X125760000Y-96340000D02*
X125700000Y-96400000D01*
D38*
X113800000Y-108700000D02*
X112708000Y-109792000D01*
X112708000Y-109792000D02*
X111144000Y-109792000D01*
X113800000Y-105410000D02*
X113800000Y-108700000D01*
D40*
X107570000Y-100894860D02*
X108155140Y-100894860D01*
D38*
X108155140Y-100894860D02*
X108650000Y-100400000D01*
D40*
X147780500Y-77000000D02*
X148600000Y-77000000D01*
X148600000Y-77000000D02*
X149800000Y-77000000D01*
X148529000Y-75657000D02*
X148529000Y-76929000D01*
X148529000Y-76929000D02*
X148600000Y-77000000D01*
X149800000Y-77000000D02*
X150600000Y-77000000D01*
X149799000Y-75657000D02*
X149799000Y-76999000D01*
X149799000Y-76999000D02*
X149800000Y-77000000D01*
X150600000Y-77000000D02*
X151069000Y-76531000D01*
X151069000Y-76531000D02*
X151069000Y-75657000D01*
X147259000Y-75657000D02*
X147259000Y-76478500D01*
X147259000Y-76478500D02*
X147780500Y-77000000D01*
D38*
X152200000Y-74526000D02*
X151069000Y-75657000D01*
X153228000Y-73498000D02*
X152200000Y-74526000D01*
D41*
X123269000Y-74266000D02*
X123269000Y-73291000D01*
X123269000Y-73291000D02*
X124500000Y-72060000D01*
D38*
X153228000Y-73482000D02*
X153228000Y-73498000D01*
X127516000Y-79466000D02*
X128466000Y-79466000D01*
X128466000Y-79466000D02*
X128500000Y-79500000D01*
X117864000Y-74184000D02*
X116816000Y-74184000D01*
X116816000Y-74184000D02*
X116750000Y-74250000D01*
X115832000Y-74184000D02*
X116684000Y-74184000D01*
X116684000Y-74184000D02*
X116750000Y-74250000D01*
X109410000Y-70560000D02*
X110440000Y-70560000D01*
X110440000Y-70560000D02*
X110500000Y-70500000D01*
X109410000Y-76760000D02*
X110490000Y-76760000D01*
X110490000Y-76760000D02*
X110500000Y-76750000D01*
X110178000Y-79756000D02*
X110994000Y-79756000D01*
X110994000Y-79756000D02*
X111000000Y-79750000D01*
X115848000Y-80264000D02*
X115848000Y-83152000D01*
X115848000Y-83152000D02*
X115750000Y-83250000D01*
X115848000Y-85852000D02*
X115848000Y-83348000D01*
X115848000Y-83348000D02*
X115750000Y-83250000D01*
X124084000Y-90074000D02*
X122474000Y-90074000D01*
X122474000Y-90074000D02*
X122350000Y-89950000D01*
X120528000Y-90074000D02*
X122226000Y-90074000D01*
X122226000Y-90074000D02*
X122350000Y-89950000D01*
X109144000Y-107760000D02*
X109144000Y-107506000D01*
X109144000Y-107506000D02*
X109650000Y-107000000D01*
X114308000Y-96360000D02*
X115160000Y-96360000D01*
X115160000Y-96360000D02*
X115250000Y-96450000D01*
X96594000Y-85867240D02*
X96594000Y-84844000D01*
X96594000Y-84844000D02*
X96500000Y-84750000D01*
X95500000Y-98000000D02*
X96550000Y-98000000D01*
X94450000Y-98000000D02*
X95500000Y-98000000D01*
X110768000Y-94472000D02*
X111722000Y-94472000D01*
X111722000Y-94472000D02*
X111750000Y-94500000D01*
X101116000Y-98044000D02*
X101116000Y-97116000D01*
X101116000Y-97116000D02*
X101000000Y-97000000D01*
D40*
X100972000Y-74418000D02*
X101124400Y-74418000D01*
X101124400Y-74418000D02*
X101292400Y-74250000D01*
D38*
X110521480Y-102396000D02*
X110521480Y-104395490D01*
X110521480Y-104395490D02*
X111150000Y-105024010D01*
X111150000Y-105024010D02*
X111150000Y-106240000D01*
X110521480Y-102396000D02*
X107570000Y-102396000D01*
X110521480Y-102396000D02*
X110521480Y-98847260D01*
X110521480Y-98847260D02*
X109718220Y-98044000D01*
X104500000Y-101460000D02*
X105460000Y-101460000D01*
X105460000Y-101460000D02*
X106396000Y-102396000D01*
X106396000Y-102396000D02*
X107570000Y-102396000D01*
X111187990Y-106543990D02*
X111144000Y-106500000D01*
X108820000Y-102396000D02*
X108707999Y-102283999D01*
X111150000Y-108000000D02*
X111150000Y-106240000D01*
X108820000Y-102396000D02*
X109922360Y-102396000D01*
X121420000Y-105410000D02*
X121420000Y-98680000D01*
X121420000Y-98680000D02*
X123667626Y-96432374D01*
X123667626Y-96432374D02*
X123667626Y-95515573D01*
X107570000Y-103897140D02*
X107570000Y-109278000D01*
X107570000Y-109278000D02*
X108084000Y-109792000D01*
X108084000Y-109792000D02*
X109144000Y-109792000D01*
X121509641Y-111458291D02*
X109185291Y-111458291D01*
X109185291Y-111458291D02*
X109144000Y-111417000D01*
X131556854Y-111458291D02*
X121509641Y-111458291D01*
X121509641Y-111458291D02*
X121420000Y-111368650D01*
X121371650Y-111417000D02*
X121420000Y-111368650D01*
X121420000Y-111368650D02*
X121420000Y-105410000D01*
X138100000Y-114000000D02*
X134098563Y-114000000D01*
X134098563Y-114000000D02*
X131556854Y-111458291D01*
X109144000Y-109792000D02*
X109144000Y-111417000D01*
X121354000Y-105344000D02*
X121420000Y-105410000D01*
X101938400Y-103000000D02*
X101938400Y-100250000D01*
X101938400Y-100250000D02*
X103116000Y-99072400D01*
X103116000Y-99072400D02*
X103116000Y-98044000D01*
X101938400Y-103000000D02*
X101938400Y-103454400D01*
X101938400Y-103454400D02*
X102484000Y-104000000D01*
X102484000Y-104000000D02*
X104500000Y-104000000D01*
X108539660Y-93472000D02*
X107437300Y-93472000D01*
X105588180Y-93472000D02*
X108539660Y-93472000D01*
X101608000Y-94488000D02*
X104572180Y-94488000D01*
X104572180Y-94488000D02*
X105588180Y-93472000D01*
X98494000Y-94488000D02*
X98494000Y-92440760D01*
X101608000Y-94488000D02*
X98494000Y-94488000D01*
X101608000Y-94488000D02*
X103116000Y-95996000D01*
X103116000Y-95996000D02*
X103116000Y-98044000D01*
X105672000Y-98994000D02*
X104066000Y-98994000D01*
X104066000Y-98994000D02*
X103116000Y-98044000D01*
X105672000Y-98994000D02*
X107719240Y-98994000D01*
D40*
X113110000Y-76760000D02*
X114500000Y-76760000D01*
X114500000Y-76760000D02*
X115256000Y-76760000D01*
X120378000Y-77600000D02*
X118700000Y-77600000D01*
X121969000Y-80166000D02*
X121969000Y-79191000D01*
X121969000Y-79191000D02*
X120378000Y-77600000D01*
X113110000Y-76760000D02*
X113110000Y-70560000D01*
X115256000Y-76760000D02*
X115832000Y-76184000D01*
X115957000Y-76184000D02*
X115832000Y-76184000D01*
D38*
X127516000Y-77466000D02*
X126034000Y-77466000D01*
X122486649Y-71359111D02*
X122500000Y-71372462D01*
X122500000Y-71372462D02*
X122500000Y-72500000D01*
X138540000Y-81920000D02*
X138540000Y-84460000D01*
X129216000Y-77466000D02*
X131750000Y-80000000D01*
X127516000Y-77466000D02*
X129216000Y-77466000D01*
X138250000Y-79500000D02*
X138540000Y-79790000D01*
X138540000Y-79790000D02*
X138540000Y-81920000D01*
X135500000Y-79500000D02*
X138250000Y-79500000D01*
X105672000Y-82296000D02*
X111204000Y-82296000D01*
X111204000Y-82296000D02*
X115900000Y-77600000D01*
X115900000Y-77600000D02*
X116801002Y-77600000D01*
X116801002Y-77600000D02*
X117864000Y-76537002D01*
X117864000Y-76537002D02*
X117864000Y-76184000D01*
X105672000Y-82296000D02*
X105672000Y-89103200D01*
X105672000Y-89103200D02*
X106000000Y-89431200D01*
X105672000Y-82296000D02*
X104235160Y-82296000D01*
X104235160Y-82296000D02*
X100972000Y-79032840D01*
X100972000Y-79032840D02*
X100972000Y-78821600D01*
X100972000Y-78821600D02*
X100972000Y-76958000D01*
X108539660Y-91970860D02*
X110266860Y-91970860D01*
X110266860Y-91970860D02*
X110768000Y-92472000D01*
D41*
X122619000Y-80166000D02*
X122619000Y-77855998D01*
X122600000Y-74812998D02*
X122600000Y-75300000D01*
X122619000Y-74266000D02*
X122619000Y-74869000D01*
X122619000Y-74266000D02*
X122619000Y-72959999D01*
D38*
X106000000Y-89431200D02*
X108539660Y-91970860D01*
X117864000Y-76184000D02*
X119750000Y-76184000D01*
X119750000Y-76184000D02*
X121991000Y-76184000D01*
D40*
X117864000Y-82321400D02*
X119488600Y-82321400D01*
X119488600Y-82321400D02*
X120669000Y-81141000D01*
X120669000Y-81141000D02*
X120669000Y-80166000D01*
X117864000Y-82321400D02*
X117864000Y-80280000D01*
X117864000Y-80280000D02*
X117848000Y-80264000D01*
X117864000Y-83820000D02*
X118640000Y-83820000D01*
X118640000Y-83820000D02*
X121319000Y-81141000D01*
X121319000Y-81141000D02*
X121319000Y-80166000D01*
X117848000Y-85852000D02*
X117848000Y-83836000D01*
X117848000Y-83836000D02*
X117864000Y-83820000D01*
X120528000Y-84010980D02*
X119678560Y-84010980D01*
X119678560Y-84010980D02*
X119100000Y-84589540D01*
X119100000Y-84589540D02*
X119100000Y-86589540D01*
X119100000Y-86589540D02*
X118189540Y-87500000D01*
X118189540Y-87500000D02*
X114750000Y-87500000D01*
X114750000Y-87500000D02*
X112978445Y-85728445D01*
X112978445Y-85728445D02*
X107708101Y-85728445D01*
X104300000Y-85704026D02*
X101300000Y-85704026D01*
X120528000Y-84010980D02*
X120528000Y-83161540D01*
X120528000Y-83161540D02*
X122258540Y-81431000D01*
X122258540Y-81431000D02*
X123269000Y-81431000D01*
X123269000Y-80166000D02*
X123269000Y-81431000D01*
X98494000Y-85867240D02*
X99086776Y-85867240D01*
X99086776Y-85867240D02*
X99249990Y-85704026D01*
X120528000Y-88174000D02*
X120528000Y-86109020D01*
X116364558Y-92656011D02*
X116364558Y-92231747D01*
X116364558Y-96853492D02*
X116364558Y-92656011D01*
X114958050Y-98260000D02*
X116364558Y-96853492D01*
X114308000Y-98260000D02*
X114958050Y-98260000D01*
X119028556Y-91176626D02*
X118604292Y-91176626D01*
X125700000Y-90400000D02*
X124923374Y-91176626D01*
X124933440Y-84010980D02*
X125700000Y-84777540D01*
X124084000Y-84010980D02*
X124933440Y-84010980D01*
X124923374Y-91176626D02*
X119028556Y-91176626D01*
X125700000Y-84777540D02*
X125700000Y-90400000D01*
X124084000Y-84010980D02*
X124084000Y-83161540D01*
X123919000Y-82996540D02*
X123919000Y-81141000D01*
X123919000Y-81141000D02*
X123919000Y-80166000D01*
X124084000Y-83161540D02*
X123919000Y-82996540D01*
X123719000Y-83645980D02*
X124084000Y-84010980D01*
X124084000Y-88174000D02*
X124084000Y-86109020D01*
X92949900Y-101000000D02*
X92199520Y-101000000D01*
X92550000Y-103599190D02*
X93124999Y-103024191D01*
X93124999Y-103024191D02*
X93124999Y-101175099D01*
X93124999Y-101175099D02*
X92949900Y-101000000D01*
D38*
X97061600Y-103000000D02*
X96561600Y-103500000D01*
X96561600Y-103500000D02*
X92649190Y-103500000D01*
X92649190Y-103500000D02*
X92550000Y-103599190D01*
X92550000Y-103599190D02*
X92550000Y-104999240D01*
X96807499Y-78557499D02*
X96807499Y-66592501D01*
D42*
X97149786Y-62233600D02*
X96807499Y-62575887D01*
X96807499Y-62575887D02*
X96807499Y-66592501D01*
D43*
X98371100Y-62233600D02*
X97149786Y-62233600D01*
D38*
X98944050Y-90441780D02*
X100250000Y-89135830D01*
X100250000Y-89135830D02*
X100250000Y-82000000D01*
X100250000Y-82000000D02*
X96807499Y-78557499D01*
X97544000Y-90441780D02*
X98944050Y-90441780D01*
X97544000Y-90441780D02*
X100101780Y-90441780D01*
X100101780Y-90441780D02*
X101608000Y-91948000D01*
D40*
X106900000Y-84400000D02*
X106912409Y-84412409D01*
X106912409Y-84412409D02*
X106912409Y-86412409D01*
X117700000Y-95777708D02*
X117715265Y-95792973D01*
X106912409Y-86412409D02*
X111100000Y-90600000D01*
X111100000Y-90600000D02*
X116600000Y-90600000D01*
X116600000Y-90600000D02*
X117700000Y-91700000D01*
X117700000Y-91700000D02*
X117700000Y-95777708D01*
X104300000Y-84400000D02*
X98900000Y-79000000D01*
X98900000Y-67800000D02*
X99300000Y-67400000D01*
X98900000Y-79000000D02*
X98900000Y-67800000D01*
X99300000Y-67400000D02*
X103364700Y-67400000D01*
X103364700Y-67400000D02*
X105991100Y-64773600D01*
X110788370Y-66250000D02*
X114105851Y-66250000D01*
X121319000Y-73463149D02*
X121319000Y-74266000D01*
X114105851Y-66250000D02*
X121319000Y-73463149D01*
X105991100Y-62233600D02*
X107179701Y-63422201D01*
X107179701Y-63422201D02*
X109083291Y-63422201D01*
X109083291Y-63422201D02*
X109882499Y-64221409D01*
X109882499Y-64221409D02*
X109882499Y-65344129D01*
X109882499Y-65344129D02*
X110788370Y-66250000D01*
X108531100Y-62233600D02*
X109882499Y-63584999D01*
X109882499Y-63584999D02*
X114181629Y-63584999D01*
X114181629Y-63584999D02*
X114962499Y-64365869D01*
X114962499Y-64365869D02*
X114962499Y-66470238D01*
X114962499Y-66470238D02*
X121969000Y-73476739D01*
X121969000Y-73476739D02*
X121969000Y-74266000D01*
X130471038Y-95792973D02*
X130471038Y-93578962D01*
X130471038Y-93578962D02*
X131100000Y-92950000D01*
X131100000Y-92950000D02*
X131100000Y-88850000D01*
X131100000Y-88850000D02*
X130500000Y-88250000D01*
X130388939Y-73960171D02*
X130813203Y-73960171D01*
X130193072Y-73960171D02*
X130388939Y-73960171D01*
X118325010Y-67575010D02*
X123807911Y-67575010D01*
X117339701Y-66589701D02*
X118325010Y-67575010D01*
X123807911Y-67575010D02*
X130193072Y-73960171D01*
X117339701Y-63422201D02*
X117339701Y-66589701D01*
X116151100Y-62233600D02*
X117339701Y-63422201D01*
X130499816Y-88250184D02*
X130500000Y-88250000D01*
X127100000Y-91400000D02*
X127124793Y-91375207D01*
X127124793Y-91375207D02*
X127124793Y-86200554D01*
X127124793Y-86200554D02*
X127188259Y-86137088D01*
X125000000Y-63500000D02*
X119957500Y-63500000D01*
X119957500Y-63500000D02*
X118691100Y-62233600D01*
X129500000Y-71750000D02*
X125750000Y-68000000D01*
X125750000Y-68000000D02*
X125500000Y-68000000D01*
X145542000Y-69434000D02*
X144984000Y-69434000D01*
X144984000Y-69434000D02*
X144900000Y-69350000D01*
X146826000Y-67850000D02*
X149929500Y-67850000D01*
X149929500Y-67850000D02*
X151069000Y-68989500D01*
X151069000Y-68989500D02*
X151069000Y-69307000D01*
X145542000Y-69434000D02*
X145542000Y-69134000D01*
X145542000Y-69134000D02*
X146826000Y-67850000D01*
X148100000Y-64200000D02*
X148100000Y-65500000D01*
X147322201Y-63422201D02*
X148100000Y-64200000D01*
X131391100Y-62233600D02*
X132579701Y-63422201D01*
X132579701Y-63422201D02*
X147322201Y-63422201D01*
X145542000Y-73498000D02*
X146429500Y-73498000D01*
X146429500Y-73498000D02*
X149799000Y-70128500D01*
X149799000Y-70128500D02*
X149799000Y-69307000D01*
X149799000Y-69307000D02*
X149799000Y-68624010D01*
X149799000Y-68624010D02*
X149650000Y-68475010D01*
X118900000Y-95800000D02*
X118900000Y-105390000D01*
X118900000Y-105390000D02*
X118880000Y-105410000D01*
X118880000Y-94820000D02*
X118900000Y-94800000D01*
X121500000Y-96800000D02*
X121700000Y-96800000D01*
X121700000Y-96800000D02*
X121750000Y-96750000D01*
X121750000Y-96750000D02*
X121750000Y-95850000D01*
X120500000Y-97800000D02*
X121500000Y-96800000D01*
X119650000Y-97800000D02*
X120500000Y-97800000D01*
X118900000Y-95800000D02*
X118900000Y-97050000D01*
X118900000Y-97050000D02*
X119650000Y-97800000D01*
X118880000Y-105410000D02*
X118880000Y-105257600D01*
X132750000Y-86350000D02*
X132500000Y-86600000D01*
X132750000Y-79750000D02*
X132750000Y-86350000D01*
X128500000Y-75500000D02*
X132750000Y-79750000D01*
X123919000Y-75241000D02*
X124178000Y-75500000D01*
X123919000Y-74266000D02*
X123919000Y-75241000D01*
X124178000Y-75500000D02*
X128500000Y-75500000D01*
X125500000Y-92000000D02*
X122400000Y-92000000D01*
X122400000Y-92000000D02*
X120117698Y-94282302D01*
X120117698Y-94282302D02*
X120117698Y-95707172D01*
D38*
X93500000Y-106998220D02*
X92099950Y-106998220D01*
X91000000Y-105898270D02*
X91000000Y-102500000D01*
X92099950Y-106998220D02*
X91000000Y-105898270D01*
X91000000Y-102500000D02*
X91454559Y-102045441D01*
X91454559Y-102045441D02*
X92199520Y-102045441D01*
X99500000Y-111000000D02*
X99500000Y-108750000D01*
X99500000Y-108750000D02*
X97748220Y-106998220D01*
X97748220Y-106998220D02*
X93500000Y-106998220D01*
D40*
X129040000Y-105410000D02*
X129040000Y-104144000D01*
X129040000Y-104144000D02*
X131700000Y-101484000D01*
X131700000Y-101484000D02*
X131700000Y-97050000D01*
X131700000Y-97050000D02*
X131700000Y-95800000D01*
X131700000Y-96050000D02*
X131650000Y-96050000D01*
X129040000Y-105410000D02*
X129040000Y-105257600D01*
X128300000Y-103457600D02*
X128300000Y-96496000D01*
X126500000Y-105410000D02*
X126500000Y-105257600D01*
X126500000Y-105257600D02*
X128300000Y-103457600D01*
X115600000Y-68400000D02*
X103176000Y-68400000D01*
X103176000Y-68400000D02*
X102238000Y-69338000D01*
X102238000Y-69338000D02*
X100972000Y-69338000D01*
X120019000Y-72819000D02*
X115600000Y-68400000D01*
X120019000Y-74266000D02*
X120019000Y-72819000D01*
X120669000Y-74266000D02*
X120669000Y-75241000D01*
X120669000Y-75241000D02*
X120551010Y-75358990D01*
X102900000Y-71300000D02*
X102322000Y-71878000D01*
X120551010Y-75358990D02*
X119358990Y-75358990D01*
X119358990Y-75358990D02*
X119200000Y-75200000D01*
X119200000Y-72636410D02*
X115413600Y-68850010D01*
X103449990Y-68850010D02*
X102900000Y-69400000D01*
X102322000Y-71878000D02*
X100972000Y-71878000D01*
X119200000Y-75200000D02*
X119200000Y-72636410D01*
X115413600Y-68850010D02*
X103449990Y-68850010D01*
X102900000Y-69400000D02*
X102900000Y-71300000D01*
X132930672Y-95707172D02*
X132900000Y-95676500D01*
X132900000Y-95676500D02*
X132900000Y-89400000D01*
X132900000Y-89400000D02*
X125219000Y-81719000D01*
X125219000Y-81719000D02*
X125219000Y-80166000D01*
X128300000Y-94596000D02*
X128300000Y-92000000D01*
X125760000Y-94596000D02*
X126660000Y-94596000D01*
X126660000Y-94596000D02*
X128300000Y-94596000D01*
X129500000Y-91400000D02*
X129500000Y-87250000D01*
X129500000Y-87250000D02*
X124569000Y-82319000D01*
X124569000Y-82319000D02*
X124569000Y-80166000D01*
X144200000Y-74800000D02*
X142494000Y-74800000D01*
X142494000Y-74800000D02*
X140500000Y-72806000D01*
X140500000Y-72806000D02*
X140500000Y-71540000D01*
X144592000Y-74408000D02*
X144200000Y-74800000D01*
X144592000Y-71816000D02*
X144592000Y-74408000D01*
X147734000Y-71466000D02*
X148529000Y-70671000D01*
X148529000Y-70671000D02*
X148529000Y-69307000D01*
X145542000Y-71466000D02*
X147734000Y-71466000D01*
X148529000Y-69624500D02*
X148529000Y-69307000D01*
X145542000Y-71466000D02*
X144942000Y-71466000D01*
X144942000Y-71466000D02*
X144592000Y-71816000D01*
X112900000Y-78600000D02*
X109237319Y-78600000D01*
X109237319Y-78600000D02*
X109236738Y-78599419D01*
X109236738Y-78599419D02*
X109134581Y-78599419D01*
X109134581Y-78599419D02*
X108278000Y-79456000D01*
X108278000Y-79456000D02*
X108278000Y-79756000D01*
X119500000Y-78500000D02*
X116414228Y-78500000D01*
X116414228Y-78500000D02*
X116097287Y-78816941D01*
X108278000Y-79756000D02*
X107678000Y-79756000D01*
X107678000Y-79756000D02*
X105672000Y-79756000D01*
X120019000Y-79019000D02*
X119500000Y-78500000D01*
X120019000Y-80166000D02*
X120019000Y-79019000D01*
X125200010Y-72549990D02*
X124569000Y-73181000D01*
X124569000Y-73181000D02*
X124569000Y-74266000D01*
X134200010Y-79200010D02*
X127549990Y-72549990D01*
X127549990Y-72549990D02*
X125200010Y-72549990D01*
X136000000Y-81920000D02*
X134200010Y-80120010D01*
X134200010Y-80120010D02*
X134200010Y-79200010D01*
X127272818Y-73000000D02*
X125500000Y-73000000D01*
X125500000Y-73000000D02*
X125219000Y-73281000D01*
X125219000Y-73281000D02*
X125219000Y-73291000D01*
X125219000Y-73291000D02*
X125219000Y-74266000D01*
X133750000Y-83431314D02*
X133750000Y-79477182D01*
X133750000Y-79477182D02*
X127272818Y-73000000D01*
X136000000Y-84460000D02*
X134778686Y-84460000D01*
X134778686Y-84460000D02*
X133750000Y-83431314D01*
X133200009Y-79563599D02*
X127902410Y-74266000D01*
X136000000Y-87000000D02*
X134778686Y-87000000D01*
X127902410Y-74266000D02*
X125869000Y-74266000D01*
X134778686Y-87000000D02*
X133200010Y-85421324D01*
X133200010Y-85421324D02*
X133200009Y-79563599D01*
X125869000Y-80166000D02*
X125869000Y-81141000D01*
X125869000Y-81141000D02*
X125978000Y-81250000D01*
X125978000Y-81250000D02*
X126124990Y-81250000D01*
X126124990Y-81250000D02*
X132124990Y-87250000D01*
X132124990Y-87250000D02*
X133710000Y-87250000D01*
X133710000Y-87250000D02*
X136000000Y-89540000D01*
X93750000Y-100500000D02*
X93300040Y-100050040D01*
X93300040Y-100050040D02*
X92199520Y-100050040D01*
X93750000Y-102250000D02*
X93750000Y-100500000D01*
X94450000Y-104999240D02*
X93750760Y-104999240D01*
X93750760Y-104999240D02*
X93750000Y-105000000D01*
X92550000Y-98000000D02*
X92550000Y-99699560D01*
X92550000Y-99699560D02*
X92199520Y-100050040D01*
X96594000Y-92440760D02*
X96594000Y-88166170D01*
X96594000Y-88166170D02*
X96893950Y-87866220D01*
X96893950Y-87866220D02*
X97544000Y-87866220D01*
X96594000Y-94488000D02*
X96594000Y-92440760D01*
X107719240Y-97094000D02*
X107772891Y-97147651D01*
X112146671Y-97147651D02*
X112309020Y-97310000D01*
X107772891Y-97147651D02*
X112146671Y-97147651D01*
X105672000Y-97094000D02*
X107719240Y-97094000D01*
X94800480Y-101000000D02*
X94800480Y-101949960D01*
X94800480Y-100050040D02*
X94800480Y-101000000D01*
X95500000Y-99500000D02*
X97250000Y-99500000D01*
X97250000Y-99500000D02*
X98450000Y-98300000D01*
X98450000Y-98300000D02*
X98450000Y-98000000D01*
X94949960Y-100050040D02*
X95500000Y-99500000D01*
X94800480Y-100050040D02*
X94949960Y-100050040D01*
D42*
G36*
X102200000Y-66900000D02*
X96700000Y-66900000D01*
X96700000Y-64209408D01*
X96725538Y-64147906D01*
X96725745Y-63910000D01*
X97201623Y-63910000D01*
X97201623Y-65637200D01*
X97222542Y-65748373D01*
X97288245Y-65850479D01*
X97388497Y-65918978D01*
X97507500Y-65943077D01*
X99234700Y-65943077D01*
X99345873Y-65922158D01*
X99447979Y-65856455D01*
X99516478Y-65756203D01*
X99540577Y-65637200D01*
X99540577Y-64750804D01*
X99747500Y-64750804D01*
X99747500Y-64796396D01*
X99836074Y-65241686D01*
X100088311Y-65619185D01*
X100465810Y-65871422D01*
X100911100Y-65959996D01*
X101356390Y-65871422D01*
X101733889Y-65619185D01*
X101986126Y-65241686D01*
X102074700Y-64796396D01*
X102074700Y-64750804D01*
X101986126Y-64305514D01*
X101733889Y-63928015D01*
X101356390Y-63675778D01*
X100911100Y-63587204D01*
X100465810Y-63675778D01*
X100088311Y-63928015D01*
X99836074Y-64305514D01*
X99747500Y-64750804D01*
X99540577Y-64750804D01*
X99540577Y-63910000D01*
X99519658Y-63798827D01*
X99453955Y-63696721D01*
X99353703Y-63628222D01*
X99234700Y-63604123D01*
X97507500Y-63604123D01*
X97396327Y-63625042D01*
X97294221Y-63690745D01*
X97225722Y-63790997D01*
X97201623Y-63910000D01*
X96725745Y-63910000D01*
X96726658Y-62864922D01*
X96700000Y-62800405D01*
X96700000Y-62570149D01*
X97205084Y-62570149D01*
X97422633Y-62990746D01*
X97784578Y-63296074D01*
X98034554Y-63399602D01*
X98221100Y-63349665D01*
X98221100Y-62383600D01*
X98521100Y-62383600D01*
X98521100Y-63349665D01*
X98707646Y-63399602D01*
X98957622Y-63296074D01*
X99319567Y-62990746D01*
X99537116Y-62570149D01*
X99745084Y-62570149D01*
X99962633Y-62990746D01*
X100324578Y-63296074D01*
X100574554Y-63399602D01*
X100761100Y-63349665D01*
X100761100Y-62383600D01*
X101061100Y-62383600D01*
X101061100Y-63349665D01*
X101247646Y-63399602D01*
X101497622Y-63296074D01*
X101859567Y-62990746D01*
X102077116Y-62570149D01*
X102027908Y-62383600D01*
X101061100Y-62383600D01*
X100761100Y-62383600D01*
X99794292Y-62383600D01*
X99745084Y-62570149D01*
X99537116Y-62570149D01*
X99487908Y-62383600D01*
X98521100Y-62383600D01*
X98221100Y-62383600D01*
X97254292Y-62383600D01*
X97205084Y-62570149D01*
X96700000Y-62570149D01*
X96700000Y-61897051D01*
X97205084Y-61897051D01*
X97254292Y-62083600D01*
X98221100Y-62083600D01*
X98221100Y-61117535D01*
X98521100Y-61117535D01*
X98521100Y-62083600D01*
X99487908Y-62083600D01*
X99537116Y-61897051D01*
X99745084Y-61897051D01*
X99794292Y-62083600D01*
X100761100Y-62083600D01*
X100761100Y-61117535D01*
X101061100Y-61117535D01*
X101061100Y-62083600D01*
X102027908Y-62083600D01*
X102077116Y-61897051D01*
X101859567Y-61476454D01*
X101497622Y-61171126D01*
X101247646Y-61067598D01*
X101061100Y-61117535D01*
X100761100Y-61117535D01*
X100574554Y-61067598D01*
X100324578Y-61171126D01*
X99962633Y-61476454D01*
X99745084Y-61897051D01*
X99537116Y-61897051D01*
X99319567Y-61476454D01*
X98957622Y-61171126D01*
X98707646Y-61067598D01*
X98521100Y-61117535D01*
X98221100Y-61117535D01*
X98034554Y-61067598D01*
X97784578Y-61171126D01*
X97422633Y-61476454D01*
X97205084Y-61897051D01*
X96700000Y-61897051D01*
X96700000Y-60400000D01*
X102200000Y-60400000D01*
X102200000Y-66900000D01*
X102200000Y-66900000D01*
G37*
X102200000Y-66900000D02*
X96700000Y-66900000D01*
X96700000Y-64209408D01*
X96725538Y-64147906D01*
X96725745Y-63910000D01*
X97201623Y-63910000D01*
X97201623Y-65637200D01*
X97222542Y-65748373D01*
X97288245Y-65850479D01*
X97388497Y-65918978D01*
X97507500Y-65943077D01*
X99234700Y-65943077D01*
X99345873Y-65922158D01*
X99447979Y-65856455D01*
X99516478Y-65756203D01*
X99540577Y-65637200D01*
X99540577Y-64750804D01*
X99747500Y-64750804D01*
X99747500Y-64796396D01*
X99836074Y-65241686D01*
X100088311Y-65619185D01*
X100465810Y-65871422D01*
X100911100Y-65959996D01*
X101356390Y-65871422D01*
X101733889Y-65619185D01*
X101986126Y-65241686D01*
X102074700Y-64796396D01*
X102074700Y-64750804D01*
X101986126Y-64305514D01*
X101733889Y-63928015D01*
X101356390Y-63675778D01*
X100911100Y-63587204D01*
X100465810Y-63675778D01*
X100088311Y-63928015D01*
X99836074Y-64305514D01*
X99747500Y-64750804D01*
X99540577Y-64750804D01*
X99540577Y-63910000D01*
X99519658Y-63798827D01*
X99453955Y-63696721D01*
X99353703Y-63628222D01*
X99234700Y-63604123D01*
X97507500Y-63604123D01*
X97396327Y-63625042D01*
X97294221Y-63690745D01*
X97225722Y-63790997D01*
X97201623Y-63910000D01*
X96725745Y-63910000D01*
X96726658Y-62864922D01*
X96700000Y-62800405D01*
X96700000Y-62570149D01*
X97205084Y-62570149D01*
X97422633Y-62990746D01*
X97784578Y-63296074D01*
X98034554Y-63399602D01*
X98221100Y-63349665D01*
X98221100Y-62383600D01*
X98521100Y-62383600D01*
X98521100Y-63349665D01*
X98707646Y-63399602D01*
X98957622Y-63296074D01*
X99319567Y-62990746D01*
X99537116Y-62570149D01*
X99745084Y-62570149D01*
X99962633Y-62990746D01*
X100324578Y-63296074D01*
X100574554Y-63399602D01*
X100761100Y-63349665D01*
X100761100Y-62383600D01*
X101061100Y-62383600D01*
X101061100Y-63349665D01*
X101247646Y-63399602D01*
X101497622Y-63296074D01*
X101859567Y-62990746D01*
X102077116Y-62570149D01*
X102027908Y-62383600D01*
X101061100Y-62383600D01*
X100761100Y-62383600D01*
X99794292Y-62383600D01*
X99745084Y-62570149D01*
X99537116Y-62570149D01*
X99487908Y-62383600D01*
X98521100Y-62383600D01*
X98221100Y-62383600D01*
X97254292Y-62383600D01*
X97205084Y-62570149D01*
X96700000Y-62570149D01*
X96700000Y-61897051D01*
X97205084Y-61897051D01*
X97254292Y-62083600D01*
X98221100Y-62083600D01*
X98221100Y-61117535D01*
X98521100Y-61117535D01*
X98521100Y-62083600D01*
X99487908Y-62083600D01*
X99537116Y-61897051D01*
X99745084Y-61897051D01*
X99794292Y-62083600D01*
X100761100Y-62083600D01*
X100761100Y-61117535D01*
X101061100Y-61117535D01*
X101061100Y-62083600D01*
X102027908Y-62083600D01*
X102077116Y-61897051D01*
X101859567Y-61476454D01*
X101497622Y-61171126D01*
X101247646Y-61067598D01*
X101061100Y-61117535D01*
X100761100Y-61117535D01*
X100574554Y-61067598D01*
X100324578Y-61171126D01*
X99962633Y-61476454D01*
X99745084Y-61897051D01*
X99537116Y-61897051D01*
X99319567Y-61476454D01*
X98957622Y-61171126D01*
X98707646Y-61067598D01*
X98521100Y-61117535D01*
X98221100Y-61117535D01*
X98034554Y-61067598D01*
X97784578Y-61171126D01*
X97422633Y-61476454D01*
X97205084Y-61897051D01*
X96700000Y-61897051D01*
X96700000Y-60400000D01*
X102200000Y-60400000D01*
X102200000Y-66900000D01*
D40*
G36*
X122875000Y-72745616D02*
X122865852Y-72791607D01*
X122875000Y-72837598D01*
X122875000Y-72871828D01*
X122862414Y-72884414D01*
X122737769Y-73070957D01*
X122694000Y-73291000D01*
X122694000Y-73388993D01*
X122691777Y-73392246D01*
X122661654Y-73541000D01*
X122661654Y-74991000D01*
X122687802Y-75129966D01*
X122769931Y-75257599D01*
X122895246Y-75343223D01*
X123044000Y-75373346D01*
X123445325Y-75373346D01*
X123457060Y-75432342D01*
X123565447Y-75594553D01*
X123824446Y-75853553D01*
X123986658Y-75961940D01*
X124178000Y-76000000D01*
X126375000Y-76000000D01*
X126375000Y-79075000D01*
X126174720Y-79075000D01*
X126094000Y-79058654D01*
X125644000Y-79058654D01*
X125557128Y-79075000D01*
X125524719Y-79075000D01*
X125444000Y-79058654D01*
X124994000Y-79058654D01*
X124907128Y-79075000D01*
X124874719Y-79075000D01*
X124794000Y-79058654D01*
X124344000Y-79058654D01*
X124257128Y-79075000D01*
X124224719Y-79075000D01*
X124144000Y-79058654D01*
X123694000Y-79058654D01*
X123607128Y-79075000D01*
X123574719Y-79075000D01*
X123494000Y-79058654D01*
X123044000Y-79058654D01*
X122957128Y-79075000D01*
X122445926Y-79075000D01*
X122430940Y-78999658D01*
X122408450Y-78966000D01*
X122322554Y-78837447D01*
X120731553Y-77246447D01*
X120569342Y-77138060D01*
X120378000Y-77100000D01*
X119525000Y-77100000D01*
X119525000Y-75858990D01*
X120551010Y-75858990D01*
X120742352Y-75820930D01*
X120904563Y-75712543D01*
X121022553Y-75594553D01*
X121130940Y-75432342D01*
X121142675Y-75373346D01*
X121544000Y-75373346D01*
X121647671Y-75353839D01*
X121744000Y-75373346D01*
X122194000Y-75373346D01*
X122332966Y-75347198D01*
X122460599Y-75265069D01*
X122546223Y-75139754D01*
X122576346Y-74991000D01*
X122576346Y-73541000D01*
X122550198Y-73402034D01*
X122468069Y-73274401D01*
X122386228Y-73218482D01*
X122363724Y-73184802D01*
X122322554Y-73123186D01*
X122125000Y-72925632D01*
X122125000Y-72525000D01*
X122875000Y-72525000D01*
X122875000Y-72745616D01*
X122875000Y-72745616D01*
G37*
X122875000Y-72745616D02*
X122865852Y-72791607D01*
X122875000Y-72837598D01*
X122875000Y-72871828D01*
X122862414Y-72884414D01*
X122737769Y-73070957D01*
X122694000Y-73291000D01*
X122694000Y-73388993D01*
X122691777Y-73392246D01*
X122661654Y-73541000D01*
X122661654Y-74991000D01*
X122687802Y-75129966D01*
X122769931Y-75257599D01*
X122895246Y-75343223D01*
X123044000Y-75373346D01*
X123445325Y-75373346D01*
X123457060Y-75432342D01*
X123565447Y-75594553D01*
X123824446Y-75853553D01*
X123986658Y-75961940D01*
X124178000Y-76000000D01*
X126375000Y-76000000D01*
X126375000Y-79075000D01*
X126174720Y-79075000D01*
X126094000Y-79058654D01*
X125644000Y-79058654D01*
X125557128Y-79075000D01*
X125524719Y-79075000D01*
X125444000Y-79058654D01*
X124994000Y-79058654D01*
X124907128Y-79075000D01*
X124874719Y-79075000D01*
X124794000Y-79058654D01*
X124344000Y-79058654D01*
X124257128Y-79075000D01*
X124224719Y-79075000D01*
X124144000Y-79058654D01*
X123694000Y-79058654D01*
X123607128Y-79075000D01*
X123574719Y-79075000D01*
X123494000Y-79058654D01*
X123044000Y-79058654D01*
X122957128Y-79075000D01*
X122445926Y-79075000D01*
X122430940Y-78999658D01*
X122408450Y-78966000D01*
X122322554Y-78837447D01*
X120731553Y-77246447D01*
X120569342Y-77138060D01*
X120378000Y-77100000D01*
X119525000Y-77100000D01*
X119525000Y-75858990D01*
X120551010Y-75858990D01*
X120742352Y-75820930D01*
X120904563Y-75712543D01*
X121022553Y-75594553D01*
X121130940Y-75432342D01*
X121142675Y-75373346D01*
X121544000Y-75373346D01*
X121647671Y-75353839D01*
X121744000Y-75373346D01*
X122194000Y-75373346D01*
X122332966Y-75347198D01*
X122460599Y-75265069D01*
X122546223Y-75139754D01*
X122576346Y-74991000D01*
X122576346Y-73541000D01*
X122550198Y-73402034D01*
X122468069Y-73274401D01*
X122386228Y-73218482D01*
X122363724Y-73184802D01*
X122322554Y-73123186D01*
X122125000Y-72925632D01*
X122125000Y-72525000D01*
X122875000Y-72525000D01*
X122875000Y-72745616D01*
M02*
