M48
;DRILL file {KiCad 4.0.2+e4-6225~38~ubuntu15.04.1-stable} date Tue 25 Oct 2016 21:09:22 ACDT
;FORMAT={-:-/ absolute / metric / decimal}
FMAT,2
METRIC,TZ
T1C0.400
T2C0.599
T3C1.016
T4C1.300
%
G90
G05
M71
T1
X93.75Y-102.25
X93.75Y-105.
X95.5Y-98.
X96.5Y-84.75
X99.25Y-85.704
X101.Y-97.
X101.3Y-85.704
X104.3Y-84.4
X104.3Y-85.704
X106.9Y-84.4
X107.708Y-85.728
X108.65Y-100.4
X109.65Y-107.
X110.5Y-70.5
X110.5Y-76.75
X111.Y-79.75
X111.15Y-106.75
X111.75Y-94.5
X112.9Y-78.6
X114.5Y-76.76
X115.25Y-96.45
X115.75Y-83.25
X116.097Y-78.817
X116.365Y-92.232
X116.75Y-74.25
X118.604Y-91.177
X118.7Y-77.6
X122.35Y-89.95
X123.741Y-72.792
X125.Y-63.5
X125.5Y-68.
X125.5Y-92.
X125.7Y-97.4
X127.188Y-86.137
X128.5Y-79.5
X129.5Y-71.75
X130.5Y-88.25
X130.813Y-73.96
X131.75Y-80.
X132.5Y-86.6
X135.5Y-79.5
X144.9Y-69.35
X147.259Y-70.459
X148.1Y-65.5
X149.65Y-68.475
X152.Y-71.4
X152.2Y-74.526
T2
X117.864Y-82.321
X117.864Y-83.82
T3
X98.371Y-62.234
X98.371Y-64.774
X100.911Y-62.234
X100.911Y-64.774
X100.972Y-69.338
X100.972Y-71.878
X100.972Y-74.418
X100.972Y-76.958
X101.608Y-91.948
X101.608Y-94.488
X103.451Y-62.234
X103.451Y-64.774
X104.5Y-101.46
X104.5Y-104.
X105.672Y-79.756
X105.672Y-82.296
X105.991Y-62.234
X105.991Y-64.774
X108.531Y-62.234
X108.531Y-64.774
X111.071Y-62.234
X111.071Y-64.774
X113.611Y-62.234
X113.611Y-64.774
X113.8Y-105.41
X116.151Y-62.234
X116.151Y-64.774
X116.34Y-105.41
X118.691Y-62.234
X118.691Y-64.774
X118.88Y-105.41
X121.231Y-62.234
X121.231Y-64.774
X121.42Y-105.41
X123.771Y-62.234
X123.771Y-64.774
X123.96Y-105.41
X126.311Y-62.234
X126.311Y-64.774
X126.5Y-105.41
X128.851Y-62.234
X128.851Y-64.774
X129.04Y-105.41
X131.391Y-62.234
X131.391Y-64.774
X131.58Y-105.41
X133.931Y-62.234
X133.931Y-64.774
X136.Y-81.92
X136.Y-84.46
X136.Y-87.
X136.Y-89.54
X136.471Y-62.234
X136.471Y-64.774
X138.1Y-111.46
X138.1Y-114.
X138.54Y-81.92
X138.54Y-84.46
X138.54Y-87.
X138.54Y-89.54
X139.011Y-62.234
X139.011Y-64.774
X140.5Y-69.
X140.5Y-71.54
X141.551Y-62.234
X141.551Y-64.774
X144.091Y-62.234
X144.091Y-64.774
X146.631Y-62.234
X146.631Y-64.774
T4
X99.5Y-111.
X104.5Y-111.
T0
M30
