G04 #@! TF.FileFunction,Legend,Top*
%FSLAX46Y46*%
G04 Gerber Fmt 4.6, Leading zero omitted, Abs format (unit mm)*
G04 Created by KiCad (PCBNEW 4.0.2+e4-6225~38~ubuntu15.04.1-stable) date Tue 25 Oct 2016 21:09:19 ACDT*
%MOMM*%
G01*
G04 APERTURE LIST*
%ADD10C,0.100000*%
%ADD11C,0.250000*%
%ADD12C,0.200000*%
%ADD13C,0.150000*%
%ADD14R,1.650000X1.400000*%
%ADD15R,1.400000X1.650000*%
%ADD16R,1.598880X1.598880*%
%ADD17R,2.000000X3.900000*%
%ADD18R,2.127200X2.127200*%
%ADD19O,2.127200X2.127200*%
%ADD20C,6.250000*%
%ADD21R,1.400000X2.400000*%
%ADD22R,1.600000X2.600000*%
%ADD23R,2.900000X2.900000*%
%ADD24C,2.900000*%
%ADD25R,2.127200X2.432000*%
%ADD26O,2.127200X2.432000*%
%ADD27R,2.432000X2.127200*%
%ADD28O,2.432000X2.127200*%
%ADD29R,2.432000X2.432000*%
%ADD30O,2.432000X2.432000*%
%ADD31R,1.200100X1.200100*%
%ADD32R,1.100000X1.700000*%
%ADD33R,1.700000X1.100000*%
%ADD34R,1.500000X2.200000*%
%ADD35R,0.908000X1.543000*%
%ADD36R,1.400760X1.090880*%
%ADD37R,1.901140X1.400760*%
%ADD38R,3.399740X2.398980*%
%ADD39R,0.850000X1.850000*%
%ADD40C,1.400760*%
%ADD41C,2.500000*%
G04 APERTURE END LIST*
D10*
D11*
X150678571Y-101928572D02*
X149178571Y-101928572D01*
X149178571Y-101357144D01*
X149250000Y-101214286D01*
X149321429Y-101142858D01*
X149464286Y-101071429D01*
X149678571Y-101071429D01*
X149821429Y-101142858D01*
X149892857Y-101214286D01*
X149964286Y-101357144D01*
X149964286Y-101928572D01*
X150607143Y-99857144D02*
X150678571Y-100000001D01*
X150678571Y-100285715D01*
X150607143Y-100428572D01*
X150464286Y-100500001D01*
X149892857Y-100500001D01*
X149750000Y-100428572D01*
X149678571Y-100285715D01*
X149678571Y-100000001D01*
X149750000Y-99857144D01*
X149892857Y-99785715D01*
X150035714Y-99785715D01*
X150178571Y-100500001D01*
X149678571Y-99357144D02*
X149678571Y-98785715D01*
X149178571Y-99142858D02*
X150464286Y-99142858D01*
X150607143Y-99071430D01*
X150678571Y-98928572D01*
X150678571Y-98785715D01*
X150678571Y-97642858D02*
X149892857Y-97642858D01*
X149750000Y-97714287D01*
X149678571Y-97857144D01*
X149678571Y-98142858D01*
X149750000Y-98285715D01*
X150607143Y-97642858D02*
X150678571Y-97785715D01*
X150678571Y-98142858D01*
X150607143Y-98285715D01*
X150464286Y-98357144D01*
X150321429Y-98357144D01*
X150178571Y-98285715D01*
X150107143Y-98142858D01*
X150107143Y-97785715D01*
X150035714Y-97642858D01*
X149892857Y-96428572D02*
X149964286Y-96214286D01*
X150035714Y-96142858D01*
X150178571Y-96071429D01*
X150392857Y-96071429D01*
X150535714Y-96142858D01*
X150607143Y-96214286D01*
X150678571Y-96357144D01*
X150678571Y-96928572D01*
X149178571Y-96928572D01*
X149178571Y-96428572D01*
X149250000Y-96285715D01*
X149321429Y-96214286D01*
X149464286Y-96142858D01*
X149607143Y-96142858D01*
X149750000Y-96214286D01*
X149821429Y-96285715D01*
X149892857Y-96428572D01*
X149892857Y-96928572D01*
X150607143Y-94857144D02*
X150678571Y-95000001D01*
X150678571Y-95285715D01*
X150607143Y-95428572D01*
X150464286Y-95500001D01*
X149892857Y-95500001D01*
X149750000Y-95428572D01*
X149678571Y-95285715D01*
X149678571Y-95000001D01*
X149750000Y-94857144D01*
X149892857Y-94785715D01*
X150035714Y-94785715D01*
X150178571Y-95500001D01*
X149678571Y-94142858D02*
X150678571Y-94142858D01*
X149821429Y-94142858D02*
X149750000Y-94071430D01*
X149678571Y-93928572D01*
X149678571Y-93714287D01*
X149750000Y-93571430D01*
X149892857Y-93500001D01*
X150678571Y-93500001D01*
X150607143Y-92142858D02*
X150678571Y-92285715D01*
X150678571Y-92571429D01*
X150607143Y-92714287D01*
X150535714Y-92785715D01*
X150392857Y-92857144D01*
X149964286Y-92857144D01*
X149821429Y-92785715D01*
X149750000Y-92714287D01*
X149678571Y-92571429D01*
X149678571Y-92285715D01*
X149750000Y-92142858D01*
X150678571Y-90857144D02*
X149892857Y-90857144D01*
X149750000Y-90928573D01*
X149678571Y-91071430D01*
X149678571Y-91357144D01*
X149750000Y-91500001D01*
X150607143Y-90857144D02*
X150678571Y-91000001D01*
X150678571Y-91357144D01*
X150607143Y-91500001D01*
X150464286Y-91571430D01*
X150321429Y-91571430D01*
X150178571Y-91500001D01*
X150107143Y-91357144D01*
X150107143Y-91000001D01*
X150035714Y-90857144D01*
X149678571Y-90142858D02*
X150678571Y-90142858D01*
X149821429Y-90142858D02*
X149750000Y-90071430D01*
X149678571Y-89928572D01*
X149678571Y-89714287D01*
X149750000Y-89571430D01*
X149892857Y-89500001D01*
X150678571Y-89500001D01*
X150678571Y-88142858D02*
X149892857Y-88142858D01*
X149750000Y-88214287D01*
X149678571Y-88357144D01*
X149678571Y-88642858D01*
X149750000Y-88785715D01*
X150607143Y-88142858D02*
X150678571Y-88285715D01*
X150678571Y-88642858D01*
X150607143Y-88785715D01*
X150464286Y-88857144D01*
X150321429Y-88857144D01*
X150178571Y-88785715D01*
X150107143Y-88642858D01*
X150107143Y-88285715D01*
X150035714Y-88142858D01*
X150535714Y-87428572D02*
X150607143Y-87357144D01*
X150678571Y-87428572D01*
X150607143Y-87500001D01*
X150535714Y-87428572D01*
X150678571Y-87428572D01*
X150678571Y-86714286D02*
X149678571Y-86714286D01*
X149178571Y-86714286D02*
X149250000Y-86785715D01*
X149321429Y-86714286D01*
X149250000Y-86642858D01*
X149178571Y-86714286D01*
X149321429Y-86714286D01*
X150678571Y-85357143D02*
X149178571Y-85357143D01*
X150607143Y-85357143D02*
X150678571Y-85500000D01*
X150678571Y-85785714D01*
X150607143Y-85928572D01*
X150535714Y-86000000D01*
X150392857Y-86071429D01*
X149964286Y-86071429D01*
X149821429Y-86000000D01*
X149750000Y-85928572D01*
X149678571Y-85785714D01*
X149678571Y-85500000D01*
X149750000Y-85357143D01*
D12*
X140642857Y-81452381D02*
X141261905Y-81452381D01*
X140928571Y-81833333D01*
X141071429Y-81833333D01*
X141166667Y-81880952D01*
X141214286Y-81928571D01*
X141261905Y-82023810D01*
X141261905Y-82261905D01*
X141214286Y-82357143D01*
X141166667Y-82404762D01*
X141071429Y-82452381D01*
X140785714Y-82452381D01*
X140690476Y-82404762D01*
X140642857Y-82357143D01*
X141690476Y-82357143D02*
X141738095Y-82404762D01*
X141690476Y-82452381D01*
X141642857Y-82404762D01*
X141690476Y-82357143D01*
X141690476Y-82452381D01*
X142071428Y-81452381D02*
X142690476Y-81452381D01*
X142357142Y-81833333D01*
X142500000Y-81833333D01*
X142595238Y-81880952D01*
X142642857Y-81928571D01*
X142690476Y-82023810D01*
X142690476Y-82261905D01*
X142642857Y-82357143D01*
X142595238Y-82404762D01*
X142500000Y-82452381D01*
X142214285Y-82452381D01*
X142119047Y-82404762D01*
X142071428Y-82357143D01*
X142976190Y-81452381D02*
X143309523Y-82452381D01*
X143642857Y-81452381D01*
X140642857Y-84052381D02*
X141261905Y-84052381D01*
X140928571Y-84433333D01*
X141071429Y-84433333D01*
X141166667Y-84480952D01*
X141214286Y-84528571D01*
X141261905Y-84623810D01*
X141261905Y-84861905D01*
X141214286Y-84957143D01*
X141166667Y-85004762D01*
X141071429Y-85052381D01*
X140785714Y-85052381D01*
X140690476Y-85004762D01*
X140642857Y-84957143D01*
X141690476Y-84957143D02*
X141738095Y-85004762D01*
X141690476Y-85052381D01*
X141642857Y-85004762D01*
X141690476Y-84957143D01*
X141690476Y-85052381D01*
X142071428Y-84052381D02*
X142690476Y-84052381D01*
X142357142Y-84433333D01*
X142500000Y-84433333D01*
X142595238Y-84480952D01*
X142642857Y-84528571D01*
X142690476Y-84623810D01*
X142690476Y-84861905D01*
X142642857Y-84957143D01*
X142595238Y-85004762D01*
X142500000Y-85052381D01*
X142214285Y-85052381D01*
X142119047Y-85004762D01*
X142071428Y-84957143D01*
X142976190Y-84052381D02*
X143309523Y-85052381D01*
X143642857Y-84052381D01*
X141261905Y-86500000D02*
X141166667Y-86452381D01*
X141023810Y-86452381D01*
X140880952Y-86500000D01*
X140785714Y-86595238D01*
X140738095Y-86690476D01*
X140690476Y-86880952D01*
X140690476Y-87023810D01*
X140738095Y-87214286D01*
X140785714Y-87309524D01*
X140880952Y-87404762D01*
X141023810Y-87452381D01*
X141119048Y-87452381D01*
X141261905Y-87404762D01*
X141309524Y-87357143D01*
X141309524Y-87023810D01*
X141119048Y-87023810D01*
X141738095Y-87452381D02*
X141738095Y-86452381D01*
X142309524Y-87452381D01*
X142309524Y-86452381D01*
X142785714Y-87452381D02*
X142785714Y-86452381D01*
X143023809Y-86452381D01*
X143166667Y-86500000D01*
X143261905Y-86595238D01*
X143309524Y-86690476D01*
X143357143Y-86880952D01*
X143357143Y-87023810D01*
X143309524Y-87214286D01*
X143261905Y-87309524D01*
X143166667Y-87404762D01*
X143023809Y-87452381D01*
X142785714Y-87452381D01*
X141261905Y-89100000D02*
X141166667Y-89052381D01*
X141023810Y-89052381D01*
X140880952Y-89100000D01*
X140785714Y-89195238D01*
X140738095Y-89290476D01*
X140690476Y-89480952D01*
X140690476Y-89623810D01*
X140738095Y-89814286D01*
X140785714Y-89909524D01*
X140880952Y-90004762D01*
X141023810Y-90052381D01*
X141119048Y-90052381D01*
X141261905Y-90004762D01*
X141309524Y-89957143D01*
X141309524Y-89623810D01*
X141119048Y-89623810D01*
X141738095Y-90052381D02*
X141738095Y-89052381D01*
X142309524Y-90052381D01*
X142309524Y-89052381D01*
X142785714Y-90052381D02*
X142785714Y-89052381D01*
X143023809Y-89052381D01*
X143166667Y-89100000D01*
X143261905Y-89195238D01*
X143309524Y-89290476D01*
X143357143Y-89480952D01*
X143357143Y-89623810D01*
X143309524Y-89814286D01*
X143261905Y-89909524D01*
X143166667Y-90004762D01*
X143023809Y-90052381D01*
X142785714Y-90052381D01*
X131728571Y-90052381D02*
X131728571Y-89052381D01*
X132109524Y-89052381D01*
X132204762Y-89100000D01*
X132252381Y-89147619D01*
X132300000Y-89242857D01*
X132300000Y-89385714D01*
X132252381Y-89480952D01*
X132204762Y-89528571D01*
X132109524Y-89576190D01*
X131728571Y-89576190D01*
X132680952Y-89766667D02*
X133157143Y-89766667D01*
X132585714Y-90052381D02*
X132919047Y-89052381D01*
X133252381Y-90052381D01*
X134014286Y-89385714D02*
X134014286Y-90052381D01*
X133776190Y-89004762D02*
X133538095Y-89719048D01*
X134157143Y-89719048D01*
X131728571Y-87452381D02*
X131728571Y-86452381D01*
X132109524Y-86452381D01*
X132204762Y-86500000D01*
X132252381Y-86547619D01*
X132300000Y-86642857D01*
X132300000Y-86785714D01*
X132252381Y-86880952D01*
X132204762Y-86928571D01*
X132109524Y-86976190D01*
X131728571Y-86976190D01*
X132680952Y-87166667D02*
X133157143Y-87166667D01*
X132585714Y-87452381D02*
X132919047Y-86452381D01*
X133252381Y-87452381D01*
X134061905Y-86452381D02*
X133585714Y-86452381D01*
X133538095Y-86928571D01*
X133585714Y-86880952D01*
X133680952Y-86833333D01*
X133919048Y-86833333D01*
X134014286Y-86880952D01*
X134061905Y-86928571D01*
X134109524Y-87023810D01*
X134109524Y-87261905D01*
X134061905Y-87357143D01*
X134014286Y-87404762D01*
X133919048Y-87452381D01*
X133680952Y-87452381D01*
X133585714Y-87404762D01*
X133538095Y-87357143D01*
X131728571Y-85052381D02*
X131728571Y-84052381D01*
X132109524Y-84052381D01*
X132204762Y-84100000D01*
X132252381Y-84147619D01*
X132300000Y-84242857D01*
X132300000Y-84385714D01*
X132252381Y-84480952D01*
X132204762Y-84528571D01*
X132109524Y-84576190D01*
X131728571Y-84576190D01*
X132680952Y-84766667D02*
X133157143Y-84766667D01*
X132585714Y-85052381D02*
X132919047Y-84052381D01*
X133252381Y-85052381D01*
X134014286Y-84052381D02*
X133823809Y-84052381D01*
X133728571Y-84100000D01*
X133680952Y-84147619D01*
X133585714Y-84290476D01*
X133538095Y-84480952D01*
X133538095Y-84861905D01*
X133585714Y-84957143D01*
X133633333Y-85004762D01*
X133728571Y-85052381D01*
X133919048Y-85052381D01*
X134014286Y-85004762D01*
X134061905Y-84957143D01*
X134109524Y-84861905D01*
X134109524Y-84623810D01*
X134061905Y-84528571D01*
X134014286Y-84480952D01*
X133919048Y-84433333D01*
X133728571Y-84433333D01*
X133633333Y-84480952D01*
X133585714Y-84528571D01*
X133538095Y-84623810D01*
X131928571Y-82452381D02*
X131928571Y-81452381D01*
X132309524Y-81452381D01*
X132404762Y-81500000D01*
X132452381Y-81547619D01*
X132500000Y-81642857D01*
X132500000Y-81785714D01*
X132452381Y-81880952D01*
X132404762Y-81928571D01*
X132309524Y-81976190D01*
X131928571Y-81976190D01*
X132880952Y-82166667D02*
X133357143Y-82166667D01*
X132785714Y-82452381D02*
X133119047Y-81452381D01*
X133452381Y-82452381D01*
X133690476Y-81452381D02*
X134357143Y-81452381D01*
X133928571Y-82452381D01*
X138552381Y-72009524D02*
X137552381Y-72009524D01*
X137552381Y-71628571D01*
X137600000Y-71533333D01*
X137647619Y-71485714D01*
X137742857Y-71438095D01*
X137885714Y-71438095D01*
X137980952Y-71485714D01*
X138028571Y-71533333D01*
X138076190Y-71628571D01*
X138076190Y-72009524D01*
X138552381Y-70438095D02*
X138076190Y-70771429D01*
X138552381Y-71009524D02*
X137552381Y-71009524D01*
X137552381Y-70628571D01*
X137600000Y-70533333D01*
X137647619Y-70485714D01*
X137742857Y-70438095D01*
X137885714Y-70438095D01*
X137980952Y-70485714D01*
X138028571Y-70533333D01*
X138076190Y-70628571D01*
X138076190Y-71009524D01*
X137552381Y-69819048D02*
X137552381Y-69628571D01*
X137600000Y-69533333D01*
X137695238Y-69438095D01*
X137885714Y-69390476D01*
X138219048Y-69390476D01*
X138409524Y-69438095D01*
X138504762Y-69533333D01*
X138552381Y-69628571D01*
X138552381Y-69819048D01*
X138504762Y-69914286D01*
X138409524Y-70009524D01*
X138219048Y-70057143D01*
X137885714Y-70057143D01*
X137695238Y-70009524D01*
X137600000Y-69914286D01*
X137552381Y-69819048D01*
X137600000Y-68438095D02*
X137552381Y-68533333D01*
X137552381Y-68676190D01*
X137600000Y-68819048D01*
X137695238Y-68914286D01*
X137790476Y-68961905D01*
X137980952Y-69009524D01*
X138123810Y-69009524D01*
X138314286Y-68961905D01*
X138409524Y-68914286D01*
X138504762Y-68819048D01*
X138552381Y-68676190D01*
X138552381Y-68580952D01*
X138504762Y-68438095D01*
X138457143Y-68390476D01*
X138123810Y-68390476D01*
X138123810Y-68580952D01*
X107600000Y-114838095D02*
X107552381Y-114933333D01*
X107552381Y-115076190D01*
X107600000Y-115219048D01*
X107695238Y-115314286D01*
X107790476Y-115361905D01*
X107980952Y-115409524D01*
X108123810Y-115409524D01*
X108314286Y-115361905D01*
X108409524Y-115314286D01*
X108504762Y-115219048D01*
X108552381Y-115076190D01*
X108552381Y-114980952D01*
X108504762Y-114838095D01*
X108457143Y-114790476D01*
X108123810Y-114790476D01*
X108123810Y-114980952D01*
X108552381Y-114361905D02*
X107552381Y-114361905D01*
X108552381Y-113790476D01*
X107552381Y-113790476D01*
X108552381Y-113314286D02*
X107552381Y-113314286D01*
X107552381Y-113076191D01*
X107600000Y-112933333D01*
X107695238Y-112838095D01*
X107790476Y-112790476D01*
X107980952Y-112742857D01*
X108123810Y-112742857D01*
X108314286Y-112790476D01*
X108409524Y-112838095D01*
X108504762Y-112933333D01*
X108552381Y-113076191D01*
X108552381Y-113314286D01*
X95552381Y-109085714D02*
X95552381Y-109561905D01*
X96028571Y-109609524D01*
X95980952Y-109561905D01*
X95933333Y-109466667D01*
X95933333Y-109228571D01*
X95980952Y-109133333D01*
X96028571Y-109085714D01*
X96123810Y-109038095D01*
X96361905Y-109038095D01*
X96457143Y-109085714D01*
X96504762Y-109133333D01*
X96552381Y-109228571D01*
X96552381Y-109466667D01*
X96504762Y-109561905D01*
X96457143Y-109609524D01*
X95552381Y-108752381D02*
X96552381Y-108419048D01*
X95552381Y-108085714D01*
X130952381Y-102885714D02*
X130952381Y-103361905D01*
X131428571Y-103409524D01*
X131380952Y-103361905D01*
X131333333Y-103266667D01*
X131333333Y-103028571D01*
X131380952Y-102933333D01*
X131428571Y-102885714D01*
X131523810Y-102838095D01*
X131761905Y-102838095D01*
X131857143Y-102885714D01*
X131904762Y-102933333D01*
X131952381Y-103028571D01*
X131952381Y-103266667D01*
X131904762Y-103361905D01*
X131857143Y-103409524D01*
X130952381Y-102552381D02*
X131952381Y-102219048D01*
X130952381Y-101885714D01*
X128352381Y-103504762D02*
X128352381Y-102933333D01*
X129352381Y-103219048D02*
X128352381Y-103219048D01*
X129352381Y-102028571D02*
X128876190Y-102361905D01*
X129352381Y-102600000D02*
X128352381Y-102600000D01*
X128352381Y-102219047D01*
X128400000Y-102123809D01*
X128447619Y-102076190D01*
X128542857Y-102028571D01*
X128685714Y-102028571D01*
X128780952Y-102076190D01*
X128828571Y-102123809D01*
X128876190Y-102219047D01*
X128876190Y-102600000D01*
X129352381Y-101600000D02*
X128352381Y-101600000D01*
X128400000Y-100600000D02*
X128352381Y-100695238D01*
X128352381Y-100838095D01*
X128400000Y-100980953D01*
X128495238Y-101076191D01*
X128590476Y-101123810D01*
X128780952Y-101171429D01*
X128923810Y-101171429D01*
X129114286Y-101123810D01*
X129209524Y-101076191D01*
X129304762Y-100980953D01*
X129352381Y-100838095D01*
X129352381Y-100742857D01*
X129304762Y-100600000D01*
X129257143Y-100552381D01*
X128923810Y-100552381D01*
X128923810Y-100742857D01*
X126428571Y-103361905D02*
X126428571Y-103028571D01*
X126952381Y-102885714D02*
X126952381Y-103361905D01*
X125952381Y-103361905D01*
X125952381Y-102885714D01*
X126857143Y-101885714D02*
X126904762Y-101933333D01*
X126952381Y-102076190D01*
X126952381Y-102171428D01*
X126904762Y-102314286D01*
X126809524Y-102409524D01*
X126714286Y-102457143D01*
X126523810Y-102504762D01*
X126380952Y-102504762D01*
X126190476Y-102457143D01*
X126095238Y-102409524D01*
X126000000Y-102314286D01*
X125952381Y-102171428D01*
X125952381Y-102076190D01*
X126000000Y-101933333D01*
X126047619Y-101885714D01*
X126952381Y-101457143D02*
X125952381Y-101457143D01*
X126428571Y-101457143D02*
X126428571Y-100885714D01*
X126952381Y-100885714D02*
X125952381Y-100885714D01*
X125952381Y-100219048D02*
X125952381Y-100028571D01*
X126000000Y-99933333D01*
X126095238Y-99838095D01*
X126285714Y-99790476D01*
X126619048Y-99790476D01*
X126809524Y-99838095D01*
X126904762Y-99933333D01*
X126952381Y-100028571D01*
X126952381Y-100219048D01*
X126904762Y-100314286D01*
X126809524Y-100409524D01*
X126619048Y-100457143D01*
X126285714Y-100457143D01*
X126095238Y-100409524D01*
X126000000Y-100314286D01*
X125952381Y-100219048D01*
X123400000Y-102838095D02*
X123352381Y-102933333D01*
X123352381Y-103076190D01*
X123400000Y-103219048D01*
X123495238Y-103314286D01*
X123590476Y-103361905D01*
X123780952Y-103409524D01*
X123923810Y-103409524D01*
X124114286Y-103361905D01*
X124209524Y-103314286D01*
X124304762Y-103219048D01*
X124352381Y-103076190D01*
X124352381Y-102980952D01*
X124304762Y-102838095D01*
X124257143Y-102790476D01*
X123923810Y-102790476D01*
X123923810Y-102980952D01*
X124352381Y-102361905D02*
X123352381Y-102361905D01*
X124352381Y-101790476D01*
X123352381Y-101790476D01*
X124352381Y-101314286D02*
X123352381Y-101314286D01*
X123352381Y-101076191D01*
X123400000Y-100933333D01*
X123495238Y-100838095D01*
X123590476Y-100790476D01*
X123780952Y-100742857D01*
X123923810Y-100742857D01*
X124114286Y-100790476D01*
X124209524Y-100838095D01*
X124304762Y-100933333D01*
X124352381Y-101076191D01*
X124352381Y-101314286D01*
X120952381Y-103457143D02*
X120952381Y-102838095D01*
X121333333Y-103171429D01*
X121333333Y-103028571D01*
X121380952Y-102933333D01*
X121428571Y-102885714D01*
X121523810Y-102838095D01*
X121761905Y-102838095D01*
X121857143Y-102885714D01*
X121904762Y-102933333D01*
X121952381Y-103028571D01*
X121952381Y-103314286D01*
X121904762Y-103409524D01*
X121857143Y-103457143D01*
X121857143Y-102409524D02*
X121904762Y-102361905D01*
X121952381Y-102409524D01*
X121904762Y-102457143D01*
X121857143Y-102409524D01*
X121952381Y-102409524D01*
X120952381Y-102028572D02*
X120952381Y-101409524D01*
X121333333Y-101742858D01*
X121333333Y-101600000D01*
X121380952Y-101504762D01*
X121428571Y-101457143D01*
X121523810Y-101409524D01*
X121761905Y-101409524D01*
X121857143Y-101457143D01*
X121904762Y-101504762D01*
X121952381Y-101600000D01*
X121952381Y-101885715D01*
X121904762Y-101980953D01*
X121857143Y-102028572D01*
X120952381Y-101123810D02*
X121952381Y-100790477D01*
X120952381Y-100457143D01*
X119352381Y-103361905D02*
X118352381Y-103361905D01*
X118352381Y-103123810D01*
X118400000Y-102980952D01*
X118495238Y-102885714D01*
X118590476Y-102838095D01*
X118780952Y-102790476D01*
X118923810Y-102790476D01*
X119114286Y-102838095D01*
X119209524Y-102885714D01*
X119304762Y-102980952D01*
X119352381Y-103123810D01*
X119352381Y-103361905D01*
X119352381Y-102361905D02*
X118352381Y-102361905D01*
X118828571Y-102361905D02*
X118828571Y-101790476D01*
X119352381Y-101790476D02*
X118352381Y-101790476D01*
X118352381Y-101457143D02*
X118352381Y-100885714D01*
X119352381Y-101171429D02*
X118352381Y-101171429D01*
X115800000Y-102838095D02*
X115752381Y-102933333D01*
X115752381Y-103076190D01*
X115800000Y-103219048D01*
X115895238Y-103314286D01*
X115990476Y-103361905D01*
X116180952Y-103409524D01*
X116323810Y-103409524D01*
X116514286Y-103361905D01*
X116609524Y-103314286D01*
X116704762Y-103219048D01*
X116752381Y-103076190D01*
X116752381Y-102980952D01*
X116704762Y-102838095D01*
X116657143Y-102790476D01*
X116323810Y-102790476D01*
X116323810Y-102980952D01*
X116752381Y-102361905D02*
X115752381Y-102361905D01*
X116752381Y-101790476D01*
X115752381Y-101790476D01*
X116752381Y-101314286D02*
X115752381Y-101314286D01*
X115752381Y-101076191D01*
X115800000Y-100933333D01*
X115895238Y-100838095D01*
X115990476Y-100790476D01*
X116180952Y-100742857D01*
X116323810Y-100742857D01*
X116514286Y-100790476D01*
X116609524Y-100838095D01*
X116704762Y-100933333D01*
X116752381Y-101076191D01*
X116752381Y-101314286D01*
D13*
X130839286Y-94221429D02*
X130089286Y-94221429D01*
X130089286Y-93935714D01*
X130125000Y-93864286D01*
X130160714Y-93828571D01*
X130232143Y-93792857D01*
X130339286Y-93792857D01*
X130410714Y-93828571D01*
X130446429Y-93864286D01*
X130482143Y-93935714D01*
X130482143Y-94221429D01*
X130839286Y-93471429D02*
X130339286Y-93471429D01*
X130089286Y-93471429D02*
X130125000Y-93507143D01*
X130160714Y-93471429D01*
X130125000Y-93435714D01*
X130089286Y-93471429D01*
X130160714Y-93471429D01*
X133403571Y-94257143D02*
X133439286Y-94150000D01*
X133439286Y-93971429D01*
X133403571Y-93900000D01*
X133367857Y-93864286D01*
X133296429Y-93828571D01*
X133225000Y-93828571D01*
X133153571Y-93864286D01*
X133117857Y-93900000D01*
X133082143Y-93971429D01*
X133046429Y-94114286D01*
X133010714Y-94185714D01*
X132975000Y-94221429D01*
X132903571Y-94257143D01*
X132832143Y-94257143D01*
X132760714Y-94221429D01*
X132725000Y-94185714D01*
X132689286Y-94114286D01*
X132689286Y-93935714D01*
X132725000Y-93828571D01*
X132689286Y-93614285D02*
X132689286Y-93185714D01*
X133439286Y-93400000D02*
X132689286Y-93400000D01*
X133439286Y-92935714D02*
X132689286Y-92935714D01*
X133225000Y-92685714D01*
X132689286Y-92435714D01*
X133439286Y-92435714D01*
X127439286Y-90421429D02*
X126689286Y-90421429D01*
X126689286Y-90135714D01*
X126725000Y-90064286D01*
X126760714Y-90028571D01*
X126832143Y-89992857D01*
X126939286Y-89992857D01*
X127010714Y-90028571D01*
X127046429Y-90064286D01*
X127082143Y-90135714D01*
X127082143Y-90421429D01*
X127439286Y-89671429D02*
X126939286Y-89671429D01*
X126689286Y-89671429D02*
X126725000Y-89707143D01*
X126760714Y-89671429D01*
X126725000Y-89635714D01*
X126689286Y-89671429D01*
X126760714Y-89671429D01*
X130003571Y-90457143D02*
X130039286Y-90350000D01*
X130039286Y-90171429D01*
X130003571Y-90100000D01*
X129967857Y-90064286D01*
X129896429Y-90028571D01*
X129825000Y-90028571D01*
X129753571Y-90064286D01*
X129717857Y-90100000D01*
X129682143Y-90171429D01*
X129646429Y-90314286D01*
X129610714Y-90385714D01*
X129575000Y-90421429D01*
X129503571Y-90457143D01*
X129432143Y-90457143D01*
X129360714Y-90421429D01*
X129325000Y-90385714D01*
X129289286Y-90314286D01*
X129289286Y-90135714D01*
X129325000Y-90028571D01*
X129289286Y-89814285D02*
X129289286Y-89385714D01*
X130039286Y-89600000D02*
X129289286Y-89600000D01*
X130039286Y-89135714D02*
X129289286Y-89135714D01*
X129825000Y-88885714D01*
X129289286Y-88635714D01*
X130039286Y-88635714D01*
X120603571Y-94257143D02*
X120639286Y-94150000D01*
X120639286Y-93971429D01*
X120603571Y-93900000D01*
X120567857Y-93864286D01*
X120496429Y-93828571D01*
X120425000Y-93828571D01*
X120353571Y-93864286D01*
X120317857Y-93900000D01*
X120282143Y-93971429D01*
X120246429Y-94114286D01*
X120210714Y-94185714D01*
X120175000Y-94221429D01*
X120103571Y-94257143D01*
X120032143Y-94257143D01*
X119960714Y-94221429D01*
X119925000Y-94185714D01*
X119889286Y-94114286D01*
X119889286Y-93935714D01*
X119925000Y-93828571D01*
X119889286Y-93614285D02*
X119889286Y-93185714D01*
X120639286Y-93400000D02*
X119889286Y-93400000D01*
X120639286Y-92935714D02*
X119889286Y-92935714D01*
X120425000Y-92685714D01*
X119889286Y-92435714D01*
X120639286Y-92435714D01*
X118039286Y-94221429D02*
X117289286Y-94221429D01*
X117289286Y-93935714D01*
X117325000Y-93864286D01*
X117360714Y-93828571D01*
X117432143Y-93792857D01*
X117539286Y-93792857D01*
X117610714Y-93828571D01*
X117646429Y-93864286D01*
X117682143Y-93935714D01*
X117682143Y-94221429D01*
X118039286Y-93471429D02*
X117539286Y-93471429D01*
X117289286Y-93471429D02*
X117325000Y-93507143D01*
X117360714Y-93471429D01*
X117325000Y-93435714D01*
X117289286Y-93471429D01*
X117360714Y-93471429D01*
X126003571Y-86500000D02*
X126039286Y-86392857D01*
X126039286Y-86214286D01*
X126003571Y-86142857D01*
X125967857Y-86107143D01*
X125896429Y-86071428D01*
X125825000Y-86071428D01*
X125753571Y-86107143D01*
X125717857Y-86142857D01*
X125682143Y-86214286D01*
X125646429Y-86357143D01*
X125610714Y-86428571D01*
X125575000Y-86464286D01*
X125503571Y-86500000D01*
X125432143Y-86500000D01*
X125360714Y-86464286D01*
X125325000Y-86428571D01*
X125289286Y-86357143D01*
X125289286Y-86178571D01*
X125325000Y-86071428D01*
X126003571Y-85464285D02*
X126039286Y-85535714D01*
X126039286Y-85678571D01*
X126003571Y-85750000D01*
X125932143Y-85785714D01*
X125646429Y-85785714D01*
X125575000Y-85750000D01*
X125539286Y-85678571D01*
X125539286Y-85535714D01*
X125575000Y-85464285D01*
X125646429Y-85428571D01*
X125717857Y-85428571D01*
X125789286Y-85785714D01*
X125539286Y-85107143D02*
X126039286Y-85107143D01*
X125610714Y-85107143D02*
X125575000Y-85071428D01*
X125539286Y-85000000D01*
X125539286Y-84892857D01*
X125575000Y-84821428D01*
X125646429Y-84785714D01*
X126039286Y-84785714D01*
X126003571Y-84464286D02*
X126039286Y-84392857D01*
X126039286Y-84250000D01*
X126003571Y-84178572D01*
X125932143Y-84142857D01*
X125896429Y-84142857D01*
X125825000Y-84178572D01*
X125789286Y-84250000D01*
X125789286Y-84357143D01*
X125753571Y-84428572D01*
X125682143Y-84464286D01*
X125646429Y-84464286D01*
X125575000Y-84428572D01*
X125539286Y-84357143D01*
X125539286Y-84250000D01*
X125575000Y-84178572D01*
X126003571Y-83535714D02*
X126039286Y-83607143D01*
X126039286Y-83750000D01*
X126003571Y-83821429D01*
X125932143Y-83857143D01*
X125646429Y-83857143D01*
X125575000Y-83821429D01*
X125539286Y-83750000D01*
X125539286Y-83607143D01*
X125575000Y-83535714D01*
X125646429Y-83500000D01*
X125717857Y-83500000D01*
X125789286Y-83857143D01*
X126489286Y-85410713D02*
X126489286Y-85267856D01*
X126525000Y-85196428D01*
X126596429Y-85124999D01*
X126739286Y-85089285D01*
X126989286Y-85089285D01*
X127132143Y-85124999D01*
X127203571Y-85196428D01*
X127239286Y-85267856D01*
X127239286Y-85410713D01*
X127203571Y-85482142D01*
X127132143Y-85553571D01*
X126989286Y-85589285D01*
X126739286Y-85589285D01*
X126596429Y-85553571D01*
X126525000Y-85482142D01*
X126489286Y-85410713D01*
X126739286Y-84767857D02*
X127239286Y-84767857D01*
X126810714Y-84767857D02*
X126775000Y-84732142D01*
X126739286Y-84660714D01*
X126739286Y-84553571D01*
X126775000Y-84482142D01*
X126846429Y-84446428D01*
X127239286Y-84446428D01*
X122439286Y-86564286D02*
X121689286Y-86564286D01*
X121689286Y-86278571D01*
X121725000Y-86207143D01*
X121760714Y-86171428D01*
X121832143Y-86135714D01*
X121939286Y-86135714D01*
X122010714Y-86171428D01*
X122046429Y-86207143D01*
X122082143Y-86278571D01*
X122082143Y-86564286D01*
X122439286Y-85814286D02*
X121939286Y-85814286D01*
X121689286Y-85814286D02*
X121725000Y-85850000D01*
X121760714Y-85814286D01*
X121725000Y-85778571D01*
X121689286Y-85814286D01*
X121760714Y-85814286D01*
X121689286Y-84742856D02*
X121689286Y-84599999D01*
X121725000Y-84528571D01*
X121796429Y-84457142D01*
X121939286Y-84421428D01*
X122189286Y-84421428D01*
X122332143Y-84457142D01*
X122403571Y-84528571D01*
X122439286Y-84599999D01*
X122439286Y-84742856D01*
X122403571Y-84814285D01*
X122332143Y-84885714D01*
X122189286Y-84921428D01*
X121939286Y-84921428D01*
X121796429Y-84885714D01*
X121725000Y-84814285D01*
X121689286Y-84742856D01*
X121939286Y-84100000D02*
X122439286Y-84100000D01*
X122010714Y-84100000D02*
X121975000Y-84064285D01*
X121939286Y-83992857D01*
X121939286Y-83885714D01*
X121975000Y-83814285D01*
X122046429Y-83778571D01*
X122439286Y-83778571D01*
D12*
X108823809Y-82652381D02*
X109442857Y-82652381D01*
X109109523Y-83033333D01*
X109252381Y-83033333D01*
X109347619Y-83080952D01*
X109395238Y-83128571D01*
X109442857Y-83223810D01*
X109442857Y-83461905D01*
X109395238Y-83557143D01*
X109347619Y-83604762D01*
X109252381Y-83652381D01*
X108966666Y-83652381D01*
X108871428Y-83604762D01*
X108823809Y-83557143D01*
X109823809Y-82747619D02*
X109871428Y-82700000D01*
X109966666Y-82652381D01*
X110204762Y-82652381D01*
X110300000Y-82700000D01*
X110347619Y-82747619D01*
X110395238Y-82842857D01*
X110395238Y-82938095D01*
X110347619Y-83080952D01*
X109776190Y-83652381D01*
X110395238Y-83652381D01*
X110728571Y-82652381D02*
X111395238Y-82652381D01*
X110966666Y-83652381D01*
X112204762Y-82652381D02*
X112014285Y-82652381D01*
X111919047Y-82700000D01*
X111871428Y-82747619D01*
X111776190Y-82890476D01*
X111728571Y-83080952D01*
X111728571Y-83461905D01*
X111776190Y-83557143D01*
X111823809Y-83604762D01*
X111919047Y-83652381D01*
X112109524Y-83652381D01*
X112204762Y-83604762D01*
X112252381Y-83557143D01*
X112300000Y-83461905D01*
X112300000Y-83223810D01*
X112252381Y-83128571D01*
X112204762Y-83080952D01*
X112109524Y-83033333D01*
X111919047Y-83033333D01*
X111823809Y-83080952D01*
X111776190Y-83128571D01*
X111728571Y-83223810D01*
X112871428Y-83080952D02*
X112776190Y-83033333D01*
X112728571Y-82985714D01*
X112680952Y-82890476D01*
X112680952Y-82842857D01*
X112728571Y-82747619D01*
X112776190Y-82700000D01*
X112871428Y-82652381D01*
X113061905Y-82652381D01*
X113157143Y-82700000D01*
X113204762Y-82747619D01*
X113252381Y-82842857D01*
X113252381Y-82890476D01*
X113204762Y-82985714D01*
X113157143Y-83033333D01*
X113061905Y-83080952D01*
X112871428Y-83080952D01*
X112776190Y-83128571D01*
X112728571Y-83176190D01*
X112680952Y-83271429D01*
X112680952Y-83461905D01*
X112728571Y-83557143D01*
X112776190Y-83604762D01*
X112871428Y-83652381D01*
X113061905Y-83652381D01*
X113157143Y-83604762D01*
X113204762Y-83557143D01*
X113252381Y-83461905D01*
X113252381Y-83271429D01*
X113204762Y-83176190D01*
X113157143Y-83128571D01*
X113061905Y-83080952D01*
X113680952Y-83652381D02*
X113680952Y-82652381D01*
X113680952Y-83128571D02*
X114252381Y-83128571D01*
X114252381Y-83652381D02*
X114252381Y-82652381D01*
X114633333Y-82985714D02*
X115157143Y-82985714D01*
X114633333Y-83652381D01*
X115157143Y-83652381D01*
X103228571Y-83038095D02*
X103276190Y-82895238D01*
X103323810Y-82847619D01*
X103419048Y-82800000D01*
X103561905Y-82800000D01*
X103657143Y-82847619D01*
X103704762Y-82895238D01*
X103752381Y-82990476D01*
X103752381Y-83371429D01*
X102752381Y-83371429D01*
X102752381Y-83038095D01*
X102800000Y-82942857D01*
X102847619Y-82895238D01*
X102942857Y-82847619D01*
X103038095Y-82847619D01*
X103133333Y-82895238D01*
X103180952Y-82942857D01*
X103228571Y-83038095D01*
X103228571Y-83371429D01*
X102752381Y-82180953D02*
X102752381Y-81990476D01*
X102800000Y-81895238D01*
X102895238Y-81800000D01*
X103085714Y-81752381D01*
X103419048Y-81752381D01*
X103609524Y-81800000D01*
X103704762Y-81895238D01*
X103752381Y-81990476D01*
X103752381Y-82180953D01*
X103704762Y-82276191D01*
X103609524Y-82371429D01*
X103419048Y-82419048D01*
X103085714Y-82419048D01*
X102895238Y-82371429D01*
X102800000Y-82276191D01*
X102752381Y-82180953D01*
X102752381Y-81133334D02*
X102752381Y-80942857D01*
X102800000Y-80847619D01*
X102895238Y-80752381D01*
X103085714Y-80704762D01*
X103419048Y-80704762D01*
X103609524Y-80752381D01*
X103704762Y-80847619D01*
X103752381Y-80942857D01*
X103752381Y-81133334D01*
X103704762Y-81228572D01*
X103609524Y-81323810D01*
X103419048Y-81371429D01*
X103085714Y-81371429D01*
X102895238Y-81323810D01*
X102800000Y-81228572D01*
X102752381Y-81133334D01*
X102752381Y-80419048D02*
X102752381Y-79847619D01*
X103752381Y-80133334D02*
X102752381Y-80133334D01*
X102752381Y-79323810D02*
X102752381Y-79228571D01*
X102800000Y-79133333D01*
X102847619Y-79085714D01*
X102942857Y-79038095D01*
X103133333Y-78990476D01*
X103371429Y-78990476D01*
X103561905Y-79038095D01*
X103657143Y-79085714D01*
X103704762Y-79133333D01*
X103752381Y-79228571D01*
X103752381Y-79323810D01*
X103704762Y-79419048D01*
X103657143Y-79466667D01*
X103561905Y-79514286D01*
X103371429Y-79561905D01*
X103133333Y-79561905D01*
X102942857Y-79514286D01*
X102847619Y-79466667D01*
X102800000Y-79419048D01*
X102752381Y-79323810D01*
X108152381Y-75114286D02*
X107676190Y-75447620D01*
X108152381Y-75685715D02*
X107152381Y-75685715D01*
X107152381Y-75304762D01*
X107200000Y-75209524D01*
X107247619Y-75161905D01*
X107342857Y-75114286D01*
X107485714Y-75114286D01*
X107580952Y-75161905D01*
X107628571Y-75209524D01*
X107676190Y-75304762D01*
X107676190Y-75685715D01*
X107628571Y-74685715D02*
X107628571Y-74352381D01*
X108152381Y-74209524D02*
X108152381Y-74685715D01*
X107152381Y-74685715D01*
X107152381Y-74209524D01*
X108104762Y-73828572D02*
X108152381Y-73685715D01*
X108152381Y-73447619D01*
X108104762Y-73352381D01*
X108057143Y-73304762D01*
X107961905Y-73257143D01*
X107866667Y-73257143D01*
X107771429Y-73304762D01*
X107723810Y-73352381D01*
X107676190Y-73447619D01*
X107628571Y-73638096D01*
X107580952Y-73733334D01*
X107533333Y-73780953D01*
X107438095Y-73828572D01*
X107342857Y-73828572D01*
X107247619Y-73780953D01*
X107200000Y-73733334D01*
X107152381Y-73638096D01*
X107152381Y-73400000D01*
X107200000Y-73257143D01*
X107628571Y-72828572D02*
X107628571Y-72495238D01*
X108152381Y-72352381D02*
X108152381Y-72828572D01*
X107152381Y-72828572D01*
X107152381Y-72352381D01*
X107152381Y-72066667D02*
X107152381Y-71495238D01*
X108152381Y-71780953D02*
X107152381Y-71780953D01*
X96614286Y-73900000D02*
X96519048Y-73852381D01*
X96376191Y-73852381D01*
X96233333Y-73900000D01*
X96138095Y-73995238D01*
X96090476Y-74090476D01*
X96042857Y-74280952D01*
X96042857Y-74423810D01*
X96090476Y-74614286D01*
X96138095Y-74709524D01*
X96233333Y-74804762D01*
X96376191Y-74852381D01*
X96471429Y-74852381D01*
X96614286Y-74804762D01*
X96661905Y-74757143D01*
X96661905Y-74423810D01*
X96471429Y-74423810D01*
X97090476Y-74852381D02*
X97090476Y-73852381D01*
X97661905Y-74852381D01*
X97661905Y-73852381D01*
X98138095Y-74852381D02*
X98138095Y-73852381D01*
X98376190Y-73852381D01*
X98519048Y-73900000D01*
X98614286Y-73995238D01*
X98661905Y-74090476D01*
X98709524Y-74280952D01*
X98709524Y-74423810D01*
X98661905Y-74614286D01*
X98614286Y-74709524D01*
X98519048Y-74804762D01*
X98376190Y-74852381D01*
X98138095Y-74852381D01*
X95604762Y-76452381D02*
X96223810Y-76452381D01*
X95890476Y-76833333D01*
X96033334Y-76833333D01*
X96128572Y-76880952D01*
X96176191Y-76928571D01*
X96223810Y-77023810D01*
X96223810Y-77261905D01*
X96176191Y-77357143D01*
X96128572Y-77404762D01*
X96033334Y-77452381D01*
X95747619Y-77452381D01*
X95652381Y-77404762D01*
X95604762Y-77357143D01*
X96652381Y-77357143D02*
X96700000Y-77404762D01*
X96652381Y-77452381D01*
X96604762Y-77404762D01*
X96652381Y-77357143D01*
X96652381Y-77452381D01*
X97033333Y-76452381D02*
X97652381Y-76452381D01*
X97319047Y-76833333D01*
X97461905Y-76833333D01*
X97557143Y-76880952D01*
X97604762Y-76928571D01*
X97652381Y-77023810D01*
X97652381Y-77261905D01*
X97604762Y-77357143D01*
X97557143Y-77404762D01*
X97461905Y-77452381D01*
X97176190Y-77452381D01*
X97080952Y-77404762D01*
X97033333Y-77357143D01*
X97938095Y-76452381D02*
X98271428Y-77452381D01*
X98604762Y-76452381D01*
X94471429Y-72404762D02*
X94614286Y-72452381D01*
X94852382Y-72452381D01*
X94947620Y-72404762D01*
X94995239Y-72357143D01*
X95042858Y-72261905D01*
X95042858Y-72166667D01*
X94995239Y-72071429D01*
X94947620Y-72023810D01*
X94852382Y-71976190D01*
X94661905Y-71928571D01*
X94566667Y-71880952D01*
X94519048Y-71833333D01*
X94471429Y-71738095D01*
X94471429Y-71642857D01*
X94519048Y-71547619D01*
X94566667Y-71500000D01*
X94661905Y-71452381D01*
X94900001Y-71452381D01*
X95042858Y-71500000D01*
X95376191Y-71452381D02*
X95614286Y-72452381D01*
X95804763Y-71738095D01*
X95995239Y-72452381D01*
X96233334Y-71452381D01*
X96614286Y-72452381D02*
X96614286Y-71452381D01*
X96852381Y-71452381D01*
X96995239Y-71500000D01*
X97090477Y-71595238D01*
X97138096Y-71690476D01*
X97185715Y-71880952D01*
X97185715Y-72023810D01*
X97138096Y-72214286D01*
X97090477Y-72309524D01*
X96995239Y-72404762D01*
X96852381Y-72452381D01*
X96614286Y-72452381D01*
X97614286Y-72452381D02*
X97614286Y-71452381D01*
X98280952Y-71452381D02*
X98471429Y-71452381D01*
X98566667Y-71500000D01*
X98661905Y-71595238D01*
X98709524Y-71785714D01*
X98709524Y-72119048D01*
X98661905Y-72309524D01*
X98566667Y-72404762D01*
X98471429Y-72452381D01*
X98280952Y-72452381D01*
X98185714Y-72404762D01*
X98090476Y-72309524D01*
X98042857Y-72119048D01*
X98042857Y-71785714D01*
X98090476Y-71595238D01*
X98185714Y-71500000D01*
X98280952Y-71452381D01*
X94185714Y-69804762D02*
X94328571Y-69852381D01*
X94566667Y-69852381D01*
X94661905Y-69804762D01*
X94709524Y-69757143D01*
X94757143Y-69661905D01*
X94757143Y-69566667D01*
X94709524Y-69471429D01*
X94661905Y-69423810D01*
X94566667Y-69376190D01*
X94376190Y-69328571D01*
X94280952Y-69280952D01*
X94233333Y-69233333D01*
X94185714Y-69138095D01*
X94185714Y-69042857D01*
X94233333Y-68947619D01*
X94280952Y-68900000D01*
X94376190Y-68852381D01*
X94614286Y-68852381D01*
X94757143Y-68900000D01*
X95090476Y-68852381D02*
X95328571Y-69852381D01*
X95519048Y-69138095D01*
X95709524Y-69852381D01*
X95947619Y-68852381D01*
X96900000Y-69757143D02*
X96852381Y-69804762D01*
X96709524Y-69852381D01*
X96614286Y-69852381D01*
X96471428Y-69804762D01*
X96376190Y-69709524D01*
X96328571Y-69614286D01*
X96280952Y-69423810D01*
X96280952Y-69280952D01*
X96328571Y-69090476D01*
X96376190Y-68995238D01*
X96471428Y-68900000D01*
X96614286Y-68852381D01*
X96709524Y-68852381D01*
X96852381Y-68900000D01*
X96900000Y-68947619D01*
X97804762Y-69852381D02*
X97328571Y-69852381D01*
X97328571Y-68852381D01*
X98138095Y-69852381D02*
X98138095Y-68852381D01*
X98709524Y-69852381D02*
X98280952Y-69280952D01*
X98709524Y-68852381D02*
X98138095Y-69423810D01*
D13*
X154078000Y-72982000D02*
X154078000Y-71982000D01*
X152378000Y-71982000D02*
X152378000Y-72982000D01*
X109644000Y-108610000D02*
X110644000Y-108610000D01*
X110644000Y-106910000D02*
X109644000Y-106910000D01*
X110644000Y-108942000D02*
X109644000Y-108942000D01*
X109644000Y-110642000D02*
X110644000Y-110642000D01*
X101616000Y-98894000D02*
X102616000Y-98894000D01*
X102616000Y-97194000D02*
X101616000Y-97194000D01*
X116682000Y-75684000D02*
X116682000Y-74684000D01*
X114982000Y-74684000D02*
X114982000Y-75684000D01*
X111618000Y-93972000D02*
X111618000Y-92972000D01*
X109918000Y-92972000D02*
X109918000Y-93972000D01*
X116348000Y-81114000D02*
X117348000Y-81114000D01*
X117348000Y-79414000D02*
X116348000Y-79414000D01*
X116348000Y-86702000D02*
X117348000Y-86702000D01*
X117348000Y-85002000D02*
X116348000Y-85002000D01*
X117014000Y-74684000D02*
X117014000Y-75684000D01*
X118714000Y-75684000D02*
X118714000Y-74684000D01*
X128366000Y-78966000D02*
X128366000Y-77966000D01*
X126666000Y-77966000D02*
X126666000Y-78966000D01*
X124000000Y-70650000D02*
X123000000Y-70650000D01*
X123000000Y-72350000D02*
X124000000Y-72350000D01*
X121278000Y-86660000D02*
X121278000Y-83960000D01*
X119778000Y-86660000D02*
X119778000Y-83960000D01*
X120678000Y-85160000D02*
X120428000Y-85160000D01*
X120428000Y-85160000D02*
X120578000Y-85310000D01*
X120178000Y-85410000D02*
X120878000Y-85410000D01*
X120528000Y-85060000D02*
X120528000Y-84710000D01*
X120528000Y-85410000D02*
X120178000Y-85060000D01*
X120178000Y-85060000D02*
X120878000Y-85060000D01*
X120878000Y-85060000D02*
X120528000Y-85410000D01*
X124834000Y-86660000D02*
X124834000Y-83960000D01*
X123334000Y-86660000D02*
X123334000Y-83960000D01*
X124234000Y-85160000D02*
X123984000Y-85160000D01*
X123984000Y-85160000D02*
X124134000Y-85310000D01*
X123734000Y-85410000D02*
X124434000Y-85410000D01*
X124084000Y-85060000D02*
X124084000Y-84710000D01*
X124084000Y-85410000D02*
X123734000Y-85060000D01*
X123734000Y-85060000D02*
X124434000Y-85060000D01*
X124434000Y-85060000D02*
X124084000Y-85410000D01*
X97772800Y-104879600D02*
X101227200Y-104879600D01*
X97772800Y-101120400D02*
X101227200Y-101120400D01*
X90001100Y-97503600D02*
X90001100Y-113003600D01*
X94001100Y-96503600D02*
X91001100Y-96503600D01*
X95001100Y-80503600D02*
X95001100Y-95503600D01*
X91001100Y-79503600D02*
X94001100Y-79503600D01*
X90001100Y-63003600D02*
X90001100Y-78503600D01*
X152001100Y-60003600D02*
X93501100Y-60003600D01*
X93501100Y-60003600D02*
X93001100Y-60003600D01*
X155001100Y-113003600D02*
X155001100Y-63003600D01*
X93001100Y-116003600D02*
X152001100Y-116003600D01*
X93001100Y-60003600D02*
G75*
G03X90001100Y-63003600I0J-3000000D01*
G01*
X155001100Y-63003600D02*
G75*
G03X152001100Y-60003600I-3000000J0D01*
G01*
X152001100Y-116003600D02*
G75*
G03X155001100Y-113003600I0J3000000D01*
G01*
X90001100Y-113003600D02*
G75*
G03X93001100Y-116003600I3000000J0D01*
G01*
X90001100Y-78503600D02*
G75*
G03X91001100Y-79503600I1000000J0D01*
G01*
X95001100Y-80503600D02*
G75*
G03X94001100Y-79503600I-1000000J0D01*
G01*
X94001100Y-96503600D02*
G75*
G03X95001100Y-95503600I0J1000000D01*
G01*
X91001100Y-96503600D02*
G75*
G03X90001100Y-97503600I0J-1000000D01*
G01*
X136001100Y-112003600D02*
X136001100Y-97003600D01*
X134001100Y-97003600D02*
X134001100Y-112003600D01*
X135001100Y-113003600D02*
G75*
G03X136001100Y-112003600I0J1000000D01*
G01*
X134001100Y-112003600D02*
G75*
G03X135001100Y-113003600I1000000J0D01*
G01*
X136001100Y-97003600D02*
G75*
G03X135001100Y-96003600I-1000000J0D01*
G01*
X135001100Y-96003600D02*
G75*
G03X134001100Y-97003600I0J-1000000D01*
G01*
X147901100Y-60963600D02*
X97101100Y-60963600D01*
X99641100Y-66043600D02*
X147901100Y-66043600D01*
X147901100Y-60963600D02*
X147901100Y-66043600D01*
X97101100Y-60963600D02*
X97101100Y-63503600D01*
X96821100Y-64773600D02*
X96821100Y-66323600D01*
X97101100Y-63503600D02*
X99641100Y-63503600D01*
X99641100Y-63503600D02*
X99641100Y-66043600D01*
X96821100Y-66323600D02*
X98371100Y-66323600D01*
D12*
X117000000Y-94600000D02*
X120800000Y-94600000D01*
X120800000Y-94600000D02*
X120800000Y-97000000D01*
X120800000Y-97000000D02*
X117000000Y-97000000D01*
X117000000Y-97000000D02*
X117000000Y-94600000D01*
D13*
X102000000Y-115100000D02*
X102000000Y-115600000D01*
X106500000Y-111100000D02*
G75*
G03X106500000Y-111100000I-2000000J0D01*
G01*
X101500000Y-111100000D02*
G75*
G03X101500000Y-111100000I-2000000J0D01*
G01*
X97000000Y-113600000D02*
X107000000Y-113600000D01*
X97000000Y-108700000D02*
X107000000Y-108700000D01*
X97000000Y-115100000D02*
X107000000Y-115100000D01*
X97000000Y-115600000D02*
X107000000Y-115600000D01*
X107000000Y-115600000D02*
X107000000Y-105800000D01*
X107000000Y-105800000D02*
X97000000Y-105800000D01*
X97000000Y-105800000D02*
X97000000Y-115600000D01*
X122970000Y-104110000D02*
X121420000Y-104110000D01*
X122970000Y-105410000D02*
X122970000Y-104110000D01*
X121547000Y-109601000D02*
X121547000Y-115443000D01*
X121547000Y-115443000D02*
X121293000Y-115443000D01*
X121293000Y-115443000D02*
X121293000Y-109601000D01*
X121293000Y-109601000D02*
X121420000Y-109601000D01*
X121420000Y-109601000D02*
X121420000Y-115443000D01*
X121674000Y-106934000D02*
X121674000Y-106553000D01*
X121166000Y-106934000D02*
X121166000Y-106553000D01*
X119134000Y-106934000D02*
X119134000Y-106553000D01*
X118626000Y-106934000D02*
X118626000Y-106553000D01*
X116594000Y-106934000D02*
X116594000Y-106553000D01*
X116086000Y-106934000D02*
X116086000Y-106553000D01*
X113546000Y-106934000D02*
X113546000Y-106553000D01*
X114054000Y-106934000D02*
X114054000Y-106553000D01*
X122690000Y-106934000D02*
X122690000Y-109474000D01*
X120150000Y-106934000D02*
X120150000Y-109474000D01*
X120150000Y-106934000D02*
X117610000Y-106934000D01*
X117610000Y-106934000D02*
X117610000Y-109474000D01*
X119134000Y-109474000D02*
X119134000Y-115570000D01*
X119134000Y-115570000D02*
X118626000Y-115570000D01*
X118626000Y-115570000D02*
X118626000Y-109474000D01*
X117610000Y-109474000D02*
X120150000Y-109474000D01*
X120150000Y-109474000D02*
X122690000Y-109474000D01*
X121166000Y-115570000D02*
X121166000Y-109474000D01*
X121674000Y-115570000D02*
X121166000Y-115570000D01*
X121674000Y-109474000D02*
X121674000Y-115570000D01*
X120150000Y-106934000D02*
X120150000Y-109474000D01*
X122690000Y-106934000D02*
X120150000Y-106934000D01*
X115070000Y-106934000D02*
X115070000Y-109474000D01*
X115070000Y-106934000D02*
X112530000Y-106934000D01*
X112530000Y-106934000D02*
X112530000Y-109474000D01*
X114054000Y-109474000D02*
X114054000Y-115570000D01*
X114054000Y-115570000D02*
X113546000Y-115570000D01*
X113546000Y-115570000D02*
X113546000Y-109474000D01*
X112530000Y-109474000D02*
X115070000Y-109474000D01*
X115070000Y-109474000D02*
X117610000Y-109474000D01*
X116086000Y-115570000D02*
X116086000Y-109474000D01*
X116594000Y-115570000D02*
X116086000Y-115570000D01*
X116594000Y-109474000D02*
X116594000Y-115570000D01*
X115070000Y-106934000D02*
X115070000Y-109474000D01*
X117610000Y-106934000D02*
X115070000Y-106934000D01*
X117610000Y-106934000D02*
X117610000Y-109474000D01*
X133130000Y-104110000D02*
X131580000Y-104110000D01*
X133130000Y-105410000D02*
X133130000Y-104110000D01*
X131707000Y-109601000D02*
X131707000Y-115443000D01*
X131707000Y-115443000D02*
X131453000Y-115443000D01*
X131453000Y-115443000D02*
X131453000Y-109601000D01*
X131453000Y-109601000D02*
X131580000Y-109601000D01*
X131580000Y-109601000D02*
X131580000Y-115443000D01*
X131834000Y-106934000D02*
X131834000Y-106553000D01*
X131326000Y-106934000D02*
X131326000Y-106553000D01*
X129294000Y-106934000D02*
X129294000Y-106553000D01*
X128786000Y-106934000D02*
X128786000Y-106553000D01*
X126754000Y-106934000D02*
X126754000Y-106553000D01*
X126246000Y-106934000D02*
X126246000Y-106553000D01*
X123706000Y-106934000D02*
X123706000Y-106553000D01*
X124214000Y-106934000D02*
X124214000Y-106553000D01*
X132850000Y-106934000D02*
X132850000Y-109474000D01*
X130310000Y-106934000D02*
X130310000Y-109474000D01*
X130310000Y-106934000D02*
X127770000Y-106934000D01*
X127770000Y-106934000D02*
X127770000Y-109474000D01*
X129294000Y-109474000D02*
X129294000Y-115570000D01*
X129294000Y-115570000D02*
X128786000Y-115570000D01*
X128786000Y-115570000D02*
X128786000Y-109474000D01*
X127770000Y-109474000D02*
X130310000Y-109474000D01*
X130310000Y-109474000D02*
X132850000Y-109474000D01*
X131326000Y-115570000D02*
X131326000Y-109474000D01*
X131834000Y-115570000D02*
X131326000Y-115570000D01*
X131834000Y-109474000D02*
X131834000Y-115570000D01*
X130310000Y-106934000D02*
X130310000Y-109474000D01*
X132850000Y-106934000D02*
X130310000Y-106934000D01*
X125230000Y-106934000D02*
X125230000Y-109474000D01*
X125230000Y-106934000D02*
X122690000Y-106934000D01*
X122690000Y-106934000D02*
X122690000Y-109474000D01*
X124214000Y-109474000D02*
X124214000Y-115570000D01*
X124214000Y-115570000D02*
X123706000Y-115570000D01*
X123706000Y-115570000D02*
X123706000Y-109474000D01*
X122690000Y-109474000D02*
X125230000Y-109474000D01*
X125230000Y-109474000D02*
X127770000Y-109474000D01*
X126246000Y-115570000D02*
X126246000Y-109474000D01*
X126754000Y-115570000D02*
X126246000Y-115570000D01*
X126754000Y-109474000D02*
X126754000Y-115570000D01*
X125230000Y-106934000D02*
X125230000Y-109474000D01*
X127770000Y-106934000D02*
X125230000Y-106934000D01*
X127770000Y-106934000D02*
X127770000Y-109474000D01*
X99702000Y-70608000D02*
X99702000Y-78228000D01*
X102242000Y-70608000D02*
X102242000Y-78228000D01*
X102522000Y-67788000D02*
X102522000Y-69338000D01*
X99702000Y-78228000D02*
X102242000Y-78228000D01*
X102242000Y-70608000D02*
X99702000Y-70608000D01*
X99422000Y-69338000D02*
X99422000Y-67788000D01*
X99422000Y-67788000D02*
X102522000Y-67788000D01*
D12*
X129800000Y-94600000D02*
X133600000Y-94600000D01*
X133600000Y-94600000D02*
X133600000Y-97000000D01*
X133600000Y-97000000D02*
X129800000Y-97000000D01*
X129800000Y-97000000D02*
X129800000Y-94600000D01*
X126400000Y-90800000D02*
X130200000Y-90800000D01*
X130200000Y-90800000D02*
X130200000Y-93200000D01*
X130200000Y-93200000D02*
X126400000Y-93200000D01*
X126400000Y-93200000D02*
X126400000Y-90800000D01*
D13*
X139230000Y-70270000D02*
X139230000Y-67730000D01*
X138950000Y-73090000D02*
X138950000Y-71540000D01*
X139230000Y-70270000D02*
X141770000Y-70270000D01*
X142050000Y-71540000D02*
X142050000Y-73090000D01*
X142050000Y-73090000D02*
X138950000Y-73090000D01*
X141770000Y-70270000D02*
X141770000Y-67730000D01*
X141770000Y-67730000D02*
X139230000Y-67730000D01*
X106942000Y-81026000D02*
X106942000Y-83566000D01*
X107222000Y-78206000D02*
X107222000Y-79756000D01*
X106942000Y-81026000D02*
X104402000Y-81026000D01*
X104122000Y-79756000D02*
X104122000Y-78206000D01*
X104122000Y-78206000D02*
X107222000Y-78206000D01*
X104402000Y-81026000D02*
X104402000Y-83566000D01*
X104402000Y-83566000D02*
X106942000Y-83566000D01*
X139810000Y-88270000D02*
X139810000Y-80650000D01*
X139810000Y-80650000D02*
X134730000Y-80650000D01*
X134730000Y-80650000D02*
X134730000Y-90810000D01*
X134730000Y-90810000D02*
X137270000Y-90810000D01*
X138540000Y-91090000D02*
X140090000Y-91090000D01*
X137270000Y-90810000D02*
X137270000Y-88270000D01*
X137270000Y-88270000D02*
X139810000Y-88270000D01*
X140090000Y-91090000D02*
X140090000Y-89540000D01*
X92200840Y-106650240D02*
X92249100Y-106650240D01*
X94999820Y-105949200D02*
X94999820Y-106650240D01*
X94999820Y-106650240D02*
X94750900Y-106650240D01*
X92200840Y-106650240D02*
X92000180Y-106650240D01*
X92000180Y-106650240D02*
X92000180Y-105949200D01*
X98843160Y-90789760D02*
X98794900Y-90789760D01*
X96044180Y-91490800D02*
X96044180Y-90789760D01*
X96044180Y-90789760D02*
X96293100Y-90789760D01*
X98843160Y-90789760D02*
X99043820Y-90789760D01*
X99043820Y-90789760D02*
X99043820Y-91490800D01*
X96244840Y-87518240D02*
X96293100Y-87518240D01*
X99043820Y-86817200D02*
X99043820Y-87518240D01*
X99043820Y-87518240D02*
X98794900Y-87518240D01*
X96244840Y-87518240D02*
X96044180Y-87518240D01*
X96044180Y-87518240D02*
X96044180Y-86817200D01*
X109370240Y-99343160D02*
X109370240Y-99294900D01*
X108669200Y-96544180D02*
X109370240Y-96544180D01*
X109370240Y-96544180D02*
X109370240Y-96793100D01*
X109370240Y-99343160D02*
X109370240Y-99543820D01*
X109370240Y-99543820D02*
X108669200Y-99543820D01*
X112657000Y-96010840D02*
X112657000Y-96059100D01*
X113358040Y-98809820D02*
X112657000Y-98809820D01*
X112657000Y-98809820D02*
X112657000Y-98560900D01*
X112657000Y-96010840D02*
X112657000Y-95810180D01*
X112657000Y-95810180D02*
X113358040Y-95810180D01*
X145192000Y-72341000D02*
X143992000Y-72341000D01*
X143992000Y-70591000D02*
X145192000Y-70591000D01*
X145192000Y-74373000D02*
X143992000Y-74373000D01*
X143992000Y-72623000D02*
X145192000Y-72623000D01*
X145192000Y-70309000D02*
X143992000Y-70309000D01*
X143992000Y-68559000D02*
X145192000Y-68559000D01*
X98100000Y-98875000D02*
X96900000Y-98875000D01*
X96900000Y-97125000D02*
X98100000Y-97125000D01*
X92900000Y-97125000D02*
X94100000Y-97125000D01*
X94100000Y-98875000D02*
X92900000Y-98875000D01*
X96944000Y-93613000D02*
X98144000Y-93613000D01*
X98144000Y-95363000D02*
X96944000Y-95363000D01*
X122100000Y-94975000D02*
X123300000Y-94975000D01*
X123300000Y-96725000D02*
X122100000Y-96725000D01*
X127425000Y-96146000D02*
X127425000Y-94946000D01*
X129175000Y-94946000D02*
X129175000Y-96146000D01*
X124885000Y-96146000D02*
X124885000Y-94946000D01*
X126635000Y-94946000D02*
X126635000Y-96146000D01*
X109828000Y-80631000D02*
X108628000Y-80631000D01*
X108628000Y-78881000D02*
X109828000Y-78881000D01*
X119653000Y-89724000D02*
X119653000Y-88524000D01*
X121403000Y-88524000D02*
X121403000Y-89724000D01*
X106547000Y-97444000D02*
X106547000Y-98644000D01*
X104797000Y-98644000D02*
X104797000Y-97444000D01*
X123209000Y-89724000D02*
X123209000Y-88524000D01*
X124959000Y-88524000D02*
X124959000Y-89724000D01*
X112260000Y-73660000D02*
G75*
G03X112260000Y-73660000I-1000000J0D01*
G01*
X113060000Y-72460000D02*
X113060000Y-74860000D01*
X112460000Y-71860000D02*
X113060000Y-72460000D01*
X110060000Y-71860000D02*
X112460000Y-71860000D01*
X109460000Y-72460000D02*
X110060000Y-71860000D01*
X109460000Y-74860000D02*
X109460000Y-72460000D01*
X110060000Y-75460000D02*
X109460000Y-74860000D01*
X112460000Y-75460000D02*
X110060000Y-75460000D01*
X113060000Y-74860000D02*
X112460000Y-75460000D01*
X113960000Y-72210000D02*
X113960000Y-75110000D01*
X113510000Y-71760000D02*
X113960000Y-72210000D01*
X110260000Y-70960000D02*
X112260000Y-70960000D01*
X108560000Y-72210000D02*
X109010000Y-71760000D01*
X108560000Y-75110000D02*
X108560000Y-72210000D01*
X109010000Y-75560000D02*
X108560000Y-75110000D01*
X112260000Y-76360000D02*
X110260000Y-76360000D01*
X113960000Y-75110000D02*
X113510000Y-75560000D01*
X146624000Y-70196000D02*
X151704000Y-70196000D01*
X151704000Y-70196000D02*
X151704000Y-74768000D01*
X151704000Y-74768000D02*
X146624000Y-74768000D01*
X146624000Y-74768000D02*
X146624000Y-70196000D01*
X146624000Y-71720000D02*
X147132000Y-71720000D01*
X147132000Y-71720000D02*
X147132000Y-72990000D01*
X147132000Y-72990000D02*
X146624000Y-72990000D01*
X93850520Y-102600200D02*
X93850520Y-102109980D01*
X93149480Y-102600200D02*
X93850520Y-102600200D01*
X93149480Y-99399800D02*
X93850520Y-99399800D01*
X106888660Y-95371920D02*
X106588940Y-95123000D01*
X106588940Y-95123000D02*
X106439080Y-95021400D01*
X106439080Y-95021400D02*
X107287440Y-95021400D01*
X105387520Y-95722440D02*
X107188380Y-95722440D01*
X105387520Y-95722440D02*
X105387520Y-95072200D01*
X105387520Y-91221560D02*
X107188380Y-91221560D01*
X105387520Y-91221560D02*
X105387520Y-91871800D01*
X126394000Y-79441000D02*
X126394000Y-74991000D01*
X119494000Y-80966000D02*
X119494000Y-74991000D01*
X109221000Y-100496080D02*
X109520720Y-100745000D01*
X109520720Y-100745000D02*
X109670580Y-100846600D01*
X109670580Y-100846600D02*
X108822220Y-100846600D01*
X110722140Y-100145560D02*
X108921280Y-100145560D01*
X110722140Y-100145560D02*
X110722140Y-100795800D01*
X110722140Y-104646440D02*
X108921280Y-104646440D01*
X110722140Y-104646440D02*
X110722140Y-103996200D01*
X116614320Y-81470500D02*
X108013880Y-81470500D01*
X108013880Y-81470500D02*
X108013880Y-84670900D01*
X108013880Y-84670900D02*
X116614320Y-84670900D01*
X116614320Y-83921600D02*
X116614320Y-84670900D01*
X116614320Y-82171540D02*
X116614320Y-81470500D01*
X116614320Y-83370420D02*
X116914040Y-83469480D01*
X116614320Y-82770980D02*
X116914040Y-82671920D01*
X116614320Y-82171540D02*
X116614320Y-83969860D01*
X103230000Y-102730000D02*
X103230000Y-100190000D01*
X102950000Y-105550000D02*
X102950000Y-104000000D01*
X103230000Y-102730000D02*
X105770000Y-102730000D01*
X106050000Y-104000000D02*
X106050000Y-105550000D01*
X106050000Y-105550000D02*
X102950000Y-105550000D01*
X105770000Y-102730000D02*
X105770000Y-100190000D01*
X105770000Y-100190000D02*
X103230000Y-100190000D01*
X100338000Y-93218000D02*
X100338000Y-90678000D01*
X100058000Y-96038000D02*
X100058000Y-94488000D01*
X100338000Y-93218000D02*
X102878000Y-93218000D01*
X103158000Y-94488000D02*
X103158000Y-96038000D01*
X103158000Y-96038000D02*
X100058000Y-96038000D01*
X102878000Y-93218000D02*
X102878000Y-90678000D01*
X102878000Y-90678000D02*
X100338000Y-90678000D01*
X139370000Y-112730000D02*
X139370000Y-115270000D01*
X139650000Y-109910000D02*
X139650000Y-111460000D01*
X139370000Y-112730000D02*
X136830000Y-112730000D01*
X136550000Y-111460000D02*
X136550000Y-109910000D01*
X136550000Y-109910000D02*
X139650000Y-109910000D01*
X136830000Y-112730000D02*
X136830000Y-115270000D01*
X136830000Y-115270000D02*
X139370000Y-115270000D01*
X152933334Y-70357143D02*
X152885715Y-70404762D01*
X152742858Y-70452381D01*
X152647620Y-70452381D01*
X152504762Y-70404762D01*
X152409524Y-70309524D01*
X152361905Y-70214286D01*
X152314286Y-70023810D01*
X152314286Y-69880952D01*
X152361905Y-69690476D01*
X152409524Y-69595238D01*
X152504762Y-69500000D01*
X152647620Y-69452381D01*
X152742858Y-69452381D01*
X152885715Y-69500000D01*
X152933334Y-69547619D01*
X153885715Y-70452381D02*
X153314286Y-70452381D01*
X153600000Y-70452381D02*
X153600000Y-69452381D01*
X153504762Y-69595238D01*
X153409524Y-69690476D01*
X153314286Y-69738095D01*
X108157143Y-107866666D02*
X108204762Y-107914285D01*
X108252381Y-108057142D01*
X108252381Y-108152380D01*
X108204762Y-108295238D01*
X108109524Y-108390476D01*
X108014286Y-108438095D01*
X107823810Y-108485714D01*
X107680952Y-108485714D01*
X107490476Y-108438095D01*
X107395238Y-108390476D01*
X107300000Y-108295238D01*
X107252381Y-108152380D01*
X107252381Y-108057142D01*
X107300000Y-107914285D01*
X107347619Y-107866666D01*
X107347619Y-107485714D02*
X107300000Y-107438095D01*
X107252381Y-107342857D01*
X107252381Y-107104761D01*
X107300000Y-107009523D01*
X107347619Y-106961904D01*
X107442857Y-106914285D01*
X107538095Y-106914285D01*
X107680952Y-106961904D01*
X108252381Y-107533333D01*
X108252381Y-106914285D01*
X108157143Y-110066666D02*
X108204762Y-110114285D01*
X108252381Y-110257142D01*
X108252381Y-110352380D01*
X108204762Y-110495238D01*
X108109524Y-110590476D01*
X108014286Y-110638095D01*
X107823810Y-110685714D01*
X107680952Y-110685714D01*
X107490476Y-110638095D01*
X107395238Y-110590476D01*
X107300000Y-110495238D01*
X107252381Y-110352380D01*
X107252381Y-110257142D01*
X107300000Y-110114285D01*
X107347619Y-110066666D01*
X107252381Y-109733333D02*
X107252381Y-109114285D01*
X107633333Y-109447619D01*
X107633333Y-109304761D01*
X107680952Y-109209523D01*
X107728571Y-109161904D01*
X107823810Y-109114285D01*
X108061905Y-109114285D01*
X108157143Y-109161904D01*
X108204762Y-109209523D01*
X108252381Y-109304761D01*
X108252381Y-109590476D01*
X108204762Y-109685714D01*
X108157143Y-109733333D01*
X101933334Y-99925143D02*
X101885715Y-99972762D01*
X101742858Y-100020381D01*
X101647620Y-100020381D01*
X101504762Y-99972762D01*
X101409524Y-99877524D01*
X101361905Y-99782286D01*
X101314286Y-99591810D01*
X101314286Y-99448952D01*
X101361905Y-99258476D01*
X101409524Y-99163238D01*
X101504762Y-99068000D01*
X101647620Y-99020381D01*
X101742858Y-99020381D01*
X101885715Y-99068000D01*
X101933334Y-99115619D01*
X102790477Y-99353714D02*
X102790477Y-100020381D01*
X102552381Y-98972762D02*
X102314286Y-99687048D01*
X102933334Y-99687048D01*
X115633334Y-78157143D02*
X115585715Y-78204762D01*
X115442858Y-78252381D01*
X115347620Y-78252381D01*
X115204762Y-78204762D01*
X115109524Y-78109524D01*
X115061905Y-78014286D01*
X115014286Y-77823810D01*
X115014286Y-77680952D01*
X115061905Y-77490476D01*
X115109524Y-77395238D01*
X115204762Y-77300000D01*
X115347620Y-77252381D01*
X115442858Y-77252381D01*
X115585715Y-77300000D01*
X115633334Y-77347619D01*
X116538096Y-77252381D02*
X116061905Y-77252381D01*
X116014286Y-77728571D01*
X116061905Y-77680952D01*
X116157143Y-77633333D01*
X116395239Y-77633333D01*
X116490477Y-77680952D01*
X116538096Y-77728571D01*
X116585715Y-77823810D01*
X116585715Y-78061905D01*
X116538096Y-78157143D01*
X116490477Y-78204762D01*
X116395239Y-78252381D01*
X116157143Y-78252381D01*
X116061905Y-78204762D01*
X116014286Y-78157143D01*
X112857143Y-93638666D02*
X112904762Y-93686285D01*
X112952381Y-93829142D01*
X112952381Y-93924380D01*
X112904762Y-94067238D01*
X112809524Y-94162476D01*
X112714286Y-94210095D01*
X112523810Y-94257714D01*
X112380952Y-94257714D01*
X112190476Y-94210095D01*
X112095238Y-94162476D01*
X112000000Y-94067238D01*
X111952381Y-93924380D01*
X111952381Y-93829142D01*
X112000000Y-93686285D01*
X112047619Y-93638666D01*
X111952381Y-92781523D02*
X111952381Y-92972000D01*
X112000000Y-93067238D01*
X112047619Y-93114857D01*
X112190476Y-93210095D01*
X112380952Y-93257714D01*
X112761905Y-93257714D01*
X112857143Y-93210095D01*
X112904762Y-93162476D01*
X112952381Y-93067238D01*
X112952381Y-92876761D01*
X112904762Y-92781523D01*
X112857143Y-92733904D01*
X112761905Y-92686285D01*
X112523810Y-92686285D01*
X112428571Y-92733904D01*
X112380952Y-92781523D01*
X112333333Y-92876761D01*
X112333333Y-93067238D01*
X112380952Y-93162476D01*
X112428571Y-93210095D01*
X112523810Y-93257714D01*
X114665143Y-80430666D02*
X114712762Y-80478285D01*
X114760381Y-80621142D01*
X114760381Y-80716380D01*
X114712762Y-80859238D01*
X114617524Y-80954476D01*
X114522286Y-81002095D01*
X114331810Y-81049714D01*
X114188952Y-81049714D01*
X113998476Y-81002095D01*
X113903238Y-80954476D01*
X113808000Y-80859238D01*
X113760381Y-80716380D01*
X113760381Y-80621142D01*
X113808000Y-80478285D01*
X113855619Y-80430666D01*
X113760381Y-80097333D02*
X113760381Y-79430666D01*
X114760381Y-79859238D01*
X114665143Y-86018666D02*
X114712762Y-86066285D01*
X114760381Y-86209142D01*
X114760381Y-86304380D01*
X114712762Y-86447238D01*
X114617524Y-86542476D01*
X114522286Y-86590095D01*
X114331810Y-86637714D01*
X114188952Y-86637714D01*
X113998476Y-86590095D01*
X113903238Y-86542476D01*
X113808000Y-86447238D01*
X113760381Y-86304380D01*
X113760381Y-86209142D01*
X113808000Y-86066285D01*
X113855619Y-86018666D01*
X114188952Y-85447238D02*
X114141333Y-85542476D01*
X114093714Y-85590095D01*
X113998476Y-85637714D01*
X113950857Y-85637714D01*
X113855619Y-85590095D01*
X113808000Y-85542476D01*
X113760381Y-85447238D01*
X113760381Y-85256761D01*
X113808000Y-85161523D01*
X113855619Y-85113904D01*
X113950857Y-85066285D01*
X113998476Y-85066285D01*
X114093714Y-85113904D01*
X114141333Y-85161523D01*
X114188952Y-85256761D01*
X114188952Y-85447238D01*
X114236571Y-85542476D01*
X114284190Y-85590095D01*
X114379429Y-85637714D01*
X114569905Y-85637714D01*
X114665143Y-85590095D01*
X114712762Y-85542476D01*
X114760381Y-85447238D01*
X114760381Y-85256761D01*
X114712762Y-85161523D01*
X114665143Y-85113904D01*
X114569905Y-85066285D01*
X114379429Y-85066285D01*
X114284190Y-85113904D01*
X114236571Y-85161523D01*
X114188952Y-85256761D01*
X117633334Y-78157143D02*
X117585715Y-78204762D01*
X117442858Y-78252381D01*
X117347620Y-78252381D01*
X117204762Y-78204762D01*
X117109524Y-78109524D01*
X117061905Y-78014286D01*
X117014286Y-77823810D01*
X117014286Y-77680952D01*
X117061905Y-77490476D01*
X117109524Y-77395238D01*
X117204762Y-77300000D01*
X117347620Y-77252381D01*
X117442858Y-77252381D01*
X117585715Y-77300000D01*
X117633334Y-77347619D01*
X118109524Y-78252381D02*
X118300000Y-78252381D01*
X118395239Y-78204762D01*
X118442858Y-78157143D01*
X118538096Y-78014286D01*
X118585715Y-77823810D01*
X118585715Y-77442857D01*
X118538096Y-77347619D01*
X118490477Y-77300000D01*
X118395239Y-77252381D01*
X118204762Y-77252381D01*
X118109524Y-77300000D01*
X118061905Y-77347619D01*
X118014286Y-77442857D01*
X118014286Y-77680952D01*
X118061905Y-77776190D01*
X118109524Y-77823810D01*
X118204762Y-77871429D01*
X118395239Y-77871429D01*
X118490477Y-77823810D01*
X118538096Y-77776190D01*
X118585715Y-77680952D01*
X129857143Y-79108857D02*
X129904762Y-79156476D01*
X129952381Y-79299333D01*
X129952381Y-79394571D01*
X129904762Y-79537429D01*
X129809524Y-79632667D01*
X129714286Y-79680286D01*
X129523810Y-79727905D01*
X129380952Y-79727905D01*
X129190476Y-79680286D01*
X129095238Y-79632667D01*
X129000000Y-79537429D01*
X128952381Y-79394571D01*
X128952381Y-79299333D01*
X129000000Y-79156476D01*
X129047619Y-79108857D01*
X129952381Y-78156476D02*
X129952381Y-78727905D01*
X129952381Y-78442191D02*
X128952381Y-78442191D01*
X129095238Y-78537429D01*
X129190476Y-78632667D01*
X129238095Y-78727905D01*
X128952381Y-77537429D02*
X128952381Y-77442190D01*
X129000000Y-77346952D01*
X129047619Y-77299333D01*
X129142857Y-77251714D01*
X129333333Y-77204095D01*
X129571429Y-77204095D01*
X129761905Y-77251714D01*
X129857143Y-77299333D01*
X129904762Y-77346952D01*
X129952381Y-77442190D01*
X129952381Y-77537429D01*
X129904762Y-77632667D01*
X129857143Y-77680286D01*
X129761905Y-77727905D01*
X129571429Y-77775524D01*
X129333333Y-77775524D01*
X129142857Y-77727905D01*
X129047619Y-77680286D01*
X129000000Y-77632667D01*
X128952381Y-77537429D01*
X122757143Y-70145143D02*
X122709524Y-70192762D01*
X122566667Y-70240381D01*
X122471429Y-70240381D01*
X122328571Y-70192762D01*
X122233333Y-70097524D01*
X122185714Y-70002286D01*
X122138095Y-69811810D01*
X122138095Y-69668952D01*
X122185714Y-69478476D01*
X122233333Y-69383238D01*
X122328571Y-69288000D01*
X122471429Y-69240381D01*
X122566667Y-69240381D01*
X122709524Y-69288000D01*
X122757143Y-69335619D01*
X123709524Y-70240381D02*
X123138095Y-70240381D01*
X123423809Y-70240381D02*
X123423809Y-69240381D01*
X123328571Y-69383238D01*
X123233333Y-69478476D01*
X123138095Y-69526095D01*
X124661905Y-70240381D02*
X124090476Y-70240381D01*
X124376190Y-70240381D02*
X124376190Y-69240381D01*
X124280952Y-69383238D01*
X124185714Y-69478476D01*
X124090476Y-69526095D01*
X99366667Y-102928571D02*
X99033333Y-102928571D01*
X99033333Y-103452381D02*
X99033333Y-102452381D01*
X99509524Y-102452381D01*
X100414286Y-103452381D02*
X99842857Y-103452381D01*
X100128571Y-103452381D02*
X100128571Y-102452381D01*
X100033333Y-102595238D01*
X99938095Y-102690476D01*
X99842857Y-102738095D01*
X126972381Y-106148095D02*
X125972381Y-106148095D01*
X125972381Y-105767142D01*
X126020000Y-105671904D01*
X126067619Y-105624285D01*
X126162857Y-105576666D01*
X126305714Y-105576666D01*
X126400952Y-105624285D01*
X126448571Y-105671904D01*
X126496190Y-105767142D01*
X126496190Y-106148095D01*
X125972381Y-105243333D02*
X125972381Y-104624285D01*
X126353333Y-104957619D01*
X126353333Y-104814761D01*
X126400952Y-104719523D01*
X126448571Y-104671904D01*
X126543810Y-104624285D01*
X126781905Y-104624285D01*
X126877143Y-104671904D01*
X126924762Y-104719523D01*
X126972381Y-104814761D01*
X126972381Y-105100476D01*
X126924762Y-105195714D01*
X126877143Y-105243333D01*
X93404762Y-108797619D02*
X93309524Y-108750000D01*
X93214286Y-108654762D01*
X93071429Y-108511905D01*
X92976190Y-108464286D01*
X92880952Y-108464286D01*
X92928571Y-108702381D02*
X92833333Y-108654762D01*
X92738095Y-108559524D01*
X92690476Y-108369048D01*
X92690476Y-108035714D01*
X92738095Y-107845238D01*
X92833333Y-107750000D01*
X92928571Y-107702381D01*
X93119048Y-107702381D01*
X93214286Y-107750000D01*
X93309524Y-107845238D01*
X93357143Y-108035714D01*
X93357143Y-108369048D01*
X93309524Y-108559524D01*
X93214286Y-108654762D01*
X93119048Y-108702381D01*
X92928571Y-108702381D01*
X94309524Y-108702381D02*
X93738095Y-108702381D01*
X94023809Y-108702381D02*
X94023809Y-107702381D01*
X93928571Y-107845238D01*
X93833333Y-107940476D01*
X93738095Y-107988095D01*
X97448762Y-89737619D02*
X97353524Y-89690000D01*
X97258286Y-89594762D01*
X97115429Y-89451905D01*
X97020190Y-89404286D01*
X96924952Y-89404286D01*
X96972571Y-89642381D02*
X96877333Y-89594762D01*
X96782095Y-89499524D01*
X96734476Y-89309048D01*
X96734476Y-88975714D01*
X96782095Y-88785238D01*
X96877333Y-88690000D01*
X96972571Y-88642381D01*
X97163048Y-88642381D01*
X97258286Y-88690000D01*
X97353524Y-88785238D01*
X97401143Y-88975714D01*
X97401143Y-89309048D01*
X97353524Y-89499524D01*
X97258286Y-89594762D01*
X97163048Y-89642381D01*
X96972571Y-89642381D01*
X97782095Y-88737619D02*
X97829714Y-88690000D01*
X97924952Y-88642381D01*
X98163048Y-88642381D01*
X98258286Y-88690000D01*
X98305905Y-88737619D01*
X98353524Y-88832857D01*
X98353524Y-88928095D01*
X98305905Y-89070952D01*
X97734476Y-89642381D01*
X98353524Y-89642381D01*
X97448762Y-84875619D02*
X97353524Y-84828000D01*
X97258286Y-84732762D01*
X97115429Y-84589905D01*
X97020190Y-84542286D01*
X96924952Y-84542286D01*
X96972571Y-84780381D02*
X96877333Y-84732762D01*
X96782095Y-84637524D01*
X96734476Y-84447048D01*
X96734476Y-84113714D01*
X96782095Y-83923238D01*
X96877333Y-83828000D01*
X96972571Y-83780381D01*
X97163048Y-83780381D01*
X97258286Y-83828000D01*
X97353524Y-83923238D01*
X97401143Y-84113714D01*
X97401143Y-84447048D01*
X97353524Y-84637524D01*
X97258286Y-84732762D01*
X97163048Y-84780381D01*
X96972571Y-84780381D01*
X97734476Y-83780381D02*
X98353524Y-83780381D01*
X98020190Y-84161333D01*
X98163048Y-84161333D01*
X98258286Y-84208952D01*
X98305905Y-84256571D01*
X98353524Y-84351810D01*
X98353524Y-84589905D01*
X98305905Y-84685143D01*
X98258286Y-84732762D01*
X98163048Y-84780381D01*
X97877333Y-84780381D01*
X97782095Y-84732762D01*
X97734476Y-84685143D01*
X111517619Y-98095238D02*
X111470000Y-98190476D01*
X111374762Y-98285714D01*
X111231905Y-98428571D01*
X111184286Y-98523810D01*
X111184286Y-98619048D01*
X111422381Y-98571429D02*
X111374762Y-98666667D01*
X111279524Y-98761905D01*
X111089048Y-98809524D01*
X110755714Y-98809524D01*
X110565238Y-98761905D01*
X110470000Y-98666667D01*
X110422381Y-98571429D01*
X110422381Y-98380952D01*
X110470000Y-98285714D01*
X110565238Y-98190476D01*
X110755714Y-98142857D01*
X111089048Y-98142857D01*
X111279524Y-98190476D01*
X111374762Y-98285714D01*
X111422381Y-98380952D01*
X111422381Y-98571429D01*
X110755714Y-97285714D02*
X111422381Y-97285714D01*
X110374762Y-97523810D02*
X111089048Y-97761905D01*
X111089048Y-97142857D01*
X116379619Y-97339238D02*
X116332000Y-97434476D01*
X116236762Y-97529714D01*
X116093905Y-97672571D01*
X116046286Y-97767810D01*
X116046286Y-97863048D01*
X116284381Y-97815429D02*
X116236762Y-97910667D01*
X116141524Y-98005905D01*
X115951048Y-98053524D01*
X115617714Y-98053524D01*
X115427238Y-98005905D01*
X115332000Y-97910667D01*
X115284381Y-97815429D01*
X115284381Y-97624952D01*
X115332000Y-97529714D01*
X115427238Y-97434476D01*
X115617714Y-97386857D01*
X115951048Y-97386857D01*
X116141524Y-97434476D01*
X116236762Y-97529714D01*
X116284381Y-97624952D01*
X116284381Y-97815429D01*
X115284381Y-96482095D02*
X115284381Y-96958286D01*
X115760571Y-97005905D01*
X115712952Y-96958286D01*
X115665333Y-96863048D01*
X115665333Y-96624952D01*
X115712952Y-96529714D01*
X115760571Y-96482095D01*
X115855810Y-96434476D01*
X116093905Y-96434476D01*
X116189143Y-96482095D01*
X116236762Y-96529714D01*
X116284381Y-96624952D01*
X116284381Y-96863048D01*
X116236762Y-96958286D01*
X116189143Y-97005905D01*
X143012381Y-71632666D02*
X142536190Y-71966000D01*
X143012381Y-72204095D02*
X142012381Y-72204095D01*
X142012381Y-71823142D01*
X142060000Y-71727904D01*
X142107619Y-71680285D01*
X142202857Y-71632666D01*
X142345714Y-71632666D01*
X142440952Y-71680285D01*
X142488571Y-71727904D01*
X142536190Y-71823142D01*
X142536190Y-72204095D01*
X143012381Y-70680285D02*
X143012381Y-71251714D01*
X143012381Y-70966000D02*
X142012381Y-70966000D01*
X142155238Y-71061238D01*
X142250476Y-71156476D01*
X142298095Y-71251714D01*
X143012381Y-73664666D02*
X142536190Y-73998000D01*
X143012381Y-74236095D02*
X142012381Y-74236095D01*
X142012381Y-73855142D01*
X142060000Y-73759904D01*
X142107619Y-73712285D01*
X142202857Y-73664666D01*
X142345714Y-73664666D01*
X142440952Y-73712285D01*
X142488571Y-73759904D01*
X142536190Y-73855142D01*
X142536190Y-74236095D01*
X142107619Y-73283714D02*
X142060000Y-73236095D01*
X142012381Y-73140857D01*
X142012381Y-72902761D01*
X142060000Y-72807523D01*
X142107619Y-72759904D01*
X142202857Y-72712285D01*
X142298095Y-72712285D01*
X142440952Y-72759904D01*
X143012381Y-73331333D01*
X143012381Y-72712285D01*
X143012381Y-69600666D02*
X142536190Y-69934000D01*
X143012381Y-70172095D02*
X142012381Y-70172095D01*
X142012381Y-69791142D01*
X142060000Y-69695904D01*
X142107619Y-69648285D01*
X142202857Y-69600666D01*
X142345714Y-69600666D01*
X142440952Y-69648285D01*
X142488571Y-69695904D01*
X142536190Y-69791142D01*
X142536190Y-70172095D01*
X142012381Y-69267333D02*
X142012381Y-68648285D01*
X142393333Y-68981619D01*
X142393333Y-68838761D01*
X142440952Y-68743523D01*
X142488571Y-68695904D01*
X142583810Y-68648285D01*
X142821905Y-68648285D01*
X142917143Y-68695904D01*
X142964762Y-68743523D01*
X143012381Y-68838761D01*
X143012381Y-69124476D01*
X142964762Y-69219714D01*
X142917143Y-69267333D01*
X100152381Y-98166666D02*
X99676190Y-98500000D01*
X100152381Y-98738095D02*
X99152381Y-98738095D01*
X99152381Y-98357142D01*
X99200000Y-98261904D01*
X99247619Y-98214285D01*
X99342857Y-98166666D01*
X99485714Y-98166666D01*
X99580952Y-98214285D01*
X99628571Y-98261904D01*
X99676190Y-98357142D01*
X99676190Y-98738095D01*
X99485714Y-97309523D02*
X100152381Y-97309523D01*
X99104762Y-97547619D02*
X99819048Y-97785714D01*
X99819048Y-97166666D01*
X91452381Y-98166666D02*
X90976190Y-98500000D01*
X91452381Y-98738095D02*
X90452381Y-98738095D01*
X90452381Y-98357142D01*
X90500000Y-98261904D01*
X90547619Y-98214285D01*
X90642857Y-98166666D01*
X90785714Y-98166666D01*
X90880952Y-98214285D01*
X90928571Y-98261904D01*
X90976190Y-98357142D01*
X90976190Y-98738095D01*
X90452381Y-97261904D02*
X90452381Y-97738095D01*
X90928571Y-97785714D01*
X90880952Y-97738095D01*
X90833333Y-97642857D01*
X90833333Y-97404761D01*
X90880952Y-97309523D01*
X90928571Y-97261904D01*
X91023810Y-97214285D01*
X91261905Y-97214285D01*
X91357143Y-97261904D01*
X91404762Y-97309523D01*
X91452381Y-97404761D01*
X91452381Y-97642857D01*
X91404762Y-97738095D01*
X91357143Y-97785714D01*
X97377334Y-96652381D02*
X97044000Y-96176190D01*
X96805905Y-96652381D02*
X96805905Y-95652381D01*
X97186858Y-95652381D01*
X97282096Y-95700000D01*
X97329715Y-95747619D01*
X97377334Y-95842857D01*
X97377334Y-95985714D01*
X97329715Y-96080952D01*
X97282096Y-96128571D01*
X97186858Y-96176190D01*
X96805905Y-96176190D01*
X98234477Y-95652381D02*
X98044000Y-95652381D01*
X97948762Y-95700000D01*
X97901143Y-95747619D01*
X97805905Y-95890476D01*
X97758286Y-96080952D01*
X97758286Y-96461905D01*
X97805905Y-96557143D01*
X97853524Y-96604762D01*
X97948762Y-96652381D01*
X98139239Y-96652381D01*
X98234477Y-96604762D01*
X98282096Y-96557143D01*
X98329715Y-96461905D01*
X98329715Y-96223810D01*
X98282096Y-96128571D01*
X98234477Y-96080952D01*
X98139239Y-96033333D01*
X97948762Y-96033333D01*
X97853524Y-96080952D01*
X97805905Y-96128571D01*
X97758286Y-96223810D01*
X122533334Y-94606381D02*
X122200000Y-94130190D01*
X121961905Y-94606381D02*
X121961905Y-93606381D01*
X122342858Y-93606381D01*
X122438096Y-93654000D01*
X122485715Y-93701619D01*
X122533334Y-93796857D01*
X122533334Y-93939714D01*
X122485715Y-94034952D01*
X122438096Y-94082571D01*
X122342858Y-94130190D01*
X121961905Y-94130190D01*
X123104762Y-94034952D02*
X123009524Y-93987333D01*
X122961905Y-93939714D01*
X122914286Y-93844476D01*
X122914286Y-93796857D01*
X122961905Y-93701619D01*
X123009524Y-93654000D01*
X123104762Y-93606381D01*
X123295239Y-93606381D01*
X123390477Y-93654000D01*
X123438096Y-93701619D01*
X123485715Y-93796857D01*
X123485715Y-93844476D01*
X123438096Y-93939714D01*
X123390477Y-93987333D01*
X123295239Y-94034952D01*
X123104762Y-94034952D01*
X123009524Y-94082571D01*
X122961905Y-94130190D01*
X122914286Y-94225429D01*
X122914286Y-94415905D01*
X122961905Y-94511143D01*
X123009524Y-94558762D01*
X123104762Y-94606381D01*
X123295239Y-94606381D01*
X123390477Y-94558762D01*
X123438096Y-94511143D01*
X123485715Y-94415905D01*
X123485715Y-94225429D01*
X123438096Y-94130190D01*
X123390477Y-94082571D01*
X123295239Y-94034952D01*
X128133334Y-98452381D02*
X127800000Y-97976190D01*
X127561905Y-98452381D02*
X127561905Y-97452381D01*
X127942858Y-97452381D01*
X128038096Y-97500000D01*
X128085715Y-97547619D01*
X128133334Y-97642857D01*
X128133334Y-97785714D01*
X128085715Y-97880952D01*
X128038096Y-97928571D01*
X127942858Y-97976190D01*
X127561905Y-97976190D01*
X128609524Y-98452381D02*
X128800000Y-98452381D01*
X128895239Y-98404762D01*
X128942858Y-98357143D01*
X129038096Y-98214286D01*
X129085715Y-98023810D01*
X129085715Y-97642857D01*
X129038096Y-97547619D01*
X128990477Y-97500000D01*
X128895239Y-97452381D01*
X128704762Y-97452381D01*
X128609524Y-97500000D01*
X128561905Y-97547619D01*
X128514286Y-97642857D01*
X128514286Y-97880952D01*
X128561905Y-97976190D01*
X128609524Y-98023810D01*
X128704762Y-98071429D01*
X128895239Y-98071429D01*
X128990477Y-98023810D01*
X129038096Y-97976190D01*
X129085715Y-97880952D01*
X125057143Y-98452381D02*
X124723809Y-97976190D01*
X124485714Y-98452381D02*
X124485714Y-97452381D01*
X124866667Y-97452381D01*
X124961905Y-97500000D01*
X125009524Y-97547619D01*
X125057143Y-97642857D01*
X125057143Y-97785714D01*
X125009524Y-97880952D01*
X124961905Y-97928571D01*
X124866667Y-97976190D01*
X124485714Y-97976190D01*
X126009524Y-98452381D02*
X125438095Y-98452381D01*
X125723809Y-98452381D02*
X125723809Y-97452381D01*
X125628571Y-97595238D01*
X125533333Y-97690476D01*
X125438095Y-97738095D01*
X126628571Y-97452381D02*
X126723810Y-97452381D01*
X126819048Y-97500000D01*
X126866667Y-97547619D01*
X126914286Y-97642857D01*
X126961905Y-97833333D01*
X126961905Y-98071429D01*
X126914286Y-98261905D01*
X126866667Y-98357143D01*
X126819048Y-98404762D01*
X126723810Y-98452381D01*
X126628571Y-98452381D01*
X126533333Y-98404762D01*
X126485714Y-98357143D01*
X126438095Y-98261905D01*
X126390476Y-98071429D01*
X126390476Y-97833333D01*
X126438095Y-97642857D01*
X126485714Y-97547619D01*
X126533333Y-97500000D01*
X126628571Y-97452381D01*
X112152381Y-80398857D02*
X111676190Y-80732191D01*
X112152381Y-80970286D02*
X111152381Y-80970286D01*
X111152381Y-80589333D01*
X111200000Y-80494095D01*
X111247619Y-80446476D01*
X111342857Y-80398857D01*
X111485714Y-80398857D01*
X111580952Y-80446476D01*
X111628571Y-80494095D01*
X111676190Y-80589333D01*
X111676190Y-80970286D01*
X112152381Y-79446476D02*
X112152381Y-80017905D01*
X112152381Y-79732191D02*
X111152381Y-79732191D01*
X111295238Y-79827429D01*
X111390476Y-79922667D01*
X111438095Y-80017905D01*
X112152381Y-78494095D02*
X112152381Y-79065524D01*
X112152381Y-78779810D02*
X111152381Y-78779810D01*
X111295238Y-78875048D01*
X111390476Y-78970286D01*
X111438095Y-79065524D01*
X119352381Y-89742857D02*
X118876190Y-90076191D01*
X119352381Y-90314286D02*
X118352381Y-90314286D01*
X118352381Y-89933333D01*
X118400000Y-89838095D01*
X118447619Y-89790476D01*
X118542857Y-89742857D01*
X118685714Y-89742857D01*
X118780952Y-89790476D01*
X118828571Y-89838095D01*
X118876190Y-89933333D01*
X118876190Y-90314286D01*
X119352381Y-88790476D02*
X119352381Y-89361905D01*
X119352381Y-89076191D02*
X118352381Y-89076191D01*
X118495238Y-89171429D01*
X118590476Y-89266667D01*
X118638095Y-89361905D01*
X118447619Y-88409524D02*
X118400000Y-88361905D01*
X118352381Y-88266667D01*
X118352381Y-88028571D01*
X118400000Y-87933333D01*
X118447619Y-87885714D01*
X118542857Y-87838095D01*
X118638095Y-87838095D01*
X118780952Y-87885714D01*
X119352381Y-88457143D01*
X119352381Y-87838095D01*
X104552381Y-98686857D02*
X104076190Y-99020191D01*
X104552381Y-99258286D02*
X103552381Y-99258286D01*
X103552381Y-98877333D01*
X103600000Y-98782095D01*
X103647619Y-98734476D01*
X103742857Y-98686857D01*
X103885714Y-98686857D01*
X103980952Y-98734476D01*
X104028571Y-98782095D01*
X104076190Y-98877333D01*
X104076190Y-99258286D01*
X104552381Y-97734476D02*
X104552381Y-98305905D01*
X104552381Y-98020191D02*
X103552381Y-98020191D01*
X103695238Y-98115429D01*
X103790476Y-98210667D01*
X103838095Y-98305905D01*
X103552381Y-97401143D02*
X103552381Y-96782095D01*
X103933333Y-97115429D01*
X103933333Y-96972571D01*
X103980952Y-96877333D01*
X104028571Y-96829714D01*
X104123810Y-96782095D01*
X104361905Y-96782095D01*
X104457143Y-96829714D01*
X104504762Y-96877333D01*
X104552381Y-96972571D01*
X104552381Y-97258286D01*
X104504762Y-97353524D01*
X104457143Y-97401143D01*
X122952381Y-89766857D02*
X122476190Y-90100191D01*
X122952381Y-90338286D02*
X121952381Y-90338286D01*
X121952381Y-89957333D01*
X122000000Y-89862095D01*
X122047619Y-89814476D01*
X122142857Y-89766857D01*
X122285714Y-89766857D01*
X122380952Y-89814476D01*
X122428571Y-89862095D01*
X122476190Y-89957333D01*
X122476190Y-90338286D01*
X122952381Y-88814476D02*
X122952381Y-89385905D01*
X122952381Y-89100191D02*
X121952381Y-89100191D01*
X122095238Y-89195429D01*
X122190476Y-89290667D01*
X122238095Y-89385905D01*
X121952381Y-87909714D02*
X121952381Y-88385905D01*
X122428571Y-88433524D01*
X122380952Y-88385905D01*
X122333333Y-88290667D01*
X122333333Y-88052571D01*
X122380952Y-87957333D01*
X122428571Y-87909714D01*
X122523810Y-87862095D01*
X122761905Y-87862095D01*
X122857143Y-87909714D01*
X122904762Y-87957333D01*
X122952381Y-88052571D01*
X122952381Y-88290667D01*
X122904762Y-88385905D01*
X122857143Y-88433524D01*
X148402095Y-72052381D02*
X148402095Y-72861905D01*
X148449714Y-72957143D01*
X148497333Y-73004762D01*
X148592571Y-73052381D01*
X148783048Y-73052381D01*
X148878286Y-73004762D01*
X148925905Y-72957143D01*
X148973524Y-72861905D01*
X148973524Y-72052381D01*
X149973524Y-73052381D02*
X149402095Y-73052381D01*
X149687809Y-73052381D02*
X149687809Y-72052381D01*
X149592571Y-72195238D01*
X149497333Y-72290476D01*
X149402095Y-72338095D01*
X90452381Y-101833025D02*
X91261905Y-101833025D01*
X91357143Y-101785406D01*
X91404762Y-101737787D01*
X91452381Y-101642549D01*
X91452381Y-101452072D01*
X91404762Y-101356834D01*
X91357143Y-101309215D01*
X91261905Y-101261596D01*
X90452381Y-101261596D01*
X90547619Y-100833025D02*
X90500000Y-100785406D01*
X90452381Y-100690168D01*
X90452381Y-100452072D01*
X90500000Y-100356834D01*
X90547619Y-100309215D01*
X90642857Y-100261596D01*
X90738095Y-100261596D01*
X90880952Y-100309215D01*
X91452381Y-100880644D01*
X91452381Y-100261596D01*
X105488095Y-89952381D02*
X105488095Y-90761905D01*
X105535714Y-90857143D01*
X105583333Y-90904762D01*
X105678571Y-90952381D01*
X105869048Y-90952381D01*
X105964286Y-90904762D01*
X106011905Y-90857143D01*
X106059524Y-90761905D01*
X106059524Y-89952381D01*
X106440476Y-89952381D02*
X107059524Y-89952381D01*
X106726190Y-90333333D01*
X106869048Y-90333333D01*
X106964286Y-90380952D01*
X107011905Y-90428571D01*
X107059524Y-90523810D01*
X107059524Y-90761905D01*
X107011905Y-90857143D01*
X106964286Y-90904762D01*
X106869048Y-90952381D01*
X106583333Y-90952381D01*
X106488095Y-90904762D01*
X106440476Y-90857143D01*
X122396381Y-77977905D02*
X123205905Y-77977905D01*
X123301143Y-77930286D01*
X123348762Y-77882667D01*
X123396381Y-77787429D01*
X123396381Y-77596952D01*
X123348762Y-77501714D01*
X123301143Y-77454095D01*
X123205905Y-77406476D01*
X122396381Y-77406476D01*
X122729714Y-76501714D02*
X123396381Y-76501714D01*
X122348762Y-76739810D02*
X123063048Y-76977905D01*
X123063048Y-76358857D01*
X111088095Y-100052381D02*
X111088095Y-100861905D01*
X111135714Y-100957143D01*
X111183333Y-101004762D01*
X111278571Y-101052381D01*
X111469048Y-101052381D01*
X111564286Y-101004762D01*
X111611905Y-100957143D01*
X111659524Y-100861905D01*
X111659524Y-100052381D01*
X112611905Y-100052381D02*
X112135714Y-100052381D01*
X112088095Y-100528571D01*
X112135714Y-100480952D01*
X112230952Y-100433333D01*
X112469048Y-100433333D01*
X112564286Y-100480952D01*
X112611905Y-100528571D01*
X112659524Y-100623810D01*
X112659524Y-100861905D01*
X112611905Y-100957143D01*
X112564286Y-101004762D01*
X112469048Y-101052381D01*
X112230952Y-101052381D01*
X112135714Y-101004762D01*
X112088095Y-100957143D01*
%LPC*%
D14*
X153228000Y-71482000D03*
X153228000Y-73482000D03*
D15*
X111144000Y-107760000D03*
X109144000Y-107760000D03*
X109144000Y-109792000D03*
X111144000Y-109792000D03*
X103116000Y-98044000D03*
X101116000Y-98044000D03*
D14*
X115832000Y-74184000D03*
X115832000Y-76184000D03*
X110768000Y-92472000D03*
X110768000Y-94472000D03*
D15*
X117848000Y-80264000D03*
X115848000Y-80264000D03*
X117848000Y-85852000D03*
X115848000Y-85852000D03*
D14*
X117864000Y-76184000D03*
X117864000Y-74184000D03*
X127516000Y-77466000D03*
X127516000Y-79466000D03*
D15*
X122500000Y-71500000D03*
X124500000Y-71500000D03*
D16*
X120528000Y-84010980D03*
X120528000Y-86109020D03*
X124084000Y-84010980D03*
X124084000Y-86109020D03*
D17*
X97061600Y-103000000D03*
X101938400Y-103000000D03*
D18*
X98371100Y-64773600D03*
D19*
X98371100Y-62233600D03*
X100911100Y-64773600D03*
X100911100Y-62233600D03*
X103451100Y-64773600D03*
X103451100Y-62233600D03*
X105991100Y-64773600D03*
X105991100Y-62233600D03*
X108531100Y-64773600D03*
X108531100Y-62233600D03*
X111071100Y-64773600D03*
X111071100Y-62233600D03*
X113611100Y-64773600D03*
X113611100Y-62233600D03*
X116151100Y-64773600D03*
X116151100Y-62233600D03*
X118691100Y-64773600D03*
X118691100Y-62233600D03*
X121231100Y-64773600D03*
X121231100Y-62233600D03*
X123771100Y-64773600D03*
X123771100Y-62233600D03*
X126311100Y-64773600D03*
X126311100Y-62233600D03*
X128851100Y-64773600D03*
X128851100Y-62233600D03*
X131391100Y-64773600D03*
X131391100Y-62233600D03*
X133931100Y-64773600D03*
X133931100Y-62233600D03*
X136471100Y-64773600D03*
X136471100Y-62233600D03*
X139011100Y-64773600D03*
X139011100Y-62233600D03*
X141551100Y-64773600D03*
X141551100Y-62233600D03*
X144091100Y-64773600D03*
X144091100Y-62233600D03*
X146631100Y-64773600D03*
X146631100Y-62233600D03*
D20*
X93501100Y-63503600D03*
X151501100Y-63503600D03*
X93501100Y-112503600D03*
X151501100Y-112503600D03*
D21*
X117700000Y-95800000D03*
D22*
X118900000Y-95800000D03*
D21*
X120100000Y-95800000D03*
D23*
X99500000Y-111000000D03*
D24*
X104500000Y-111000000D03*
D25*
X121420000Y-105410000D03*
D26*
X118880000Y-105410000D03*
X116340000Y-105410000D03*
X113800000Y-105410000D03*
D25*
X131580000Y-105410000D03*
D26*
X129040000Y-105410000D03*
X126500000Y-105410000D03*
X123960000Y-105410000D03*
D27*
X100972000Y-69338000D03*
D28*
X100972000Y-71878000D03*
X100972000Y-74418000D03*
X100972000Y-76958000D03*
D21*
X130500000Y-95800000D03*
D22*
X131700000Y-95800000D03*
D21*
X132900000Y-95800000D03*
X127100000Y-92000000D03*
D22*
X128300000Y-92000000D03*
D21*
X129500000Y-92000000D03*
D29*
X140500000Y-71540000D03*
D30*
X140500000Y-69000000D03*
D29*
X105672000Y-79756000D03*
D30*
X105672000Y-82296000D03*
D18*
X138540000Y-89540000D03*
D19*
X136000000Y-89540000D03*
X138540000Y-87000000D03*
X136000000Y-87000000D03*
X138540000Y-84460000D03*
X136000000Y-84460000D03*
X138540000Y-81920000D03*
X136000000Y-81920000D03*
D31*
X94450000Y-104999240D03*
X92550000Y-104999240D03*
X93500000Y-106998220D03*
X96594000Y-92440760D03*
X98494000Y-92440760D03*
X97544000Y-90441780D03*
X98494000Y-85867240D03*
X96594000Y-85867240D03*
X97544000Y-87866220D03*
X107719240Y-97094000D03*
X107719240Y-98994000D03*
X109718220Y-98044000D03*
X114308000Y-98260000D03*
X114308000Y-96360000D03*
X112309020Y-97310000D03*
D32*
X143642000Y-71466000D03*
X145542000Y-71466000D03*
X143642000Y-73498000D03*
X145542000Y-73498000D03*
X143642000Y-69434000D03*
X145542000Y-69434000D03*
X96550000Y-98000000D03*
X98450000Y-98000000D03*
X94450000Y-98000000D03*
X92550000Y-98000000D03*
X98494000Y-94488000D03*
X96594000Y-94488000D03*
X123650000Y-95850000D03*
X121750000Y-95850000D03*
D33*
X128300000Y-94596000D03*
X128300000Y-96496000D03*
X125760000Y-94596000D03*
X125760000Y-96496000D03*
D32*
X108278000Y-79756000D03*
X110178000Y-79756000D03*
D33*
X120528000Y-88174000D03*
X120528000Y-90074000D03*
X105672000Y-98994000D03*
X105672000Y-97094000D03*
X124084000Y-88174000D03*
X124084000Y-90074000D03*
D34*
X113110000Y-70560000D03*
X113110000Y-76760000D03*
X109410000Y-70560000D03*
X109410000Y-76760000D03*
D35*
X147259000Y-69307000D03*
X148529000Y-69307000D03*
X149799000Y-69307000D03*
X151069000Y-69307000D03*
X151069000Y-75657000D03*
X149799000Y-75657000D03*
X148529000Y-75657000D03*
X147259000Y-75657000D03*
D36*
X94800480Y-101949960D03*
X94800480Y-101000000D03*
X94800480Y-100050040D03*
X92199520Y-100050040D03*
X92199520Y-101000000D03*
X92199520Y-101949960D03*
D37*
X108539660Y-94973140D03*
X108539660Y-93472000D03*
X108539660Y-91970860D03*
D38*
X105588180Y-93472000D03*
D10*
G36*
X106862650Y-92271240D02*
X108011950Y-92771620D01*
X108011950Y-94172380D01*
X106862650Y-94672760D01*
X106862650Y-92271240D01*
X106862650Y-92271240D01*
G37*
D39*
X120019000Y-80166000D03*
X120669000Y-80166000D03*
X121319000Y-80166000D03*
X121969000Y-80166000D03*
X122619000Y-80166000D03*
X123269000Y-80166000D03*
X123919000Y-80166000D03*
X124569000Y-80166000D03*
X125219000Y-80166000D03*
X125869000Y-80166000D03*
X125869000Y-74266000D03*
X125219000Y-74266000D03*
X124569000Y-74266000D03*
X123919000Y-74266000D03*
X123269000Y-74266000D03*
X122619000Y-74266000D03*
X121969000Y-74266000D03*
X121319000Y-74266000D03*
X120669000Y-74266000D03*
X120019000Y-74266000D03*
D37*
X107570000Y-100894860D03*
X107570000Y-102396000D03*
X107570000Y-103897140D03*
D38*
X110521480Y-102396000D03*
D10*
G36*
X109247010Y-103596760D02*
X108097710Y-103096380D01*
X108097710Y-101695620D01*
X109247010Y-101195240D01*
X109247010Y-103596760D01*
X109247010Y-103596760D01*
G37*
D40*
X117864000Y-83820000D03*
X117864000Y-82321400D03*
D29*
X104500000Y-104000000D03*
D30*
X104500000Y-101460000D03*
D29*
X101608000Y-94488000D03*
D30*
X101608000Y-91948000D03*
D29*
X138100000Y-111460000D03*
D30*
X138100000Y-114000000D03*
D41*
X98000000Y-114000000D03*
X145000000Y-76000000D03*
X129500000Y-82000000D03*
X116000000Y-72000000D03*
M02*
