G04 #@! TF.FileFunction,Copper,L2,Bot,Signal*
%FSLAX46Y46*%
G04 Gerber Fmt 4.6, Leading zero omitted, Abs format (unit mm)*
G04 Created by KiCad (PCBNEW 4.0.2+e4-6225~38~ubuntu15.04.1-stable) date Tue 25 Oct 2016 21:09:19 ACDT*
%MOMM*%
G01*
G04 APERTURE LIST*
%ADD10C,0.100000*%
%ADD11R,1.727200X1.727200*%
%ADD12O,1.727200X1.727200*%
%ADD13R,2.500000X2.500000*%
%ADD14C,2.500000*%
%ADD15R,1.727200X2.032000*%
%ADD16O,1.727200X2.032000*%
%ADD17R,2.032000X1.727200*%
%ADD18O,2.032000X1.727200*%
%ADD19R,2.032000X2.032000*%
%ADD20O,2.032000X2.032000*%
%ADD21C,1.000760*%
%ADD22C,0.600000*%
%ADD23C,1.000000*%
%ADD24C,0.250000*%
%ADD25C,0.200000*%
G04 APERTURE END LIST*
D10*
D11*
X98371100Y-64773600D03*
D12*
X98371100Y-62233600D03*
X100911100Y-64773600D03*
X100911100Y-62233600D03*
X103451100Y-64773600D03*
X103451100Y-62233600D03*
X105991100Y-64773600D03*
X105991100Y-62233600D03*
X108531100Y-64773600D03*
X108531100Y-62233600D03*
X111071100Y-64773600D03*
X111071100Y-62233600D03*
X113611100Y-64773600D03*
X113611100Y-62233600D03*
X116151100Y-64773600D03*
X116151100Y-62233600D03*
X118691100Y-64773600D03*
X118691100Y-62233600D03*
X121231100Y-64773600D03*
X121231100Y-62233600D03*
X123771100Y-64773600D03*
X123771100Y-62233600D03*
X126311100Y-64773600D03*
X126311100Y-62233600D03*
X128851100Y-64773600D03*
X128851100Y-62233600D03*
X131391100Y-64773600D03*
X131391100Y-62233600D03*
X133931100Y-64773600D03*
X133931100Y-62233600D03*
X136471100Y-64773600D03*
X136471100Y-62233600D03*
X139011100Y-64773600D03*
X139011100Y-62233600D03*
X141551100Y-64773600D03*
X141551100Y-62233600D03*
X144091100Y-64773600D03*
X144091100Y-62233600D03*
X146631100Y-64773600D03*
X146631100Y-62233600D03*
D13*
X99500000Y-111000000D03*
D14*
X104500000Y-111000000D03*
D15*
X121420000Y-105410000D03*
D16*
X118880000Y-105410000D03*
X116340000Y-105410000D03*
X113800000Y-105410000D03*
D15*
X131580000Y-105410000D03*
D16*
X129040000Y-105410000D03*
X126500000Y-105410000D03*
X123960000Y-105410000D03*
D17*
X100972000Y-69338000D03*
D18*
X100972000Y-71878000D03*
X100972000Y-74418000D03*
X100972000Y-76958000D03*
D19*
X140500000Y-71540000D03*
D20*
X140500000Y-69000000D03*
D19*
X105672000Y-79756000D03*
D20*
X105672000Y-82296000D03*
D11*
X138540000Y-89540000D03*
D12*
X136000000Y-89540000D03*
X138540000Y-87000000D03*
X136000000Y-87000000D03*
X138540000Y-84460000D03*
X136000000Y-84460000D03*
X138540000Y-81920000D03*
X136000000Y-81920000D03*
D21*
X117864000Y-83820000D03*
X117864000Y-82321400D03*
D19*
X104500000Y-104000000D03*
D20*
X104500000Y-101460000D03*
D19*
X101608000Y-94488000D03*
D20*
X101608000Y-91948000D03*
D19*
X138100000Y-111460000D03*
D20*
X138100000Y-114000000D03*
D22*
X152000000Y-71400000D03*
X147259000Y-70459000D03*
X123740851Y-72791607D03*
X125700000Y-97400000D03*
X108650000Y-100400000D03*
X152200000Y-74526000D03*
X128500000Y-79500000D03*
X116750000Y-74250000D03*
X110500000Y-70500000D03*
X110500000Y-76750000D03*
X111000000Y-79750000D03*
X115750000Y-83250000D03*
X122350000Y-89950000D03*
X109650000Y-107000000D03*
X115250000Y-96450000D03*
X96500000Y-84750000D03*
X95500000Y-98000000D03*
X111750000Y-94500000D03*
X101000000Y-97000000D03*
X111150000Y-106750000D03*
X114500000Y-76760000D03*
X118700000Y-77600000D03*
X131750000Y-80000000D03*
X135500000Y-79500000D03*
X107708101Y-85728445D03*
X104300000Y-85704026D03*
X101300000Y-85704026D03*
X99249990Y-85704026D03*
X116364558Y-92231747D03*
X118604292Y-91176626D03*
X104300000Y-84400000D03*
X106900000Y-84400000D03*
X130813203Y-73960171D03*
X130500000Y-88250000D03*
X127188259Y-86137088D03*
X125000000Y-63500000D03*
X125500000Y-68000000D03*
X129500000Y-71750000D03*
X144900000Y-69350000D03*
X148100000Y-65500000D03*
X149650000Y-68475010D03*
X125500000Y-92000000D03*
X132500000Y-86600000D03*
X112900000Y-78600000D03*
X116097287Y-78816941D03*
X93750000Y-102250000D03*
X93750000Y-105000000D03*
D23*
X147259000Y-70459000D02*
X151059000Y-70459000D01*
X151059000Y-70459000D02*
X152000000Y-71400000D01*
X131148759Y-107747649D02*
X131258351Y-107747649D01*
X131258351Y-107747649D02*
X131580000Y-107426000D01*
X131580000Y-107426000D02*
X131580000Y-105410000D01*
X131148759Y-107747649D02*
X131573023Y-107747649D01*
X112147649Y-107747649D02*
X131148759Y-107747649D01*
X111150000Y-106750000D02*
X112147649Y-107747649D01*
D24*
X115340000Y-77600000D02*
X114500000Y-76760000D01*
X118700000Y-77600000D02*
X115340000Y-77600000D01*
D23*
X131750000Y-80000000D02*
X131750000Y-79966902D01*
X131750000Y-79966902D02*
X132216902Y-79500000D01*
X132216902Y-79500000D02*
X135500000Y-79500000D01*
X105672000Y-82296000D02*
X106000000Y-82624000D01*
D24*
X107683682Y-85704026D02*
X107708101Y-85728445D01*
X104300000Y-85704026D02*
X107683682Y-85704026D01*
X99249990Y-85704026D02*
X101300000Y-85704026D01*
X116664557Y-91931748D02*
X116364558Y-92231747D01*
X117419679Y-91176626D02*
X116664557Y-91931748D01*
X118604292Y-91176626D02*
X117419679Y-91176626D01*
X106900000Y-84400000D02*
X104300000Y-84400000D01*
X130513204Y-74260170D02*
X130813203Y-73960171D01*
X130500000Y-74273374D02*
X130513204Y-74260170D01*
X130500000Y-88250000D02*
X130500000Y-74273374D01*
X127488258Y-85837089D02*
X127188259Y-86137088D01*
X129500000Y-83825347D02*
X127488258Y-85837089D01*
X129500000Y-71750000D02*
X129500000Y-83825347D01*
X125500000Y-68000000D02*
X125000000Y-67500000D01*
X125000000Y-67500000D02*
X125000000Y-65221630D01*
X125000000Y-65221630D02*
X125000000Y-63500000D01*
X144900000Y-69350000D02*
X144900000Y-67550000D01*
X144900000Y-67550000D02*
X143312201Y-65962201D01*
X143312201Y-65962201D02*
X132579701Y-65962201D01*
X132579701Y-65962201D02*
X131391100Y-64773600D01*
X148100000Y-65500000D02*
X148100000Y-66925010D01*
X148100000Y-66925010D02*
X149650000Y-68475010D01*
X132200001Y-88299999D02*
X128500000Y-92000000D01*
X128500000Y-92000000D02*
X125500000Y-92000000D01*
X132500000Y-86600000D02*
X132200001Y-86899999D01*
X132200001Y-86899999D02*
X132200001Y-88299999D01*
X116097287Y-78816941D02*
X113116941Y-78816941D01*
X113116941Y-78816941D02*
X112900000Y-78600000D01*
X93750000Y-105000000D02*
X93750000Y-102250000D01*
D25*
G36*
X149676671Y-60767984D02*
X148768673Y-61674399D01*
X148276662Y-62859294D01*
X148275542Y-64142278D01*
X148765484Y-65328029D01*
X149671899Y-66236027D01*
X150856794Y-66728038D01*
X152139778Y-66729158D01*
X153325529Y-66239216D01*
X154233527Y-65332801D01*
X154650000Y-64329822D01*
X154650000Y-111679395D01*
X154236716Y-110679171D01*
X153330301Y-109771173D01*
X152145406Y-109279162D01*
X150862422Y-109278042D01*
X149676671Y-109767984D01*
X148768673Y-110674399D01*
X148276662Y-111859294D01*
X148275542Y-113142278D01*
X148765484Y-114328029D01*
X149671899Y-115236027D01*
X150668857Y-115650000D01*
X94331355Y-115650000D01*
X95325529Y-115239216D01*
X96233527Y-114332801D01*
X96371717Y-114000000D01*
X136707238Y-114000000D01*
X136811219Y-114522746D01*
X137107330Y-114965908D01*
X137550492Y-115262019D01*
X138073238Y-115366000D01*
X138126762Y-115366000D01*
X138649508Y-115262019D01*
X139092670Y-114965908D01*
X139388781Y-114522746D01*
X139492762Y-114000000D01*
X139388781Y-113477254D01*
X139092670Y-113034092D01*
X138791499Y-112832856D01*
X139116000Y-112832856D01*
X139245702Y-112808451D01*
X139364825Y-112731797D01*
X139444741Y-112614837D01*
X139472856Y-112476000D01*
X139472856Y-110444000D01*
X139448451Y-110314298D01*
X139371797Y-110195175D01*
X139254837Y-110115259D01*
X139116000Y-110087144D01*
X137084000Y-110087144D01*
X136954298Y-110111549D01*
X136835175Y-110188203D01*
X136755259Y-110305163D01*
X136727144Y-110444000D01*
X136727144Y-112476000D01*
X136751549Y-112605702D01*
X136828203Y-112724825D01*
X136945163Y-112804741D01*
X137084000Y-112832856D01*
X137408501Y-112832856D01*
X137107330Y-113034092D01*
X136811219Y-113477254D01*
X136707238Y-114000000D01*
X96371717Y-114000000D01*
X96725538Y-113147906D01*
X96726658Y-111864922D01*
X96236716Y-110679171D01*
X95330301Y-109771173D01*
X95279311Y-109750000D01*
X97893144Y-109750000D01*
X97893144Y-112250000D01*
X97917549Y-112379702D01*
X97994203Y-112498825D01*
X98111163Y-112578741D01*
X98250000Y-112606856D01*
X100750000Y-112606856D01*
X100879702Y-112582451D01*
X100998825Y-112505797D01*
X101078741Y-112388837D01*
X101106856Y-112250000D01*
X101106856Y-112192565D01*
X103519567Y-112192565D01*
X103666534Y-112402363D01*
X104266639Y-112614568D01*
X104902271Y-112580970D01*
X105333466Y-112402363D01*
X105480433Y-112192565D01*
X104500000Y-111212132D01*
X103519567Y-112192565D01*
X101106856Y-112192565D01*
X101106856Y-110766639D01*
X102885432Y-110766639D01*
X102919030Y-111402271D01*
X103097637Y-111833466D01*
X103307435Y-111980433D01*
X104287868Y-111000000D01*
X104712132Y-111000000D01*
X105692565Y-111980433D01*
X105902363Y-111833466D01*
X106114568Y-111233361D01*
X106080970Y-110597729D01*
X105902363Y-110166534D01*
X105692565Y-110019567D01*
X104712132Y-111000000D01*
X104287868Y-111000000D01*
X103307435Y-110019567D01*
X103097637Y-110166534D01*
X102885432Y-110766639D01*
X101106856Y-110766639D01*
X101106856Y-109807435D01*
X103519567Y-109807435D01*
X104500000Y-110787868D01*
X105480433Y-109807435D01*
X105333466Y-109597637D01*
X104733361Y-109385432D01*
X104097729Y-109419030D01*
X103666534Y-109597637D01*
X103519567Y-109807435D01*
X101106856Y-109807435D01*
X101106856Y-109750000D01*
X101082451Y-109620298D01*
X101005797Y-109501175D01*
X100888837Y-109421259D01*
X100750000Y-109393144D01*
X98250000Y-109393144D01*
X98120298Y-109417549D01*
X98001175Y-109494203D01*
X97921259Y-109611163D01*
X97893144Y-109750000D01*
X95279311Y-109750000D01*
X94145406Y-109279162D01*
X92862422Y-109278042D01*
X91676671Y-109767984D01*
X90768673Y-110674399D01*
X90350000Y-111682676D01*
X90350000Y-106750000D01*
X110300000Y-106750000D01*
X110364702Y-107075281D01*
X110548959Y-107351041D01*
X111546608Y-108348690D01*
X111822368Y-108532947D01*
X112147649Y-108597650D01*
X112147654Y-108597649D01*
X131573023Y-108597649D01*
X131898304Y-108532947D01*
X132174064Y-108348690D01*
X132358321Y-108072930D01*
X132423023Y-107747649D01*
X132394522Y-107604362D01*
X132430000Y-107426000D01*
X132430000Y-106782856D01*
X132443600Y-106782856D01*
X132573302Y-106758451D01*
X132692425Y-106681797D01*
X132772341Y-106564837D01*
X132800456Y-106426000D01*
X132800456Y-104394000D01*
X132776051Y-104264298D01*
X132699397Y-104145175D01*
X132582437Y-104065259D01*
X132443600Y-104037144D01*
X130716400Y-104037144D01*
X130586698Y-104061549D01*
X130467575Y-104138203D01*
X130387659Y-104255163D01*
X130359544Y-104394000D01*
X130359544Y-106426000D01*
X130383949Y-106555702D01*
X130460603Y-106674825D01*
X130577563Y-106754741D01*
X130716400Y-106782856D01*
X130730000Y-106782856D01*
X130730000Y-106897649D01*
X112499731Y-106897649D01*
X111751041Y-106148959D01*
X111475281Y-105964702D01*
X111150000Y-105900000D01*
X110824719Y-105964702D01*
X110548959Y-106148959D01*
X110364702Y-106424719D01*
X110300000Y-106750000D01*
X90350000Y-106750000D01*
X90350000Y-105749902D01*
X112600820Y-105749902D01*
X112763856Y-106194536D01*
X113084636Y-106542933D01*
X113463454Y-106728402D01*
X113650000Y-106678465D01*
X113650000Y-105560000D01*
X113950000Y-105560000D01*
X113950000Y-106678465D01*
X114136546Y-106728402D01*
X114515364Y-106542933D01*
X114836144Y-106194536D01*
X114999180Y-105749902D01*
X115140820Y-105749902D01*
X115303856Y-106194536D01*
X115624636Y-106542933D01*
X116003454Y-106728402D01*
X116190000Y-106678465D01*
X116190000Y-105560000D01*
X116490000Y-105560000D01*
X116490000Y-106678465D01*
X116676546Y-106728402D01*
X117055364Y-106542933D01*
X117376144Y-106194536D01*
X117539180Y-105749902D01*
X117466248Y-105560000D01*
X116490000Y-105560000D01*
X116190000Y-105560000D01*
X115213752Y-105560000D01*
X115140820Y-105749902D01*
X114999180Y-105749902D01*
X114926248Y-105560000D01*
X113950000Y-105560000D01*
X113650000Y-105560000D01*
X112673752Y-105560000D01*
X112600820Y-105749902D01*
X90350000Y-105749902D01*
X90350000Y-102378726D01*
X93099888Y-102378726D01*
X93198636Y-102617714D01*
X93275000Y-102694212D01*
X93275000Y-104555734D01*
X93199278Y-104631324D01*
X93100113Y-104870140D01*
X93099888Y-105128726D01*
X93198636Y-105367714D01*
X93381324Y-105550722D01*
X93620140Y-105649887D01*
X93878726Y-105650112D01*
X94117714Y-105551364D01*
X94300722Y-105368676D01*
X94399887Y-105129860D01*
X94400112Y-104871274D01*
X94301364Y-104632286D01*
X94225000Y-104555788D01*
X94225000Y-102694266D01*
X94300722Y-102618676D01*
X94399887Y-102379860D01*
X94400112Y-102121274D01*
X94301364Y-101882286D01*
X94118676Y-101699278D01*
X93879860Y-101600113D01*
X93621274Y-101599888D01*
X93382286Y-101698636D01*
X93199278Y-101881324D01*
X93100113Y-102120140D01*
X93099888Y-102378726D01*
X90350000Y-102378726D01*
X90350000Y-101460000D01*
X103107238Y-101460000D01*
X103211219Y-101982746D01*
X103507330Y-102425908D01*
X103808501Y-102627144D01*
X103484000Y-102627144D01*
X103354298Y-102651549D01*
X103235175Y-102728203D01*
X103155259Y-102845163D01*
X103127144Y-102984000D01*
X103127144Y-105016000D01*
X103151549Y-105145702D01*
X103228203Y-105264825D01*
X103345163Y-105344741D01*
X103484000Y-105372856D01*
X105516000Y-105372856D01*
X105645702Y-105348451D01*
X105764825Y-105271797D01*
X105844741Y-105154837D01*
X105861900Y-105070098D01*
X112600820Y-105070098D01*
X112673752Y-105260000D01*
X113650000Y-105260000D01*
X113650000Y-104141535D01*
X113950000Y-104141535D01*
X113950000Y-105260000D01*
X114926248Y-105260000D01*
X114999180Y-105070098D01*
X115140820Y-105070098D01*
X115213752Y-105260000D01*
X116190000Y-105260000D01*
X116190000Y-104141535D01*
X116490000Y-104141535D01*
X116490000Y-105260000D01*
X117466248Y-105260000D01*
X117477447Y-105230838D01*
X117666400Y-105230838D01*
X117666400Y-105589162D01*
X117758780Y-106053587D01*
X118021855Y-106447307D01*
X118415575Y-106710382D01*
X118880000Y-106802762D01*
X119344425Y-106710382D01*
X119738145Y-106447307D01*
X120001220Y-106053587D01*
X120093600Y-105589162D01*
X120093600Y-105230838D01*
X120001220Y-104766413D01*
X119752382Y-104394000D01*
X120199544Y-104394000D01*
X120199544Y-106426000D01*
X120223949Y-106555702D01*
X120300603Y-106674825D01*
X120417563Y-106754741D01*
X120556400Y-106782856D01*
X122283600Y-106782856D01*
X122413302Y-106758451D01*
X122532425Y-106681797D01*
X122612341Y-106564837D01*
X122640456Y-106426000D01*
X122640456Y-105749902D01*
X122760820Y-105749902D01*
X122923856Y-106194536D01*
X123244636Y-106542933D01*
X123623454Y-106728402D01*
X123810000Y-106678465D01*
X123810000Y-105560000D01*
X124110000Y-105560000D01*
X124110000Y-106678465D01*
X124296546Y-106728402D01*
X124675364Y-106542933D01*
X124996144Y-106194536D01*
X125159180Y-105749902D01*
X125086248Y-105560000D01*
X124110000Y-105560000D01*
X123810000Y-105560000D01*
X122833752Y-105560000D01*
X122760820Y-105749902D01*
X122640456Y-105749902D01*
X122640456Y-105070098D01*
X122760820Y-105070098D01*
X122833752Y-105260000D01*
X123810000Y-105260000D01*
X123810000Y-104141535D01*
X124110000Y-104141535D01*
X124110000Y-105260000D01*
X125086248Y-105260000D01*
X125097447Y-105230838D01*
X125286400Y-105230838D01*
X125286400Y-105589162D01*
X125378780Y-106053587D01*
X125641855Y-106447307D01*
X126035575Y-106710382D01*
X126500000Y-106802762D01*
X126964425Y-106710382D01*
X127358145Y-106447307D01*
X127621220Y-106053587D01*
X127713600Y-105589162D01*
X127713600Y-105230838D01*
X127826400Y-105230838D01*
X127826400Y-105589162D01*
X127918780Y-106053587D01*
X128181855Y-106447307D01*
X128575575Y-106710382D01*
X129040000Y-106802762D01*
X129504425Y-106710382D01*
X129898145Y-106447307D01*
X130161220Y-106053587D01*
X130253600Y-105589162D01*
X130253600Y-105230838D01*
X130161220Y-104766413D01*
X129898145Y-104372693D01*
X129504425Y-104109618D01*
X129040000Y-104017238D01*
X128575575Y-104109618D01*
X128181855Y-104372693D01*
X127918780Y-104766413D01*
X127826400Y-105230838D01*
X127713600Y-105230838D01*
X127621220Y-104766413D01*
X127358145Y-104372693D01*
X126964425Y-104109618D01*
X126500000Y-104017238D01*
X126035575Y-104109618D01*
X125641855Y-104372693D01*
X125378780Y-104766413D01*
X125286400Y-105230838D01*
X125097447Y-105230838D01*
X125159180Y-105070098D01*
X124996144Y-104625464D01*
X124675364Y-104277067D01*
X124296546Y-104091598D01*
X124110000Y-104141535D01*
X123810000Y-104141535D01*
X123623454Y-104091598D01*
X123244636Y-104277067D01*
X122923856Y-104625464D01*
X122760820Y-105070098D01*
X122640456Y-105070098D01*
X122640456Y-104394000D01*
X122616051Y-104264298D01*
X122539397Y-104145175D01*
X122422437Y-104065259D01*
X122283600Y-104037144D01*
X120556400Y-104037144D01*
X120426698Y-104061549D01*
X120307575Y-104138203D01*
X120227659Y-104255163D01*
X120199544Y-104394000D01*
X119752382Y-104394000D01*
X119738145Y-104372693D01*
X119344425Y-104109618D01*
X118880000Y-104017238D01*
X118415575Y-104109618D01*
X118021855Y-104372693D01*
X117758780Y-104766413D01*
X117666400Y-105230838D01*
X117477447Y-105230838D01*
X117539180Y-105070098D01*
X117376144Y-104625464D01*
X117055364Y-104277067D01*
X116676546Y-104091598D01*
X116490000Y-104141535D01*
X116190000Y-104141535D01*
X116003454Y-104091598D01*
X115624636Y-104277067D01*
X115303856Y-104625464D01*
X115140820Y-105070098D01*
X114999180Y-105070098D01*
X114836144Y-104625464D01*
X114515364Y-104277067D01*
X114136546Y-104091598D01*
X113950000Y-104141535D01*
X113650000Y-104141535D01*
X113463454Y-104091598D01*
X113084636Y-104277067D01*
X112763856Y-104625464D01*
X112600820Y-105070098D01*
X105861900Y-105070098D01*
X105872856Y-105016000D01*
X105872856Y-102984000D01*
X105848451Y-102854298D01*
X105771797Y-102735175D01*
X105654837Y-102655259D01*
X105516000Y-102627144D01*
X105191499Y-102627144D01*
X105492670Y-102425908D01*
X105788781Y-101982746D01*
X105892762Y-101460000D01*
X105788781Y-100937254D01*
X105492670Y-100494092D01*
X105049508Y-100197981D01*
X104526762Y-100094000D01*
X104473238Y-100094000D01*
X103950492Y-100197981D01*
X103507330Y-100494092D01*
X103211219Y-100937254D01*
X103107238Y-101460000D01*
X90350000Y-101460000D01*
X90350000Y-97559095D01*
X90354388Y-97537034D01*
X90891422Y-97000000D01*
X133650000Y-97000000D01*
X133650000Y-112000000D01*
X133752763Y-112516623D01*
X134045406Y-112954594D01*
X134483377Y-113247237D01*
X135000000Y-113350000D01*
X135516623Y-113247237D01*
X135954594Y-112954594D01*
X136247237Y-112516623D01*
X136350000Y-112000000D01*
X136350000Y-97000000D01*
X136247237Y-96483377D01*
X135954594Y-96045406D01*
X135516623Y-95752763D01*
X135000000Y-95650000D01*
X134483377Y-95752763D01*
X134045406Y-96045406D01*
X133752763Y-96483377D01*
X133650000Y-97000000D01*
X90891422Y-97000000D01*
X91037034Y-96854388D01*
X91059095Y-96850000D01*
X94500000Y-96850000D01*
X94538906Y-96842121D01*
X94570711Y-96820711D01*
X94859268Y-96532154D01*
X94863668Y-96529214D01*
X94863671Y-96529213D01*
X95029211Y-96363673D01*
X95032155Y-96359267D01*
X95320711Y-96070711D01*
X95342650Y-96037629D01*
X95350000Y-96000000D01*
X95350000Y-91948000D01*
X100215238Y-91948000D01*
X100319219Y-92470746D01*
X100615330Y-92913908D01*
X100916501Y-93115144D01*
X100592000Y-93115144D01*
X100462298Y-93139549D01*
X100343175Y-93216203D01*
X100263259Y-93333163D01*
X100235144Y-93472000D01*
X100235144Y-95504000D01*
X100259549Y-95633702D01*
X100336203Y-95752825D01*
X100453163Y-95832741D01*
X100592000Y-95860856D01*
X102624000Y-95860856D01*
X102753702Y-95836451D01*
X102872825Y-95759797D01*
X102952741Y-95642837D01*
X102980856Y-95504000D01*
X102980856Y-93472000D01*
X102956451Y-93342298D01*
X102879797Y-93223175D01*
X102762837Y-93143259D01*
X102624000Y-93115144D01*
X102299499Y-93115144D01*
X102600670Y-92913908D01*
X102896781Y-92470746D01*
X102918715Y-92360473D01*
X115714446Y-92360473D01*
X115813194Y-92599461D01*
X115995882Y-92782469D01*
X116234698Y-92881634D01*
X116493284Y-92881859D01*
X116732272Y-92783111D01*
X116915280Y-92600423D01*
X117014445Y-92361607D01*
X117014539Y-92253518D01*
X117139331Y-92128726D01*
X124849888Y-92128726D01*
X124948636Y-92367714D01*
X125131324Y-92550722D01*
X125370140Y-92649887D01*
X125628726Y-92650112D01*
X125867714Y-92551364D01*
X125944212Y-92475000D01*
X128500000Y-92475000D01*
X128681775Y-92438843D01*
X128835876Y-92335876D01*
X131631751Y-89540000D01*
X134762624Y-89540000D01*
X134855004Y-90004425D01*
X135118079Y-90398145D01*
X135511799Y-90661220D01*
X135976224Y-90753600D01*
X136023776Y-90753600D01*
X136488201Y-90661220D01*
X136881921Y-90398145D01*
X137144996Y-90004425D01*
X137190134Y-89777500D01*
X137326400Y-89777500D01*
X137326400Y-90473220D01*
X137379685Y-90601859D01*
X137478141Y-90700316D01*
X137606781Y-90753600D01*
X138302500Y-90753600D01*
X138390000Y-90666100D01*
X138390000Y-89690000D01*
X138690000Y-89690000D01*
X138690000Y-90666100D01*
X138777500Y-90753600D01*
X139473219Y-90753600D01*
X139601859Y-90700316D01*
X139700315Y-90601859D01*
X139753600Y-90473220D01*
X139753600Y-89777500D01*
X139666100Y-89690000D01*
X138690000Y-89690000D01*
X138390000Y-89690000D01*
X137413900Y-89690000D01*
X137326400Y-89777500D01*
X137190134Y-89777500D01*
X137237376Y-89540000D01*
X137144996Y-89075575D01*
X136881921Y-88681855D01*
X136769564Y-88606780D01*
X137326400Y-88606780D01*
X137326400Y-89302500D01*
X137413900Y-89390000D01*
X138390000Y-89390000D01*
X138390000Y-88413900D01*
X138690000Y-88413900D01*
X138690000Y-89390000D01*
X139666100Y-89390000D01*
X139753600Y-89302500D01*
X139753600Y-88606780D01*
X139700315Y-88478141D01*
X139601859Y-88379684D01*
X139473219Y-88326400D01*
X138777500Y-88326400D01*
X138690000Y-88413900D01*
X138390000Y-88413900D01*
X138302500Y-88326400D01*
X137606781Y-88326400D01*
X137478141Y-88379684D01*
X137379685Y-88478141D01*
X137326400Y-88606780D01*
X136769564Y-88606780D01*
X136488201Y-88418780D01*
X136023776Y-88326400D01*
X135976224Y-88326400D01*
X135511799Y-88418780D01*
X135118079Y-88681855D01*
X134855004Y-89075575D01*
X134762624Y-89540000D01*
X131631751Y-89540000D01*
X132535874Y-88635877D01*
X132535877Y-88635875D01*
X132638844Y-88481774D01*
X132659151Y-88379684D01*
X132675002Y-88299999D01*
X132675001Y-88299994D01*
X132675001Y-87230992D01*
X132867714Y-87151364D01*
X133019343Y-87000000D01*
X134762624Y-87000000D01*
X134855004Y-87464425D01*
X135118079Y-87858145D01*
X135511799Y-88121220D01*
X135976224Y-88213600D01*
X136023776Y-88213600D01*
X136488201Y-88121220D01*
X136881921Y-87858145D01*
X137144996Y-87464425D01*
X137170432Y-87336546D01*
X137373998Y-87336546D01*
X137477526Y-87586522D01*
X137782854Y-87948467D01*
X138203451Y-88166016D01*
X138390000Y-88116808D01*
X138390000Y-87150000D01*
X138690000Y-87150000D01*
X138690000Y-88116808D01*
X138876549Y-88166016D01*
X139297146Y-87948467D01*
X139602474Y-87586522D01*
X139706002Y-87336546D01*
X139656065Y-87150000D01*
X138690000Y-87150000D01*
X138390000Y-87150000D01*
X137423935Y-87150000D01*
X137373998Y-87336546D01*
X137170432Y-87336546D01*
X137237376Y-87000000D01*
X137170433Y-86663454D01*
X137373998Y-86663454D01*
X137423935Y-86850000D01*
X138390000Y-86850000D01*
X138390000Y-85883192D01*
X138690000Y-85883192D01*
X138690000Y-86850000D01*
X139656065Y-86850000D01*
X139706002Y-86663454D01*
X139602474Y-86413478D01*
X139297146Y-86051533D01*
X138876549Y-85833984D01*
X138690000Y-85883192D01*
X138390000Y-85883192D01*
X138203451Y-85833984D01*
X137782854Y-86051533D01*
X137477526Y-86413478D01*
X137373998Y-86663454D01*
X137170433Y-86663454D01*
X137144996Y-86535575D01*
X136881921Y-86141855D01*
X136488201Y-85878780D01*
X136023776Y-85786400D01*
X135976224Y-85786400D01*
X135511799Y-85878780D01*
X135118079Y-86141855D01*
X134855004Y-86535575D01*
X134762624Y-87000000D01*
X133019343Y-87000000D01*
X133050722Y-86968676D01*
X133149887Y-86729860D01*
X133150112Y-86471274D01*
X133051364Y-86232286D01*
X132868676Y-86049278D01*
X132629860Y-85950113D01*
X132371274Y-85949888D01*
X132132286Y-86048636D01*
X131949278Y-86231324D01*
X131850113Y-86470140D01*
X131850013Y-86585243D01*
X131761158Y-86718224D01*
X131725001Y-86899999D01*
X131725001Y-88103248D01*
X128303248Y-91525000D01*
X125944266Y-91525000D01*
X125868676Y-91449278D01*
X125629860Y-91350113D01*
X125371274Y-91349888D01*
X125132286Y-91448636D01*
X124949278Y-91631324D01*
X124850113Y-91870140D01*
X124849888Y-92128726D01*
X117139331Y-92128726D01*
X117616431Y-91651626D01*
X118160026Y-91651626D01*
X118235616Y-91727348D01*
X118474432Y-91826513D01*
X118733018Y-91826738D01*
X118972006Y-91727990D01*
X119155014Y-91545302D01*
X119254179Y-91306486D01*
X119254404Y-91047900D01*
X119155656Y-90808912D01*
X118972968Y-90625904D01*
X118734152Y-90526739D01*
X118475566Y-90526514D01*
X118236578Y-90625262D01*
X118160080Y-90701626D01*
X117419684Y-90701626D01*
X117419679Y-90701625D01*
X117268063Y-90731784D01*
X117237904Y-90737783D01*
X117132892Y-90807950D01*
X117083803Y-90840750D01*
X116342825Y-91581728D01*
X116235832Y-91581635D01*
X115996844Y-91680383D01*
X115813836Y-91863071D01*
X115714671Y-92101887D01*
X115714446Y-92360473D01*
X102918715Y-92360473D01*
X103000762Y-91948000D01*
X102896781Y-91425254D01*
X102600670Y-90982092D01*
X102157508Y-90685981D01*
X101634762Y-90582000D01*
X101581238Y-90582000D01*
X101058492Y-90685981D01*
X100615330Y-90982092D01*
X100319219Y-91425254D01*
X100215238Y-91948000D01*
X95350000Y-91948000D01*
X95350000Y-88378726D01*
X129849888Y-88378726D01*
X129948636Y-88617714D01*
X130131324Y-88800722D01*
X130370140Y-88899887D01*
X130628726Y-88900112D01*
X130867714Y-88801364D01*
X131050722Y-88618676D01*
X131149887Y-88379860D01*
X131150112Y-88121274D01*
X131051364Y-87882286D01*
X130975000Y-87805788D01*
X130975000Y-84460000D01*
X134762624Y-84460000D01*
X134855004Y-84924425D01*
X135118079Y-85318145D01*
X135511799Y-85581220D01*
X135976224Y-85673600D01*
X136023776Y-85673600D01*
X136488201Y-85581220D01*
X136881921Y-85318145D01*
X137144996Y-84924425D01*
X137237376Y-84460000D01*
X137302624Y-84460000D01*
X137395004Y-84924425D01*
X137658079Y-85318145D01*
X138051799Y-85581220D01*
X138516224Y-85673600D01*
X138563776Y-85673600D01*
X139028201Y-85581220D01*
X139421921Y-85318145D01*
X139684996Y-84924425D01*
X139777376Y-84460000D01*
X139684996Y-83995575D01*
X139421921Y-83601855D01*
X139028201Y-83338780D01*
X138563776Y-83246400D01*
X138516224Y-83246400D01*
X138051799Y-83338780D01*
X137658079Y-83601855D01*
X137395004Y-83995575D01*
X137302624Y-84460000D01*
X137237376Y-84460000D01*
X137144996Y-83995575D01*
X136881921Y-83601855D01*
X136488201Y-83338780D01*
X136023776Y-83246400D01*
X135976224Y-83246400D01*
X135511799Y-83338780D01*
X135118079Y-83601855D01*
X134855004Y-83995575D01*
X134762624Y-84460000D01*
X130975000Y-84460000D01*
X130975000Y-81920000D01*
X134762624Y-81920000D01*
X134855004Y-82384425D01*
X135118079Y-82778145D01*
X135511799Y-83041220D01*
X135976224Y-83133600D01*
X136023776Y-83133600D01*
X136488201Y-83041220D01*
X136881921Y-82778145D01*
X137144996Y-82384425D01*
X137237376Y-81920000D01*
X137302624Y-81920000D01*
X137395004Y-82384425D01*
X137658079Y-82778145D01*
X138051799Y-83041220D01*
X138516224Y-83133600D01*
X138563776Y-83133600D01*
X139028201Y-83041220D01*
X139421921Y-82778145D01*
X139684996Y-82384425D01*
X139777376Y-81920000D01*
X139684996Y-81455575D01*
X139421921Y-81061855D01*
X139028201Y-80798780D01*
X138563776Y-80706400D01*
X138516224Y-80706400D01*
X138051799Y-80798780D01*
X137658079Y-81061855D01*
X137395004Y-81455575D01*
X137302624Y-81920000D01*
X137237376Y-81920000D01*
X137144996Y-81455575D01*
X136881921Y-81061855D01*
X136488201Y-80798780D01*
X136023776Y-80706400D01*
X135976224Y-80706400D01*
X135511799Y-80798780D01*
X135118079Y-81061855D01*
X134855004Y-81455575D01*
X134762624Y-81920000D01*
X130975000Y-81920000D01*
X130975000Y-80340693D01*
X131148959Y-80601041D01*
X131424719Y-80785298D01*
X131750000Y-80850000D01*
X132075281Y-80785298D01*
X132351041Y-80601041D01*
X132417690Y-80501294D01*
X132568984Y-80350000D01*
X135500000Y-80350000D01*
X135825281Y-80285298D01*
X136101041Y-80101041D01*
X136285298Y-79825281D01*
X136350000Y-79500000D01*
X136285298Y-79174719D01*
X136101041Y-78898959D01*
X135825281Y-78714702D01*
X135500000Y-78650000D01*
X132216902Y-78650000D01*
X131891621Y-78714702D01*
X131615861Y-78898959D01*
X131148959Y-79365861D01*
X130975000Y-79626209D01*
X130975000Y-74596618D01*
X131180917Y-74511535D01*
X131363925Y-74328847D01*
X131463090Y-74090031D01*
X131463315Y-73831445D01*
X131364567Y-73592457D01*
X131181879Y-73409449D01*
X130943063Y-73310284D01*
X130684477Y-73310059D01*
X130445489Y-73408807D01*
X130262481Y-73591495D01*
X130163316Y-73830311D01*
X130163222Y-73938849D01*
X130061157Y-74091599D01*
X130025000Y-74273374D01*
X130025000Y-87805734D01*
X129949278Y-87881324D01*
X129850113Y-88120140D01*
X129849888Y-88378726D01*
X95350000Y-88378726D01*
X95350000Y-85832752D01*
X98599878Y-85832752D01*
X98698626Y-86071740D01*
X98881314Y-86254748D01*
X99120130Y-86353913D01*
X99378716Y-86354138D01*
X99617704Y-86255390D01*
X99694202Y-86179026D01*
X100855734Y-86179026D01*
X100931324Y-86254748D01*
X101170140Y-86353913D01*
X101428726Y-86354138D01*
X101667714Y-86255390D01*
X101850722Y-86072702D01*
X101949887Y-85833886D01*
X101949887Y-85832752D01*
X103649888Y-85832752D01*
X103748636Y-86071740D01*
X103931324Y-86254748D01*
X104170140Y-86353913D01*
X104428726Y-86354138D01*
X104667714Y-86255390D01*
X104744212Y-86179026D01*
X107239459Y-86179026D01*
X107339425Y-86279167D01*
X107578241Y-86378332D01*
X107836827Y-86378557D01*
X108075815Y-86279809D01*
X108089834Y-86265814D01*
X126538147Y-86265814D01*
X126636895Y-86504802D01*
X126819583Y-86687810D01*
X127058399Y-86786975D01*
X127316985Y-86787200D01*
X127555973Y-86688452D01*
X127738981Y-86505764D01*
X127838146Y-86266948D01*
X127838240Y-86158859D01*
X129835876Y-84161223D01*
X129900755Y-84064124D01*
X129938843Y-84007122D01*
X129955178Y-83925000D01*
X129975001Y-83825347D01*
X129975000Y-83825342D01*
X129975000Y-72194266D01*
X130050722Y-72118676D01*
X130149887Y-71879860D01*
X130150112Y-71621274D01*
X130051364Y-71382286D01*
X129868676Y-71199278D01*
X129629860Y-71100113D01*
X129371274Y-71099888D01*
X129132286Y-71198636D01*
X128949278Y-71381324D01*
X128850113Y-71620140D01*
X128849888Y-71878726D01*
X128948636Y-72117714D01*
X129025000Y-72194212D01*
X129025000Y-83628595D01*
X127166526Y-85487069D01*
X127059533Y-85486976D01*
X126820545Y-85585724D01*
X126637537Y-85768412D01*
X126538372Y-86007228D01*
X126538147Y-86265814D01*
X108089834Y-86265814D01*
X108258823Y-86097121D01*
X108357988Y-85858305D01*
X108358213Y-85599719D01*
X108259465Y-85360731D01*
X108076777Y-85177723D01*
X107837961Y-85078558D01*
X107579375Y-85078333D01*
X107340387Y-85177081D01*
X107288351Y-85229026D01*
X104744266Y-85229026D01*
X104668676Y-85153304D01*
X104429860Y-85054139D01*
X104171274Y-85053914D01*
X103932286Y-85152662D01*
X103749278Y-85335350D01*
X103650113Y-85574166D01*
X103649888Y-85832752D01*
X101949887Y-85832752D01*
X101950112Y-85575300D01*
X101851364Y-85336312D01*
X101668676Y-85153304D01*
X101429860Y-85054139D01*
X101171274Y-85053914D01*
X100932286Y-85152662D01*
X100855788Y-85229026D01*
X99694256Y-85229026D01*
X99618666Y-85153304D01*
X99379850Y-85054139D01*
X99121264Y-85053914D01*
X98882276Y-85152662D01*
X98699268Y-85335350D01*
X98600103Y-85574166D01*
X98599878Y-85832752D01*
X95350000Y-85832752D01*
X95350000Y-84528726D01*
X103649888Y-84528726D01*
X103748636Y-84767714D01*
X103931324Y-84950722D01*
X104170140Y-85049887D01*
X104428726Y-85050112D01*
X104667714Y-84951364D01*
X104744212Y-84875000D01*
X106455734Y-84875000D01*
X106531324Y-84950722D01*
X106770140Y-85049887D01*
X107028726Y-85050112D01*
X107267714Y-84951364D01*
X107450722Y-84768676D01*
X107549887Y-84529860D01*
X107550112Y-84271274D01*
X107451364Y-84032286D01*
X107268676Y-83849278D01*
X107029860Y-83750113D01*
X106771274Y-83749888D01*
X106532286Y-83848636D01*
X106455788Y-83925000D01*
X104744266Y-83925000D01*
X104668676Y-83849278D01*
X104429860Y-83750113D01*
X104171274Y-83749888D01*
X103932286Y-83848636D01*
X103749278Y-84031324D01*
X103650113Y-84270140D01*
X103649888Y-84528726D01*
X95350000Y-84528726D01*
X95350000Y-82296000D01*
X104279238Y-82296000D01*
X104383219Y-82818746D01*
X104679330Y-83261908D01*
X105122492Y-83558019D01*
X105645238Y-83662000D01*
X105698762Y-83662000D01*
X106221508Y-83558019D01*
X106664670Y-83261908D01*
X106960781Y-82818746D01*
X107026210Y-82489809D01*
X117013473Y-82489809D01*
X117142662Y-82802472D01*
X117381669Y-83041897D01*
X117450819Y-83070610D01*
X117382928Y-83098662D01*
X117143503Y-83337669D01*
X117013768Y-83650107D01*
X117013473Y-83988409D01*
X117142662Y-84301072D01*
X117381669Y-84540497D01*
X117694107Y-84670232D01*
X118032409Y-84670527D01*
X118345072Y-84541338D01*
X118584497Y-84302331D01*
X118714232Y-83989893D01*
X118714527Y-83651591D01*
X118585338Y-83338928D01*
X118346331Y-83099503D01*
X118277181Y-83070790D01*
X118345072Y-83042738D01*
X118584497Y-82803731D01*
X118714232Y-82491293D01*
X118714527Y-82152991D01*
X118585338Y-81840328D01*
X118346331Y-81600903D01*
X118033893Y-81471168D01*
X117695591Y-81470873D01*
X117382928Y-81600062D01*
X117143503Y-81839069D01*
X117013768Y-82151507D01*
X117013473Y-82489809D01*
X107026210Y-82489809D01*
X107064762Y-82296000D01*
X106960781Y-81773254D01*
X106664670Y-81330092D01*
X106363499Y-81128856D01*
X106688000Y-81128856D01*
X106817702Y-81104451D01*
X106936825Y-81027797D01*
X107016741Y-80910837D01*
X107044856Y-80772000D01*
X107044856Y-78740000D01*
X107042735Y-78728726D01*
X112249888Y-78728726D01*
X112348636Y-78967714D01*
X112531324Y-79150722D01*
X112770140Y-79249887D01*
X112926544Y-79250023D01*
X112935166Y-79255784D01*
X113116941Y-79291941D01*
X115653021Y-79291941D01*
X115728611Y-79367663D01*
X115967427Y-79466828D01*
X116226013Y-79467053D01*
X116465001Y-79368305D01*
X116648009Y-79185617D01*
X116747174Y-78946801D01*
X116747399Y-78688215D01*
X116648651Y-78449227D01*
X116465963Y-78266219D01*
X116227147Y-78167054D01*
X115968561Y-78166829D01*
X115729573Y-78265577D01*
X115653075Y-78341941D01*
X113496673Y-78341941D01*
X113451364Y-78232286D01*
X113268676Y-78049278D01*
X113029860Y-77950113D01*
X112771274Y-77949888D01*
X112532286Y-78048636D01*
X112349278Y-78231324D01*
X112250113Y-78470140D01*
X112249888Y-78728726D01*
X107042735Y-78728726D01*
X107020451Y-78610298D01*
X106943797Y-78491175D01*
X106826837Y-78411259D01*
X106688000Y-78383144D01*
X104656000Y-78383144D01*
X104526298Y-78407549D01*
X104407175Y-78484203D01*
X104327259Y-78601163D01*
X104299144Y-78740000D01*
X104299144Y-80772000D01*
X104323549Y-80901702D01*
X104400203Y-81020825D01*
X104517163Y-81100741D01*
X104656000Y-81128856D01*
X104980501Y-81128856D01*
X104679330Y-81330092D01*
X104383219Y-81773254D01*
X104279238Y-82296000D01*
X95350000Y-82296000D01*
X95350000Y-80000000D01*
X95342121Y-79961094D01*
X95320711Y-79929289D01*
X95032155Y-79640733D01*
X95029211Y-79636327D01*
X94863671Y-79470787D01*
X94863668Y-79470786D01*
X94859268Y-79467846D01*
X94570711Y-79179289D01*
X94537629Y-79157350D01*
X94500000Y-79150000D01*
X91059095Y-79150000D01*
X91037034Y-79145612D01*
X90354388Y-78462966D01*
X90350000Y-78440905D01*
X90350000Y-76958000D01*
X99579238Y-76958000D01*
X99671618Y-77422425D01*
X99934693Y-77816145D01*
X100328413Y-78079220D01*
X100792838Y-78171600D01*
X101151162Y-78171600D01*
X101615587Y-78079220D01*
X102009307Y-77816145D01*
X102272382Y-77422425D01*
X102364762Y-76958000D01*
X102350983Y-76888726D01*
X113849888Y-76888726D01*
X113948636Y-77127714D01*
X114131324Y-77310722D01*
X114370140Y-77409887D01*
X114478229Y-77409981D01*
X115004122Y-77935873D01*
X115004124Y-77935876D01*
X115101766Y-78001118D01*
X115158225Y-78038843D01*
X115340000Y-78075000D01*
X118255734Y-78075000D01*
X118331324Y-78150722D01*
X118570140Y-78249887D01*
X118828726Y-78250112D01*
X119067714Y-78151364D01*
X119250722Y-77968676D01*
X119349887Y-77729860D01*
X119350112Y-77471274D01*
X119251364Y-77232286D01*
X119068676Y-77049278D01*
X118829860Y-76950113D01*
X118571274Y-76949888D01*
X118332286Y-77048636D01*
X118255788Y-77125000D01*
X115536751Y-77125000D01*
X115150019Y-76738267D01*
X115150112Y-76631274D01*
X115051364Y-76392286D01*
X114868676Y-76209278D01*
X114629860Y-76110113D01*
X114371274Y-76109888D01*
X114132286Y-76208636D01*
X113949278Y-76391324D01*
X113850113Y-76630140D01*
X113849888Y-76888726D01*
X102350983Y-76888726D01*
X102272382Y-76493575D01*
X102009307Y-76099855D01*
X101615587Y-75836780D01*
X101151162Y-75744400D01*
X100792838Y-75744400D01*
X100328413Y-75836780D01*
X99934693Y-76099855D01*
X99671618Y-76493575D01*
X99579238Y-76958000D01*
X90350000Y-76958000D01*
X90350000Y-74754546D01*
X99653598Y-74754546D01*
X99839067Y-75133364D01*
X100187464Y-75454144D01*
X100632098Y-75617180D01*
X100822000Y-75544248D01*
X100822000Y-74568000D01*
X101122000Y-74568000D01*
X101122000Y-75544248D01*
X101311902Y-75617180D01*
X101756536Y-75454144D01*
X102104933Y-75133364D01*
X102290402Y-74754546D01*
X102240465Y-74568000D01*
X101122000Y-74568000D01*
X100822000Y-74568000D01*
X99703535Y-74568000D01*
X99653598Y-74754546D01*
X90350000Y-74754546D01*
X90350000Y-74081454D01*
X99653598Y-74081454D01*
X99703535Y-74268000D01*
X100822000Y-74268000D01*
X100822000Y-73291752D01*
X101122000Y-73291752D01*
X101122000Y-74268000D01*
X102240465Y-74268000D01*
X102290402Y-74081454D01*
X102104933Y-73702636D01*
X101756536Y-73381856D01*
X101311902Y-73218820D01*
X101122000Y-73291752D01*
X100822000Y-73291752D01*
X100632098Y-73218820D01*
X100187464Y-73381856D01*
X99839067Y-73702636D01*
X99653598Y-74081454D01*
X90350000Y-74081454D01*
X90350000Y-71878000D01*
X99579238Y-71878000D01*
X99671618Y-72342425D01*
X99934693Y-72736145D01*
X100328413Y-72999220D01*
X100792838Y-73091600D01*
X101151162Y-73091600D01*
X101615587Y-72999220D01*
X102009307Y-72736145D01*
X102272382Y-72342425D01*
X102364762Y-71878000D01*
X102272382Y-71413575D01*
X102009307Y-71019855D01*
X101615587Y-70756780D01*
X101151162Y-70664400D01*
X100792838Y-70664400D01*
X100328413Y-70756780D01*
X99934693Y-71019855D01*
X99671618Y-71413575D01*
X99579238Y-71878000D01*
X90350000Y-71878000D01*
X90350000Y-68474400D01*
X99599144Y-68474400D01*
X99599144Y-70201600D01*
X99623549Y-70331302D01*
X99700203Y-70450425D01*
X99817163Y-70530341D01*
X99956000Y-70558456D01*
X101988000Y-70558456D01*
X102117702Y-70534051D01*
X102133321Y-70524000D01*
X139127144Y-70524000D01*
X139127144Y-72556000D01*
X139151549Y-72685702D01*
X139228203Y-72804825D01*
X139345163Y-72884741D01*
X139484000Y-72912856D01*
X141516000Y-72912856D01*
X141645702Y-72888451D01*
X141764825Y-72811797D01*
X141844741Y-72694837D01*
X141872856Y-72556000D01*
X141872856Y-70524000D01*
X141860626Y-70459000D01*
X146409000Y-70459000D01*
X146473702Y-70784281D01*
X146657959Y-71060041D01*
X146933719Y-71244298D01*
X147259000Y-71309000D01*
X150706918Y-71309000D01*
X151398959Y-72001041D01*
X151674719Y-72185298D01*
X152000000Y-72250000D01*
X152325281Y-72185298D01*
X152601041Y-72001041D01*
X152785298Y-71725281D01*
X152850000Y-71400000D01*
X152785298Y-71074719D01*
X152601041Y-70798959D01*
X151660041Y-69857959D01*
X151384281Y-69673702D01*
X151059000Y-69609000D01*
X147259000Y-69609000D01*
X146933719Y-69673702D01*
X146657959Y-69857959D01*
X146473702Y-70133719D01*
X146409000Y-70459000D01*
X141860626Y-70459000D01*
X141848451Y-70394298D01*
X141771797Y-70275175D01*
X141654837Y-70195259D01*
X141516000Y-70167144D01*
X141161548Y-70167144D01*
X141337319Y-70079300D01*
X141686612Y-69676715D01*
X141817558Y-69360550D01*
X141769670Y-69150000D01*
X140650000Y-69150000D01*
X140650000Y-69170000D01*
X140350000Y-69170000D01*
X140350000Y-69150000D01*
X139230330Y-69150000D01*
X139182442Y-69360550D01*
X139313388Y-69676715D01*
X139662681Y-70079300D01*
X139838452Y-70167144D01*
X139484000Y-70167144D01*
X139354298Y-70191549D01*
X139235175Y-70268203D01*
X139155259Y-70385163D01*
X139127144Y-70524000D01*
X102133321Y-70524000D01*
X102236825Y-70457397D01*
X102316741Y-70340437D01*
X102344856Y-70201600D01*
X102344856Y-68474400D01*
X102320451Y-68344698D01*
X102243797Y-68225575D01*
X102126837Y-68145659D01*
X101988000Y-68117544D01*
X99956000Y-68117544D01*
X99826298Y-68141949D01*
X99707175Y-68218603D01*
X99627259Y-68335563D01*
X99599144Y-68474400D01*
X90350000Y-68474400D01*
X90350000Y-64322480D01*
X90765484Y-65328029D01*
X91671899Y-66236027D01*
X92856794Y-66728038D01*
X94139778Y-66729158D01*
X95325529Y-66239216D01*
X96233527Y-65332801D01*
X96725538Y-64147906D01*
X96725745Y-63910000D01*
X97150644Y-63910000D01*
X97150644Y-65637200D01*
X97175049Y-65766902D01*
X97251703Y-65886025D01*
X97368663Y-65965941D01*
X97507500Y-65994056D01*
X99234700Y-65994056D01*
X99364402Y-65969651D01*
X99483525Y-65892997D01*
X99563441Y-65776037D01*
X99591556Y-65637200D01*
X99591556Y-64749824D01*
X99697500Y-64749824D01*
X99697500Y-64797376D01*
X99789880Y-65261801D01*
X100052955Y-65655521D01*
X100446675Y-65918596D01*
X100911100Y-66010976D01*
X101375525Y-65918596D01*
X101769245Y-65655521D01*
X102032320Y-65261801D01*
X102124700Y-64797376D01*
X102124700Y-64749824D01*
X102237500Y-64749824D01*
X102237500Y-64797376D01*
X102329880Y-65261801D01*
X102592955Y-65655521D01*
X102986675Y-65918596D01*
X103451100Y-66010976D01*
X103915525Y-65918596D01*
X104309245Y-65655521D01*
X104572320Y-65261801D01*
X104664700Y-64797376D01*
X104664700Y-64749824D01*
X104777500Y-64749824D01*
X104777500Y-64797376D01*
X104869880Y-65261801D01*
X105132955Y-65655521D01*
X105526675Y-65918596D01*
X105991100Y-66010976D01*
X106455525Y-65918596D01*
X106849245Y-65655521D01*
X107112320Y-65261801D01*
X107142485Y-65110149D01*
X107365084Y-65110149D01*
X107582633Y-65530746D01*
X107944578Y-65836074D01*
X108194554Y-65939602D01*
X108381100Y-65889665D01*
X108381100Y-64923600D01*
X108681100Y-64923600D01*
X108681100Y-65889665D01*
X108867646Y-65939602D01*
X109117622Y-65836074D01*
X109479567Y-65530746D01*
X109697116Y-65110149D01*
X109647908Y-64923600D01*
X108681100Y-64923600D01*
X108381100Y-64923600D01*
X107414292Y-64923600D01*
X107365084Y-65110149D01*
X107142485Y-65110149D01*
X107204700Y-64797376D01*
X107204700Y-64749824D01*
X109857500Y-64749824D01*
X109857500Y-64797376D01*
X109949880Y-65261801D01*
X110212955Y-65655521D01*
X110606675Y-65918596D01*
X111071100Y-66010976D01*
X111535525Y-65918596D01*
X111929245Y-65655521D01*
X112192320Y-65261801D01*
X112284700Y-64797376D01*
X112284700Y-64749824D01*
X112397500Y-64749824D01*
X112397500Y-64797376D01*
X112489880Y-65261801D01*
X112752955Y-65655521D01*
X113146675Y-65918596D01*
X113611100Y-66010976D01*
X114075525Y-65918596D01*
X114469245Y-65655521D01*
X114732320Y-65261801D01*
X114824700Y-64797376D01*
X114824700Y-64749824D01*
X114937500Y-64749824D01*
X114937500Y-64797376D01*
X115029880Y-65261801D01*
X115292955Y-65655521D01*
X115686675Y-65918596D01*
X116151100Y-66010976D01*
X116615525Y-65918596D01*
X117009245Y-65655521D01*
X117272320Y-65261801D01*
X117364700Y-64797376D01*
X117364700Y-64749824D01*
X117477500Y-64749824D01*
X117477500Y-64797376D01*
X117569880Y-65261801D01*
X117832955Y-65655521D01*
X118226675Y-65918596D01*
X118691100Y-66010976D01*
X119155525Y-65918596D01*
X119549245Y-65655521D01*
X119812320Y-65261801D01*
X119904700Y-64797376D01*
X119904700Y-64749824D01*
X120017500Y-64749824D01*
X120017500Y-64797376D01*
X120109880Y-65261801D01*
X120372955Y-65655521D01*
X120766675Y-65918596D01*
X121231100Y-66010976D01*
X121695525Y-65918596D01*
X122089245Y-65655521D01*
X122352320Y-65261801D01*
X122444700Y-64797376D01*
X122444700Y-64749824D01*
X122352320Y-64285399D01*
X122089245Y-63891679D01*
X121695525Y-63628604D01*
X121231100Y-63536224D01*
X120766675Y-63628604D01*
X120372955Y-63891679D01*
X120109880Y-64285399D01*
X120017500Y-64749824D01*
X119904700Y-64749824D01*
X119812320Y-64285399D01*
X119549245Y-63891679D01*
X119155525Y-63628604D01*
X118691100Y-63536224D01*
X118226675Y-63628604D01*
X117832955Y-63891679D01*
X117569880Y-64285399D01*
X117477500Y-64749824D01*
X117364700Y-64749824D01*
X117272320Y-64285399D01*
X117009245Y-63891679D01*
X116615525Y-63628604D01*
X116151100Y-63536224D01*
X115686675Y-63628604D01*
X115292955Y-63891679D01*
X115029880Y-64285399D01*
X114937500Y-64749824D01*
X114824700Y-64749824D01*
X114732320Y-64285399D01*
X114469245Y-63891679D01*
X114075525Y-63628604D01*
X113611100Y-63536224D01*
X113146675Y-63628604D01*
X112752955Y-63891679D01*
X112489880Y-64285399D01*
X112397500Y-64749824D01*
X112284700Y-64749824D01*
X112192320Y-64285399D01*
X111929245Y-63891679D01*
X111535525Y-63628604D01*
X111071100Y-63536224D01*
X110606675Y-63628604D01*
X110212955Y-63891679D01*
X109949880Y-64285399D01*
X109857500Y-64749824D01*
X107204700Y-64749824D01*
X107142486Y-64437051D01*
X107365084Y-64437051D01*
X107414292Y-64623600D01*
X108381100Y-64623600D01*
X108381100Y-63657535D01*
X108681100Y-63657535D01*
X108681100Y-64623600D01*
X109647908Y-64623600D01*
X109697116Y-64437051D01*
X109479567Y-64016454D01*
X109117622Y-63711126D01*
X108867646Y-63607598D01*
X108681100Y-63657535D01*
X108381100Y-63657535D01*
X108194554Y-63607598D01*
X107944578Y-63711126D01*
X107582633Y-64016454D01*
X107365084Y-64437051D01*
X107142486Y-64437051D01*
X107112320Y-64285399D01*
X106849245Y-63891679D01*
X106455525Y-63628604D01*
X105991100Y-63536224D01*
X105526675Y-63628604D01*
X105132955Y-63891679D01*
X104869880Y-64285399D01*
X104777500Y-64749824D01*
X104664700Y-64749824D01*
X104572320Y-64285399D01*
X104309245Y-63891679D01*
X103915525Y-63628604D01*
X103451100Y-63536224D01*
X102986675Y-63628604D01*
X102592955Y-63891679D01*
X102329880Y-64285399D01*
X102237500Y-64749824D01*
X102124700Y-64749824D01*
X102032320Y-64285399D01*
X101769245Y-63891679D01*
X101375525Y-63628604D01*
X100911100Y-63536224D01*
X100446675Y-63628604D01*
X100052955Y-63891679D01*
X99789880Y-64285399D01*
X99697500Y-64749824D01*
X99591556Y-64749824D01*
X99591556Y-63910000D01*
X99567151Y-63780298D01*
X99490497Y-63661175D01*
X99373537Y-63581259D01*
X99234700Y-63553144D01*
X97507500Y-63553144D01*
X97377798Y-63577549D01*
X97258675Y-63654203D01*
X97178759Y-63771163D01*
X97150644Y-63910000D01*
X96725745Y-63910000D01*
X96726658Y-62864922D01*
X96455978Y-62209824D01*
X97157500Y-62209824D01*
X97157500Y-62257376D01*
X97249880Y-62721801D01*
X97512955Y-63115521D01*
X97906675Y-63378596D01*
X98371100Y-63470976D01*
X98835525Y-63378596D01*
X99229245Y-63115521D01*
X99492320Y-62721801D01*
X99584700Y-62257376D01*
X99584700Y-62209824D01*
X99697500Y-62209824D01*
X99697500Y-62257376D01*
X99789880Y-62721801D01*
X100052955Y-63115521D01*
X100446675Y-63378596D01*
X100911100Y-63470976D01*
X101375525Y-63378596D01*
X101769245Y-63115521D01*
X102032320Y-62721801D01*
X102062485Y-62570149D01*
X102285084Y-62570149D01*
X102502633Y-62990746D01*
X102864578Y-63296074D01*
X103114554Y-63399602D01*
X103301100Y-63349665D01*
X103301100Y-62383600D01*
X103601100Y-62383600D01*
X103601100Y-63349665D01*
X103787646Y-63399602D01*
X104037622Y-63296074D01*
X104399567Y-62990746D01*
X104617116Y-62570149D01*
X104567908Y-62383600D01*
X103601100Y-62383600D01*
X103301100Y-62383600D01*
X102334292Y-62383600D01*
X102285084Y-62570149D01*
X102062485Y-62570149D01*
X102124700Y-62257376D01*
X102124700Y-62209824D01*
X104777500Y-62209824D01*
X104777500Y-62257376D01*
X104869880Y-62721801D01*
X105132955Y-63115521D01*
X105526675Y-63378596D01*
X105991100Y-63470976D01*
X106455525Y-63378596D01*
X106849245Y-63115521D01*
X107112320Y-62721801D01*
X107204700Y-62257376D01*
X107204700Y-62209824D01*
X107317500Y-62209824D01*
X107317500Y-62257376D01*
X107409880Y-62721801D01*
X107672955Y-63115521D01*
X108066675Y-63378596D01*
X108531100Y-63470976D01*
X108995525Y-63378596D01*
X109389245Y-63115521D01*
X109652320Y-62721801D01*
X109744700Y-62257376D01*
X109744700Y-62209824D01*
X109857500Y-62209824D01*
X109857500Y-62257376D01*
X109949880Y-62721801D01*
X110212955Y-63115521D01*
X110606675Y-63378596D01*
X111071100Y-63470976D01*
X111535525Y-63378596D01*
X111929245Y-63115521D01*
X112192320Y-62721801D01*
X112222485Y-62570149D01*
X112445084Y-62570149D01*
X112662633Y-62990746D01*
X113024578Y-63296074D01*
X113274554Y-63399602D01*
X113461100Y-63349665D01*
X113461100Y-62383600D01*
X113761100Y-62383600D01*
X113761100Y-63349665D01*
X113947646Y-63399602D01*
X114197622Y-63296074D01*
X114559567Y-62990746D01*
X114777116Y-62570149D01*
X114727908Y-62383600D01*
X113761100Y-62383600D01*
X113461100Y-62383600D01*
X112494292Y-62383600D01*
X112445084Y-62570149D01*
X112222485Y-62570149D01*
X112284700Y-62257376D01*
X112284700Y-62209824D01*
X114937500Y-62209824D01*
X114937500Y-62257376D01*
X115029880Y-62721801D01*
X115292955Y-63115521D01*
X115686675Y-63378596D01*
X116151100Y-63470976D01*
X116615525Y-63378596D01*
X117009245Y-63115521D01*
X117272320Y-62721801D01*
X117364700Y-62257376D01*
X117364700Y-62209824D01*
X117477500Y-62209824D01*
X117477500Y-62257376D01*
X117569880Y-62721801D01*
X117832955Y-63115521D01*
X118226675Y-63378596D01*
X118691100Y-63470976D01*
X119155525Y-63378596D01*
X119549245Y-63115521D01*
X119812320Y-62721801D01*
X119842485Y-62570149D01*
X120065084Y-62570149D01*
X120282633Y-62990746D01*
X120644578Y-63296074D01*
X120894554Y-63399602D01*
X121081100Y-63349665D01*
X121081100Y-62383600D01*
X121381100Y-62383600D01*
X121381100Y-63349665D01*
X121567646Y-63399602D01*
X121817622Y-63296074D01*
X122179567Y-62990746D01*
X122397116Y-62570149D01*
X122347908Y-62383600D01*
X121381100Y-62383600D01*
X121081100Y-62383600D01*
X120114292Y-62383600D01*
X120065084Y-62570149D01*
X119842485Y-62570149D01*
X119904700Y-62257376D01*
X119904700Y-62209824D01*
X122557500Y-62209824D01*
X122557500Y-62257376D01*
X122649880Y-62721801D01*
X122912955Y-63115521D01*
X123306675Y-63378596D01*
X123771100Y-63470976D01*
X124235525Y-63378596D01*
X124389254Y-63275878D01*
X124350113Y-63370140D01*
X124349888Y-63628726D01*
X124393434Y-63734115D01*
X124235525Y-63628604D01*
X123771100Y-63536224D01*
X123306675Y-63628604D01*
X122912955Y-63891679D01*
X122649880Y-64285399D01*
X122557500Y-64749824D01*
X122557500Y-64797376D01*
X122649880Y-65261801D01*
X122912955Y-65655521D01*
X123306675Y-65918596D01*
X123771100Y-66010976D01*
X124235525Y-65918596D01*
X124525000Y-65725175D01*
X124525000Y-67500000D01*
X124561157Y-67681775D01*
X124664124Y-67835876D01*
X124849981Y-68021733D01*
X124849888Y-68128726D01*
X124948636Y-68367714D01*
X125131324Y-68550722D01*
X125370140Y-68649887D01*
X125628726Y-68650112D01*
X125654529Y-68639450D01*
X139182442Y-68639450D01*
X139230330Y-68850000D01*
X140350000Y-68850000D01*
X140350000Y-67729748D01*
X140650000Y-67729748D01*
X140650000Y-68850000D01*
X141769670Y-68850000D01*
X141817558Y-68639450D01*
X141686612Y-68323285D01*
X141337319Y-67920700D01*
X140860552Y-67682429D01*
X140650000Y-67729748D01*
X140350000Y-67729748D01*
X140139448Y-67682429D01*
X139662681Y-67920700D01*
X139313388Y-68323285D01*
X139182442Y-68639450D01*
X125654529Y-68639450D01*
X125867714Y-68551364D01*
X126050722Y-68368676D01*
X126149887Y-68129860D01*
X126150112Y-67871274D01*
X126051364Y-67632286D01*
X125868676Y-67449278D01*
X125629860Y-67350113D01*
X125521771Y-67350019D01*
X125475000Y-67303248D01*
X125475000Y-65670251D01*
X125846675Y-65918596D01*
X126311100Y-66010976D01*
X126775525Y-65918596D01*
X127169245Y-65655521D01*
X127432320Y-65261801D01*
X127462485Y-65110149D01*
X127685084Y-65110149D01*
X127902633Y-65530746D01*
X128264578Y-65836074D01*
X128514554Y-65939602D01*
X128701100Y-65889665D01*
X128701100Y-64923600D01*
X129001100Y-64923600D01*
X129001100Y-65889665D01*
X129187646Y-65939602D01*
X129437622Y-65836074D01*
X129799567Y-65530746D01*
X130017116Y-65110149D01*
X129967908Y-64923600D01*
X129001100Y-64923600D01*
X128701100Y-64923600D01*
X127734292Y-64923600D01*
X127685084Y-65110149D01*
X127462485Y-65110149D01*
X127524700Y-64797376D01*
X127524700Y-64749824D01*
X130177500Y-64749824D01*
X130177500Y-64797376D01*
X130269880Y-65261801D01*
X130532955Y-65655521D01*
X130926675Y-65918596D01*
X131391100Y-66010976D01*
X131855525Y-65918596D01*
X131860812Y-65915063D01*
X132243823Y-66298074D01*
X132243825Y-66298077D01*
X132397926Y-66401044D01*
X132428085Y-66407043D01*
X132579701Y-66437202D01*
X132579706Y-66437201D01*
X143115449Y-66437201D01*
X144425000Y-67746752D01*
X144425000Y-68905734D01*
X144349278Y-68981324D01*
X144250113Y-69220140D01*
X144249888Y-69478726D01*
X144348636Y-69717714D01*
X144531324Y-69900722D01*
X144770140Y-69999887D01*
X145028726Y-70000112D01*
X145267714Y-69901364D01*
X145450722Y-69718676D01*
X145549887Y-69479860D01*
X145550112Y-69221274D01*
X145451364Y-68982286D01*
X145375000Y-68905788D01*
X145375000Y-67550000D01*
X145338843Y-67368225D01*
X145235876Y-67214124D01*
X144018234Y-65996482D01*
X144091100Y-66010976D01*
X144555525Y-65918596D01*
X144949245Y-65655521D01*
X145212320Y-65261801D01*
X145242485Y-65110149D01*
X145465084Y-65110149D01*
X145682633Y-65530746D01*
X146044578Y-65836074D01*
X146294554Y-65939602D01*
X146481100Y-65889665D01*
X146481100Y-64923600D01*
X146781100Y-64923600D01*
X146781100Y-65889665D01*
X146967646Y-65939602D01*
X147217622Y-65836074D01*
X147453385Y-65637190D01*
X147548636Y-65867714D01*
X147625000Y-65944212D01*
X147625000Y-66925010D01*
X147661157Y-67106785D01*
X147764124Y-67260886D01*
X148999981Y-68496743D01*
X148999888Y-68603736D01*
X149098636Y-68842724D01*
X149281324Y-69025732D01*
X149520140Y-69124897D01*
X149778726Y-69125122D01*
X150017714Y-69026374D01*
X150200722Y-68843686D01*
X150299887Y-68604870D01*
X150300112Y-68346284D01*
X150201364Y-68107296D01*
X150018676Y-67924288D01*
X149779860Y-67825123D01*
X149671771Y-67825029D01*
X148575000Y-66728258D01*
X148575000Y-65944266D01*
X148650722Y-65868676D01*
X148749887Y-65629860D01*
X148750112Y-65371274D01*
X148651364Y-65132286D01*
X148468676Y-64949278D01*
X148229860Y-64850113D01*
X147971274Y-64849888D01*
X147752328Y-64940355D01*
X147747908Y-64923600D01*
X146781100Y-64923600D01*
X146481100Y-64923600D01*
X145514292Y-64923600D01*
X145465084Y-65110149D01*
X145242485Y-65110149D01*
X145304700Y-64797376D01*
X145304700Y-64749824D01*
X145242486Y-64437051D01*
X145465084Y-64437051D01*
X145514292Y-64623600D01*
X146481100Y-64623600D01*
X146481100Y-63657535D01*
X146781100Y-63657535D01*
X146781100Y-64623600D01*
X147747908Y-64623600D01*
X147797116Y-64437051D01*
X147579567Y-64016454D01*
X147217622Y-63711126D01*
X146967646Y-63607598D01*
X146781100Y-63657535D01*
X146481100Y-63657535D01*
X146294554Y-63607598D01*
X146044578Y-63711126D01*
X145682633Y-64016454D01*
X145465084Y-64437051D01*
X145242486Y-64437051D01*
X145212320Y-64285399D01*
X144949245Y-63891679D01*
X144555525Y-63628604D01*
X144091100Y-63536224D01*
X143626675Y-63628604D01*
X143232955Y-63891679D01*
X142969880Y-64285399D01*
X142877500Y-64749824D01*
X142877500Y-64797376D01*
X142969880Y-65261801D01*
X143120487Y-65487201D01*
X142521713Y-65487201D01*
X142672320Y-65261801D01*
X142764700Y-64797376D01*
X142764700Y-64749824D01*
X142672320Y-64285399D01*
X142409245Y-63891679D01*
X142015525Y-63628604D01*
X141551100Y-63536224D01*
X141086675Y-63628604D01*
X140692955Y-63891679D01*
X140429880Y-64285399D01*
X140337500Y-64749824D01*
X140337500Y-64797376D01*
X140429880Y-65261801D01*
X140580487Y-65487201D01*
X139981713Y-65487201D01*
X140132320Y-65261801D01*
X140224700Y-64797376D01*
X140224700Y-64749824D01*
X140132320Y-64285399D01*
X139869245Y-63891679D01*
X139475525Y-63628604D01*
X139011100Y-63536224D01*
X138546675Y-63628604D01*
X138152955Y-63891679D01*
X137889880Y-64285399D01*
X137797500Y-64749824D01*
X137797500Y-64797376D01*
X137889880Y-65261801D01*
X138040487Y-65487201D01*
X137441713Y-65487201D01*
X137592320Y-65261801D01*
X137684700Y-64797376D01*
X137684700Y-64749824D01*
X137592320Y-64285399D01*
X137329245Y-63891679D01*
X136935525Y-63628604D01*
X136471100Y-63536224D01*
X136006675Y-63628604D01*
X135612955Y-63891679D01*
X135349880Y-64285399D01*
X135257500Y-64749824D01*
X135257500Y-64797376D01*
X135349880Y-65261801D01*
X135500487Y-65487201D01*
X134901713Y-65487201D01*
X135052320Y-65261801D01*
X135144700Y-64797376D01*
X135144700Y-64749824D01*
X135052320Y-64285399D01*
X134789245Y-63891679D01*
X134395525Y-63628604D01*
X133931100Y-63536224D01*
X133466675Y-63628604D01*
X133072955Y-63891679D01*
X132809880Y-64285399D01*
X132717500Y-64749824D01*
X132717500Y-64797376D01*
X132809880Y-65261801D01*
X132960487Y-65487201D01*
X132776452Y-65487201D01*
X132518746Y-65229495D01*
X132604700Y-64797376D01*
X132604700Y-64749824D01*
X132512320Y-64285399D01*
X132249245Y-63891679D01*
X131855525Y-63628604D01*
X131391100Y-63536224D01*
X130926675Y-63628604D01*
X130532955Y-63891679D01*
X130269880Y-64285399D01*
X130177500Y-64749824D01*
X127524700Y-64749824D01*
X127462486Y-64437051D01*
X127685084Y-64437051D01*
X127734292Y-64623600D01*
X128701100Y-64623600D01*
X128701100Y-63657535D01*
X129001100Y-63657535D01*
X129001100Y-64623600D01*
X129967908Y-64623600D01*
X130017116Y-64437051D01*
X129799567Y-64016454D01*
X129437622Y-63711126D01*
X129187646Y-63607598D01*
X129001100Y-63657535D01*
X128701100Y-63657535D01*
X128514554Y-63607598D01*
X128264578Y-63711126D01*
X127902633Y-64016454D01*
X127685084Y-64437051D01*
X127462486Y-64437051D01*
X127432320Y-64285399D01*
X127169245Y-63891679D01*
X126775525Y-63628604D01*
X126311100Y-63536224D01*
X125846675Y-63628604D01*
X125575044Y-63810102D01*
X125649887Y-63629860D01*
X125650112Y-63371274D01*
X125579326Y-63199959D01*
X125846675Y-63378596D01*
X126311100Y-63470976D01*
X126775525Y-63378596D01*
X127169245Y-63115521D01*
X127432320Y-62721801D01*
X127524700Y-62257376D01*
X127524700Y-62209824D01*
X127637500Y-62209824D01*
X127637500Y-62257376D01*
X127729880Y-62721801D01*
X127992955Y-63115521D01*
X128386675Y-63378596D01*
X128851100Y-63470976D01*
X129315525Y-63378596D01*
X129709245Y-63115521D01*
X129972320Y-62721801D01*
X130064700Y-62257376D01*
X130064700Y-62209824D01*
X130177500Y-62209824D01*
X130177500Y-62257376D01*
X130269880Y-62721801D01*
X130532955Y-63115521D01*
X130926675Y-63378596D01*
X131391100Y-63470976D01*
X131855525Y-63378596D01*
X132249245Y-63115521D01*
X132512320Y-62721801D01*
X132542485Y-62570149D01*
X132765084Y-62570149D01*
X132982633Y-62990746D01*
X133344578Y-63296074D01*
X133594554Y-63399602D01*
X133781100Y-63349665D01*
X133781100Y-62383600D01*
X134081100Y-62383600D01*
X134081100Y-63349665D01*
X134267646Y-63399602D01*
X134517622Y-63296074D01*
X134879567Y-62990746D01*
X135097116Y-62570149D01*
X135047908Y-62383600D01*
X134081100Y-62383600D01*
X133781100Y-62383600D01*
X132814292Y-62383600D01*
X132765084Y-62570149D01*
X132542485Y-62570149D01*
X132604700Y-62257376D01*
X132604700Y-62209824D01*
X135257500Y-62209824D01*
X135257500Y-62257376D01*
X135349880Y-62721801D01*
X135612955Y-63115521D01*
X136006675Y-63378596D01*
X136471100Y-63470976D01*
X136935525Y-63378596D01*
X137329245Y-63115521D01*
X137592320Y-62721801D01*
X137622485Y-62570149D01*
X137845084Y-62570149D01*
X138062633Y-62990746D01*
X138424578Y-63296074D01*
X138674554Y-63399602D01*
X138861100Y-63349665D01*
X138861100Y-62383600D01*
X139161100Y-62383600D01*
X139161100Y-63349665D01*
X139347646Y-63399602D01*
X139597622Y-63296074D01*
X139959567Y-62990746D01*
X140177116Y-62570149D01*
X140127908Y-62383600D01*
X139161100Y-62383600D01*
X138861100Y-62383600D01*
X137894292Y-62383600D01*
X137845084Y-62570149D01*
X137622485Y-62570149D01*
X137684700Y-62257376D01*
X137684700Y-62209824D01*
X140337500Y-62209824D01*
X140337500Y-62257376D01*
X140429880Y-62721801D01*
X140692955Y-63115521D01*
X141086675Y-63378596D01*
X141551100Y-63470976D01*
X142015525Y-63378596D01*
X142409245Y-63115521D01*
X142672320Y-62721801D01*
X142764700Y-62257376D01*
X142764700Y-62209824D01*
X142877500Y-62209824D01*
X142877500Y-62257376D01*
X142969880Y-62721801D01*
X143232955Y-63115521D01*
X143626675Y-63378596D01*
X144091100Y-63470976D01*
X144555525Y-63378596D01*
X144949245Y-63115521D01*
X145212320Y-62721801D01*
X145304700Y-62257376D01*
X145304700Y-62209824D01*
X145417500Y-62209824D01*
X145417500Y-62257376D01*
X145509880Y-62721801D01*
X145772955Y-63115521D01*
X146166675Y-63378596D01*
X146631100Y-63470976D01*
X147095525Y-63378596D01*
X147489245Y-63115521D01*
X147752320Y-62721801D01*
X147844700Y-62257376D01*
X147844700Y-62209824D01*
X147752320Y-61745399D01*
X147489245Y-61351679D01*
X147095525Y-61088604D01*
X146631100Y-60996224D01*
X146166675Y-61088604D01*
X145772955Y-61351679D01*
X145509880Y-61745399D01*
X145417500Y-62209824D01*
X145304700Y-62209824D01*
X145212320Y-61745399D01*
X144949245Y-61351679D01*
X144555525Y-61088604D01*
X144091100Y-60996224D01*
X143626675Y-61088604D01*
X143232955Y-61351679D01*
X142969880Y-61745399D01*
X142877500Y-62209824D01*
X142764700Y-62209824D01*
X142672320Y-61745399D01*
X142409245Y-61351679D01*
X142015525Y-61088604D01*
X141551100Y-60996224D01*
X141086675Y-61088604D01*
X140692955Y-61351679D01*
X140429880Y-61745399D01*
X140337500Y-62209824D01*
X137684700Y-62209824D01*
X137622486Y-61897051D01*
X137845084Y-61897051D01*
X137894292Y-62083600D01*
X138861100Y-62083600D01*
X138861100Y-61117535D01*
X139161100Y-61117535D01*
X139161100Y-62083600D01*
X140127908Y-62083600D01*
X140177116Y-61897051D01*
X139959567Y-61476454D01*
X139597622Y-61171126D01*
X139347646Y-61067598D01*
X139161100Y-61117535D01*
X138861100Y-61117535D01*
X138674554Y-61067598D01*
X138424578Y-61171126D01*
X138062633Y-61476454D01*
X137845084Y-61897051D01*
X137622486Y-61897051D01*
X137592320Y-61745399D01*
X137329245Y-61351679D01*
X136935525Y-61088604D01*
X136471100Y-60996224D01*
X136006675Y-61088604D01*
X135612955Y-61351679D01*
X135349880Y-61745399D01*
X135257500Y-62209824D01*
X132604700Y-62209824D01*
X132542486Y-61897051D01*
X132765084Y-61897051D01*
X132814292Y-62083600D01*
X133781100Y-62083600D01*
X133781100Y-61117535D01*
X134081100Y-61117535D01*
X134081100Y-62083600D01*
X135047908Y-62083600D01*
X135097116Y-61897051D01*
X134879567Y-61476454D01*
X134517622Y-61171126D01*
X134267646Y-61067598D01*
X134081100Y-61117535D01*
X133781100Y-61117535D01*
X133594554Y-61067598D01*
X133344578Y-61171126D01*
X132982633Y-61476454D01*
X132765084Y-61897051D01*
X132542486Y-61897051D01*
X132512320Y-61745399D01*
X132249245Y-61351679D01*
X131855525Y-61088604D01*
X131391100Y-60996224D01*
X130926675Y-61088604D01*
X130532955Y-61351679D01*
X130269880Y-61745399D01*
X130177500Y-62209824D01*
X130064700Y-62209824D01*
X129972320Y-61745399D01*
X129709245Y-61351679D01*
X129315525Y-61088604D01*
X128851100Y-60996224D01*
X128386675Y-61088604D01*
X127992955Y-61351679D01*
X127729880Y-61745399D01*
X127637500Y-62209824D01*
X127524700Y-62209824D01*
X127432320Y-61745399D01*
X127169245Y-61351679D01*
X126775525Y-61088604D01*
X126311100Y-60996224D01*
X125846675Y-61088604D01*
X125452955Y-61351679D01*
X125189880Y-61745399D01*
X125097500Y-62209824D01*
X125097500Y-62257376D01*
X125189880Y-62721801D01*
X125331584Y-62933876D01*
X125129860Y-62850113D01*
X124871274Y-62849888D01*
X124782121Y-62886725D01*
X124892320Y-62721801D01*
X124984700Y-62257376D01*
X124984700Y-62209824D01*
X124892320Y-61745399D01*
X124629245Y-61351679D01*
X124235525Y-61088604D01*
X123771100Y-60996224D01*
X123306675Y-61088604D01*
X122912955Y-61351679D01*
X122649880Y-61745399D01*
X122557500Y-62209824D01*
X119904700Y-62209824D01*
X119842486Y-61897051D01*
X120065084Y-61897051D01*
X120114292Y-62083600D01*
X121081100Y-62083600D01*
X121081100Y-61117535D01*
X121381100Y-61117535D01*
X121381100Y-62083600D01*
X122347908Y-62083600D01*
X122397116Y-61897051D01*
X122179567Y-61476454D01*
X121817622Y-61171126D01*
X121567646Y-61067598D01*
X121381100Y-61117535D01*
X121081100Y-61117535D01*
X120894554Y-61067598D01*
X120644578Y-61171126D01*
X120282633Y-61476454D01*
X120065084Y-61897051D01*
X119842486Y-61897051D01*
X119812320Y-61745399D01*
X119549245Y-61351679D01*
X119155525Y-61088604D01*
X118691100Y-60996224D01*
X118226675Y-61088604D01*
X117832955Y-61351679D01*
X117569880Y-61745399D01*
X117477500Y-62209824D01*
X117364700Y-62209824D01*
X117272320Y-61745399D01*
X117009245Y-61351679D01*
X116615525Y-61088604D01*
X116151100Y-60996224D01*
X115686675Y-61088604D01*
X115292955Y-61351679D01*
X115029880Y-61745399D01*
X114937500Y-62209824D01*
X112284700Y-62209824D01*
X112222486Y-61897051D01*
X112445084Y-61897051D01*
X112494292Y-62083600D01*
X113461100Y-62083600D01*
X113461100Y-61117535D01*
X113761100Y-61117535D01*
X113761100Y-62083600D01*
X114727908Y-62083600D01*
X114777116Y-61897051D01*
X114559567Y-61476454D01*
X114197622Y-61171126D01*
X113947646Y-61067598D01*
X113761100Y-61117535D01*
X113461100Y-61117535D01*
X113274554Y-61067598D01*
X113024578Y-61171126D01*
X112662633Y-61476454D01*
X112445084Y-61897051D01*
X112222486Y-61897051D01*
X112192320Y-61745399D01*
X111929245Y-61351679D01*
X111535525Y-61088604D01*
X111071100Y-60996224D01*
X110606675Y-61088604D01*
X110212955Y-61351679D01*
X109949880Y-61745399D01*
X109857500Y-62209824D01*
X109744700Y-62209824D01*
X109652320Y-61745399D01*
X109389245Y-61351679D01*
X108995525Y-61088604D01*
X108531100Y-60996224D01*
X108066675Y-61088604D01*
X107672955Y-61351679D01*
X107409880Y-61745399D01*
X107317500Y-62209824D01*
X107204700Y-62209824D01*
X107112320Y-61745399D01*
X106849245Y-61351679D01*
X106455525Y-61088604D01*
X105991100Y-60996224D01*
X105526675Y-61088604D01*
X105132955Y-61351679D01*
X104869880Y-61745399D01*
X104777500Y-62209824D01*
X102124700Y-62209824D01*
X102062486Y-61897051D01*
X102285084Y-61897051D01*
X102334292Y-62083600D01*
X103301100Y-62083600D01*
X103301100Y-61117535D01*
X103601100Y-61117535D01*
X103601100Y-62083600D01*
X104567908Y-62083600D01*
X104617116Y-61897051D01*
X104399567Y-61476454D01*
X104037622Y-61171126D01*
X103787646Y-61067598D01*
X103601100Y-61117535D01*
X103301100Y-61117535D01*
X103114554Y-61067598D01*
X102864578Y-61171126D01*
X102502633Y-61476454D01*
X102285084Y-61897051D01*
X102062486Y-61897051D01*
X102032320Y-61745399D01*
X101769245Y-61351679D01*
X101375525Y-61088604D01*
X100911100Y-60996224D01*
X100446675Y-61088604D01*
X100052955Y-61351679D01*
X99789880Y-61745399D01*
X99697500Y-62209824D01*
X99584700Y-62209824D01*
X99492320Y-61745399D01*
X99229245Y-61351679D01*
X98835525Y-61088604D01*
X98371100Y-60996224D01*
X97906675Y-61088604D01*
X97512955Y-61351679D01*
X97249880Y-61745399D01*
X97157500Y-62209824D01*
X96455978Y-62209824D01*
X96236716Y-61679171D01*
X95330301Y-60771173D01*
X94316003Y-60350000D01*
X150688270Y-60350000D01*
X149676671Y-60767984D01*
X149676671Y-60767984D01*
G37*
X149676671Y-60767984D02*
X148768673Y-61674399D01*
X148276662Y-62859294D01*
X148275542Y-64142278D01*
X148765484Y-65328029D01*
X149671899Y-66236027D01*
X150856794Y-66728038D01*
X152139778Y-66729158D01*
X153325529Y-66239216D01*
X154233527Y-65332801D01*
X154650000Y-64329822D01*
X154650000Y-111679395D01*
X154236716Y-110679171D01*
X153330301Y-109771173D01*
X152145406Y-109279162D01*
X150862422Y-109278042D01*
X149676671Y-109767984D01*
X148768673Y-110674399D01*
X148276662Y-111859294D01*
X148275542Y-113142278D01*
X148765484Y-114328029D01*
X149671899Y-115236027D01*
X150668857Y-115650000D01*
X94331355Y-115650000D01*
X95325529Y-115239216D01*
X96233527Y-114332801D01*
X96371717Y-114000000D01*
X136707238Y-114000000D01*
X136811219Y-114522746D01*
X137107330Y-114965908D01*
X137550492Y-115262019D01*
X138073238Y-115366000D01*
X138126762Y-115366000D01*
X138649508Y-115262019D01*
X139092670Y-114965908D01*
X139388781Y-114522746D01*
X139492762Y-114000000D01*
X139388781Y-113477254D01*
X139092670Y-113034092D01*
X138791499Y-112832856D01*
X139116000Y-112832856D01*
X139245702Y-112808451D01*
X139364825Y-112731797D01*
X139444741Y-112614837D01*
X139472856Y-112476000D01*
X139472856Y-110444000D01*
X139448451Y-110314298D01*
X139371797Y-110195175D01*
X139254837Y-110115259D01*
X139116000Y-110087144D01*
X137084000Y-110087144D01*
X136954298Y-110111549D01*
X136835175Y-110188203D01*
X136755259Y-110305163D01*
X136727144Y-110444000D01*
X136727144Y-112476000D01*
X136751549Y-112605702D01*
X136828203Y-112724825D01*
X136945163Y-112804741D01*
X137084000Y-112832856D01*
X137408501Y-112832856D01*
X137107330Y-113034092D01*
X136811219Y-113477254D01*
X136707238Y-114000000D01*
X96371717Y-114000000D01*
X96725538Y-113147906D01*
X96726658Y-111864922D01*
X96236716Y-110679171D01*
X95330301Y-109771173D01*
X95279311Y-109750000D01*
X97893144Y-109750000D01*
X97893144Y-112250000D01*
X97917549Y-112379702D01*
X97994203Y-112498825D01*
X98111163Y-112578741D01*
X98250000Y-112606856D01*
X100750000Y-112606856D01*
X100879702Y-112582451D01*
X100998825Y-112505797D01*
X101078741Y-112388837D01*
X101106856Y-112250000D01*
X101106856Y-112192565D01*
X103519567Y-112192565D01*
X103666534Y-112402363D01*
X104266639Y-112614568D01*
X104902271Y-112580970D01*
X105333466Y-112402363D01*
X105480433Y-112192565D01*
X104500000Y-111212132D01*
X103519567Y-112192565D01*
X101106856Y-112192565D01*
X101106856Y-110766639D01*
X102885432Y-110766639D01*
X102919030Y-111402271D01*
X103097637Y-111833466D01*
X103307435Y-111980433D01*
X104287868Y-111000000D01*
X104712132Y-111000000D01*
X105692565Y-111980433D01*
X105902363Y-111833466D01*
X106114568Y-111233361D01*
X106080970Y-110597729D01*
X105902363Y-110166534D01*
X105692565Y-110019567D01*
X104712132Y-111000000D01*
X104287868Y-111000000D01*
X103307435Y-110019567D01*
X103097637Y-110166534D01*
X102885432Y-110766639D01*
X101106856Y-110766639D01*
X101106856Y-109807435D01*
X103519567Y-109807435D01*
X104500000Y-110787868D01*
X105480433Y-109807435D01*
X105333466Y-109597637D01*
X104733361Y-109385432D01*
X104097729Y-109419030D01*
X103666534Y-109597637D01*
X103519567Y-109807435D01*
X101106856Y-109807435D01*
X101106856Y-109750000D01*
X101082451Y-109620298D01*
X101005797Y-109501175D01*
X100888837Y-109421259D01*
X100750000Y-109393144D01*
X98250000Y-109393144D01*
X98120298Y-109417549D01*
X98001175Y-109494203D01*
X97921259Y-109611163D01*
X97893144Y-109750000D01*
X95279311Y-109750000D01*
X94145406Y-109279162D01*
X92862422Y-109278042D01*
X91676671Y-109767984D01*
X90768673Y-110674399D01*
X90350000Y-111682676D01*
X90350000Y-106750000D01*
X110300000Y-106750000D01*
X110364702Y-107075281D01*
X110548959Y-107351041D01*
X111546608Y-108348690D01*
X111822368Y-108532947D01*
X112147649Y-108597650D01*
X112147654Y-108597649D01*
X131573023Y-108597649D01*
X131898304Y-108532947D01*
X132174064Y-108348690D01*
X132358321Y-108072930D01*
X132423023Y-107747649D01*
X132394522Y-107604362D01*
X132430000Y-107426000D01*
X132430000Y-106782856D01*
X132443600Y-106782856D01*
X132573302Y-106758451D01*
X132692425Y-106681797D01*
X132772341Y-106564837D01*
X132800456Y-106426000D01*
X132800456Y-104394000D01*
X132776051Y-104264298D01*
X132699397Y-104145175D01*
X132582437Y-104065259D01*
X132443600Y-104037144D01*
X130716400Y-104037144D01*
X130586698Y-104061549D01*
X130467575Y-104138203D01*
X130387659Y-104255163D01*
X130359544Y-104394000D01*
X130359544Y-106426000D01*
X130383949Y-106555702D01*
X130460603Y-106674825D01*
X130577563Y-106754741D01*
X130716400Y-106782856D01*
X130730000Y-106782856D01*
X130730000Y-106897649D01*
X112499731Y-106897649D01*
X111751041Y-106148959D01*
X111475281Y-105964702D01*
X111150000Y-105900000D01*
X110824719Y-105964702D01*
X110548959Y-106148959D01*
X110364702Y-106424719D01*
X110300000Y-106750000D01*
X90350000Y-106750000D01*
X90350000Y-105749902D01*
X112600820Y-105749902D01*
X112763856Y-106194536D01*
X113084636Y-106542933D01*
X113463454Y-106728402D01*
X113650000Y-106678465D01*
X113650000Y-105560000D01*
X113950000Y-105560000D01*
X113950000Y-106678465D01*
X114136546Y-106728402D01*
X114515364Y-106542933D01*
X114836144Y-106194536D01*
X114999180Y-105749902D01*
X115140820Y-105749902D01*
X115303856Y-106194536D01*
X115624636Y-106542933D01*
X116003454Y-106728402D01*
X116190000Y-106678465D01*
X116190000Y-105560000D01*
X116490000Y-105560000D01*
X116490000Y-106678465D01*
X116676546Y-106728402D01*
X117055364Y-106542933D01*
X117376144Y-106194536D01*
X117539180Y-105749902D01*
X117466248Y-105560000D01*
X116490000Y-105560000D01*
X116190000Y-105560000D01*
X115213752Y-105560000D01*
X115140820Y-105749902D01*
X114999180Y-105749902D01*
X114926248Y-105560000D01*
X113950000Y-105560000D01*
X113650000Y-105560000D01*
X112673752Y-105560000D01*
X112600820Y-105749902D01*
X90350000Y-105749902D01*
X90350000Y-102378726D01*
X93099888Y-102378726D01*
X93198636Y-102617714D01*
X93275000Y-102694212D01*
X93275000Y-104555734D01*
X93199278Y-104631324D01*
X93100113Y-104870140D01*
X93099888Y-105128726D01*
X93198636Y-105367714D01*
X93381324Y-105550722D01*
X93620140Y-105649887D01*
X93878726Y-105650112D01*
X94117714Y-105551364D01*
X94300722Y-105368676D01*
X94399887Y-105129860D01*
X94400112Y-104871274D01*
X94301364Y-104632286D01*
X94225000Y-104555788D01*
X94225000Y-102694266D01*
X94300722Y-102618676D01*
X94399887Y-102379860D01*
X94400112Y-102121274D01*
X94301364Y-101882286D01*
X94118676Y-101699278D01*
X93879860Y-101600113D01*
X93621274Y-101599888D01*
X93382286Y-101698636D01*
X93199278Y-101881324D01*
X93100113Y-102120140D01*
X93099888Y-102378726D01*
X90350000Y-102378726D01*
X90350000Y-101460000D01*
X103107238Y-101460000D01*
X103211219Y-101982746D01*
X103507330Y-102425908D01*
X103808501Y-102627144D01*
X103484000Y-102627144D01*
X103354298Y-102651549D01*
X103235175Y-102728203D01*
X103155259Y-102845163D01*
X103127144Y-102984000D01*
X103127144Y-105016000D01*
X103151549Y-105145702D01*
X103228203Y-105264825D01*
X103345163Y-105344741D01*
X103484000Y-105372856D01*
X105516000Y-105372856D01*
X105645702Y-105348451D01*
X105764825Y-105271797D01*
X105844741Y-105154837D01*
X105861900Y-105070098D01*
X112600820Y-105070098D01*
X112673752Y-105260000D01*
X113650000Y-105260000D01*
X113650000Y-104141535D01*
X113950000Y-104141535D01*
X113950000Y-105260000D01*
X114926248Y-105260000D01*
X114999180Y-105070098D01*
X115140820Y-105070098D01*
X115213752Y-105260000D01*
X116190000Y-105260000D01*
X116190000Y-104141535D01*
X116490000Y-104141535D01*
X116490000Y-105260000D01*
X117466248Y-105260000D01*
X117477447Y-105230838D01*
X117666400Y-105230838D01*
X117666400Y-105589162D01*
X117758780Y-106053587D01*
X118021855Y-106447307D01*
X118415575Y-106710382D01*
X118880000Y-106802762D01*
X119344425Y-106710382D01*
X119738145Y-106447307D01*
X120001220Y-106053587D01*
X120093600Y-105589162D01*
X120093600Y-105230838D01*
X120001220Y-104766413D01*
X119752382Y-104394000D01*
X120199544Y-104394000D01*
X120199544Y-106426000D01*
X120223949Y-106555702D01*
X120300603Y-106674825D01*
X120417563Y-106754741D01*
X120556400Y-106782856D01*
X122283600Y-106782856D01*
X122413302Y-106758451D01*
X122532425Y-106681797D01*
X122612341Y-106564837D01*
X122640456Y-106426000D01*
X122640456Y-105749902D01*
X122760820Y-105749902D01*
X122923856Y-106194536D01*
X123244636Y-106542933D01*
X123623454Y-106728402D01*
X123810000Y-106678465D01*
X123810000Y-105560000D01*
X124110000Y-105560000D01*
X124110000Y-106678465D01*
X124296546Y-106728402D01*
X124675364Y-106542933D01*
X124996144Y-106194536D01*
X125159180Y-105749902D01*
X125086248Y-105560000D01*
X124110000Y-105560000D01*
X123810000Y-105560000D01*
X122833752Y-105560000D01*
X122760820Y-105749902D01*
X122640456Y-105749902D01*
X122640456Y-105070098D01*
X122760820Y-105070098D01*
X122833752Y-105260000D01*
X123810000Y-105260000D01*
X123810000Y-104141535D01*
X124110000Y-104141535D01*
X124110000Y-105260000D01*
X125086248Y-105260000D01*
X125097447Y-105230838D01*
X125286400Y-105230838D01*
X125286400Y-105589162D01*
X125378780Y-106053587D01*
X125641855Y-106447307D01*
X126035575Y-106710382D01*
X126500000Y-106802762D01*
X126964425Y-106710382D01*
X127358145Y-106447307D01*
X127621220Y-106053587D01*
X127713600Y-105589162D01*
X127713600Y-105230838D01*
X127826400Y-105230838D01*
X127826400Y-105589162D01*
X127918780Y-106053587D01*
X128181855Y-106447307D01*
X128575575Y-106710382D01*
X129040000Y-106802762D01*
X129504425Y-106710382D01*
X129898145Y-106447307D01*
X130161220Y-106053587D01*
X130253600Y-105589162D01*
X130253600Y-105230838D01*
X130161220Y-104766413D01*
X129898145Y-104372693D01*
X129504425Y-104109618D01*
X129040000Y-104017238D01*
X128575575Y-104109618D01*
X128181855Y-104372693D01*
X127918780Y-104766413D01*
X127826400Y-105230838D01*
X127713600Y-105230838D01*
X127621220Y-104766413D01*
X127358145Y-104372693D01*
X126964425Y-104109618D01*
X126500000Y-104017238D01*
X126035575Y-104109618D01*
X125641855Y-104372693D01*
X125378780Y-104766413D01*
X125286400Y-105230838D01*
X125097447Y-105230838D01*
X125159180Y-105070098D01*
X124996144Y-104625464D01*
X124675364Y-104277067D01*
X124296546Y-104091598D01*
X124110000Y-104141535D01*
X123810000Y-104141535D01*
X123623454Y-104091598D01*
X123244636Y-104277067D01*
X122923856Y-104625464D01*
X122760820Y-105070098D01*
X122640456Y-105070098D01*
X122640456Y-104394000D01*
X122616051Y-104264298D01*
X122539397Y-104145175D01*
X122422437Y-104065259D01*
X122283600Y-104037144D01*
X120556400Y-104037144D01*
X120426698Y-104061549D01*
X120307575Y-104138203D01*
X120227659Y-104255163D01*
X120199544Y-104394000D01*
X119752382Y-104394000D01*
X119738145Y-104372693D01*
X119344425Y-104109618D01*
X118880000Y-104017238D01*
X118415575Y-104109618D01*
X118021855Y-104372693D01*
X117758780Y-104766413D01*
X117666400Y-105230838D01*
X117477447Y-105230838D01*
X117539180Y-105070098D01*
X117376144Y-104625464D01*
X117055364Y-104277067D01*
X116676546Y-104091598D01*
X116490000Y-104141535D01*
X116190000Y-104141535D01*
X116003454Y-104091598D01*
X115624636Y-104277067D01*
X115303856Y-104625464D01*
X115140820Y-105070098D01*
X114999180Y-105070098D01*
X114836144Y-104625464D01*
X114515364Y-104277067D01*
X114136546Y-104091598D01*
X113950000Y-104141535D01*
X113650000Y-104141535D01*
X113463454Y-104091598D01*
X113084636Y-104277067D01*
X112763856Y-104625464D01*
X112600820Y-105070098D01*
X105861900Y-105070098D01*
X105872856Y-105016000D01*
X105872856Y-102984000D01*
X105848451Y-102854298D01*
X105771797Y-102735175D01*
X105654837Y-102655259D01*
X105516000Y-102627144D01*
X105191499Y-102627144D01*
X105492670Y-102425908D01*
X105788781Y-101982746D01*
X105892762Y-101460000D01*
X105788781Y-100937254D01*
X105492670Y-100494092D01*
X105049508Y-100197981D01*
X104526762Y-100094000D01*
X104473238Y-100094000D01*
X103950492Y-100197981D01*
X103507330Y-100494092D01*
X103211219Y-100937254D01*
X103107238Y-101460000D01*
X90350000Y-101460000D01*
X90350000Y-97559095D01*
X90354388Y-97537034D01*
X90891422Y-97000000D01*
X133650000Y-97000000D01*
X133650000Y-112000000D01*
X133752763Y-112516623D01*
X134045406Y-112954594D01*
X134483377Y-113247237D01*
X135000000Y-113350000D01*
X135516623Y-113247237D01*
X135954594Y-112954594D01*
X136247237Y-112516623D01*
X136350000Y-112000000D01*
X136350000Y-97000000D01*
X136247237Y-96483377D01*
X135954594Y-96045406D01*
X135516623Y-95752763D01*
X135000000Y-95650000D01*
X134483377Y-95752763D01*
X134045406Y-96045406D01*
X133752763Y-96483377D01*
X133650000Y-97000000D01*
X90891422Y-97000000D01*
X91037034Y-96854388D01*
X91059095Y-96850000D01*
X94500000Y-96850000D01*
X94538906Y-96842121D01*
X94570711Y-96820711D01*
X94859268Y-96532154D01*
X94863668Y-96529214D01*
X94863671Y-96529213D01*
X95029211Y-96363673D01*
X95032155Y-96359267D01*
X95320711Y-96070711D01*
X95342650Y-96037629D01*
X95350000Y-96000000D01*
X95350000Y-91948000D01*
X100215238Y-91948000D01*
X100319219Y-92470746D01*
X100615330Y-92913908D01*
X100916501Y-93115144D01*
X100592000Y-93115144D01*
X100462298Y-93139549D01*
X100343175Y-93216203D01*
X100263259Y-93333163D01*
X100235144Y-93472000D01*
X100235144Y-95504000D01*
X100259549Y-95633702D01*
X100336203Y-95752825D01*
X100453163Y-95832741D01*
X100592000Y-95860856D01*
X102624000Y-95860856D01*
X102753702Y-95836451D01*
X102872825Y-95759797D01*
X102952741Y-95642837D01*
X102980856Y-95504000D01*
X102980856Y-93472000D01*
X102956451Y-93342298D01*
X102879797Y-93223175D01*
X102762837Y-93143259D01*
X102624000Y-93115144D01*
X102299499Y-93115144D01*
X102600670Y-92913908D01*
X102896781Y-92470746D01*
X102918715Y-92360473D01*
X115714446Y-92360473D01*
X115813194Y-92599461D01*
X115995882Y-92782469D01*
X116234698Y-92881634D01*
X116493284Y-92881859D01*
X116732272Y-92783111D01*
X116915280Y-92600423D01*
X117014445Y-92361607D01*
X117014539Y-92253518D01*
X117139331Y-92128726D01*
X124849888Y-92128726D01*
X124948636Y-92367714D01*
X125131324Y-92550722D01*
X125370140Y-92649887D01*
X125628726Y-92650112D01*
X125867714Y-92551364D01*
X125944212Y-92475000D01*
X128500000Y-92475000D01*
X128681775Y-92438843D01*
X128835876Y-92335876D01*
X131631751Y-89540000D01*
X134762624Y-89540000D01*
X134855004Y-90004425D01*
X135118079Y-90398145D01*
X135511799Y-90661220D01*
X135976224Y-90753600D01*
X136023776Y-90753600D01*
X136488201Y-90661220D01*
X136881921Y-90398145D01*
X137144996Y-90004425D01*
X137190134Y-89777500D01*
X137326400Y-89777500D01*
X137326400Y-90473220D01*
X137379685Y-90601859D01*
X137478141Y-90700316D01*
X137606781Y-90753600D01*
X138302500Y-90753600D01*
X138390000Y-90666100D01*
X138390000Y-89690000D01*
X138690000Y-89690000D01*
X138690000Y-90666100D01*
X138777500Y-90753600D01*
X139473219Y-90753600D01*
X139601859Y-90700316D01*
X139700315Y-90601859D01*
X139753600Y-90473220D01*
X139753600Y-89777500D01*
X139666100Y-89690000D01*
X138690000Y-89690000D01*
X138390000Y-89690000D01*
X137413900Y-89690000D01*
X137326400Y-89777500D01*
X137190134Y-89777500D01*
X137237376Y-89540000D01*
X137144996Y-89075575D01*
X136881921Y-88681855D01*
X136769564Y-88606780D01*
X137326400Y-88606780D01*
X137326400Y-89302500D01*
X137413900Y-89390000D01*
X138390000Y-89390000D01*
X138390000Y-88413900D01*
X138690000Y-88413900D01*
X138690000Y-89390000D01*
X139666100Y-89390000D01*
X139753600Y-89302500D01*
X139753600Y-88606780D01*
X139700315Y-88478141D01*
X139601859Y-88379684D01*
X139473219Y-88326400D01*
X138777500Y-88326400D01*
X138690000Y-88413900D01*
X138390000Y-88413900D01*
X138302500Y-88326400D01*
X137606781Y-88326400D01*
X137478141Y-88379684D01*
X137379685Y-88478141D01*
X137326400Y-88606780D01*
X136769564Y-88606780D01*
X136488201Y-88418780D01*
X136023776Y-88326400D01*
X135976224Y-88326400D01*
X135511799Y-88418780D01*
X135118079Y-88681855D01*
X134855004Y-89075575D01*
X134762624Y-89540000D01*
X131631751Y-89540000D01*
X132535874Y-88635877D01*
X132535877Y-88635875D01*
X132638844Y-88481774D01*
X132659151Y-88379684D01*
X132675002Y-88299999D01*
X132675001Y-88299994D01*
X132675001Y-87230992D01*
X132867714Y-87151364D01*
X133019343Y-87000000D01*
X134762624Y-87000000D01*
X134855004Y-87464425D01*
X135118079Y-87858145D01*
X135511799Y-88121220D01*
X135976224Y-88213600D01*
X136023776Y-88213600D01*
X136488201Y-88121220D01*
X136881921Y-87858145D01*
X137144996Y-87464425D01*
X137170432Y-87336546D01*
X137373998Y-87336546D01*
X137477526Y-87586522D01*
X137782854Y-87948467D01*
X138203451Y-88166016D01*
X138390000Y-88116808D01*
X138390000Y-87150000D01*
X138690000Y-87150000D01*
X138690000Y-88116808D01*
X138876549Y-88166016D01*
X139297146Y-87948467D01*
X139602474Y-87586522D01*
X139706002Y-87336546D01*
X139656065Y-87150000D01*
X138690000Y-87150000D01*
X138390000Y-87150000D01*
X137423935Y-87150000D01*
X137373998Y-87336546D01*
X137170432Y-87336546D01*
X137237376Y-87000000D01*
X137170433Y-86663454D01*
X137373998Y-86663454D01*
X137423935Y-86850000D01*
X138390000Y-86850000D01*
X138390000Y-85883192D01*
X138690000Y-85883192D01*
X138690000Y-86850000D01*
X139656065Y-86850000D01*
X139706002Y-86663454D01*
X139602474Y-86413478D01*
X139297146Y-86051533D01*
X138876549Y-85833984D01*
X138690000Y-85883192D01*
X138390000Y-85883192D01*
X138203451Y-85833984D01*
X137782854Y-86051533D01*
X137477526Y-86413478D01*
X137373998Y-86663454D01*
X137170433Y-86663454D01*
X137144996Y-86535575D01*
X136881921Y-86141855D01*
X136488201Y-85878780D01*
X136023776Y-85786400D01*
X135976224Y-85786400D01*
X135511799Y-85878780D01*
X135118079Y-86141855D01*
X134855004Y-86535575D01*
X134762624Y-87000000D01*
X133019343Y-87000000D01*
X133050722Y-86968676D01*
X133149887Y-86729860D01*
X133150112Y-86471274D01*
X133051364Y-86232286D01*
X132868676Y-86049278D01*
X132629860Y-85950113D01*
X132371274Y-85949888D01*
X132132286Y-86048636D01*
X131949278Y-86231324D01*
X131850113Y-86470140D01*
X131850013Y-86585243D01*
X131761158Y-86718224D01*
X131725001Y-86899999D01*
X131725001Y-88103248D01*
X128303248Y-91525000D01*
X125944266Y-91525000D01*
X125868676Y-91449278D01*
X125629860Y-91350113D01*
X125371274Y-91349888D01*
X125132286Y-91448636D01*
X124949278Y-91631324D01*
X124850113Y-91870140D01*
X124849888Y-92128726D01*
X117139331Y-92128726D01*
X117616431Y-91651626D01*
X118160026Y-91651626D01*
X118235616Y-91727348D01*
X118474432Y-91826513D01*
X118733018Y-91826738D01*
X118972006Y-91727990D01*
X119155014Y-91545302D01*
X119254179Y-91306486D01*
X119254404Y-91047900D01*
X119155656Y-90808912D01*
X118972968Y-90625904D01*
X118734152Y-90526739D01*
X118475566Y-90526514D01*
X118236578Y-90625262D01*
X118160080Y-90701626D01*
X117419684Y-90701626D01*
X117419679Y-90701625D01*
X117268063Y-90731784D01*
X117237904Y-90737783D01*
X117132892Y-90807950D01*
X117083803Y-90840750D01*
X116342825Y-91581728D01*
X116235832Y-91581635D01*
X115996844Y-91680383D01*
X115813836Y-91863071D01*
X115714671Y-92101887D01*
X115714446Y-92360473D01*
X102918715Y-92360473D01*
X103000762Y-91948000D01*
X102896781Y-91425254D01*
X102600670Y-90982092D01*
X102157508Y-90685981D01*
X101634762Y-90582000D01*
X101581238Y-90582000D01*
X101058492Y-90685981D01*
X100615330Y-90982092D01*
X100319219Y-91425254D01*
X100215238Y-91948000D01*
X95350000Y-91948000D01*
X95350000Y-88378726D01*
X129849888Y-88378726D01*
X129948636Y-88617714D01*
X130131324Y-88800722D01*
X130370140Y-88899887D01*
X130628726Y-88900112D01*
X130867714Y-88801364D01*
X131050722Y-88618676D01*
X131149887Y-88379860D01*
X131150112Y-88121274D01*
X131051364Y-87882286D01*
X130975000Y-87805788D01*
X130975000Y-84460000D01*
X134762624Y-84460000D01*
X134855004Y-84924425D01*
X135118079Y-85318145D01*
X135511799Y-85581220D01*
X135976224Y-85673600D01*
X136023776Y-85673600D01*
X136488201Y-85581220D01*
X136881921Y-85318145D01*
X137144996Y-84924425D01*
X137237376Y-84460000D01*
X137302624Y-84460000D01*
X137395004Y-84924425D01*
X137658079Y-85318145D01*
X138051799Y-85581220D01*
X138516224Y-85673600D01*
X138563776Y-85673600D01*
X139028201Y-85581220D01*
X139421921Y-85318145D01*
X139684996Y-84924425D01*
X139777376Y-84460000D01*
X139684996Y-83995575D01*
X139421921Y-83601855D01*
X139028201Y-83338780D01*
X138563776Y-83246400D01*
X138516224Y-83246400D01*
X138051799Y-83338780D01*
X137658079Y-83601855D01*
X137395004Y-83995575D01*
X137302624Y-84460000D01*
X137237376Y-84460000D01*
X137144996Y-83995575D01*
X136881921Y-83601855D01*
X136488201Y-83338780D01*
X136023776Y-83246400D01*
X135976224Y-83246400D01*
X135511799Y-83338780D01*
X135118079Y-83601855D01*
X134855004Y-83995575D01*
X134762624Y-84460000D01*
X130975000Y-84460000D01*
X130975000Y-81920000D01*
X134762624Y-81920000D01*
X134855004Y-82384425D01*
X135118079Y-82778145D01*
X135511799Y-83041220D01*
X135976224Y-83133600D01*
X136023776Y-83133600D01*
X136488201Y-83041220D01*
X136881921Y-82778145D01*
X137144996Y-82384425D01*
X137237376Y-81920000D01*
X137302624Y-81920000D01*
X137395004Y-82384425D01*
X137658079Y-82778145D01*
X138051799Y-83041220D01*
X138516224Y-83133600D01*
X138563776Y-83133600D01*
X139028201Y-83041220D01*
X139421921Y-82778145D01*
X139684996Y-82384425D01*
X139777376Y-81920000D01*
X139684996Y-81455575D01*
X139421921Y-81061855D01*
X139028201Y-80798780D01*
X138563776Y-80706400D01*
X138516224Y-80706400D01*
X138051799Y-80798780D01*
X137658079Y-81061855D01*
X137395004Y-81455575D01*
X137302624Y-81920000D01*
X137237376Y-81920000D01*
X137144996Y-81455575D01*
X136881921Y-81061855D01*
X136488201Y-80798780D01*
X136023776Y-80706400D01*
X135976224Y-80706400D01*
X135511799Y-80798780D01*
X135118079Y-81061855D01*
X134855004Y-81455575D01*
X134762624Y-81920000D01*
X130975000Y-81920000D01*
X130975000Y-80340693D01*
X131148959Y-80601041D01*
X131424719Y-80785298D01*
X131750000Y-80850000D01*
X132075281Y-80785298D01*
X132351041Y-80601041D01*
X132417690Y-80501294D01*
X132568984Y-80350000D01*
X135500000Y-80350000D01*
X135825281Y-80285298D01*
X136101041Y-80101041D01*
X136285298Y-79825281D01*
X136350000Y-79500000D01*
X136285298Y-79174719D01*
X136101041Y-78898959D01*
X135825281Y-78714702D01*
X135500000Y-78650000D01*
X132216902Y-78650000D01*
X131891621Y-78714702D01*
X131615861Y-78898959D01*
X131148959Y-79365861D01*
X130975000Y-79626209D01*
X130975000Y-74596618D01*
X131180917Y-74511535D01*
X131363925Y-74328847D01*
X131463090Y-74090031D01*
X131463315Y-73831445D01*
X131364567Y-73592457D01*
X131181879Y-73409449D01*
X130943063Y-73310284D01*
X130684477Y-73310059D01*
X130445489Y-73408807D01*
X130262481Y-73591495D01*
X130163316Y-73830311D01*
X130163222Y-73938849D01*
X130061157Y-74091599D01*
X130025000Y-74273374D01*
X130025000Y-87805734D01*
X129949278Y-87881324D01*
X129850113Y-88120140D01*
X129849888Y-88378726D01*
X95350000Y-88378726D01*
X95350000Y-85832752D01*
X98599878Y-85832752D01*
X98698626Y-86071740D01*
X98881314Y-86254748D01*
X99120130Y-86353913D01*
X99378716Y-86354138D01*
X99617704Y-86255390D01*
X99694202Y-86179026D01*
X100855734Y-86179026D01*
X100931324Y-86254748D01*
X101170140Y-86353913D01*
X101428726Y-86354138D01*
X101667714Y-86255390D01*
X101850722Y-86072702D01*
X101949887Y-85833886D01*
X101949887Y-85832752D01*
X103649888Y-85832752D01*
X103748636Y-86071740D01*
X103931324Y-86254748D01*
X104170140Y-86353913D01*
X104428726Y-86354138D01*
X104667714Y-86255390D01*
X104744212Y-86179026D01*
X107239459Y-86179026D01*
X107339425Y-86279167D01*
X107578241Y-86378332D01*
X107836827Y-86378557D01*
X108075815Y-86279809D01*
X108089834Y-86265814D01*
X126538147Y-86265814D01*
X126636895Y-86504802D01*
X126819583Y-86687810D01*
X127058399Y-86786975D01*
X127316985Y-86787200D01*
X127555973Y-86688452D01*
X127738981Y-86505764D01*
X127838146Y-86266948D01*
X127838240Y-86158859D01*
X129835876Y-84161223D01*
X129900755Y-84064124D01*
X129938843Y-84007122D01*
X129955178Y-83925000D01*
X129975001Y-83825347D01*
X129975000Y-83825342D01*
X129975000Y-72194266D01*
X130050722Y-72118676D01*
X130149887Y-71879860D01*
X130150112Y-71621274D01*
X130051364Y-71382286D01*
X129868676Y-71199278D01*
X129629860Y-71100113D01*
X129371274Y-71099888D01*
X129132286Y-71198636D01*
X128949278Y-71381324D01*
X128850113Y-71620140D01*
X128849888Y-71878726D01*
X128948636Y-72117714D01*
X129025000Y-72194212D01*
X129025000Y-83628595D01*
X127166526Y-85487069D01*
X127059533Y-85486976D01*
X126820545Y-85585724D01*
X126637537Y-85768412D01*
X126538372Y-86007228D01*
X126538147Y-86265814D01*
X108089834Y-86265814D01*
X108258823Y-86097121D01*
X108357988Y-85858305D01*
X108358213Y-85599719D01*
X108259465Y-85360731D01*
X108076777Y-85177723D01*
X107837961Y-85078558D01*
X107579375Y-85078333D01*
X107340387Y-85177081D01*
X107288351Y-85229026D01*
X104744266Y-85229026D01*
X104668676Y-85153304D01*
X104429860Y-85054139D01*
X104171274Y-85053914D01*
X103932286Y-85152662D01*
X103749278Y-85335350D01*
X103650113Y-85574166D01*
X103649888Y-85832752D01*
X101949887Y-85832752D01*
X101950112Y-85575300D01*
X101851364Y-85336312D01*
X101668676Y-85153304D01*
X101429860Y-85054139D01*
X101171274Y-85053914D01*
X100932286Y-85152662D01*
X100855788Y-85229026D01*
X99694256Y-85229026D01*
X99618666Y-85153304D01*
X99379850Y-85054139D01*
X99121264Y-85053914D01*
X98882276Y-85152662D01*
X98699268Y-85335350D01*
X98600103Y-85574166D01*
X98599878Y-85832752D01*
X95350000Y-85832752D01*
X95350000Y-84528726D01*
X103649888Y-84528726D01*
X103748636Y-84767714D01*
X103931324Y-84950722D01*
X104170140Y-85049887D01*
X104428726Y-85050112D01*
X104667714Y-84951364D01*
X104744212Y-84875000D01*
X106455734Y-84875000D01*
X106531324Y-84950722D01*
X106770140Y-85049887D01*
X107028726Y-85050112D01*
X107267714Y-84951364D01*
X107450722Y-84768676D01*
X107549887Y-84529860D01*
X107550112Y-84271274D01*
X107451364Y-84032286D01*
X107268676Y-83849278D01*
X107029860Y-83750113D01*
X106771274Y-83749888D01*
X106532286Y-83848636D01*
X106455788Y-83925000D01*
X104744266Y-83925000D01*
X104668676Y-83849278D01*
X104429860Y-83750113D01*
X104171274Y-83749888D01*
X103932286Y-83848636D01*
X103749278Y-84031324D01*
X103650113Y-84270140D01*
X103649888Y-84528726D01*
X95350000Y-84528726D01*
X95350000Y-82296000D01*
X104279238Y-82296000D01*
X104383219Y-82818746D01*
X104679330Y-83261908D01*
X105122492Y-83558019D01*
X105645238Y-83662000D01*
X105698762Y-83662000D01*
X106221508Y-83558019D01*
X106664670Y-83261908D01*
X106960781Y-82818746D01*
X107026210Y-82489809D01*
X117013473Y-82489809D01*
X117142662Y-82802472D01*
X117381669Y-83041897D01*
X117450819Y-83070610D01*
X117382928Y-83098662D01*
X117143503Y-83337669D01*
X117013768Y-83650107D01*
X117013473Y-83988409D01*
X117142662Y-84301072D01*
X117381669Y-84540497D01*
X117694107Y-84670232D01*
X118032409Y-84670527D01*
X118345072Y-84541338D01*
X118584497Y-84302331D01*
X118714232Y-83989893D01*
X118714527Y-83651591D01*
X118585338Y-83338928D01*
X118346331Y-83099503D01*
X118277181Y-83070790D01*
X118345072Y-83042738D01*
X118584497Y-82803731D01*
X118714232Y-82491293D01*
X118714527Y-82152991D01*
X118585338Y-81840328D01*
X118346331Y-81600903D01*
X118033893Y-81471168D01*
X117695591Y-81470873D01*
X117382928Y-81600062D01*
X117143503Y-81839069D01*
X117013768Y-82151507D01*
X117013473Y-82489809D01*
X107026210Y-82489809D01*
X107064762Y-82296000D01*
X106960781Y-81773254D01*
X106664670Y-81330092D01*
X106363499Y-81128856D01*
X106688000Y-81128856D01*
X106817702Y-81104451D01*
X106936825Y-81027797D01*
X107016741Y-80910837D01*
X107044856Y-80772000D01*
X107044856Y-78740000D01*
X107042735Y-78728726D01*
X112249888Y-78728726D01*
X112348636Y-78967714D01*
X112531324Y-79150722D01*
X112770140Y-79249887D01*
X112926544Y-79250023D01*
X112935166Y-79255784D01*
X113116941Y-79291941D01*
X115653021Y-79291941D01*
X115728611Y-79367663D01*
X115967427Y-79466828D01*
X116226013Y-79467053D01*
X116465001Y-79368305D01*
X116648009Y-79185617D01*
X116747174Y-78946801D01*
X116747399Y-78688215D01*
X116648651Y-78449227D01*
X116465963Y-78266219D01*
X116227147Y-78167054D01*
X115968561Y-78166829D01*
X115729573Y-78265577D01*
X115653075Y-78341941D01*
X113496673Y-78341941D01*
X113451364Y-78232286D01*
X113268676Y-78049278D01*
X113029860Y-77950113D01*
X112771274Y-77949888D01*
X112532286Y-78048636D01*
X112349278Y-78231324D01*
X112250113Y-78470140D01*
X112249888Y-78728726D01*
X107042735Y-78728726D01*
X107020451Y-78610298D01*
X106943797Y-78491175D01*
X106826837Y-78411259D01*
X106688000Y-78383144D01*
X104656000Y-78383144D01*
X104526298Y-78407549D01*
X104407175Y-78484203D01*
X104327259Y-78601163D01*
X104299144Y-78740000D01*
X104299144Y-80772000D01*
X104323549Y-80901702D01*
X104400203Y-81020825D01*
X104517163Y-81100741D01*
X104656000Y-81128856D01*
X104980501Y-81128856D01*
X104679330Y-81330092D01*
X104383219Y-81773254D01*
X104279238Y-82296000D01*
X95350000Y-82296000D01*
X95350000Y-80000000D01*
X95342121Y-79961094D01*
X95320711Y-79929289D01*
X95032155Y-79640733D01*
X95029211Y-79636327D01*
X94863671Y-79470787D01*
X94863668Y-79470786D01*
X94859268Y-79467846D01*
X94570711Y-79179289D01*
X94537629Y-79157350D01*
X94500000Y-79150000D01*
X91059095Y-79150000D01*
X91037034Y-79145612D01*
X90354388Y-78462966D01*
X90350000Y-78440905D01*
X90350000Y-76958000D01*
X99579238Y-76958000D01*
X99671618Y-77422425D01*
X99934693Y-77816145D01*
X100328413Y-78079220D01*
X100792838Y-78171600D01*
X101151162Y-78171600D01*
X101615587Y-78079220D01*
X102009307Y-77816145D01*
X102272382Y-77422425D01*
X102364762Y-76958000D01*
X102350983Y-76888726D01*
X113849888Y-76888726D01*
X113948636Y-77127714D01*
X114131324Y-77310722D01*
X114370140Y-77409887D01*
X114478229Y-77409981D01*
X115004122Y-77935873D01*
X115004124Y-77935876D01*
X115101766Y-78001118D01*
X115158225Y-78038843D01*
X115340000Y-78075000D01*
X118255734Y-78075000D01*
X118331324Y-78150722D01*
X118570140Y-78249887D01*
X118828726Y-78250112D01*
X119067714Y-78151364D01*
X119250722Y-77968676D01*
X119349887Y-77729860D01*
X119350112Y-77471274D01*
X119251364Y-77232286D01*
X119068676Y-77049278D01*
X118829860Y-76950113D01*
X118571274Y-76949888D01*
X118332286Y-77048636D01*
X118255788Y-77125000D01*
X115536751Y-77125000D01*
X115150019Y-76738267D01*
X115150112Y-76631274D01*
X115051364Y-76392286D01*
X114868676Y-76209278D01*
X114629860Y-76110113D01*
X114371274Y-76109888D01*
X114132286Y-76208636D01*
X113949278Y-76391324D01*
X113850113Y-76630140D01*
X113849888Y-76888726D01*
X102350983Y-76888726D01*
X102272382Y-76493575D01*
X102009307Y-76099855D01*
X101615587Y-75836780D01*
X101151162Y-75744400D01*
X100792838Y-75744400D01*
X100328413Y-75836780D01*
X99934693Y-76099855D01*
X99671618Y-76493575D01*
X99579238Y-76958000D01*
X90350000Y-76958000D01*
X90350000Y-74754546D01*
X99653598Y-74754546D01*
X99839067Y-75133364D01*
X100187464Y-75454144D01*
X100632098Y-75617180D01*
X100822000Y-75544248D01*
X100822000Y-74568000D01*
X101122000Y-74568000D01*
X101122000Y-75544248D01*
X101311902Y-75617180D01*
X101756536Y-75454144D01*
X102104933Y-75133364D01*
X102290402Y-74754546D01*
X102240465Y-74568000D01*
X101122000Y-74568000D01*
X100822000Y-74568000D01*
X99703535Y-74568000D01*
X99653598Y-74754546D01*
X90350000Y-74754546D01*
X90350000Y-74081454D01*
X99653598Y-74081454D01*
X99703535Y-74268000D01*
X100822000Y-74268000D01*
X100822000Y-73291752D01*
X101122000Y-73291752D01*
X101122000Y-74268000D01*
X102240465Y-74268000D01*
X102290402Y-74081454D01*
X102104933Y-73702636D01*
X101756536Y-73381856D01*
X101311902Y-73218820D01*
X101122000Y-73291752D01*
X100822000Y-73291752D01*
X100632098Y-73218820D01*
X100187464Y-73381856D01*
X99839067Y-73702636D01*
X99653598Y-74081454D01*
X90350000Y-74081454D01*
X90350000Y-71878000D01*
X99579238Y-71878000D01*
X99671618Y-72342425D01*
X99934693Y-72736145D01*
X100328413Y-72999220D01*
X100792838Y-73091600D01*
X101151162Y-73091600D01*
X101615587Y-72999220D01*
X102009307Y-72736145D01*
X102272382Y-72342425D01*
X102364762Y-71878000D01*
X102272382Y-71413575D01*
X102009307Y-71019855D01*
X101615587Y-70756780D01*
X101151162Y-70664400D01*
X100792838Y-70664400D01*
X100328413Y-70756780D01*
X99934693Y-71019855D01*
X99671618Y-71413575D01*
X99579238Y-71878000D01*
X90350000Y-71878000D01*
X90350000Y-68474400D01*
X99599144Y-68474400D01*
X99599144Y-70201600D01*
X99623549Y-70331302D01*
X99700203Y-70450425D01*
X99817163Y-70530341D01*
X99956000Y-70558456D01*
X101988000Y-70558456D01*
X102117702Y-70534051D01*
X102133321Y-70524000D01*
X139127144Y-70524000D01*
X139127144Y-72556000D01*
X139151549Y-72685702D01*
X139228203Y-72804825D01*
X139345163Y-72884741D01*
X139484000Y-72912856D01*
X141516000Y-72912856D01*
X141645702Y-72888451D01*
X141764825Y-72811797D01*
X141844741Y-72694837D01*
X141872856Y-72556000D01*
X141872856Y-70524000D01*
X141860626Y-70459000D01*
X146409000Y-70459000D01*
X146473702Y-70784281D01*
X146657959Y-71060041D01*
X146933719Y-71244298D01*
X147259000Y-71309000D01*
X150706918Y-71309000D01*
X151398959Y-72001041D01*
X151674719Y-72185298D01*
X152000000Y-72250000D01*
X152325281Y-72185298D01*
X152601041Y-72001041D01*
X152785298Y-71725281D01*
X152850000Y-71400000D01*
X152785298Y-71074719D01*
X152601041Y-70798959D01*
X151660041Y-69857959D01*
X151384281Y-69673702D01*
X151059000Y-69609000D01*
X147259000Y-69609000D01*
X146933719Y-69673702D01*
X146657959Y-69857959D01*
X146473702Y-70133719D01*
X146409000Y-70459000D01*
X141860626Y-70459000D01*
X141848451Y-70394298D01*
X141771797Y-70275175D01*
X141654837Y-70195259D01*
X141516000Y-70167144D01*
X141161548Y-70167144D01*
X141337319Y-70079300D01*
X141686612Y-69676715D01*
X141817558Y-69360550D01*
X141769670Y-69150000D01*
X140650000Y-69150000D01*
X140650000Y-69170000D01*
X140350000Y-69170000D01*
X140350000Y-69150000D01*
X139230330Y-69150000D01*
X139182442Y-69360550D01*
X139313388Y-69676715D01*
X139662681Y-70079300D01*
X139838452Y-70167144D01*
X139484000Y-70167144D01*
X139354298Y-70191549D01*
X139235175Y-70268203D01*
X139155259Y-70385163D01*
X139127144Y-70524000D01*
X102133321Y-70524000D01*
X102236825Y-70457397D01*
X102316741Y-70340437D01*
X102344856Y-70201600D01*
X102344856Y-68474400D01*
X102320451Y-68344698D01*
X102243797Y-68225575D01*
X102126837Y-68145659D01*
X101988000Y-68117544D01*
X99956000Y-68117544D01*
X99826298Y-68141949D01*
X99707175Y-68218603D01*
X99627259Y-68335563D01*
X99599144Y-68474400D01*
X90350000Y-68474400D01*
X90350000Y-64322480D01*
X90765484Y-65328029D01*
X91671899Y-66236027D01*
X92856794Y-66728038D01*
X94139778Y-66729158D01*
X95325529Y-66239216D01*
X96233527Y-65332801D01*
X96725538Y-64147906D01*
X96725745Y-63910000D01*
X97150644Y-63910000D01*
X97150644Y-65637200D01*
X97175049Y-65766902D01*
X97251703Y-65886025D01*
X97368663Y-65965941D01*
X97507500Y-65994056D01*
X99234700Y-65994056D01*
X99364402Y-65969651D01*
X99483525Y-65892997D01*
X99563441Y-65776037D01*
X99591556Y-65637200D01*
X99591556Y-64749824D01*
X99697500Y-64749824D01*
X99697500Y-64797376D01*
X99789880Y-65261801D01*
X100052955Y-65655521D01*
X100446675Y-65918596D01*
X100911100Y-66010976D01*
X101375525Y-65918596D01*
X101769245Y-65655521D01*
X102032320Y-65261801D01*
X102124700Y-64797376D01*
X102124700Y-64749824D01*
X102237500Y-64749824D01*
X102237500Y-64797376D01*
X102329880Y-65261801D01*
X102592955Y-65655521D01*
X102986675Y-65918596D01*
X103451100Y-66010976D01*
X103915525Y-65918596D01*
X104309245Y-65655521D01*
X104572320Y-65261801D01*
X104664700Y-64797376D01*
X104664700Y-64749824D01*
X104777500Y-64749824D01*
X104777500Y-64797376D01*
X104869880Y-65261801D01*
X105132955Y-65655521D01*
X105526675Y-65918596D01*
X105991100Y-66010976D01*
X106455525Y-65918596D01*
X106849245Y-65655521D01*
X107112320Y-65261801D01*
X107142485Y-65110149D01*
X107365084Y-65110149D01*
X107582633Y-65530746D01*
X107944578Y-65836074D01*
X108194554Y-65939602D01*
X108381100Y-65889665D01*
X108381100Y-64923600D01*
X108681100Y-64923600D01*
X108681100Y-65889665D01*
X108867646Y-65939602D01*
X109117622Y-65836074D01*
X109479567Y-65530746D01*
X109697116Y-65110149D01*
X109647908Y-64923600D01*
X108681100Y-64923600D01*
X108381100Y-64923600D01*
X107414292Y-64923600D01*
X107365084Y-65110149D01*
X107142485Y-65110149D01*
X107204700Y-64797376D01*
X107204700Y-64749824D01*
X109857500Y-64749824D01*
X109857500Y-64797376D01*
X109949880Y-65261801D01*
X110212955Y-65655521D01*
X110606675Y-65918596D01*
X111071100Y-66010976D01*
X111535525Y-65918596D01*
X111929245Y-65655521D01*
X112192320Y-65261801D01*
X112284700Y-64797376D01*
X112284700Y-64749824D01*
X112397500Y-64749824D01*
X112397500Y-64797376D01*
X112489880Y-65261801D01*
X112752955Y-65655521D01*
X113146675Y-65918596D01*
X113611100Y-66010976D01*
X114075525Y-65918596D01*
X114469245Y-65655521D01*
X114732320Y-65261801D01*
X114824700Y-64797376D01*
X114824700Y-64749824D01*
X114937500Y-64749824D01*
X114937500Y-64797376D01*
X115029880Y-65261801D01*
X115292955Y-65655521D01*
X115686675Y-65918596D01*
X116151100Y-66010976D01*
X116615525Y-65918596D01*
X117009245Y-65655521D01*
X117272320Y-65261801D01*
X117364700Y-64797376D01*
X117364700Y-64749824D01*
X117477500Y-64749824D01*
X117477500Y-64797376D01*
X117569880Y-65261801D01*
X117832955Y-65655521D01*
X118226675Y-65918596D01*
X118691100Y-66010976D01*
X119155525Y-65918596D01*
X119549245Y-65655521D01*
X119812320Y-65261801D01*
X119904700Y-64797376D01*
X119904700Y-64749824D01*
X120017500Y-64749824D01*
X120017500Y-64797376D01*
X120109880Y-65261801D01*
X120372955Y-65655521D01*
X120766675Y-65918596D01*
X121231100Y-66010976D01*
X121695525Y-65918596D01*
X122089245Y-65655521D01*
X122352320Y-65261801D01*
X122444700Y-64797376D01*
X122444700Y-64749824D01*
X122352320Y-64285399D01*
X122089245Y-63891679D01*
X121695525Y-63628604D01*
X121231100Y-63536224D01*
X120766675Y-63628604D01*
X120372955Y-63891679D01*
X120109880Y-64285399D01*
X120017500Y-64749824D01*
X119904700Y-64749824D01*
X119812320Y-64285399D01*
X119549245Y-63891679D01*
X119155525Y-63628604D01*
X118691100Y-63536224D01*
X118226675Y-63628604D01*
X117832955Y-63891679D01*
X117569880Y-64285399D01*
X117477500Y-64749824D01*
X117364700Y-64749824D01*
X117272320Y-64285399D01*
X117009245Y-63891679D01*
X116615525Y-63628604D01*
X116151100Y-63536224D01*
X115686675Y-63628604D01*
X115292955Y-63891679D01*
X115029880Y-64285399D01*
X114937500Y-64749824D01*
X114824700Y-64749824D01*
X114732320Y-64285399D01*
X114469245Y-63891679D01*
X114075525Y-63628604D01*
X113611100Y-63536224D01*
X113146675Y-63628604D01*
X112752955Y-63891679D01*
X112489880Y-64285399D01*
X112397500Y-64749824D01*
X112284700Y-64749824D01*
X112192320Y-64285399D01*
X111929245Y-63891679D01*
X111535525Y-63628604D01*
X111071100Y-63536224D01*
X110606675Y-63628604D01*
X110212955Y-63891679D01*
X109949880Y-64285399D01*
X109857500Y-64749824D01*
X107204700Y-64749824D01*
X107142486Y-64437051D01*
X107365084Y-64437051D01*
X107414292Y-64623600D01*
X108381100Y-64623600D01*
X108381100Y-63657535D01*
X108681100Y-63657535D01*
X108681100Y-64623600D01*
X109647908Y-64623600D01*
X109697116Y-64437051D01*
X109479567Y-64016454D01*
X109117622Y-63711126D01*
X108867646Y-63607598D01*
X108681100Y-63657535D01*
X108381100Y-63657535D01*
X108194554Y-63607598D01*
X107944578Y-63711126D01*
X107582633Y-64016454D01*
X107365084Y-64437051D01*
X107142486Y-64437051D01*
X107112320Y-64285399D01*
X106849245Y-63891679D01*
X106455525Y-63628604D01*
X105991100Y-63536224D01*
X105526675Y-63628604D01*
X105132955Y-63891679D01*
X104869880Y-64285399D01*
X104777500Y-64749824D01*
X104664700Y-64749824D01*
X104572320Y-64285399D01*
X104309245Y-63891679D01*
X103915525Y-63628604D01*
X103451100Y-63536224D01*
X102986675Y-63628604D01*
X102592955Y-63891679D01*
X102329880Y-64285399D01*
X102237500Y-64749824D01*
X102124700Y-64749824D01*
X102032320Y-64285399D01*
X101769245Y-63891679D01*
X101375525Y-63628604D01*
X100911100Y-63536224D01*
X100446675Y-63628604D01*
X100052955Y-63891679D01*
X99789880Y-64285399D01*
X99697500Y-64749824D01*
X99591556Y-64749824D01*
X99591556Y-63910000D01*
X99567151Y-63780298D01*
X99490497Y-63661175D01*
X99373537Y-63581259D01*
X99234700Y-63553144D01*
X97507500Y-63553144D01*
X97377798Y-63577549D01*
X97258675Y-63654203D01*
X97178759Y-63771163D01*
X97150644Y-63910000D01*
X96725745Y-63910000D01*
X96726658Y-62864922D01*
X96455978Y-62209824D01*
X97157500Y-62209824D01*
X97157500Y-62257376D01*
X97249880Y-62721801D01*
X97512955Y-63115521D01*
X97906675Y-63378596D01*
X98371100Y-63470976D01*
X98835525Y-63378596D01*
X99229245Y-63115521D01*
X99492320Y-62721801D01*
X99584700Y-62257376D01*
X99584700Y-62209824D01*
X99697500Y-62209824D01*
X99697500Y-62257376D01*
X99789880Y-62721801D01*
X100052955Y-63115521D01*
X100446675Y-63378596D01*
X100911100Y-63470976D01*
X101375525Y-63378596D01*
X101769245Y-63115521D01*
X102032320Y-62721801D01*
X102062485Y-62570149D01*
X102285084Y-62570149D01*
X102502633Y-62990746D01*
X102864578Y-63296074D01*
X103114554Y-63399602D01*
X103301100Y-63349665D01*
X103301100Y-62383600D01*
X103601100Y-62383600D01*
X103601100Y-63349665D01*
X103787646Y-63399602D01*
X104037622Y-63296074D01*
X104399567Y-62990746D01*
X104617116Y-62570149D01*
X104567908Y-62383600D01*
X103601100Y-62383600D01*
X103301100Y-62383600D01*
X102334292Y-62383600D01*
X102285084Y-62570149D01*
X102062485Y-62570149D01*
X102124700Y-62257376D01*
X102124700Y-62209824D01*
X104777500Y-62209824D01*
X104777500Y-62257376D01*
X104869880Y-62721801D01*
X105132955Y-63115521D01*
X105526675Y-63378596D01*
X105991100Y-63470976D01*
X106455525Y-63378596D01*
X106849245Y-63115521D01*
X107112320Y-62721801D01*
X107204700Y-62257376D01*
X107204700Y-62209824D01*
X107317500Y-62209824D01*
X107317500Y-62257376D01*
X107409880Y-62721801D01*
X107672955Y-63115521D01*
X108066675Y-63378596D01*
X108531100Y-63470976D01*
X108995525Y-63378596D01*
X109389245Y-63115521D01*
X109652320Y-62721801D01*
X109744700Y-62257376D01*
X109744700Y-62209824D01*
X109857500Y-62209824D01*
X109857500Y-62257376D01*
X109949880Y-62721801D01*
X110212955Y-63115521D01*
X110606675Y-63378596D01*
X111071100Y-63470976D01*
X111535525Y-63378596D01*
X111929245Y-63115521D01*
X112192320Y-62721801D01*
X112222485Y-62570149D01*
X112445084Y-62570149D01*
X112662633Y-62990746D01*
X113024578Y-63296074D01*
X113274554Y-63399602D01*
X113461100Y-63349665D01*
X113461100Y-62383600D01*
X113761100Y-62383600D01*
X113761100Y-63349665D01*
X113947646Y-63399602D01*
X114197622Y-63296074D01*
X114559567Y-62990746D01*
X114777116Y-62570149D01*
X114727908Y-62383600D01*
X113761100Y-62383600D01*
X113461100Y-62383600D01*
X112494292Y-62383600D01*
X112445084Y-62570149D01*
X112222485Y-62570149D01*
X112284700Y-62257376D01*
X112284700Y-62209824D01*
X114937500Y-62209824D01*
X114937500Y-62257376D01*
X115029880Y-62721801D01*
X115292955Y-63115521D01*
X115686675Y-63378596D01*
X116151100Y-63470976D01*
X116615525Y-63378596D01*
X117009245Y-63115521D01*
X117272320Y-62721801D01*
X117364700Y-62257376D01*
X117364700Y-62209824D01*
X117477500Y-62209824D01*
X117477500Y-62257376D01*
X117569880Y-62721801D01*
X117832955Y-63115521D01*
X118226675Y-63378596D01*
X118691100Y-63470976D01*
X119155525Y-63378596D01*
X119549245Y-63115521D01*
X119812320Y-62721801D01*
X119842485Y-62570149D01*
X120065084Y-62570149D01*
X120282633Y-62990746D01*
X120644578Y-63296074D01*
X120894554Y-63399602D01*
X121081100Y-63349665D01*
X121081100Y-62383600D01*
X121381100Y-62383600D01*
X121381100Y-63349665D01*
X121567646Y-63399602D01*
X121817622Y-63296074D01*
X122179567Y-62990746D01*
X122397116Y-62570149D01*
X122347908Y-62383600D01*
X121381100Y-62383600D01*
X121081100Y-62383600D01*
X120114292Y-62383600D01*
X120065084Y-62570149D01*
X119842485Y-62570149D01*
X119904700Y-62257376D01*
X119904700Y-62209824D01*
X122557500Y-62209824D01*
X122557500Y-62257376D01*
X122649880Y-62721801D01*
X122912955Y-63115521D01*
X123306675Y-63378596D01*
X123771100Y-63470976D01*
X124235525Y-63378596D01*
X124389254Y-63275878D01*
X124350113Y-63370140D01*
X124349888Y-63628726D01*
X124393434Y-63734115D01*
X124235525Y-63628604D01*
X123771100Y-63536224D01*
X123306675Y-63628604D01*
X122912955Y-63891679D01*
X122649880Y-64285399D01*
X122557500Y-64749824D01*
X122557500Y-64797376D01*
X122649880Y-65261801D01*
X122912955Y-65655521D01*
X123306675Y-65918596D01*
X123771100Y-66010976D01*
X124235525Y-65918596D01*
X124525000Y-65725175D01*
X124525000Y-67500000D01*
X124561157Y-67681775D01*
X124664124Y-67835876D01*
X124849981Y-68021733D01*
X124849888Y-68128726D01*
X124948636Y-68367714D01*
X125131324Y-68550722D01*
X125370140Y-68649887D01*
X125628726Y-68650112D01*
X125654529Y-68639450D01*
X139182442Y-68639450D01*
X139230330Y-68850000D01*
X140350000Y-68850000D01*
X140350000Y-67729748D01*
X140650000Y-67729748D01*
X140650000Y-68850000D01*
X141769670Y-68850000D01*
X141817558Y-68639450D01*
X141686612Y-68323285D01*
X141337319Y-67920700D01*
X140860552Y-67682429D01*
X140650000Y-67729748D01*
X140350000Y-67729748D01*
X140139448Y-67682429D01*
X139662681Y-67920700D01*
X139313388Y-68323285D01*
X139182442Y-68639450D01*
X125654529Y-68639450D01*
X125867714Y-68551364D01*
X126050722Y-68368676D01*
X126149887Y-68129860D01*
X126150112Y-67871274D01*
X126051364Y-67632286D01*
X125868676Y-67449278D01*
X125629860Y-67350113D01*
X125521771Y-67350019D01*
X125475000Y-67303248D01*
X125475000Y-65670251D01*
X125846675Y-65918596D01*
X126311100Y-66010976D01*
X126775525Y-65918596D01*
X127169245Y-65655521D01*
X127432320Y-65261801D01*
X127462485Y-65110149D01*
X127685084Y-65110149D01*
X127902633Y-65530746D01*
X128264578Y-65836074D01*
X128514554Y-65939602D01*
X128701100Y-65889665D01*
X128701100Y-64923600D01*
X129001100Y-64923600D01*
X129001100Y-65889665D01*
X129187646Y-65939602D01*
X129437622Y-65836074D01*
X129799567Y-65530746D01*
X130017116Y-65110149D01*
X129967908Y-64923600D01*
X129001100Y-64923600D01*
X128701100Y-64923600D01*
X127734292Y-64923600D01*
X127685084Y-65110149D01*
X127462485Y-65110149D01*
X127524700Y-64797376D01*
X127524700Y-64749824D01*
X130177500Y-64749824D01*
X130177500Y-64797376D01*
X130269880Y-65261801D01*
X130532955Y-65655521D01*
X130926675Y-65918596D01*
X131391100Y-66010976D01*
X131855525Y-65918596D01*
X131860812Y-65915063D01*
X132243823Y-66298074D01*
X132243825Y-66298077D01*
X132397926Y-66401044D01*
X132428085Y-66407043D01*
X132579701Y-66437202D01*
X132579706Y-66437201D01*
X143115449Y-66437201D01*
X144425000Y-67746752D01*
X144425000Y-68905734D01*
X144349278Y-68981324D01*
X144250113Y-69220140D01*
X144249888Y-69478726D01*
X144348636Y-69717714D01*
X144531324Y-69900722D01*
X144770140Y-69999887D01*
X145028726Y-70000112D01*
X145267714Y-69901364D01*
X145450722Y-69718676D01*
X145549887Y-69479860D01*
X145550112Y-69221274D01*
X145451364Y-68982286D01*
X145375000Y-68905788D01*
X145375000Y-67550000D01*
X145338843Y-67368225D01*
X145235876Y-67214124D01*
X144018234Y-65996482D01*
X144091100Y-66010976D01*
X144555525Y-65918596D01*
X144949245Y-65655521D01*
X145212320Y-65261801D01*
X145242485Y-65110149D01*
X145465084Y-65110149D01*
X145682633Y-65530746D01*
X146044578Y-65836074D01*
X146294554Y-65939602D01*
X146481100Y-65889665D01*
X146481100Y-64923600D01*
X146781100Y-64923600D01*
X146781100Y-65889665D01*
X146967646Y-65939602D01*
X147217622Y-65836074D01*
X147453385Y-65637190D01*
X147548636Y-65867714D01*
X147625000Y-65944212D01*
X147625000Y-66925010D01*
X147661157Y-67106785D01*
X147764124Y-67260886D01*
X148999981Y-68496743D01*
X148999888Y-68603736D01*
X149098636Y-68842724D01*
X149281324Y-69025732D01*
X149520140Y-69124897D01*
X149778726Y-69125122D01*
X150017714Y-69026374D01*
X150200722Y-68843686D01*
X150299887Y-68604870D01*
X150300112Y-68346284D01*
X150201364Y-68107296D01*
X150018676Y-67924288D01*
X149779860Y-67825123D01*
X149671771Y-67825029D01*
X148575000Y-66728258D01*
X148575000Y-65944266D01*
X148650722Y-65868676D01*
X148749887Y-65629860D01*
X148750112Y-65371274D01*
X148651364Y-65132286D01*
X148468676Y-64949278D01*
X148229860Y-64850113D01*
X147971274Y-64849888D01*
X147752328Y-64940355D01*
X147747908Y-64923600D01*
X146781100Y-64923600D01*
X146481100Y-64923600D01*
X145514292Y-64923600D01*
X145465084Y-65110149D01*
X145242485Y-65110149D01*
X145304700Y-64797376D01*
X145304700Y-64749824D01*
X145242486Y-64437051D01*
X145465084Y-64437051D01*
X145514292Y-64623600D01*
X146481100Y-64623600D01*
X146481100Y-63657535D01*
X146781100Y-63657535D01*
X146781100Y-64623600D01*
X147747908Y-64623600D01*
X147797116Y-64437051D01*
X147579567Y-64016454D01*
X147217622Y-63711126D01*
X146967646Y-63607598D01*
X146781100Y-63657535D01*
X146481100Y-63657535D01*
X146294554Y-63607598D01*
X146044578Y-63711126D01*
X145682633Y-64016454D01*
X145465084Y-64437051D01*
X145242486Y-64437051D01*
X145212320Y-64285399D01*
X144949245Y-63891679D01*
X144555525Y-63628604D01*
X144091100Y-63536224D01*
X143626675Y-63628604D01*
X143232955Y-63891679D01*
X142969880Y-64285399D01*
X142877500Y-64749824D01*
X142877500Y-64797376D01*
X142969880Y-65261801D01*
X143120487Y-65487201D01*
X142521713Y-65487201D01*
X142672320Y-65261801D01*
X142764700Y-64797376D01*
X142764700Y-64749824D01*
X142672320Y-64285399D01*
X142409245Y-63891679D01*
X142015525Y-63628604D01*
X141551100Y-63536224D01*
X141086675Y-63628604D01*
X140692955Y-63891679D01*
X140429880Y-64285399D01*
X140337500Y-64749824D01*
X140337500Y-64797376D01*
X140429880Y-65261801D01*
X140580487Y-65487201D01*
X139981713Y-65487201D01*
X140132320Y-65261801D01*
X140224700Y-64797376D01*
X140224700Y-64749824D01*
X140132320Y-64285399D01*
X139869245Y-63891679D01*
X139475525Y-63628604D01*
X139011100Y-63536224D01*
X138546675Y-63628604D01*
X138152955Y-63891679D01*
X137889880Y-64285399D01*
X137797500Y-64749824D01*
X137797500Y-64797376D01*
X137889880Y-65261801D01*
X138040487Y-65487201D01*
X137441713Y-65487201D01*
X137592320Y-65261801D01*
X137684700Y-64797376D01*
X137684700Y-64749824D01*
X137592320Y-64285399D01*
X137329245Y-63891679D01*
X136935525Y-63628604D01*
X136471100Y-63536224D01*
X136006675Y-63628604D01*
X135612955Y-63891679D01*
X135349880Y-64285399D01*
X135257500Y-64749824D01*
X135257500Y-64797376D01*
X135349880Y-65261801D01*
X135500487Y-65487201D01*
X134901713Y-65487201D01*
X135052320Y-65261801D01*
X135144700Y-64797376D01*
X135144700Y-64749824D01*
X135052320Y-64285399D01*
X134789245Y-63891679D01*
X134395525Y-63628604D01*
X133931100Y-63536224D01*
X133466675Y-63628604D01*
X133072955Y-63891679D01*
X132809880Y-64285399D01*
X132717500Y-64749824D01*
X132717500Y-64797376D01*
X132809880Y-65261801D01*
X132960487Y-65487201D01*
X132776452Y-65487201D01*
X132518746Y-65229495D01*
X132604700Y-64797376D01*
X132604700Y-64749824D01*
X132512320Y-64285399D01*
X132249245Y-63891679D01*
X131855525Y-63628604D01*
X131391100Y-63536224D01*
X130926675Y-63628604D01*
X130532955Y-63891679D01*
X130269880Y-64285399D01*
X130177500Y-64749824D01*
X127524700Y-64749824D01*
X127462486Y-64437051D01*
X127685084Y-64437051D01*
X127734292Y-64623600D01*
X128701100Y-64623600D01*
X128701100Y-63657535D01*
X129001100Y-63657535D01*
X129001100Y-64623600D01*
X129967908Y-64623600D01*
X130017116Y-64437051D01*
X129799567Y-64016454D01*
X129437622Y-63711126D01*
X129187646Y-63607598D01*
X129001100Y-63657535D01*
X128701100Y-63657535D01*
X128514554Y-63607598D01*
X128264578Y-63711126D01*
X127902633Y-64016454D01*
X127685084Y-64437051D01*
X127462486Y-64437051D01*
X127432320Y-64285399D01*
X127169245Y-63891679D01*
X126775525Y-63628604D01*
X126311100Y-63536224D01*
X125846675Y-63628604D01*
X125575044Y-63810102D01*
X125649887Y-63629860D01*
X125650112Y-63371274D01*
X125579326Y-63199959D01*
X125846675Y-63378596D01*
X126311100Y-63470976D01*
X126775525Y-63378596D01*
X127169245Y-63115521D01*
X127432320Y-62721801D01*
X127524700Y-62257376D01*
X127524700Y-62209824D01*
X127637500Y-62209824D01*
X127637500Y-62257376D01*
X127729880Y-62721801D01*
X127992955Y-63115521D01*
X128386675Y-63378596D01*
X128851100Y-63470976D01*
X129315525Y-63378596D01*
X129709245Y-63115521D01*
X129972320Y-62721801D01*
X130064700Y-62257376D01*
X130064700Y-62209824D01*
X130177500Y-62209824D01*
X130177500Y-62257376D01*
X130269880Y-62721801D01*
X130532955Y-63115521D01*
X130926675Y-63378596D01*
X131391100Y-63470976D01*
X131855525Y-63378596D01*
X132249245Y-63115521D01*
X132512320Y-62721801D01*
X132542485Y-62570149D01*
X132765084Y-62570149D01*
X132982633Y-62990746D01*
X133344578Y-63296074D01*
X133594554Y-63399602D01*
X133781100Y-63349665D01*
X133781100Y-62383600D01*
X134081100Y-62383600D01*
X134081100Y-63349665D01*
X134267646Y-63399602D01*
X134517622Y-63296074D01*
X134879567Y-62990746D01*
X135097116Y-62570149D01*
X135047908Y-62383600D01*
X134081100Y-62383600D01*
X133781100Y-62383600D01*
X132814292Y-62383600D01*
X132765084Y-62570149D01*
X132542485Y-62570149D01*
X132604700Y-62257376D01*
X132604700Y-62209824D01*
X135257500Y-62209824D01*
X135257500Y-62257376D01*
X135349880Y-62721801D01*
X135612955Y-63115521D01*
X136006675Y-63378596D01*
X136471100Y-63470976D01*
X136935525Y-63378596D01*
X137329245Y-63115521D01*
X137592320Y-62721801D01*
X137622485Y-62570149D01*
X137845084Y-62570149D01*
X138062633Y-62990746D01*
X138424578Y-63296074D01*
X138674554Y-63399602D01*
X138861100Y-63349665D01*
X138861100Y-62383600D01*
X139161100Y-62383600D01*
X139161100Y-63349665D01*
X139347646Y-63399602D01*
X139597622Y-63296074D01*
X139959567Y-62990746D01*
X140177116Y-62570149D01*
X140127908Y-62383600D01*
X139161100Y-62383600D01*
X138861100Y-62383600D01*
X137894292Y-62383600D01*
X137845084Y-62570149D01*
X137622485Y-62570149D01*
X137684700Y-62257376D01*
X137684700Y-62209824D01*
X140337500Y-62209824D01*
X140337500Y-62257376D01*
X140429880Y-62721801D01*
X140692955Y-63115521D01*
X141086675Y-63378596D01*
X141551100Y-63470976D01*
X142015525Y-63378596D01*
X142409245Y-63115521D01*
X142672320Y-62721801D01*
X142764700Y-62257376D01*
X142764700Y-62209824D01*
X142877500Y-62209824D01*
X142877500Y-62257376D01*
X142969880Y-62721801D01*
X143232955Y-63115521D01*
X143626675Y-63378596D01*
X144091100Y-63470976D01*
X144555525Y-63378596D01*
X144949245Y-63115521D01*
X145212320Y-62721801D01*
X145304700Y-62257376D01*
X145304700Y-62209824D01*
X145417500Y-62209824D01*
X145417500Y-62257376D01*
X145509880Y-62721801D01*
X145772955Y-63115521D01*
X146166675Y-63378596D01*
X146631100Y-63470976D01*
X147095525Y-63378596D01*
X147489245Y-63115521D01*
X147752320Y-62721801D01*
X147844700Y-62257376D01*
X147844700Y-62209824D01*
X147752320Y-61745399D01*
X147489245Y-61351679D01*
X147095525Y-61088604D01*
X146631100Y-60996224D01*
X146166675Y-61088604D01*
X145772955Y-61351679D01*
X145509880Y-61745399D01*
X145417500Y-62209824D01*
X145304700Y-62209824D01*
X145212320Y-61745399D01*
X144949245Y-61351679D01*
X144555525Y-61088604D01*
X144091100Y-60996224D01*
X143626675Y-61088604D01*
X143232955Y-61351679D01*
X142969880Y-61745399D01*
X142877500Y-62209824D01*
X142764700Y-62209824D01*
X142672320Y-61745399D01*
X142409245Y-61351679D01*
X142015525Y-61088604D01*
X141551100Y-60996224D01*
X141086675Y-61088604D01*
X140692955Y-61351679D01*
X140429880Y-61745399D01*
X140337500Y-62209824D01*
X137684700Y-62209824D01*
X137622486Y-61897051D01*
X137845084Y-61897051D01*
X137894292Y-62083600D01*
X138861100Y-62083600D01*
X138861100Y-61117535D01*
X139161100Y-61117535D01*
X139161100Y-62083600D01*
X140127908Y-62083600D01*
X140177116Y-61897051D01*
X139959567Y-61476454D01*
X139597622Y-61171126D01*
X139347646Y-61067598D01*
X139161100Y-61117535D01*
X138861100Y-61117535D01*
X138674554Y-61067598D01*
X138424578Y-61171126D01*
X138062633Y-61476454D01*
X137845084Y-61897051D01*
X137622486Y-61897051D01*
X137592320Y-61745399D01*
X137329245Y-61351679D01*
X136935525Y-61088604D01*
X136471100Y-60996224D01*
X136006675Y-61088604D01*
X135612955Y-61351679D01*
X135349880Y-61745399D01*
X135257500Y-62209824D01*
X132604700Y-62209824D01*
X132542486Y-61897051D01*
X132765084Y-61897051D01*
X132814292Y-62083600D01*
X133781100Y-62083600D01*
X133781100Y-61117535D01*
X134081100Y-61117535D01*
X134081100Y-62083600D01*
X135047908Y-62083600D01*
X135097116Y-61897051D01*
X134879567Y-61476454D01*
X134517622Y-61171126D01*
X134267646Y-61067598D01*
X134081100Y-61117535D01*
X133781100Y-61117535D01*
X133594554Y-61067598D01*
X133344578Y-61171126D01*
X132982633Y-61476454D01*
X132765084Y-61897051D01*
X132542486Y-61897051D01*
X132512320Y-61745399D01*
X132249245Y-61351679D01*
X131855525Y-61088604D01*
X131391100Y-60996224D01*
X130926675Y-61088604D01*
X130532955Y-61351679D01*
X130269880Y-61745399D01*
X130177500Y-62209824D01*
X130064700Y-62209824D01*
X129972320Y-61745399D01*
X129709245Y-61351679D01*
X129315525Y-61088604D01*
X128851100Y-60996224D01*
X128386675Y-61088604D01*
X127992955Y-61351679D01*
X127729880Y-61745399D01*
X127637500Y-62209824D01*
X127524700Y-62209824D01*
X127432320Y-61745399D01*
X127169245Y-61351679D01*
X126775525Y-61088604D01*
X126311100Y-60996224D01*
X125846675Y-61088604D01*
X125452955Y-61351679D01*
X125189880Y-61745399D01*
X125097500Y-62209824D01*
X125097500Y-62257376D01*
X125189880Y-62721801D01*
X125331584Y-62933876D01*
X125129860Y-62850113D01*
X124871274Y-62849888D01*
X124782121Y-62886725D01*
X124892320Y-62721801D01*
X124984700Y-62257376D01*
X124984700Y-62209824D01*
X124892320Y-61745399D01*
X124629245Y-61351679D01*
X124235525Y-61088604D01*
X123771100Y-60996224D01*
X123306675Y-61088604D01*
X122912955Y-61351679D01*
X122649880Y-61745399D01*
X122557500Y-62209824D01*
X119904700Y-62209824D01*
X119842486Y-61897051D01*
X120065084Y-61897051D01*
X120114292Y-62083600D01*
X121081100Y-62083600D01*
X121081100Y-61117535D01*
X121381100Y-61117535D01*
X121381100Y-62083600D01*
X122347908Y-62083600D01*
X122397116Y-61897051D01*
X122179567Y-61476454D01*
X121817622Y-61171126D01*
X121567646Y-61067598D01*
X121381100Y-61117535D01*
X121081100Y-61117535D01*
X120894554Y-61067598D01*
X120644578Y-61171126D01*
X120282633Y-61476454D01*
X120065084Y-61897051D01*
X119842486Y-61897051D01*
X119812320Y-61745399D01*
X119549245Y-61351679D01*
X119155525Y-61088604D01*
X118691100Y-60996224D01*
X118226675Y-61088604D01*
X117832955Y-61351679D01*
X117569880Y-61745399D01*
X117477500Y-62209824D01*
X117364700Y-62209824D01*
X117272320Y-61745399D01*
X117009245Y-61351679D01*
X116615525Y-61088604D01*
X116151100Y-60996224D01*
X115686675Y-61088604D01*
X115292955Y-61351679D01*
X115029880Y-61745399D01*
X114937500Y-62209824D01*
X112284700Y-62209824D01*
X112222486Y-61897051D01*
X112445084Y-61897051D01*
X112494292Y-62083600D01*
X113461100Y-62083600D01*
X113461100Y-61117535D01*
X113761100Y-61117535D01*
X113761100Y-62083600D01*
X114727908Y-62083600D01*
X114777116Y-61897051D01*
X114559567Y-61476454D01*
X114197622Y-61171126D01*
X113947646Y-61067598D01*
X113761100Y-61117535D01*
X113461100Y-61117535D01*
X113274554Y-61067598D01*
X113024578Y-61171126D01*
X112662633Y-61476454D01*
X112445084Y-61897051D01*
X112222486Y-61897051D01*
X112192320Y-61745399D01*
X111929245Y-61351679D01*
X111535525Y-61088604D01*
X111071100Y-60996224D01*
X110606675Y-61088604D01*
X110212955Y-61351679D01*
X109949880Y-61745399D01*
X109857500Y-62209824D01*
X109744700Y-62209824D01*
X109652320Y-61745399D01*
X109389245Y-61351679D01*
X108995525Y-61088604D01*
X108531100Y-60996224D01*
X108066675Y-61088604D01*
X107672955Y-61351679D01*
X107409880Y-61745399D01*
X107317500Y-62209824D01*
X107204700Y-62209824D01*
X107112320Y-61745399D01*
X106849245Y-61351679D01*
X106455525Y-61088604D01*
X105991100Y-60996224D01*
X105526675Y-61088604D01*
X105132955Y-61351679D01*
X104869880Y-61745399D01*
X104777500Y-62209824D01*
X102124700Y-62209824D01*
X102062486Y-61897051D01*
X102285084Y-61897051D01*
X102334292Y-62083600D01*
X103301100Y-62083600D01*
X103301100Y-61117535D01*
X103601100Y-61117535D01*
X103601100Y-62083600D01*
X104567908Y-62083600D01*
X104617116Y-61897051D01*
X104399567Y-61476454D01*
X104037622Y-61171126D01*
X103787646Y-61067598D01*
X103601100Y-61117535D01*
X103301100Y-61117535D01*
X103114554Y-61067598D01*
X102864578Y-61171126D01*
X102502633Y-61476454D01*
X102285084Y-61897051D01*
X102062486Y-61897051D01*
X102032320Y-61745399D01*
X101769245Y-61351679D01*
X101375525Y-61088604D01*
X100911100Y-60996224D01*
X100446675Y-61088604D01*
X100052955Y-61351679D01*
X99789880Y-61745399D01*
X99697500Y-62209824D01*
X99584700Y-62209824D01*
X99492320Y-61745399D01*
X99229245Y-61351679D01*
X98835525Y-61088604D01*
X98371100Y-60996224D01*
X97906675Y-61088604D01*
X97512955Y-61351679D01*
X97249880Y-61745399D01*
X97157500Y-62209824D01*
X96455978Y-62209824D01*
X96236716Y-61679171D01*
X95330301Y-60771173D01*
X94316003Y-60350000D01*
X150688270Y-60350000D01*
X149676671Y-60767984D01*
M02*
