G04 #@! TF.FileFunction,Copper,L1,Top,Signal*
%FSLAX46Y46*%
G04 Gerber Fmt 4.6, Leading zero omitted, Abs format (unit mm)*
G04 Created by KiCad (PCBNEW 4.0.2+e4-6225~38~ubuntu15.04.1-stable) date Fri 21 Oct 2016 22:40:54 ACDT*
%MOMM*%
G01*
G04 APERTURE LIST*
%ADD10C,0.100000*%
%ADD11R,1.250000X1.000000*%
%ADD12R,1.000000X1.250000*%
%ADD13R,1.198880X1.198880*%
%ADD14R,1.600000X3.500000*%
%ADD15R,1.727200X1.727200*%
%ADD16O,1.727200X1.727200*%
%ADD17R,1.000000X2.000000*%
%ADD18R,2.500000X2.500000*%
%ADD19C,2.500000*%
%ADD20R,1.727200X2.032000*%
%ADD21O,1.727200X2.032000*%
%ADD22R,2.032000X1.727200*%
%ADD23O,2.032000X1.727200*%
%ADD24R,2.032000X2.032000*%
%ADD25O,2.032000X2.032000*%
%ADD26R,0.800100X0.800100*%
%ADD27R,0.700000X1.300000*%
%ADD28R,1.300000X0.700000*%
%ADD29R,1.100000X1.800000*%
%ADD30R,0.508000X1.143000*%
%ADD31R,1.000760X0.690880*%
%ADD32R,1.501140X1.000760*%
%ADD33R,2.999740X1.998980*%
%ADD34R,0.450000X1.450000*%
%ADD35C,1.000760*%
%ADD36C,0.600000*%
%ADD37C,1.000000*%
%ADD38C,0.250000*%
%ADD39C,0.400000*%
%ADD40C,0.200000*%
%ADD41C,0.500000*%
G04 APERTURE END LIST*
D10*
D11*
X153728000Y-71482000D03*
X153728000Y-73482000D03*
D12*
X111644000Y-107760000D03*
X109644000Y-107760000D03*
X109644000Y-109792000D03*
X111644000Y-109792000D03*
X103616000Y-98044000D03*
X101616000Y-98044000D03*
D11*
X116332000Y-74184000D03*
X116332000Y-76184000D03*
X111268000Y-92472000D03*
X111268000Y-94472000D03*
D12*
X118348000Y-80264000D03*
X116348000Y-80264000D03*
X118348000Y-85852000D03*
X116348000Y-85852000D03*
D11*
X118364000Y-76184000D03*
X118364000Y-74184000D03*
X128016000Y-77466000D03*
X128016000Y-79466000D03*
D12*
X123000000Y-70612000D03*
X125000000Y-70612000D03*
D13*
X121028000Y-84010980D03*
X121028000Y-86109020D03*
X124584000Y-84010980D03*
X124584000Y-86109020D03*
D14*
X97561600Y-103000000D03*
X102438400Y-103000000D03*
D15*
X98871100Y-64773600D03*
D16*
X98871100Y-62233600D03*
X101411100Y-64773600D03*
X101411100Y-62233600D03*
X103951100Y-64773600D03*
X103951100Y-62233600D03*
X106491100Y-64773600D03*
X106491100Y-62233600D03*
X109031100Y-64773600D03*
X109031100Y-62233600D03*
X111571100Y-64773600D03*
X111571100Y-62233600D03*
X114111100Y-64773600D03*
X114111100Y-62233600D03*
X116651100Y-64773600D03*
X116651100Y-62233600D03*
X119191100Y-64773600D03*
X119191100Y-62233600D03*
X121731100Y-64773600D03*
X121731100Y-62233600D03*
X124271100Y-64773600D03*
X124271100Y-62233600D03*
X126811100Y-64773600D03*
X126811100Y-62233600D03*
X129351100Y-64773600D03*
X129351100Y-62233600D03*
X131891100Y-64773600D03*
X131891100Y-62233600D03*
X134431100Y-64773600D03*
X134431100Y-62233600D03*
X136971100Y-64773600D03*
X136971100Y-62233600D03*
X139511100Y-64773600D03*
X139511100Y-62233600D03*
X142051100Y-64773600D03*
X142051100Y-62233600D03*
X144591100Y-64773600D03*
X144591100Y-62233600D03*
X147131100Y-64773600D03*
X147131100Y-62233600D03*
D17*
X118200000Y-95800000D03*
X119400000Y-95800000D03*
X120600000Y-95800000D03*
D18*
X100000000Y-111000000D03*
D19*
X105000000Y-111000000D03*
D20*
X121920000Y-105410000D03*
D21*
X119380000Y-105410000D03*
X116840000Y-105410000D03*
X114300000Y-105410000D03*
D20*
X132080000Y-105410000D03*
D21*
X129540000Y-105410000D03*
X127000000Y-105410000D03*
X124460000Y-105410000D03*
D22*
X101472000Y-69338000D03*
D23*
X101472000Y-71878000D03*
X101472000Y-74418000D03*
X101472000Y-76958000D03*
D17*
X131000000Y-95800000D03*
X132200000Y-95800000D03*
X133400000Y-95800000D03*
X127600000Y-92000000D03*
X128800000Y-92000000D03*
X130000000Y-92000000D03*
D24*
X141000000Y-71540000D03*
D25*
X141000000Y-69000000D03*
D24*
X106172000Y-79756000D03*
D25*
X106172000Y-82296000D03*
D15*
X139040000Y-89540000D03*
D16*
X136500000Y-89540000D03*
X139040000Y-87000000D03*
X136500000Y-87000000D03*
X139040000Y-84460000D03*
X136500000Y-84460000D03*
X139040000Y-81920000D03*
X136500000Y-81920000D03*
D26*
X94950000Y-104999240D03*
X93050000Y-104999240D03*
X94000000Y-106998220D03*
X97094000Y-92440760D03*
X98994000Y-92440760D03*
X98044000Y-90441780D03*
X98994000Y-85867240D03*
X97094000Y-85867240D03*
X98044000Y-87866220D03*
X108219240Y-97094000D03*
X108219240Y-98994000D03*
X110218220Y-98044000D03*
X114808000Y-98260000D03*
X114808000Y-96360000D03*
X112809020Y-97310000D03*
D27*
X144142000Y-71466000D03*
X146042000Y-71466000D03*
X144142000Y-73498000D03*
X146042000Y-73498000D03*
X144142000Y-69434000D03*
X146042000Y-69434000D03*
X97050000Y-98000000D03*
X98950000Y-98000000D03*
X94950000Y-98000000D03*
X93050000Y-98000000D03*
X98994000Y-94488000D03*
X97094000Y-94488000D03*
X124150000Y-95850000D03*
X122250000Y-95850000D03*
D28*
X128800000Y-94596000D03*
X128800000Y-96496000D03*
X126260000Y-94596000D03*
X126260000Y-96496000D03*
D27*
X108778000Y-79756000D03*
X110678000Y-79756000D03*
D28*
X121028000Y-88174000D03*
X121028000Y-90074000D03*
X106172000Y-98994000D03*
X106172000Y-97094000D03*
X124584000Y-88174000D03*
X124584000Y-90074000D03*
D29*
X113610000Y-70560000D03*
X113610000Y-76760000D03*
X109910000Y-70560000D03*
X109910000Y-76760000D03*
D30*
X147759000Y-69307000D03*
X149029000Y-69307000D03*
X150299000Y-69307000D03*
X151569000Y-69307000D03*
X151569000Y-75657000D03*
X150299000Y-75657000D03*
X149029000Y-75657000D03*
X147759000Y-75657000D03*
D31*
X95300480Y-101949960D03*
X95300480Y-101000000D03*
X95300480Y-100050040D03*
X92699520Y-100050040D03*
X92699520Y-101000000D03*
X92699520Y-101949960D03*
D32*
X109039660Y-94973140D03*
X109039660Y-93472000D03*
X109039660Y-91970860D03*
D33*
X106088180Y-93472000D03*
D10*
G36*
X107562650Y-92471240D02*
X108311950Y-92971620D01*
X108311950Y-93972380D01*
X107562650Y-94472760D01*
X107562650Y-92471240D01*
X107562650Y-92471240D01*
G37*
D34*
X120519000Y-80166000D03*
X121169000Y-80166000D03*
X121819000Y-80166000D03*
X122469000Y-80166000D03*
X123119000Y-80166000D03*
X123769000Y-80166000D03*
X124419000Y-80166000D03*
X125069000Y-80166000D03*
X125719000Y-80166000D03*
X126369000Y-80166000D03*
X126369000Y-74266000D03*
X125719000Y-74266000D03*
X125069000Y-74266000D03*
X124419000Y-74266000D03*
X123769000Y-74266000D03*
X123119000Y-74266000D03*
X122469000Y-74266000D03*
X121819000Y-74266000D03*
X121169000Y-74266000D03*
X120519000Y-74266000D03*
D32*
X108070000Y-100894860D03*
X108070000Y-102396000D03*
X108070000Y-103897140D03*
D33*
X111021480Y-102396000D03*
D10*
G36*
X109547010Y-103396760D02*
X108797710Y-102896380D01*
X108797710Y-101895620D01*
X109547010Y-101395240D01*
X109547010Y-103396760D01*
X109547010Y-103396760D01*
G37*
D35*
X118364000Y-83820000D03*
X118364000Y-82321400D03*
D24*
X105000000Y-104000000D03*
D25*
X105000000Y-101460000D03*
D24*
X102108000Y-94488000D03*
D25*
X102108000Y-91948000D03*
D24*
X138600000Y-111460000D03*
D25*
X138600000Y-114000000D03*
D36*
X152500000Y-71400000D03*
X147759000Y-70459000D03*
X126200000Y-97400000D03*
X124387675Y-72612771D03*
X109150000Y-100400000D03*
X152700000Y-74526000D03*
X129000000Y-79500000D03*
X117250000Y-74250000D03*
X111000000Y-70500000D03*
X111000000Y-76750000D03*
X111500000Y-79750000D03*
X116250000Y-83250000D03*
X122850000Y-89950000D03*
X110150000Y-107000000D03*
X115750000Y-96450000D03*
X97000000Y-84750000D03*
X96000000Y-98000000D03*
X112250000Y-94500000D03*
X101500000Y-97000000D03*
X111650000Y-106750000D03*
X115000000Y-76760000D03*
X119200000Y-77600000D03*
X135750000Y-79500000D03*
X132250000Y-80000000D03*
X120250000Y-76184000D03*
X108208101Y-85728445D03*
X104800000Y-85704026D03*
X101800000Y-85704026D03*
X99749990Y-85704026D03*
X116864558Y-92231747D03*
X119104292Y-91176626D03*
X104800000Y-84400000D03*
X107400000Y-84400000D03*
X131313203Y-73960171D03*
X131000000Y-88250000D03*
X127688259Y-86137088D03*
X125500000Y-63500000D03*
X126000000Y-68000000D03*
X130000000Y-71750000D03*
X145400000Y-69350000D03*
X148600000Y-65500000D03*
X150150000Y-68475010D03*
X126000000Y-92000000D03*
X133000000Y-86600000D03*
X113400000Y-78600000D03*
X116597287Y-78816941D03*
X94250000Y-102250000D03*
X94250000Y-105000000D03*
D37*
X138400000Y-66750000D02*
X138400000Y-72232002D01*
X142200009Y-89799991D02*
X138600000Y-93400000D01*
X138400000Y-72232002D02*
X142200009Y-76032011D01*
X142200009Y-76032011D02*
X142200009Y-89799991D01*
X138600000Y-93400000D02*
X138600000Y-111460000D01*
X138400000Y-66750000D02*
X143408000Y-66750000D01*
X119946186Y-66750000D02*
X138400000Y-66750000D01*
X151646240Y-67900000D02*
X152247502Y-67900000D01*
X152247502Y-67900000D02*
X153728000Y-69380498D01*
X153728000Y-69380498D02*
X153728000Y-69982000D01*
X150771231Y-67024991D02*
X151646240Y-67900000D01*
X146116000Y-67484000D02*
X146575010Y-67024990D01*
X146575010Y-67024990D02*
X150771231Y-67024991D01*
X144142000Y-67484000D02*
X146116000Y-67484000D01*
X153728000Y-71482000D02*
X153728000Y-69982000D01*
X143682990Y-67024990D02*
X143408000Y-66750000D01*
X143408000Y-66750000D02*
X144142000Y-67484000D01*
X144142000Y-67484000D02*
X144142000Y-69434000D01*
X119191100Y-64773600D02*
X119191100Y-65994914D01*
X119191100Y-65994914D02*
X119946186Y-66750000D01*
X152500000Y-71400000D02*
X153646000Y-71400000D01*
X153646000Y-71400000D02*
X153728000Y-71482000D01*
X147759000Y-69307000D02*
X147759000Y-70459000D01*
X144142000Y-69134000D02*
X144142000Y-69434000D01*
X144142000Y-71466000D02*
X144142000Y-73498000D01*
X144142000Y-69434000D02*
X144142000Y-71466000D01*
D38*
X126260000Y-96496000D02*
X126260000Y-97340000D01*
X126260000Y-97340000D02*
X126200000Y-97400000D01*
D37*
X124967771Y-72032674D02*
X124687674Y-72312772D01*
X125000000Y-70612000D02*
X125000000Y-72000445D01*
X124687674Y-72312772D02*
X124387675Y-72612771D01*
X125000000Y-72000445D02*
X124967771Y-72032674D01*
X124972674Y-72032674D02*
X124967771Y-72032674D01*
X125000000Y-72060000D02*
X124972674Y-72032674D01*
X109039660Y-94973140D02*
X110766860Y-94973140D01*
X110766860Y-94973140D02*
X111268000Y-94472000D01*
D38*
X126260000Y-96340000D02*
X126200000Y-96400000D01*
D37*
X114300000Y-108700000D02*
X113208000Y-109792000D01*
X113208000Y-109792000D02*
X111644000Y-109792000D01*
X114300000Y-105410000D02*
X114300000Y-108700000D01*
D38*
X108070000Y-100894860D02*
X108655140Y-100894860D01*
D37*
X108655140Y-100894860D02*
X109150000Y-100400000D01*
D38*
X148280500Y-77000000D02*
X149100000Y-77000000D01*
X149100000Y-77000000D02*
X150300000Y-77000000D01*
X149029000Y-75657000D02*
X149029000Y-76929000D01*
X149029000Y-76929000D02*
X149100000Y-77000000D01*
X150300000Y-77000000D02*
X151100000Y-77000000D01*
X150299000Y-75657000D02*
X150299000Y-76999000D01*
X150299000Y-76999000D02*
X150300000Y-77000000D01*
X151100000Y-77000000D02*
X151569000Y-76531000D01*
X151569000Y-76531000D02*
X151569000Y-75657000D01*
X147759000Y-75657000D02*
X147759000Y-76478500D01*
X147759000Y-76478500D02*
X148280500Y-77000000D01*
D37*
X152700000Y-74526000D02*
X151569000Y-75657000D01*
X153728000Y-73498000D02*
X152700000Y-74526000D01*
D39*
X123769000Y-74266000D02*
X123769000Y-73291000D01*
X123769000Y-73291000D02*
X125000000Y-72060000D01*
D37*
X153728000Y-73482000D02*
X153728000Y-73498000D01*
X128016000Y-79466000D02*
X128966000Y-79466000D01*
X128966000Y-79466000D02*
X129000000Y-79500000D01*
X118364000Y-74184000D02*
X117316000Y-74184000D01*
X117316000Y-74184000D02*
X117250000Y-74250000D01*
X116332000Y-74184000D02*
X117184000Y-74184000D01*
X117184000Y-74184000D02*
X117250000Y-74250000D01*
X109910000Y-70560000D02*
X110940000Y-70560000D01*
X110940000Y-70560000D02*
X111000000Y-70500000D01*
X109910000Y-76760000D02*
X110990000Y-76760000D01*
X110990000Y-76760000D02*
X111000000Y-76750000D01*
X110678000Y-79756000D02*
X111494000Y-79756000D01*
X111494000Y-79756000D02*
X111500000Y-79750000D01*
X116348000Y-80264000D02*
X116348000Y-83152000D01*
X116348000Y-83152000D02*
X116250000Y-83250000D01*
X116348000Y-85852000D02*
X116348000Y-83348000D01*
X116348000Y-83348000D02*
X116250000Y-83250000D01*
X124584000Y-90074000D02*
X122974000Y-90074000D01*
X122974000Y-90074000D02*
X122850000Y-89950000D01*
X121028000Y-90074000D02*
X122726000Y-90074000D01*
X122726000Y-90074000D02*
X122850000Y-89950000D01*
X109644000Y-107760000D02*
X109644000Y-107506000D01*
X109644000Y-107506000D02*
X110150000Y-107000000D01*
X114808000Y-96360000D02*
X115660000Y-96360000D01*
X115660000Y-96360000D02*
X115750000Y-96450000D01*
X97094000Y-85867240D02*
X97094000Y-84844000D01*
X97094000Y-84844000D02*
X97000000Y-84750000D01*
X96000000Y-98000000D02*
X97050000Y-98000000D01*
X94950000Y-98000000D02*
X96000000Y-98000000D01*
X111268000Y-94472000D02*
X112222000Y-94472000D01*
X112222000Y-94472000D02*
X112250000Y-94500000D01*
X101616000Y-98044000D02*
X101616000Y-97116000D01*
X101616000Y-97116000D02*
X101500000Y-97000000D01*
D38*
X101472000Y-74418000D02*
X101624400Y-74418000D01*
X101624400Y-74418000D02*
X101792400Y-74250000D01*
D37*
X111021480Y-102396000D02*
X111021480Y-104395490D01*
X111021480Y-104395490D02*
X111650000Y-105024010D01*
X111650000Y-105024010D02*
X111650000Y-106240000D01*
X111021480Y-102396000D02*
X108070000Y-102396000D01*
X111021480Y-102396000D02*
X111021480Y-98847260D01*
X111021480Y-98847260D02*
X110218220Y-98044000D01*
X105000000Y-101460000D02*
X105960000Y-101460000D01*
X105960000Y-101460000D02*
X106896000Y-102396000D01*
X106896000Y-102396000D02*
X108070000Y-102396000D01*
X111687990Y-106543990D02*
X111644000Y-106500000D01*
X109320000Y-102396000D02*
X109207999Y-102283999D01*
X111650000Y-108000000D02*
X111650000Y-106240000D01*
X109320000Y-102396000D02*
X110422360Y-102396000D01*
X108070000Y-103897140D02*
X108070000Y-109278000D01*
X108070000Y-109278000D02*
X108584000Y-109792000D01*
X108584000Y-109792000D02*
X109644000Y-109792000D01*
X122009641Y-111458291D02*
X109685291Y-111458291D01*
X109685291Y-111458291D02*
X109644000Y-111417000D01*
X132056854Y-111458291D02*
X122009641Y-111458291D01*
X122009641Y-111458291D02*
X121920000Y-111368650D01*
X121871650Y-111417000D02*
X121920000Y-111368650D01*
X121920000Y-111368650D02*
X121920000Y-105410000D01*
X138600000Y-114000000D02*
X134598563Y-114000000D01*
X134598563Y-114000000D02*
X132056854Y-111458291D01*
X121920000Y-105410000D02*
X121920000Y-98680000D01*
X121920000Y-98680000D02*
X124200000Y-96400000D01*
X124200000Y-96400000D02*
X124200000Y-94900000D01*
X124200000Y-94900000D02*
X124150000Y-94850000D01*
X124120000Y-94880000D02*
X124150000Y-94850000D01*
X109644000Y-109792000D02*
X109644000Y-111417000D01*
X121854000Y-105344000D02*
X121920000Y-105410000D01*
X102438400Y-103000000D02*
X102438400Y-100250000D01*
X102438400Y-100250000D02*
X103616000Y-99072400D01*
X103616000Y-99072400D02*
X103616000Y-98044000D01*
X102438400Y-103000000D02*
X102438400Y-103454400D01*
X102438400Y-103454400D02*
X102984000Y-104000000D01*
X102984000Y-104000000D02*
X105000000Y-104000000D01*
X109039660Y-93472000D02*
X107937300Y-93472000D01*
X106088180Y-93472000D02*
X109039660Y-93472000D01*
X102108000Y-94488000D02*
X105072180Y-94488000D01*
X105072180Y-94488000D02*
X106088180Y-93472000D01*
X98994000Y-94488000D02*
X98994000Y-92440760D01*
X102108000Y-94488000D02*
X98994000Y-94488000D01*
X102108000Y-94488000D02*
X103616000Y-95996000D01*
X103616000Y-95996000D02*
X103616000Y-98044000D01*
X106172000Y-98994000D02*
X104566000Y-98994000D01*
X104566000Y-98994000D02*
X103616000Y-98044000D01*
X106172000Y-98994000D02*
X108219240Y-98994000D01*
D38*
X113610000Y-76760000D02*
X115000000Y-76760000D01*
X115000000Y-76760000D02*
X115756000Y-76760000D01*
X120878000Y-77600000D02*
X119200000Y-77600000D01*
X122469000Y-80166000D02*
X122469000Y-79191000D01*
X122469000Y-79191000D02*
X120878000Y-77600000D01*
X113610000Y-76760000D02*
X113610000Y-70560000D01*
X115756000Y-76760000D02*
X116332000Y-76184000D01*
X116457000Y-76184000D02*
X116332000Y-76184000D01*
D37*
X106172000Y-82296000D02*
X111704000Y-82296000D01*
X111704000Y-82296000D02*
X116400000Y-77600000D01*
X116400000Y-77600000D02*
X117301002Y-77600000D01*
X117301002Y-77600000D02*
X118364000Y-76537002D01*
X118364000Y-76537002D02*
X118364000Y-76184000D01*
X106172000Y-82296000D02*
X106172000Y-89103200D01*
X106172000Y-89103200D02*
X106500000Y-89431200D01*
X106172000Y-82296000D02*
X104735160Y-82296000D01*
X104735160Y-82296000D02*
X101472000Y-79032840D01*
X101472000Y-79032840D02*
X101472000Y-78821600D01*
X101472000Y-78821600D02*
X101472000Y-76958000D01*
X109039660Y-91970860D02*
X110766860Y-91970860D01*
X110766860Y-91970860D02*
X111268000Y-92472000D01*
X141000000Y-80500000D02*
X141000000Y-85040000D01*
X141000000Y-85040000D02*
X139040000Y-87000000D01*
X140000000Y-79500000D02*
X141000000Y-80500000D01*
X135750000Y-79500000D02*
X140000000Y-79500000D01*
D39*
X123119000Y-80166000D02*
X123119000Y-77855998D01*
X123100000Y-74812998D02*
X123100000Y-75300000D01*
X123119000Y-74266000D02*
X123119000Y-74869000D01*
X123119000Y-77855998D02*
X123508998Y-77466000D01*
X123119000Y-74266000D02*
X123119000Y-72959999D01*
D37*
X139040000Y-87000000D02*
X139040000Y-89540000D01*
X128016000Y-77466000D02*
X129716000Y-77466000D01*
X129716000Y-77466000D02*
X132250000Y-80000000D01*
X106500000Y-89431200D02*
X109039660Y-91970860D01*
X118364000Y-76184000D02*
X120250000Y-76184000D01*
X120250000Y-76184000D02*
X122491000Y-76184000D01*
X123508998Y-76216000D02*
X123508998Y-77466000D01*
X123000000Y-70612000D02*
X123000000Y-72500000D01*
X128016000Y-77466000D02*
X123508998Y-77466000D01*
D38*
X118364000Y-82321400D02*
X119988600Y-82321400D01*
X119988600Y-82321400D02*
X121169000Y-81141000D01*
X121169000Y-81141000D02*
X121169000Y-80166000D01*
X118364000Y-82321400D02*
X118364000Y-80280000D01*
X118364000Y-80280000D02*
X118348000Y-80264000D01*
X118364000Y-83820000D02*
X119140000Y-83820000D01*
X119140000Y-83820000D02*
X121819000Y-81141000D01*
X121819000Y-81141000D02*
X121819000Y-80166000D01*
X118348000Y-85852000D02*
X118348000Y-83836000D01*
X118348000Y-83836000D02*
X118364000Y-83820000D01*
X121028000Y-84010980D02*
X120178560Y-84010980D01*
X120178560Y-84010980D02*
X119600000Y-84589540D01*
X119600000Y-84589540D02*
X119600000Y-86589540D01*
X119600000Y-86589540D02*
X118689540Y-87500000D01*
X118689540Y-87500000D02*
X115250000Y-87500000D01*
X115250000Y-87500000D02*
X113478445Y-85728445D01*
X113478445Y-85728445D02*
X108208101Y-85728445D01*
X104800000Y-85704026D02*
X101800000Y-85704026D01*
X121028000Y-84010980D02*
X121028000Y-83161540D01*
X121028000Y-83161540D02*
X122758540Y-81431000D01*
X122758540Y-81431000D02*
X123769000Y-81431000D01*
X123769000Y-80166000D02*
X123769000Y-81431000D01*
X98994000Y-85867240D02*
X99586776Y-85867240D01*
X99586776Y-85867240D02*
X99749990Y-85704026D01*
X121028000Y-88174000D02*
X121028000Y-86109020D01*
X116864558Y-92656011D02*
X116864558Y-92231747D01*
X116864558Y-96853492D02*
X116864558Y-92656011D01*
X115458050Y-98260000D02*
X116864558Y-96853492D01*
X114808000Y-98260000D02*
X115458050Y-98260000D01*
X119528556Y-91176626D02*
X119104292Y-91176626D01*
X126200000Y-90400000D02*
X125423374Y-91176626D01*
X125433440Y-84010980D02*
X126200000Y-84777540D01*
X124584000Y-84010980D02*
X125433440Y-84010980D01*
X125423374Y-91176626D02*
X119528556Y-91176626D01*
X126200000Y-84777540D02*
X126200000Y-90400000D01*
X124584000Y-84010980D02*
X124584000Y-83161540D01*
X124419000Y-82996540D02*
X124419000Y-81141000D01*
X124419000Y-81141000D02*
X124419000Y-80166000D01*
X124584000Y-83161540D02*
X124419000Y-82996540D01*
X124219000Y-83645980D02*
X124584000Y-84010980D01*
X124584000Y-88174000D02*
X124584000Y-86109020D01*
D37*
X97561600Y-103000000D02*
X97061600Y-103500000D01*
X97061600Y-103500000D02*
X93149190Y-103500000D01*
X93149190Y-103500000D02*
X93050000Y-103599190D01*
D38*
X93050000Y-103599190D02*
X93624999Y-103024191D01*
X93624999Y-103024191D02*
X93624999Y-101175099D01*
X93624999Y-101175099D02*
X93449900Y-101000000D01*
X93449900Y-101000000D02*
X92699520Y-101000000D01*
D37*
X93050000Y-103599190D02*
X93050000Y-104999240D01*
X97307499Y-78557499D02*
X97307499Y-66592501D01*
D40*
X97649786Y-62233600D02*
X97307499Y-62575887D01*
X97307499Y-62575887D02*
X97307499Y-66592501D01*
D41*
X98871100Y-62233600D02*
X97649786Y-62233600D01*
D37*
X99444050Y-90441780D02*
X100750000Y-89135830D01*
X100750000Y-89135830D02*
X100750000Y-82000000D01*
X100750000Y-82000000D02*
X97307499Y-78557499D01*
X98044000Y-90441780D02*
X99444050Y-90441780D01*
X98044000Y-90441780D02*
X100601780Y-90441780D01*
X100601780Y-90441780D02*
X102108000Y-91948000D01*
D38*
X107400000Y-84400000D02*
X107412409Y-84412409D01*
X107412409Y-84412409D02*
X107412409Y-86412409D01*
X118200000Y-95777708D02*
X118215265Y-95792973D01*
X107412409Y-86412409D02*
X111600000Y-90600000D01*
X111600000Y-90600000D02*
X117100000Y-90600000D01*
X117100000Y-90600000D02*
X118200000Y-91700000D01*
X118200000Y-91700000D02*
X118200000Y-95777708D01*
X104800000Y-84400000D02*
X99400000Y-79000000D01*
X99400000Y-67800000D02*
X99800000Y-67400000D01*
X99400000Y-79000000D02*
X99400000Y-67800000D01*
X99800000Y-67400000D02*
X103864700Y-67400000D01*
X103864700Y-67400000D02*
X106491100Y-64773600D01*
X111288370Y-66250000D02*
X114605851Y-66250000D01*
X121819000Y-73463149D02*
X121819000Y-74266000D01*
X114605851Y-66250000D02*
X121819000Y-73463149D01*
X106491100Y-62233600D02*
X107679701Y-63422201D01*
X107679701Y-63422201D02*
X109583291Y-63422201D01*
X109583291Y-63422201D02*
X110382499Y-64221409D01*
X110382499Y-64221409D02*
X110382499Y-65344129D01*
X110382499Y-65344129D02*
X111288370Y-66250000D01*
X109031100Y-62233600D02*
X110382499Y-63584999D01*
X110382499Y-63584999D02*
X114681629Y-63584999D01*
X114681629Y-63584999D02*
X115462499Y-64365869D01*
X115462499Y-64365869D02*
X115462499Y-66470238D01*
X115462499Y-66470238D02*
X122469000Y-73476739D01*
X122469000Y-73476739D02*
X122469000Y-74266000D01*
X130971038Y-95792973D02*
X130971038Y-93578962D01*
X130971038Y-93578962D02*
X131600000Y-92950000D01*
X131600000Y-92950000D02*
X131600000Y-88850000D01*
X131600000Y-88850000D02*
X131000000Y-88250000D01*
X130888939Y-73960171D02*
X131313203Y-73960171D01*
X130693072Y-73960171D02*
X130888939Y-73960171D01*
X118825010Y-67575010D02*
X124307911Y-67575010D01*
X117839701Y-66589701D02*
X118825010Y-67575010D01*
X124307911Y-67575010D02*
X130693072Y-73960171D01*
X117839701Y-63422201D02*
X117839701Y-66589701D01*
X116651100Y-62233600D02*
X117839701Y-63422201D01*
X130999816Y-88250184D02*
X131000000Y-88250000D01*
X127600000Y-91400000D02*
X127624793Y-91375207D01*
X127624793Y-91375207D02*
X127624793Y-86200554D01*
X127624793Y-86200554D02*
X127688259Y-86137088D01*
X125500000Y-63500000D02*
X120457500Y-63500000D01*
X120457500Y-63500000D02*
X119191100Y-62233600D01*
X130000000Y-71750000D02*
X126250000Y-68000000D01*
X126250000Y-68000000D02*
X126000000Y-68000000D01*
X146042000Y-69434000D02*
X145484000Y-69434000D01*
X145484000Y-69434000D02*
X145400000Y-69350000D01*
X147326000Y-67850000D02*
X150429500Y-67850000D01*
X150429500Y-67850000D02*
X151569000Y-68989500D01*
X151569000Y-68989500D02*
X151569000Y-69307000D01*
X146042000Y-69434000D02*
X146042000Y-69134000D01*
X146042000Y-69134000D02*
X147326000Y-67850000D01*
X148600000Y-64200000D02*
X148600000Y-65500000D01*
X147822201Y-63422201D02*
X148600000Y-64200000D01*
X131891100Y-62233600D02*
X133079701Y-63422201D01*
X133079701Y-63422201D02*
X147822201Y-63422201D01*
X146042000Y-73498000D02*
X146929500Y-73498000D01*
X146929500Y-73498000D02*
X150299000Y-70128500D01*
X150299000Y-70128500D02*
X150299000Y-69307000D01*
X150299000Y-69307000D02*
X150299000Y-68624010D01*
X150299000Y-68624010D02*
X150150000Y-68475010D01*
X122000000Y-96800000D02*
X122200000Y-96800000D01*
X122200000Y-96800000D02*
X122250000Y-96750000D01*
X122250000Y-96750000D02*
X122250000Y-95850000D01*
X121000000Y-97800000D02*
X122000000Y-96800000D01*
X120150000Y-97800000D02*
X121000000Y-97800000D01*
X119400000Y-95800000D02*
X119400000Y-97050000D01*
X119400000Y-97050000D02*
X120150000Y-97800000D01*
X119380000Y-104144000D02*
X119400000Y-104124000D01*
X119400000Y-104124000D02*
X119400000Y-94800000D01*
X119380000Y-105410000D02*
X119380000Y-104144000D01*
X119380000Y-105410000D02*
X119380000Y-105257600D01*
X126000000Y-92000000D02*
X122900000Y-92000000D01*
X122900000Y-92000000D02*
X120617698Y-94282302D01*
X120617698Y-94282302D02*
X120617698Y-95707172D01*
X133250000Y-79750000D02*
X133250000Y-86350000D01*
X133250000Y-86350000D02*
X133000000Y-86600000D01*
X124419000Y-75241000D02*
X124678000Y-75500000D01*
X129000000Y-75500000D02*
X133250000Y-79750000D01*
X124419000Y-74266000D02*
X124419000Y-75241000D01*
X124678000Y-75500000D02*
X129000000Y-75500000D01*
D37*
X94000000Y-106998220D02*
X92599950Y-106998220D01*
X91500000Y-105898270D02*
X91500000Y-102500000D01*
X92599950Y-106998220D02*
X91500000Y-105898270D01*
X91500000Y-102500000D02*
X91954559Y-102045441D01*
X91954559Y-102045441D02*
X92699520Y-102045441D01*
X100000000Y-111000000D02*
X100000000Y-108750000D01*
X100000000Y-108750000D02*
X98248220Y-106998220D01*
X98248220Y-106998220D02*
X94000000Y-106998220D01*
D38*
X129540000Y-105410000D02*
X129540000Y-104144000D01*
X129540000Y-104144000D02*
X132200000Y-101484000D01*
X132200000Y-101484000D02*
X132200000Y-97050000D01*
X132200000Y-97050000D02*
X132200000Y-95800000D01*
X132200000Y-96050000D02*
X132150000Y-96050000D01*
X129540000Y-105410000D02*
X129540000Y-105257600D01*
X128800000Y-103457600D02*
X128800000Y-96496000D01*
X127000000Y-105410000D02*
X127000000Y-105257600D01*
X127000000Y-105257600D02*
X128800000Y-103457600D01*
X116100000Y-68400000D02*
X103676000Y-68400000D01*
X103676000Y-68400000D02*
X102738000Y-69338000D01*
X102738000Y-69338000D02*
X101472000Y-69338000D01*
X120519000Y-72819000D02*
X116100000Y-68400000D01*
X120519000Y-74266000D02*
X120519000Y-72819000D01*
X121169000Y-74266000D02*
X121169000Y-75241000D01*
X121169000Y-75241000D02*
X121051010Y-75358990D01*
X103400000Y-71300000D02*
X102822000Y-71878000D01*
X121051010Y-75358990D02*
X119858990Y-75358990D01*
X119858990Y-75358990D02*
X119700000Y-75200000D01*
X119700000Y-72636410D02*
X115913600Y-68850010D01*
X103949990Y-68850010D02*
X103400000Y-69400000D01*
X102822000Y-71878000D02*
X101472000Y-71878000D01*
X119700000Y-75200000D02*
X119700000Y-72636410D01*
X115913600Y-68850010D02*
X103949990Y-68850010D01*
X103400000Y-69400000D02*
X103400000Y-71300000D01*
X133430672Y-95707172D02*
X133400000Y-95676500D01*
X133400000Y-95676500D02*
X133400000Y-89400000D01*
X133400000Y-89400000D02*
X125719000Y-81719000D01*
X125719000Y-81719000D02*
X125719000Y-80166000D01*
X128800000Y-94596000D02*
X128800000Y-92000000D01*
X126260000Y-94596000D02*
X127160000Y-94596000D01*
X127160000Y-94596000D02*
X128800000Y-94596000D01*
X130000000Y-91400000D02*
X130000000Y-87250000D01*
X130000000Y-87250000D02*
X125069000Y-82319000D01*
X125069000Y-82319000D02*
X125069000Y-80166000D01*
X144700000Y-74800000D02*
X142994000Y-74800000D01*
X142994000Y-74800000D02*
X141000000Y-72806000D01*
X141000000Y-72806000D02*
X141000000Y-71540000D01*
X145092000Y-74408000D02*
X144700000Y-74800000D01*
X145092000Y-71816000D02*
X145092000Y-74408000D01*
X148234000Y-71466000D02*
X149029000Y-70671000D01*
X149029000Y-70671000D02*
X149029000Y-69307000D01*
X146042000Y-71466000D02*
X148234000Y-71466000D01*
X149029000Y-69624500D02*
X149029000Y-69307000D01*
X146042000Y-71466000D02*
X145442000Y-71466000D01*
X145442000Y-71466000D02*
X145092000Y-71816000D01*
X113400000Y-78600000D02*
X109834000Y-78600000D01*
X109834000Y-78600000D02*
X109734000Y-78500000D01*
X120000000Y-78500000D02*
X116914228Y-78500000D01*
X116914228Y-78500000D02*
X116597287Y-78816941D01*
X108778000Y-79756000D02*
X108178000Y-79756000D01*
X108178000Y-79756000D02*
X106172000Y-79756000D01*
X109734000Y-78500000D02*
X108778000Y-79456000D01*
X108778000Y-79456000D02*
X108778000Y-79756000D01*
X120519000Y-79019000D02*
X120000000Y-78500000D01*
X120519000Y-80166000D02*
X120519000Y-79019000D01*
X125700010Y-72549990D02*
X125069000Y-73181000D01*
X125069000Y-73181000D02*
X125069000Y-74266000D01*
X134700010Y-79200010D02*
X128049990Y-72549990D01*
X128049990Y-72549990D02*
X125700010Y-72549990D01*
X136500000Y-81920000D02*
X134700010Y-80120010D01*
X134700010Y-80120010D02*
X134700010Y-79200010D01*
X127772818Y-73000000D02*
X126000000Y-73000000D01*
X126000000Y-73000000D02*
X125719000Y-73281000D01*
X125719000Y-73281000D02*
X125719000Y-73291000D01*
X125719000Y-73291000D02*
X125719000Y-74266000D01*
X134250000Y-83431314D02*
X134250000Y-79477182D01*
X134250000Y-79477182D02*
X127772818Y-73000000D01*
X136500000Y-84460000D02*
X135278686Y-84460000D01*
X135278686Y-84460000D02*
X134250000Y-83431314D01*
X136500000Y-87000000D02*
X135278686Y-87000000D01*
X135278686Y-87000000D02*
X133700010Y-85421324D01*
X128402410Y-74266000D02*
X126369000Y-74266000D01*
X133700010Y-85421324D02*
X133700009Y-79563599D01*
X133700009Y-79563599D02*
X128402410Y-74266000D01*
X126369000Y-80166000D02*
X126369000Y-81141000D01*
X126369000Y-81141000D02*
X126478000Y-81250000D01*
X126478000Y-81250000D02*
X126624990Y-81250000D01*
X126624990Y-81250000D02*
X132624990Y-87250000D01*
X132624990Y-87250000D02*
X134210000Y-87250000D01*
X134210000Y-87250000D02*
X136500000Y-89540000D01*
X94250000Y-100500000D02*
X93800040Y-100050040D01*
X93800040Y-100050040D02*
X92699520Y-100050040D01*
X94250000Y-102250000D02*
X94250000Y-100500000D01*
X94950000Y-104999240D02*
X94250760Y-104999240D01*
X94250760Y-104999240D02*
X94250000Y-105000000D01*
X93050000Y-98000000D02*
X93050000Y-99699560D01*
X93050000Y-99699560D02*
X92699520Y-100050040D01*
X97094000Y-92440760D02*
X97094000Y-88166170D01*
X97094000Y-88166170D02*
X97393950Y-87866220D01*
X97393950Y-87866220D02*
X98044000Y-87866220D01*
X97094000Y-94488000D02*
X97094000Y-92440760D01*
X108219240Y-97094000D02*
X108272891Y-97147651D01*
X112646671Y-97147651D02*
X112809020Y-97310000D01*
X108272891Y-97147651D02*
X112646671Y-97147651D01*
X106172000Y-97094000D02*
X108219240Y-97094000D01*
X95300480Y-101000000D02*
X95300480Y-101949960D01*
X95300480Y-100050040D02*
X95300480Y-101000000D01*
X96000000Y-99500000D02*
X97750000Y-99500000D01*
X97750000Y-99500000D02*
X98950000Y-98300000D01*
X98950000Y-98300000D02*
X98950000Y-98000000D01*
X95449960Y-100050040D02*
X96000000Y-99500000D01*
X95300480Y-100050040D02*
X95449960Y-100050040D01*
D40*
G36*
X102700000Y-66900000D02*
X97200000Y-66900000D01*
X97200000Y-64209408D01*
X97225538Y-64147906D01*
X97225745Y-63910000D01*
X97701623Y-63910000D01*
X97701623Y-65637200D01*
X97722542Y-65748373D01*
X97788245Y-65850479D01*
X97888497Y-65918978D01*
X98007500Y-65943077D01*
X99734700Y-65943077D01*
X99845873Y-65922158D01*
X99947979Y-65856455D01*
X100016478Y-65756203D01*
X100040577Y-65637200D01*
X100040577Y-64750804D01*
X100247500Y-64750804D01*
X100247500Y-64796396D01*
X100336074Y-65241686D01*
X100588311Y-65619185D01*
X100965810Y-65871422D01*
X101411100Y-65959996D01*
X101856390Y-65871422D01*
X102233889Y-65619185D01*
X102486126Y-65241686D01*
X102574700Y-64796396D01*
X102574700Y-64750804D01*
X102486126Y-64305514D01*
X102233889Y-63928015D01*
X101856390Y-63675778D01*
X101411100Y-63587204D01*
X100965810Y-63675778D01*
X100588311Y-63928015D01*
X100336074Y-64305514D01*
X100247500Y-64750804D01*
X100040577Y-64750804D01*
X100040577Y-63910000D01*
X100019658Y-63798827D01*
X99953955Y-63696721D01*
X99853703Y-63628222D01*
X99734700Y-63604123D01*
X98007500Y-63604123D01*
X97896327Y-63625042D01*
X97794221Y-63690745D01*
X97725722Y-63790997D01*
X97701623Y-63910000D01*
X97225745Y-63910000D01*
X97226658Y-62864922D01*
X97200000Y-62800405D01*
X97200000Y-62570149D01*
X97705084Y-62570149D01*
X97922633Y-62990746D01*
X98284578Y-63296074D01*
X98534554Y-63399602D01*
X98721100Y-63349665D01*
X98721100Y-62383600D01*
X99021100Y-62383600D01*
X99021100Y-63349665D01*
X99207646Y-63399602D01*
X99457622Y-63296074D01*
X99819567Y-62990746D01*
X100037116Y-62570149D01*
X100245084Y-62570149D01*
X100462633Y-62990746D01*
X100824578Y-63296074D01*
X101074554Y-63399602D01*
X101261100Y-63349665D01*
X101261100Y-62383600D01*
X101561100Y-62383600D01*
X101561100Y-63349665D01*
X101747646Y-63399602D01*
X101997622Y-63296074D01*
X102359567Y-62990746D01*
X102577116Y-62570149D01*
X102527908Y-62383600D01*
X101561100Y-62383600D01*
X101261100Y-62383600D01*
X100294292Y-62383600D01*
X100245084Y-62570149D01*
X100037116Y-62570149D01*
X99987908Y-62383600D01*
X99021100Y-62383600D01*
X98721100Y-62383600D01*
X97754292Y-62383600D01*
X97705084Y-62570149D01*
X97200000Y-62570149D01*
X97200000Y-61897051D01*
X97705084Y-61897051D01*
X97754292Y-62083600D01*
X98721100Y-62083600D01*
X98721100Y-61117535D01*
X99021100Y-61117535D01*
X99021100Y-62083600D01*
X99987908Y-62083600D01*
X100037116Y-61897051D01*
X100245084Y-61897051D01*
X100294292Y-62083600D01*
X101261100Y-62083600D01*
X101261100Y-61117535D01*
X101561100Y-61117535D01*
X101561100Y-62083600D01*
X102527908Y-62083600D01*
X102577116Y-61897051D01*
X102359567Y-61476454D01*
X101997622Y-61171126D01*
X101747646Y-61067598D01*
X101561100Y-61117535D01*
X101261100Y-61117535D01*
X101074554Y-61067598D01*
X100824578Y-61171126D01*
X100462633Y-61476454D01*
X100245084Y-61897051D01*
X100037116Y-61897051D01*
X99819567Y-61476454D01*
X99457622Y-61171126D01*
X99207646Y-61067598D01*
X99021100Y-61117535D01*
X98721100Y-61117535D01*
X98534554Y-61067598D01*
X98284578Y-61171126D01*
X97922633Y-61476454D01*
X97705084Y-61897051D01*
X97200000Y-61897051D01*
X97200000Y-60400000D01*
X102700000Y-60400000D01*
X102700000Y-66900000D01*
X102700000Y-66900000D01*
G37*
X102700000Y-66900000D02*
X97200000Y-66900000D01*
X97200000Y-64209408D01*
X97225538Y-64147906D01*
X97225745Y-63910000D01*
X97701623Y-63910000D01*
X97701623Y-65637200D01*
X97722542Y-65748373D01*
X97788245Y-65850479D01*
X97888497Y-65918978D01*
X98007500Y-65943077D01*
X99734700Y-65943077D01*
X99845873Y-65922158D01*
X99947979Y-65856455D01*
X100016478Y-65756203D01*
X100040577Y-65637200D01*
X100040577Y-64750804D01*
X100247500Y-64750804D01*
X100247500Y-64796396D01*
X100336074Y-65241686D01*
X100588311Y-65619185D01*
X100965810Y-65871422D01*
X101411100Y-65959996D01*
X101856390Y-65871422D01*
X102233889Y-65619185D01*
X102486126Y-65241686D01*
X102574700Y-64796396D01*
X102574700Y-64750804D01*
X102486126Y-64305514D01*
X102233889Y-63928015D01*
X101856390Y-63675778D01*
X101411100Y-63587204D01*
X100965810Y-63675778D01*
X100588311Y-63928015D01*
X100336074Y-64305514D01*
X100247500Y-64750804D01*
X100040577Y-64750804D01*
X100040577Y-63910000D01*
X100019658Y-63798827D01*
X99953955Y-63696721D01*
X99853703Y-63628222D01*
X99734700Y-63604123D01*
X98007500Y-63604123D01*
X97896327Y-63625042D01*
X97794221Y-63690745D01*
X97725722Y-63790997D01*
X97701623Y-63910000D01*
X97225745Y-63910000D01*
X97226658Y-62864922D01*
X97200000Y-62800405D01*
X97200000Y-62570149D01*
X97705084Y-62570149D01*
X97922633Y-62990746D01*
X98284578Y-63296074D01*
X98534554Y-63399602D01*
X98721100Y-63349665D01*
X98721100Y-62383600D01*
X99021100Y-62383600D01*
X99021100Y-63349665D01*
X99207646Y-63399602D01*
X99457622Y-63296074D01*
X99819567Y-62990746D01*
X100037116Y-62570149D01*
X100245084Y-62570149D01*
X100462633Y-62990746D01*
X100824578Y-63296074D01*
X101074554Y-63399602D01*
X101261100Y-63349665D01*
X101261100Y-62383600D01*
X101561100Y-62383600D01*
X101561100Y-63349665D01*
X101747646Y-63399602D01*
X101997622Y-63296074D01*
X102359567Y-62990746D01*
X102577116Y-62570149D01*
X102527908Y-62383600D01*
X101561100Y-62383600D01*
X101261100Y-62383600D01*
X100294292Y-62383600D01*
X100245084Y-62570149D01*
X100037116Y-62570149D01*
X99987908Y-62383600D01*
X99021100Y-62383600D01*
X98721100Y-62383600D01*
X97754292Y-62383600D01*
X97705084Y-62570149D01*
X97200000Y-62570149D01*
X97200000Y-61897051D01*
X97705084Y-61897051D01*
X97754292Y-62083600D01*
X98721100Y-62083600D01*
X98721100Y-61117535D01*
X99021100Y-61117535D01*
X99021100Y-62083600D01*
X99987908Y-62083600D01*
X100037116Y-61897051D01*
X100245084Y-61897051D01*
X100294292Y-62083600D01*
X101261100Y-62083600D01*
X101261100Y-61117535D01*
X101561100Y-61117535D01*
X101561100Y-62083600D01*
X102527908Y-62083600D01*
X102577116Y-61897051D01*
X102359567Y-61476454D01*
X101997622Y-61171126D01*
X101747646Y-61067598D01*
X101561100Y-61117535D01*
X101261100Y-61117535D01*
X101074554Y-61067598D01*
X100824578Y-61171126D01*
X100462633Y-61476454D01*
X100245084Y-61897051D01*
X100037116Y-61897051D01*
X99819567Y-61476454D01*
X99457622Y-61171126D01*
X99207646Y-61067598D01*
X99021100Y-61117535D01*
X98721100Y-61117535D01*
X98534554Y-61067598D01*
X98284578Y-61171126D01*
X97922633Y-61476454D01*
X97705084Y-61897051D01*
X97200000Y-61897051D01*
X97200000Y-60400000D01*
X102700000Y-60400000D01*
X102700000Y-66900000D01*
D38*
G36*
X123375000Y-72871828D02*
X123362414Y-72884414D01*
X123237769Y-73070957D01*
X123194000Y-73291000D01*
X123194000Y-73388993D01*
X123191777Y-73392246D01*
X123161654Y-73541000D01*
X123161654Y-74991000D01*
X123187802Y-75129966D01*
X123269931Y-75257599D01*
X123395246Y-75343223D01*
X123544000Y-75373346D01*
X123945325Y-75373346D01*
X123957060Y-75432342D01*
X124065447Y-75594553D01*
X124324446Y-75853553D01*
X124486658Y-75961940D01*
X124678000Y-76000000D01*
X126875000Y-76000000D01*
X126875000Y-79075000D01*
X126674720Y-79075000D01*
X126594000Y-79058654D01*
X126144000Y-79058654D01*
X126057128Y-79075000D01*
X126024719Y-79075000D01*
X125944000Y-79058654D01*
X125494000Y-79058654D01*
X125407128Y-79075000D01*
X125374719Y-79075000D01*
X125294000Y-79058654D01*
X124844000Y-79058654D01*
X124757128Y-79075000D01*
X124724719Y-79075000D01*
X124644000Y-79058654D01*
X124194000Y-79058654D01*
X124107128Y-79075000D01*
X124074719Y-79075000D01*
X123994000Y-79058654D01*
X123544000Y-79058654D01*
X123457128Y-79075000D01*
X122945926Y-79075000D01*
X122930940Y-78999658D01*
X122908450Y-78966000D01*
X122822554Y-78837447D01*
X121231553Y-77246447D01*
X121069342Y-77138060D01*
X120878000Y-77100000D01*
X120025000Y-77100000D01*
X120025000Y-75858990D01*
X121051010Y-75858990D01*
X121242352Y-75820930D01*
X121404563Y-75712543D01*
X121522553Y-75594553D01*
X121630940Y-75432342D01*
X121642675Y-75373346D01*
X122044000Y-75373346D01*
X122147671Y-75353839D01*
X122244000Y-75373346D01*
X122694000Y-75373346D01*
X122832966Y-75347198D01*
X122960599Y-75265069D01*
X123046223Y-75139754D01*
X123076346Y-74991000D01*
X123076346Y-73541000D01*
X123050198Y-73402034D01*
X122968069Y-73274401D01*
X122886228Y-73218482D01*
X122863724Y-73184802D01*
X122822554Y-73123186D01*
X122625000Y-72925632D01*
X122625000Y-72525000D01*
X123375000Y-72525000D01*
X123375000Y-72871828D01*
X123375000Y-72871828D01*
G37*
X123375000Y-72871828D02*
X123362414Y-72884414D01*
X123237769Y-73070957D01*
X123194000Y-73291000D01*
X123194000Y-73388993D01*
X123191777Y-73392246D01*
X123161654Y-73541000D01*
X123161654Y-74991000D01*
X123187802Y-75129966D01*
X123269931Y-75257599D01*
X123395246Y-75343223D01*
X123544000Y-75373346D01*
X123945325Y-75373346D01*
X123957060Y-75432342D01*
X124065447Y-75594553D01*
X124324446Y-75853553D01*
X124486658Y-75961940D01*
X124678000Y-76000000D01*
X126875000Y-76000000D01*
X126875000Y-79075000D01*
X126674720Y-79075000D01*
X126594000Y-79058654D01*
X126144000Y-79058654D01*
X126057128Y-79075000D01*
X126024719Y-79075000D01*
X125944000Y-79058654D01*
X125494000Y-79058654D01*
X125407128Y-79075000D01*
X125374719Y-79075000D01*
X125294000Y-79058654D01*
X124844000Y-79058654D01*
X124757128Y-79075000D01*
X124724719Y-79075000D01*
X124644000Y-79058654D01*
X124194000Y-79058654D01*
X124107128Y-79075000D01*
X124074719Y-79075000D01*
X123994000Y-79058654D01*
X123544000Y-79058654D01*
X123457128Y-79075000D01*
X122945926Y-79075000D01*
X122930940Y-78999658D01*
X122908450Y-78966000D01*
X122822554Y-78837447D01*
X121231553Y-77246447D01*
X121069342Y-77138060D01*
X120878000Y-77100000D01*
X120025000Y-77100000D01*
X120025000Y-75858990D01*
X121051010Y-75858990D01*
X121242352Y-75820930D01*
X121404563Y-75712543D01*
X121522553Y-75594553D01*
X121630940Y-75432342D01*
X121642675Y-75373346D01*
X122044000Y-75373346D01*
X122147671Y-75353839D01*
X122244000Y-75373346D01*
X122694000Y-75373346D01*
X122832966Y-75347198D01*
X122960599Y-75265069D01*
X123046223Y-75139754D01*
X123076346Y-74991000D01*
X123076346Y-73541000D01*
X123050198Y-73402034D01*
X122968069Y-73274401D01*
X122886228Y-73218482D01*
X122863724Y-73184802D01*
X122822554Y-73123186D01*
X122625000Y-72925632D01*
X122625000Y-72525000D01*
X123375000Y-72525000D01*
X123375000Y-72871828D01*
M02*
