G04 #@! TF.FileFunction,Legend,Bot*
%FSLAX46Y46*%
G04 Gerber Fmt 4.6, Leading zero omitted, Abs format (unit mm)*
G04 Created by KiCad (PCBNEW 4.0.2+e4-6225~38~ubuntu15.04.1-stable) date Fri 21 Oct 2016 22:21:09 ACDT*
%MOMM*%
G01*
G04 APERTURE LIST*
%ADD10C,0.100000*%
%ADD11C,0.200000*%
%ADD12R,2.127200X2.127200*%
%ADD13O,2.127200X2.127200*%
%ADD14C,6.250000*%
%ADD15R,2.900000X2.900000*%
%ADD16C,2.900000*%
%ADD17R,2.127200X2.432000*%
%ADD18O,2.127200X2.432000*%
%ADD19R,2.432000X2.127200*%
%ADD20O,2.432000X2.127200*%
%ADD21R,2.432000X2.432000*%
%ADD22O,2.432000X2.432000*%
%ADD23C,1.400760*%
G04 APERTURE END LIST*
D10*
D11*
X131580955Y-68433333D02*
X131628575Y-68385714D01*
X131723813Y-68242857D01*
X131771432Y-68147619D01*
X131819051Y-68004762D01*
X131866670Y-67766667D01*
X131866670Y-67576190D01*
X131819051Y-67338095D01*
X131771432Y-67195238D01*
X131723813Y-67100000D01*
X131628575Y-66957143D01*
X131580955Y-66909524D01*
X130628574Y-67957143D02*
X130676193Y-68004762D01*
X130819050Y-68052381D01*
X130914288Y-68052381D01*
X131057146Y-68004762D01*
X131152384Y-67909524D01*
X131200003Y-67814286D01*
X131247622Y-67623810D01*
X131247622Y-67480952D01*
X131200003Y-67290476D01*
X131152384Y-67195238D01*
X131057146Y-67100000D01*
X130914288Y-67052381D01*
X130819050Y-67052381D01*
X130676193Y-67100000D01*
X130628574Y-67147619D01*
X130295241Y-68433333D02*
X130247622Y-68385714D01*
X130152384Y-68242857D01*
X130104765Y-68147619D01*
X130057146Y-68004762D01*
X130009527Y-67766667D01*
X130009527Y-67576190D01*
X130057146Y-67338095D01*
X130104765Y-67195238D01*
X130152384Y-67100000D01*
X130247622Y-66957143D01*
X130295241Y-66909524D01*
X128866669Y-67052381D02*
X128628574Y-68052381D01*
X128438097Y-67338095D01*
X128247621Y-68052381D01*
X128009526Y-67052381D01*
X127628574Y-68052381D02*
X127628574Y-67385714D01*
X127628574Y-67052381D02*
X127676193Y-67100000D01*
X127628574Y-67147619D01*
X127580955Y-67100000D01*
X127628574Y-67052381D01*
X127628574Y-67147619D01*
X127009527Y-68052381D02*
X127104765Y-68004762D01*
X127152384Y-67909524D01*
X127152384Y-67052381D01*
X126485717Y-68052381D02*
X126580955Y-68004762D01*
X126628574Y-67909524D01*
X126628574Y-67052381D01*
X126104764Y-68052381D02*
X126104764Y-67385714D01*
X126104764Y-67052381D02*
X126152383Y-67100000D01*
X126104764Y-67147619D01*
X126057145Y-67100000D01*
X126104764Y-67052381D01*
X126104764Y-67147619D01*
X125200002Y-68052381D02*
X125200002Y-67528571D01*
X125247621Y-67433333D01*
X125342859Y-67385714D01*
X125533336Y-67385714D01*
X125628574Y-67433333D01*
X125200002Y-68004762D02*
X125295240Y-68052381D01*
X125533336Y-68052381D01*
X125628574Y-68004762D01*
X125676193Y-67909524D01*
X125676193Y-67814286D01*
X125628574Y-67719048D01*
X125533336Y-67671429D01*
X125295240Y-67671429D01*
X125200002Y-67623810D01*
X124723812Y-68052381D02*
X124723812Y-67385714D01*
X124723812Y-67480952D02*
X124676193Y-67433333D01*
X124580955Y-67385714D01*
X124438097Y-67385714D01*
X124342859Y-67433333D01*
X124295240Y-67528571D01*
X124295240Y-68052381D01*
X124295240Y-67528571D02*
X124247621Y-67433333D01*
X124152383Y-67385714D01*
X124009526Y-67385714D01*
X123914288Y-67433333D01*
X123866669Y-67528571D01*
X123866669Y-68052381D01*
X122295240Y-67528571D02*
X122152383Y-67576190D01*
X122104764Y-67623810D01*
X122057145Y-67719048D01*
X122057145Y-67861905D01*
X122104764Y-67957143D01*
X122152383Y-68004762D01*
X122247621Y-68052381D01*
X122628574Y-68052381D01*
X122628574Y-67052381D01*
X122295240Y-67052381D01*
X122200002Y-67100000D01*
X122152383Y-67147619D01*
X122104764Y-67242857D01*
X122104764Y-67338095D01*
X122152383Y-67433333D01*
X122200002Y-67480952D01*
X122295240Y-67528571D01*
X122628574Y-67528571D01*
X121628574Y-68052381D02*
X121628574Y-67385714D01*
X121628574Y-67576190D02*
X121580955Y-67480952D01*
X121533336Y-67433333D01*
X121438098Y-67385714D01*
X121342859Y-67385714D01*
X120866669Y-68052381D02*
X120961907Y-68004762D01*
X121009526Y-67957143D01*
X121057145Y-67861905D01*
X121057145Y-67576190D01*
X121009526Y-67480952D01*
X120961907Y-67433333D01*
X120866669Y-67385714D01*
X120723811Y-67385714D01*
X120628573Y-67433333D01*
X120580954Y-67480952D01*
X120533335Y-67576190D01*
X120533335Y-67861905D01*
X120580954Y-67957143D01*
X120628573Y-68004762D01*
X120723811Y-68052381D01*
X120866669Y-68052381D01*
X119676192Y-68052381D02*
X119676192Y-67052381D01*
X119676192Y-68004762D02*
X119771430Y-68052381D01*
X119961907Y-68052381D01*
X120057145Y-68004762D01*
X120104764Y-67957143D01*
X120152383Y-67861905D01*
X120152383Y-67576190D01*
X120104764Y-67480952D01*
X120057145Y-67433333D01*
X119961907Y-67385714D01*
X119771430Y-67385714D01*
X119676192Y-67433333D01*
X119200002Y-68052381D02*
X119200002Y-67385714D01*
X119200002Y-67052381D02*
X119247621Y-67100000D01*
X119200002Y-67147619D01*
X119152383Y-67100000D01*
X119200002Y-67052381D01*
X119200002Y-67147619D01*
X118342859Y-68004762D02*
X118438097Y-68052381D01*
X118628574Y-68052381D01*
X118723812Y-68004762D01*
X118771431Y-67909524D01*
X118771431Y-67528571D01*
X118723812Y-67433333D01*
X118628574Y-67385714D01*
X118438097Y-67385714D01*
X118342859Y-67433333D01*
X118295240Y-67528571D01*
X118295240Y-67623810D01*
X118771431Y-67719048D01*
X117866669Y-67671429D02*
X117104764Y-67671429D01*
X116771431Y-67052381D02*
X116200002Y-67052381D01*
X116485717Y-68052381D02*
X116485717Y-67052381D01*
X115961907Y-67385714D02*
X115723812Y-68052381D01*
X115485716Y-67385714D02*
X115723812Y-68052381D01*
X115819050Y-68290476D01*
X115866669Y-68338095D01*
X115961907Y-68385714D01*
X115104764Y-68052381D02*
X115104764Y-67385714D01*
X115104764Y-67576190D02*
X115057145Y-67480952D01*
X115009526Y-67433333D01*
X114914288Y-67385714D01*
X114819049Y-67385714D01*
X114485716Y-68052381D02*
X114485716Y-67385714D01*
X114485716Y-67576190D02*
X114438097Y-67480952D01*
X114390478Y-67433333D01*
X114295240Y-67385714D01*
X114200001Y-67385714D01*
X113485715Y-68004762D02*
X113580953Y-68052381D01*
X113771430Y-68052381D01*
X113866668Y-68004762D01*
X113914287Y-67909524D01*
X113914287Y-67528571D01*
X113866668Y-67433333D01*
X113771430Y-67385714D01*
X113580953Y-67385714D01*
X113485715Y-67433333D01*
X113438096Y-67528571D01*
X113438096Y-67623810D01*
X113914287Y-67719048D01*
X112866668Y-68052381D02*
X112961906Y-68004762D01*
X113009525Y-67909524D01*
X113009525Y-67052381D01*
X112342858Y-68052381D02*
X112438096Y-68004762D01*
X112485715Y-67909524D01*
X112485715Y-67052381D01*
X131285715Y-70052381D02*
X131619049Y-69576190D01*
X131857144Y-70052381D02*
X131857144Y-69052381D01*
X131476191Y-69052381D01*
X131380953Y-69100000D01*
X131333334Y-69147619D01*
X131285715Y-69242857D01*
X131285715Y-69385714D01*
X131333334Y-69480952D01*
X131380953Y-69528571D01*
X131476191Y-69576190D01*
X131857144Y-69576190D01*
X130476191Y-70004762D02*
X130571429Y-70052381D01*
X130761906Y-70052381D01*
X130857144Y-70004762D01*
X130904763Y-69909524D01*
X130904763Y-69528571D01*
X130857144Y-69433333D01*
X130761906Y-69385714D01*
X130571429Y-69385714D01*
X130476191Y-69433333D01*
X130428572Y-69528571D01*
X130428572Y-69623810D01*
X130904763Y-69719048D01*
X130095239Y-69385714D02*
X129857144Y-70052381D01*
X129619048Y-69385714D01*
X129238096Y-69957143D02*
X129190477Y-70004762D01*
X129238096Y-70052381D01*
X129285715Y-70004762D01*
X129238096Y-69957143D01*
X129238096Y-70052381D01*
X128047620Y-69766667D02*
X127571429Y-69766667D01*
X128142858Y-70052381D02*
X127809525Y-69052381D01*
X127476191Y-70052381D01*
X126428572Y-69147619D02*
X126380953Y-69100000D01*
X126285715Y-69052381D01*
X126047619Y-69052381D01*
X125952381Y-69100000D01*
X125904762Y-69147619D01*
X125857143Y-69242857D01*
X125857143Y-69338095D01*
X125904762Y-69480952D01*
X126476191Y-70052381D01*
X125857143Y-70052381D01*
X125238096Y-69052381D02*
X125142857Y-69052381D01*
X125047619Y-69100000D01*
X125000000Y-69147619D01*
X124952381Y-69242857D01*
X124904762Y-69433333D01*
X124904762Y-69671429D01*
X124952381Y-69861905D01*
X125000000Y-69957143D01*
X125047619Y-70004762D01*
X125142857Y-70052381D01*
X125238096Y-70052381D01*
X125333334Y-70004762D01*
X125380953Y-69957143D01*
X125428572Y-69861905D01*
X125476191Y-69671429D01*
X125476191Y-69433333D01*
X125428572Y-69242857D01*
X125380953Y-69147619D01*
X125333334Y-69100000D01*
X125238096Y-69052381D01*
X123952381Y-70052381D02*
X124523810Y-70052381D01*
X124238096Y-70052381D02*
X124238096Y-69052381D01*
X124333334Y-69195238D01*
X124428572Y-69290476D01*
X124523810Y-69338095D01*
X123095238Y-69052381D02*
X123285715Y-69052381D01*
X123380953Y-69100000D01*
X123428572Y-69147619D01*
X123523810Y-69290476D01*
X123571429Y-69480952D01*
X123571429Y-69861905D01*
X123523810Y-69957143D01*
X123476191Y-70004762D01*
X123380953Y-70052381D01*
X123190476Y-70052381D01*
X123095238Y-70004762D01*
X123047619Y-69957143D01*
X123000000Y-69861905D01*
X123000000Y-69623810D01*
X123047619Y-69528571D01*
X123095238Y-69480952D01*
X123190476Y-69433333D01*
X123380953Y-69433333D01*
X123476191Y-69480952D01*
X123523810Y-69528571D01*
X123571429Y-69623810D01*
X122047619Y-70052381D02*
X122619048Y-70052381D01*
X122333334Y-70052381D02*
X122333334Y-69052381D01*
X122428572Y-69195238D01*
X122523810Y-69290476D01*
X122619048Y-69338095D01*
X121428572Y-69052381D02*
X121333333Y-69052381D01*
X121238095Y-69100000D01*
X121190476Y-69147619D01*
X121142857Y-69242857D01*
X121095238Y-69433333D01*
X121095238Y-69671429D01*
X121142857Y-69861905D01*
X121190476Y-69957143D01*
X121238095Y-70004762D01*
X121333333Y-70052381D01*
X121428572Y-70052381D01*
X121523810Y-70004762D01*
X121571429Y-69957143D01*
X121619048Y-69861905D01*
X121666667Y-69671429D01*
X121666667Y-69433333D01*
X121619048Y-69242857D01*
X121571429Y-69147619D01*
X121523810Y-69100000D01*
X121428572Y-69052381D01*
X120714286Y-69147619D02*
X120666667Y-69100000D01*
X120571429Y-69052381D01*
X120333333Y-69052381D01*
X120238095Y-69100000D01*
X120190476Y-69147619D01*
X120142857Y-69242857D01*
X120142857Y-69338095D01*
X120190476Y-69480952D01*
X120761905Y-70052381D01*
X120142857Y-70052381D01*
X119190476Y-70052381D02*
X119761905Y-70052381D01*
X119476191Y-70052381D02*
X119476191Y-69052381D01*
X119571429Y-69195238D01*
X119666667Y-69290476D01*
X119761905Y-69338095D01*
%LPC*%
D12*
X98871100Y-64773600D03*
D13*
X98871100Y-62233600D03*
X101411100Y-64773600D03*
X101411100Y-62233600D03*
X103951100Y-64773600D03*
X103951100Y-62233600D03*
X106491100Y-64773600D03*
X106491100Y-62233600D03*
X109031100Y-64773600D03*
X109031100Y-62233600D03*
X111571100Y-64773600D03*
X111571100Y-62233600D03*
X114111100Y-64773600D03*
X114111100Y-62233600D03*
X116651100Y-64773600D03*
X116651100Y-62233600D03*
X119191100Y-64773600D03*
X119191100Y-62233600D03*
X121731100Y-64773600D03*
X121731100Y-62233600D03*
X124271100Y-64773600D03*
X124271100Y-62233600D03*
X126811100Y-64773600D03*
X126811100Y-62233600D03*
X129351100Y-64773600D03*
X129351100Y-62233600D03*
X131891100Y-64773600D03*
X131891100Y-62233600D03*
X134431100Y-64773600D03*
X134431100Y-62233600D03*
X136971100Y-64773600D03*
X136971100Y-62233600D03*
X139511100Y-64773600D03*
X139511100Y-62233600D03*
X142051100Y-64773600D03*
X142051100Y-62233600D03*
X144591100Y-64773600D03*
X144591100Y-62233600D03*
X147131100Y-64773600D03*
X147131100Y-62233600D03*
D14*
X94001100Y-63503600D03*
X152001100Y-63503600D03*
X94001100Y-112503600D03*
X152001100Y-112503600D03*
D15*
X100000000Y-111000000D03*
D16*
X105000000Y-111000000D03*
D17*
X121920000Y-105410000D03*
D18*
X119380000Y-105410000D03*
X116840000Y-105410000D03*
X114300000Y-105410000D03*
D17*
X132080000Y-105410000D03*
D18*
X129540000Y-105410000D03*
X127000000Y-105410000D03*
X124460000Y-105410000D03*
D19*
X101472000Y-69338000D03*
D20*
X101472000Y-71878000D03*
X101472000Y-74418000D03*
X101472000Y-76958000D03*
D21*
X141000000Y-71540000D03*
D22*
X141000000Y-69000000D03*
D21*
X106172000Y-79756000D03*
D22*
X106172000Y-82296000D03*
D12*
X139040000Y-89540000D03*
D13*
X136500000Y-89540000D03*
X139040000Y-87000000D03*
X136500000Y-87000000D03*
X139040000Y-84460000D03*
X136500000Y-84460000D03*
X139040000Y-81920000D03*
X136500000Y-81920000D03*
D23*
X118364000Y-83820000D03*
X118364000Y-82321400D03*
D21*
X106500000Y-104000000D03*
D22*
X106500000Y-101460000D03*
D21*
X102108000Y-94488000D03*
D22*
X102108000Y-91948000D03*
D21*
X138600000Y-111460000D03*
D22*
X138600000Y-114000000D03*
M02*
