G04 #@! TF.FileFunction,Legend,Bot*
%FSLAX46Y46*%
G04 Gerber Fmt 4.6, Leading zero omitted, Abs format (unit mm)*
G04 Created by KiCad (PCBNEW 4.0.2+e4-6225~38~ubuntu15.04.1-stable) date Sat 22 Oct 2016 20:53:22 ACDT*
%MOMM*%
G01*
G04 APERTURE LIST*
%ADD10C,0.100000*%
%ADD11C,0.200000*%
%ADD12R,2.127200X2.127200*%
%ADD13O,2.127200X2.127200*%
%ADD14C,6.250000*%
%ADD15R,2.900000X2.900000*%
%ADD16C,2.900000*%
%ADD17R,2.127200X2.432000*%
%ADD18O,2.127200X2.432000*%
%ADD19R,2.432000X2.127200*%
%ADD20O,2.432000X2.127200*%
%ADD21R,2.432000X2.432000*%
%ADD22O,2.432000X2.432000*%
%ADD23C,1.400760*%
G04 APERTURE END LIST*
D10*
D11*
X131080955Y-68433333D02*
X131128575Y-68385714D01*
X131223813Y-68242857D01*
X131271432Y-68147619D01*
X131319051Y-68004762D01*
X131366670Y-67766667D01*
X131366670Y-67576190D01*
X131319051Y-67338095D01*
X131271432Y-67195238D01*
X131223813Y-67100000D01*
X131128575Y-66957143D01*
X131080955Y-66909524D01*
X130128574Y-67957143D02*
X130176193Y-68004762D01*
X130319050Y-68052381D01*
X130414288Y-68052381D01*
X130557146Y-68004762D01*
X130652384Y-67909524D01*
X130700003Y-67814286D01*
X130747622Y-67623810D01*
X130747622Y-67480952D01*
X130700003Y-67290476D01*
X130652384Y-67195238D01*
X130557146Y-67100000D01*
X130414288Y-67052381D01*
X130319050Y-67052381D01*
X130176193Y-67100000D01*
X130128574Y-67147619D01*
X129795241Y-68433333D02*
X129747622Y-68385714D01*
X129652384Y-68242857D01*
X129604765Y-68147619D01*
X129557146Y-68004762D01*
X129509527Y-67766667D01*
X129509527Y-67576190D01*
X129557146Y-67338095D01*
X129604765Y-67195238D01*
X129652384Y-67100000D01*
X129747622Y-66957143D01*
X129795241Y-66909524D01*
X128366669Y-67052381D02*
X128128574Y-68052381D01*
X127938097Y-67338095D01*
X127747621Y-68052381D01*
X127509526Y-67052381D01*
X127128574Y-68052381D02*
X127128574Y-67385714D01*
X127128574Y-67052381D02*
X127176193Y-67100000D01*
X127128574Y-67147619D01*
X127080955Y-67100000D01*
X127128574Y-67052381D01*
X127128574Y-67147619D01*
X126509527Y-68052381D02*
X126604765Y-68004762D01*
X126652384Y-67909524D01*
X126652384Y-67052381D01*
X125985717Y-68052381D02*
X126080955Y-68004762D01*
X126128574Y-67909524D01*
X126128574Y-67052381D01*
X125604764Y-68052381D02*
X125604764Y-67385714D01*
X125604764Y-67052381D02*
X125652383Y-67100000D01*
X125604764Y-67147619D01*
X125557145Y-67100000D01*
X125604764Y-67052381D01*
X125604764Y-67147619D01*
X124700002Y-68052381D02*
X124700002Y-67528571D01*
X124747621Y-67433333D01*
X124842859Y-67385714D01*
X125033336Y-67385714D01*
X125128574Y-67433333D01*
X124700002Y-68004762D02*
X124795240Y-68052381D01*
X125033336Y-68052381D01*
X125128574Y-68004762D01*
X125176193Y-67909524D01*
X125176193Y-67814286D01*
X125128574Y-67719048D01*
X125033336Y-67671429D01*
X124795240Y-67671429D01*
X124700002Y-67623810D01*
X124223812Y-68052381D02*
X124223812Y-67385714D01*
X124223812Y-67480952D02*
X124176193Y-67433333D01*
X124080955Y-67385714D01*
X123938097Y-67385714D01*
X123842859Y-67433333D01*
X123795240Y-67528571D01*
X123795240Y-68052381D01*
X123795240Y-67528571D02*
X123747621Y-67433333D01*
X123652383Y-67385714D01*
X123509526Y-67385714D01*
X123414288Y-67433333D01*
X123366669Y-67528571D01*
X123366669Y-68052381D01*
X121795240Y-67528571D02*
X121652383Y-67576190D01*
X121604764Y-67623810D01*
X121557145Y-67719048D01*
X121557145Y-67861905D01*
X121604764Y-67957143D01*
X121652383Y-68004762D01*
X121747621Y-68052381D01*
X122128574Y-68052381D01*
X122128574Y-67052381D01*
X121795240Y-67052381D01*
X121700002Y-67100000D01*
X121652383Y-67147619D01*
X121604764Y-67242857D01*
X121604764Y-67338095D01*
X121652383Y-67433333D01*
X121700002Y-67480952D01*
X121795240Y-67528571D01*
X122128574Y-67528571D01*
X121128574Y-68052381D02*
X121128574Y-67385714D01*
X121128574Y-67576190D02*
X121080955Y-67480952D01*
X121033336Y-67433333D01*
X120938098Y-67385714D01*
X120842859Y-67385714D01*
X120366669Y-68052381D02*
X120461907Y-68004762D01*
X120509526Y-67957143D01*
X120557145Y-67861905D01*
X120557145Y-67576190D01*
X120509526Y-67480952D01*
X120461907Y-67433333D01*
X120366669Y-67385714D01*
X120223811Y-67385714D01*
X120128573Y-67433333D01*
X120080954Y-67480952D01*
X120033335Y-67576190D01*
X120033335Y-67861905D01*
X120080954Y-67957143D01*
X120128573Y-68004762D01*
X120223811Y-68052381D01*
X120366669Y-68052381D01*
X119176192Y-68052381D02*
X119176192Y-67052381D01*
X119176192Y-68004762D02*
X119271430Y-68052381D01*
X119461907Y-68052381D01*
X119557145Y-68004762D01*
X119604764Y-67957143D01*
X119652383Y-67861905D01*
X119652383Y-67576190D01*
X119604764Y-67480952D01*
X119557145Y-67433333D01*
X119461907Y-67385714D01*
X119271430Y-67385714D01*
X119176192Y-67433333D01*
X118700002Y-68052381D02*
X118700002Y-67385714D01*
X118700002Y-67052381D02*
X118747621Y-67100000D01*
X118700002Y-67147619D01*
X118652383Y-67100000D01*
X118700002Y-67052381D01*
X118700002Y-67147619D01*
X117842859Y-68004762D02*
X117938097Y-68052381D01*
X118128574Y-68052381D01*
X118223812Y-68004762D01*
X118271431Y-67909524D01*
X118271431Y-67528571D01*
X118223812Y-67433333D01*
X118128574Y-67385714D01*
X117938097Y-67385714D01*
X117842859Y-67433333D01*
X117795240Y-67528571D01*
X117795240Y-67623810D01*
X118271431Y-67719048D01*
X117366669Y-67671429D02*
X116604764Y-67671429D01*
X116271431Y-67052381D02*
X115700002Y-67052381D01*
X115985717Y-68052381D02*
X115985717Y-67052381D01*
X115461907Y-67385714D02*
X115223812Y-68052381D01*
X114985716Y-67385714D02*
X115223812Y-68052381D01*
X115319050Y-68290476D01*
X115366669Y-68338095D01*
X115461907Y-68385714D01*
X114604764Y-68052381D02*
X114604764Y-67385714D01*
X114604764Y-67576190D02*
X114557145Y-67480952D01*
X114509526Y-67433333D01*
X114414288Y-67385714D01*
X114319049Y-67385714D01*
X113985716Y-68052381D02*
X113985716Y-67385714D01*
X113985716Y-67576190D02*
X113938097Y-67480952D01*
X113890478Y-67433333D01*
X113795240Y-67385714D01*
X113700001Y-67385714D01*
X112985715Y-68004762D02*
X113080953Y-68052381D01*
X113271430Y-68052381D01*
X113366668Y-68004762D01*
X113414287Y-67909524D01*
X113414287Y-67528571D01*
X113366668Y-67433333D01*
X113271430Y-67385714D01*
X113080953Y-67385714D01*
X112985715Y-67433333D01*
X112938096Y-67528571D01*
X112938096Y-67623810D01*
X113414287Y-67719048D01*
X112366668Y-68052381D02*
X112461906Y-68004762D01*
X112509525Y-67909524D01*
X112509525Y-67052381D01*
X111842858Y-68052381D02*
X111938096Y-68004762D01*
X111985715Y-67909524D01*
X111985715Y-67052381D01*
X130785715Y-70052381D02*
X131119049Y-69576190D01*
X131357144Y-70052381D02*
X131357144Y-69052381D01*
X130976191Y-69052381D01*
X130880953Y-69100000D01*
X130833334Y-69147619D01*
X130785715Y-69242857D01*
X130785715Y-69385714D01*
X130833334Y-69480952D01*
X130880953Y-69528571D01*
X130976191Y-69576190D01*
X131357144Y-69576190D01*
X129976191Y-70004762D02*
X130071429Y-70052381D01*
X130261906Y-70052381D01*
X130357144Y-70004762D01*
X130404763Y-69909524D01*
X130404763Y-69528571D01*
X130357144Y-69433333D01*
X130261906Y-69385714D01*
X130071429Y-69385714D01*
X129976191Y-69433333D01*
X129928572Y-69528571D01*
X129928572Y-69623810D01*
X130404763Y-69719048D01*
X129595239Y-69385714D02*
X129357144Y-70052381D01*
X129119048Y-69385714D01*
X128738096Y-69957143D02*
X128690477Y-70004762D01*
X128738096Y-70052381D01*
X128785715Y-70004762D01*
X128738096Y-69957143D01*
X128738096Y-70052381D01*
X127547620Y-69766667D02*
X127071429Y-69766667D01*
X127642858Y-70052381D02*
X127309525Y-69052381D01*
X126976191Y-70052381D01*
X125928572Y-69147619D02*
X125880953Y-69100000D01*
X125785715Y-69052381D01*
X125547619Y-69052381D01*
X125452381Y-69100000D01*
X125404762Y-69147619D01*
X125357143Y-69242857D01*
X125357143Y-69338095D01*
X125404762Y-69480952D01*
X125976191Y-70052381D01*
X125357143Y-70052381D01*
X124738096Y-69052381D02*
X124642857Y-69052381D01*
X124547619Y-69100000D01*
X124500000Y-69147619D01*
X124452381Y-69242857D01*
X124404762Y-69433333D01*
X124404762Y-69671429D01*
X124452381Y-69861905D01*
X124500000Y-69957143D01*
X124547619Y-70004762D01*
X124642857Y-70052381D01*
X124738096Y-70052381D01*
X124833334Y-70004762D01*
X124880953Y-69957143D01*
X124928572Y-69861905D01*
X124976191Y-69671429D01*
X124976191Y-69433333D01*
X124928572Y-69242857D01*
X124880953Y-69147619D01*
X124833334Y-69100000D01*
X124738096Y-69052381D01*
X123452381Y-70052381D02*
X124023810Y-70052381D01*
X123738096Y-70052381D02*
X123738096Y-69052381D01*
X123833334Y-69195238D01*
X123928572Y-69290476D01*
X124023810Y-69338095D01*
X122595238Y-69052381D02*
X122785715Y-69052381D01*
X122880953Y-69100000D01*
X122928572Y-69147619D01*
X123023810Y-69290476D01*
X123071429Y-69480952D01*
X123071429Y-69861905D01*
X123023810Y-69957143D01*
X122976191Y-70004762D01*
X122880953Y-70052381D01*
X122690476Y-70052381D01*
X122595238Y-70004762D01*
X122547619Y-69957143D01*
X122500000Y-69861905D01*
X122500000Y-69623810D01*
X122547619Y-69528571D01*
X122595238Y-69480952D01*
X122690476Y-69433333D01*
X122880953Y-69433333D01*
X122976191Y-69480952D01*
X123023810Y-69528571D01*
X123071429Y-69623810D01*
X121547619Y-70052381D02*
X122119048Y-70052381D01*
X121833334Y-70052381D02*
X121833334Y-69052381D01*
X121928572Y-69195238D01*
X122023810Y-69290476D01*
X122119048Y-69338095D01*
X120928572Y-69052381D02*
X120833333Y-69052381D01*
X120738095Y-69100000D01*
X120690476Y-69147619D01*
X120642857Y-69242857D01*
X120595238Y-69433333D01*
X120595238Y-69671429D01*
X120642857Y-69861905D01*
X120690476Y-69957143D01*
X120738095Y-70004762D01*
X120833333Y-70052381D01*
X120928572Y-70052381D01*
X121023810Y-70004762D01*
X121071429Y-69957143D01*
X121119048Y-69861905D01*
X121166667Y-69671429D01*
X121166667Y-69433333D01*
X121119048Y-69242857D01*
X121071429Y-69147619D01*
X121023810Y-69100000D01*
X120928572Y-69052381D01*
X120214286Y-69147619D02*
X120166667Y-69100000D01*
X120071429Y-69052381D01*
X119833333Y-69052381D01*
X119738095Y-69100000D01*
X119690476Y-69147619D01*
X119642857Y-69242857D01*
X119642857Y-69338095D01*
X119690476Y-69480952D01*
X120261905Y-70052381D01*
X119642857Y-70052381D01*
X118690476Y-70052381D02*
X119261905Y-70052381D01*
X118976191Y-70052381D02*
X118976191Y-69052381D01*
X119071429Y-69195238D01*
X119166667Y-69290476D01*
X119261905Y-69338095D01*
%LPC*%
D12*
X98371100Y-64773600D03*
D13*
X98371100Y-62233600D03*
X100911100Y-64773600D03*
X100911100Y-62233600D03*
X103451100Y-64773600D03*
X103451100Y-62233600D03*
X105991100Y-64773600D03*
X105991100Y-62233600D03*
X108531100Y-64773600D03*
X108531100Y-62233600D03*
X111071100Y-64773600D03*
X111071100Y-62233600D03*
X113611100Y-64773600D03*
X113611100Y-62233600D03*
X116151100Y-64773600D03*
X116151100Y-62233600D03*
X118691100Y-64773600D03*
X118691100Y-62233600D03*
X121231100Y-64773600D03*
X121231100Y-62233600D03*
X123771100Y-64773600D03*
X123771100Y-62233600D03*
X126311100Y-64773600D03*
X126311100Y-62233600D03*
X128851100Y-64773600D03*
X128851100Y-62233600D03*
X131391100Y-64773600D03*
X131391100Y-62233600D03*
X133931100Y-64773600D03*
X133931100Y-62233600D03*
X136471100Y-64773600D03*
X136471100Y-62233600D03*
X139011100Y-64773600D03*
X139011100Y-62233600D03*
X141551100Y-64773600D03*
X141551100Y-62233600D03*
X144091100Y-64773600D03*
X144091100Y-62233600D03*
X146631100Y-64773600D03*
X146631100Y-62233600D03*
D14*
X93501100Y-63503600D03*
X151501100Y-63503600D03*
X93501100Y-112503600D03*
X151501100Y-112503600D03*
D15*
X99500000Y-111000000D03*
D16*
X104500000Y-111000000D03*
D17*
X121420000Y-105410000D03*
D18*
X118880000Y-105410000D03*
X116340000Y-105410000D03*
X113800000Y-105410000D03*
D17*
X131580000Y-105410000D03*
D18*
X129040000Y-105410000D03*
X126500000Y-105410000D03*
X123960000Y-105410000D03*
D19*
X100972000Y-69338000D03*
D20*
X100972000Y-71878000D03*
X100972000Y-74418000D03*
X100972000Y-76958000D03*
D21*
X140500000Y-71540000D03*
D22*
X140500000Y-69000000D03*
D21*
X105672000Y-79756000D03*
D22*
X105672000Y-82296000D03*
D12*
X138540000Y-89540000D03*
D13*
X136000000Y-89540000D03*
X138540000Y-87000000D03*
X136000000Y-87000000D03*
X138540000Y-84460000D03*
X136000000Y-84460000D03*
X138540000Y-81920000D03*
X136000000Y-81920000D03*
D23*
X117864000Y-83820000D03*
X117864000Y-82321400D03*
D21*
X104500000Y-104000000D03*
D22*
X104500000Y-101460000D03*
D21*
X101608000Y-94488000D03*
D22*
X101608000Y-91948000D03*
D21*
X138100000Y-111460000D03*
D22*
X138100000Y-114000000D03*
M02*
