G04 #@! TF.FileFunction,Legend,Top*
%FSLAX46Y46*%
G04 Gerber Fmt 4.6, Leading zero omitted, Abs format (unit mm)*
G04 Created by KiCad (PCBNEW 4.0.2+e4-6225~38~ubuntu15.04.1-stable) date Fri 21 Oct 2016 22:40:54 ACDT*
%MOMM*%
G01*
G04 APERTURE LIST*
%ADD10C,0.100000*%
%ADD11C,0.150000*%
%ADD12C,0.200000*%
%ADD13R,1.650000X1.400000*%
%ADD14R,1.400000X1.650000*%
%ADD15R,1.598880X1.598880*%
%ADD16R,2.000000X3.900000*%
%ADD17R,2.127200X2.127200*%
%ADD18O,2.127200X2.127200*%
%ADD19C,6.250000*%
%ADD20R,1.400000X2.400000*%
%ADD21R,1.600000X2.600000*%
%ADD22R,2.900000X2.900000*%
%ADD23C,2.900000*%
%ADD24R,2.127200X2.432000*%
%ADD25O,2.127200X2.432000*%
%ADD26R,2.432000X2.127200*%
%ADD27O,2.432000X2.127200*%
%ADD28R,2.432000X2.432000*%
%ADD29O,2.432000X2.432000*%
%ADD30R,1.200100X1.200100*%
%ADD31R,1.100000X1.700000*%
%ADD32R,1.700000X1.100000*%
%ADD33R,1.500000X2.200000*%
%ADD34R,0.908000X1.543000*%
%ADD35R,1.400760X1.090880*%
%ADD36R,1.901140X1.400760*%
%ADD37R,3.399740X2.398980*%
%ADD38R,0.850000X1.850000*%
%ADD39C,1.400760*%
G04 APERTURE END LIST*
D10*
D11*
X151277381Y-93780953D02*
X150277381Y-93780953D01*
X151277381Y-93352381D02*
X150753571Y-93352381D01*
X150658333Y-93400000D01*
X150610714Y-93495238D01*
X150610714Y-93638096D01*
X150658333Y-93733334D01*
X150705952Y-93780953D01*
X150610714Y-93019048D02*
X150610714Y-92638096D01*
X150277381Y-92876191D02*
X151134524Y-92876191D01*
X151229762Y-92828572D01*
X151277381Y-92733334D01*
X151277381Y-92638096D01*
X150610714Y-92447619D02*
X150610714Y-92066667D01*
X150277381Y-92304762D02*
X151134524Y-92304762D01*
X151229762Y-92257143D01*
X151277381Y-92161905D01*
X151277381Y-92066667D01*
X150610714Y-91733333D02*
X151610714Y-91733333D01*
X150658333Y-91733333D02*
X150610714Y-91638095D01*
X150610714Y-91447618D01*
X150658333Y-91352380D01*
X150705952Y-91304761D01*
X150801190Y-91257142D01*
X151086905Y-91257142D01*
X151182143Y-91304761D01*
X151229762Y-91352380D01*
X151277381Y-91447618D01*
X151277381Y-91638095D01*
X151229762Y-91733333D01*
X151229762Y-90876190D02*
X151277381Y-90780952D01*
X151277381Y-90590476D01*
X151229762Y-90495237D01*
X151134524Y-90447618D01*
X151086905Y-90447618D01*
X150991667Y-90495237D01*
X150944048Y-90590476D01*
X150944048Y-90733333D01*
X150896429Y-90828571D01*
X150801190Y-90876190D01*
X150753571Y-90876190D01*
X150658333Y-90828571D01*
X150610714Y-90733333D01*
X150610714Y-90590476D01*
X150658333Y-90495237D01*
X151182143Y-90019047D02*
X151229762Y-89971428D01*
X151277381Y-90019047D01*
X151229762Y-90066666D01*
X151182143Y-90019047D01*
X151277381Y-90019047D01*
X150658333Y-90019047D02*
X150705952Y-89971428D01*
X150753571Y-90019047D01*
X150705952Y-90066666D01*
X150658333Y-90019047D01*
X150753571Y-90019047D01*
X150229762Y-88828571D02*
X151515476Y-89685714D01*
X150229762Y-87780952D02*
X151515476Y-88638095D01*
X150610714Y-87019047D02*
X151420238Y-87019047D01*
X151515476Y-87066666D01*
X151563095Y-87114285D01*
X151610714Y-87209524D01*
X151610714Y-87352381D01*
X151563095Y-87447619D01*
X151229762Y-87019047D02*
X151277381Y-87114285D01*
X151277381Y-87304762D01*
X151229762Y-87400000D01*
X151182143Y-87447619D01*
X151086905Y-87495238D01*
X150801190Y-87495238D01*
X150705952Y-87447619D01*
X150658333Y-87400000D01*
X150610714Y-87304762D01*
X150610714Y-87114285D01*
X150658333Y-87019047D01*
X151277381Y-86542857D02*
X150610714Y-86542857D01*
X150277381Y-86542857D02*
X150325000Y-86590476D01*
X150372619Y-86542857D01*
X150325000Y-86495238D01*
X150277381Y-86542857D01*
X150372619Y-86542857D01*
X150610714Y-86209524D02*
X150610714Y-85828572D01*
X150277381Y-86066667D02*
X151134524Y-86066667D01*
X151229762Y-86019048D01*
X151277381Y-85923810D01*
X151277381Y-85828572D01*
X151277381Y-85495238D02*
X150277381Y-85495238D01*
X151277381Y-85066666D02*
X150753571Y-85066666D01*
X150658333Y-85114285D01*
X150610714Y-85209523D01*
X150610714Y-85352381D01*
X150658333Y-85447619D01*
X150705952Y-85495238D01*
X150610714Y-84161904D02*
X151277381Y-84161904D01*
X150610714Y-84590476D02*
X151134524Y-84590476D01*
X151229762Y-84542857D01*
X151277381Y-84447619D01*
X151277381Y-84304761D01*
X151229762Y-84209523D01*
X151182143Y-84161904D01*
X151277381Y-83685714D02*
X150277381Y-83685714D01*
X150658333Y-83685714D02*
X150610714Y-83590476D01*
X150610714Y-83399999D01*
X150658333Y-83304761D01*
X150705952Y-83257142D01*
X150801190Y-83209523D01*
X151086905Y-83209523D01*
X151182143Y-83257142D01*
X151229762Y-83304761D01*
X151277381Y-83399999D01*
X151277381Y-83590476D01*
X151229762Y-83685714D01*
X151182143Y-82780952D02*
X151229762Y-82733333D01*
X151277381Y-82780952D01*
X151229762Y-82828571D01*
X151182143Y-82780952D01*
X151277381Y-82780952D01*
X151229762Y-81876190D02*
X151277381Y-81971428D01*
X151277381Y-82161905D01*
X151229762Y-82257143D01*
X151182143Y-82304762D01*
X151086905Y-82352381D01*
X150801190Y-82352381D01*
X150705952Y-82304762D01*
X150658333Y-82257143D01*
X150610714Y-82161905D01*
X150610714Y-81971428D01*
X150658333Y-81876190D01*
X151277381Y-81304762D02*
X151229762Y-81400000D01*
X151182143Y-81447619D01*
X151086905Y-81495238D01*
X150801190Y-81495238D01*
X150705952Y-81447619D01*
X150658333Y-81400000D01*
X150610714Y-81304762D01*
X150610714Y-81161904D01*
X150658333Y-81066666D01*
X150705952Y-81019047D01*
X150801190Y-80971428D01*
X151086905Y-80971428D01*
X151182143Y-81019047D01*
X151229762Y-81066666D01*
X151277381Y-81161904D01*
X151277381Y-81304762D01*
X151277381Y-80542857D02*
X150610714Y-80542857D01*
X150705952Y-80542857D02*
X150658333Y-80495238D01*
X150610714Y-80400000D01*
X150610714Y-80257142D01*
X150658333Y-80161904D01*
X150753571Y-80114285D01*
X151277381Y-80114285D01*
X150753571Y-80114285D02*
X150658333Y-80066666D01*
X150610714Y-79971428D01*
X150610714Y-79828571D01*
X150658333Y-79733333D01*
X150753571Y-79685714D01*
X151277381Y-79685714D01*
X150229762Y-78495238D02*
X151515476Y-79352381D01*
X152779762Y-107590480D02*
X152827381Y-107495242D01*
X152827381Y-107304766D01*
X152779762Y-107209527D01*
X152684524Y-107161908D01*
X152636905Y-107161908D01*
X152541667Y-107209527D01*
X152494048Y-107304766D01*
X152494048Y-107447623D01*
X152446429Y-107542861D01*
X152351190Y-107590480D01*
X152303571Y-107590480D01*
X152208333Y-107542861D01*
X152160714Y-107447623D01*
X152160714Y-107304766D01*
X152208333Y-107209527D01*
X152827381Y-106733337D02*
X152160714Y-106733337D01*
X152255952Y-106733337D02*
X152208333Y-106685718D01*
X152160714Y-106590480D01*
X152160714Y-106447622D01*
X152208333Y-106352384D01*
X152303571Y-106304765D01*
X152827381Y-106304765D01*
X152303571Y-106304765D02*
X152208333Y-106257146D01*
X152160714Y-106161908D01*
X152160714Y-106019051D01*
X152208333Y-105923813D01*
X152303571Y-105876194D01*
X152827381Y-105876194D01*
X152827381Y-104971432D02*
X152303571Y-104971432D01*
X152208333Y-105019051D01*
X152160714Y-105114289D01*
X152160714Y-105304766D01*
X152208333Y-105400004D01*
X152779762Y-104971432D02*
X152827381Y-105066670D01*
X152827381Y-105304766D01*
X152779762Y-105400004D01*
X152684524Y-105447623D01*
X152589286Y-105447623D01*
X152494048Y-105400004D01*
X152446429Y-105304766D01*
X152446429Y-105066670D01*
X152398810Y-104971432D01*
X152827381Y-104495242D02*
X152160714Y-104495242D01*
X152351190Y-104495242D02*
X152255952Y-104447623D01*
X152208333Y-104400004D01*
X152160714Y-104304766D01*
X152160714Y-104209527D01*
X152160714Y-104019051D02*
X152160714Y-103638099D01*
X151827381Y-103876194D02*
X152684524Y-103876194D01*
X152779762Y-103828575D01*
X152827381Y-103733337D01*
X152827381Y-103638099D01*
X152446429Y-103304765D02*
X152446429Y-102542860D01*
X152160714Y-102209527D02*
X152160714Y-101828575D01*
X152827381Y-102066670D02*
X151970238Y-102066670D01*
X151875000Y-102019051D01*
X151827381Y-101923813D01*
X151827381Y-101828575D01*
X152827381Y-101066669D02*
X152303571Y-101066669D01*
X152208333Y-101114288D01*
X152160714Y-101209526D01*
X152160714Y-101400003D01*
X152208333Y-101495241D01*
X152779762Y-101066669D02*
X152827381Y-101161907D01*
X152827381Y-101400003D01*
X152779762Y-101495241D01*
X152684524Y-101542860D01*
X152589286Y-101542860D01*
X152494048Y-101495241D01*
X152446429Y-101400003D01*
X152446429Y-101161907D01*
X152398810Y-101066669D01*
X152779762Y-100161907D02*
X152827381Y-100257145D01*
X152827381Y-100447622D01*
X152779762Y-100542860D01*
X152732143Y-100590479D01*
X152636905Y-100638098D01*
X152351190Y-100638098D01*
X152255952Y-100590479D01*
X152208333Y-100542860D01*
X152160714Y-100447622D01*
X152160714Y-100257145D01*
X152208333Y-100161907D01*
X152827381Y-99733336D02*
X152160714Y-99733336D01*
X151827381Y-99733336D02*
X151875000Y-99780955D01*
X151922619Y-99733336D01*
X151875000Y-99685717D01*
X151827381Y-99733336D01*
X151922619Y-99733336D01*
X152827381Y-99114289D02*
X152779762Y-99209527D01*
X152684524Y-99257146D01*
X151827381Y-99257146D01*
X152827381Y-98733336D02*
X152160714Y-98733336D01*
X151827381Y-98733336D02*
X151875000Y-98780955D01*
X151922619Y-98733336D01*
X151875000Y-98685717D01*
X151827381Y-98733336D01*
X151922619Y-98733336D01*
X152160714Y-98400003D02*
X152160714Y-98019051D01*
X151827381Y-98257146D02*
X152684524Y-98257146D01*
X152779762Y-98209527D01*
X152827381Y-98114289D01*
X152827381Y-98019051D01*
X152160714Y-97780955D02*
X152827381Y-97542860D01*
X152160714Y-97304764D02*
X152827381Y-97542860D01*
X153065476Y-97638098D01*
X153113095Y-97685717D01*
X153160714Y-97780955D01*
X151779762Y-96209526D02*
X153065476Y-97066669D01*
X152779762Y-95447621D02*
X152827381Y-95542859D01*
X152827381Y-95733336D01*
X152779762Y-95828574D01*
X152732143Y-95876193D01*
X152636905Y-95923812D01*
X152351190Y-95923812D01*
X152255952Y-95876193D01*
X152208333Y-95828574D01*
X152160714Y-95733336D01*
X152160714Y-95542859D01*
X152208333Y-95447621D01*
X152827381Y-94876193D02*
X152779762Y-94971431D01*
X152732143Y-95019050D01*
X152636905Y-95066669D01*
X152351190Y-95066669D01*
X152255952Y-95019050D01*
X152208333Y-94971431D01*
X152160714Y-94876193D01*
X152160714Y-94733335D01*
X152208333Y-94638097D01*
X152255952Y-94590478D01*
X152351190Y-94542859D01*
X152636905Y-94542859D01*
X152732143Y-94590478D01*
X152779762Y-94638097D01*
X152827381Y-94733335D01*
X152827381Y-94876193D01*
X152160714Y-93685716D02*
X152970238Y-93685716D01*
X153065476Y-93733335D01*
X153113095Y-93780954D01*
X153160714Y-93876193D01*
X153160714Y-94019050D01*
X153113095Y-94114288D01*
X152779762Y-93685716D02*
X152827381Y-93780954D01*
X152827381Y-93971431D01*
X152779762Y-94066669D01*
X152732143Y-94114288D01*
X152636905Y-94161907D01*
X152351190Y-94161907D01*
X152255952Y-94114288D01*
X152208333Y-94066669D01*
X152160714Y-93971431D01*
X152160714Y-93780954D01*
X152208333Y-93685716D01*
X152160714Y-93209526D02*
X152827381Y-93209526D01*
X152255952Y-93209526D02*
X152208333Y-93161907D01*
X152160714Y-93066669D01*
X152160714Y-92923811D01*
X152208333Y-92828573D01*
X152303571Y-92780954D01*
X152827381Y-92780954D01*
X152827381Y-92304764D02*
X152160714Y-92304764D01*
X151827381Y-92304764D02*
X151875000Y-92352383D01*
X151922619Y-92304764D01*
X151875000Y-92257145D01*
X151827381Y-92304764D01*
X151922619Y-92304764D01*
X152779762Y-91400002D02*
X152827381Y-91495240D01*
X152827381Y-91685717D01*
X152779762Y-91780955D01*
X152732143Y-91828574D01*
X152636905Y-91876193D01*
X152351190Y-91876193D01*
X152255952Y-91828574D01*
X152208333Y-91780955D01*
X152160714Y-91685717D01*
X152160714Y-91495240D01*
X152208333Y-91400002D01*
X152827381Y-90971431D02*
X152160714Y-90971431D01*
X151827381Y-90971431D02*
X151875000Y-91019050D01*
X151922619Y-90971431D01*
X151875000Y-90923812D01*
X151827381Y-90971431D01*
X151922619Y-90971431D01*
X152160714Y-90638098D02*
X152160714Y-90257146D01*
X151827381Y-90495241D02*
X152684524Y-90495241D01*
X152779762Y-90447622D01*
X152827381Y-90352384D01*
X152827381Y-90257146D01*
X152160714Y-90019050D02*
X152827381Y-89780955D01*
X152160714Y-89542859D02*
X152827381Y-89780955D01*
X153065476Y-89876193D01*
X153113095Y-89923812D01*
X153160714Y-90019050D01*
X152446429Y-89161907D02*
X152446429Y-88400002D01*
X152160714Y-88066669D02*
X152160714Y-87685717D01*
X152827381Y-87923812D02*
X151970238Y-87923812D01*
X151875000Y-87876193D01*
X151827381Y-87780955D01*
X151827381Y-87685717D01*
X152827381Y-87209526D02*
X152779762Y-87304764D01*
X152684524Y-87352383D01*
X151827381Y-87352383D01*
X152827381Y-86685716D02*
X152779762Y-86780954D01*
X152732143Y-86828573D01*
X152636905Y-86876192D01*
X152351190Y-86876192D01*
X152255952Y-86828573D01*
X152208333Y-86780954D01*
X152160714Y-86685716D01*
X152160714Y-86542858D01*
X152208333Y-86447620D01*
X152255952Y-86400001D01*
X152351190Y-86352382D01*
X152636905Y-86352382D01*
X152732143Y-86400001D01*
X152779762Y-86447620D01*
X152827381Y-86542858D01*
X152827381Y-86685716D01*
X152827381Y-85780954D02*
X152779762Y-85876192D01*
X152732143Y-85923811D01*
X152636905Y-85971430D01*
X152351190Y-85971430D01*
X152255952Y-85923811D01*
X152208333Y-85876192D01*
X152160714Y-85780954D01*
X152160714Y-85638096D01*
X152208333Y-85542858D01*
X152255952Y-85495239D01*
X152351190Y-85447620D01*
X152636905Y-85447620D01*
X152732143Y-85495239D01*
X152779762Y-85542858D01*
X152827381Y-85638096D01*
X152827381Y-85780954D01*
X152827381Y-84590477D02*
X151827381Y-84590477D01*
X152779762Y-84590477D02*
X152827381Y-84685715D01*
X152827381Y-84876192D01*
X152779762Y-84971430D01*
X152732143Y-85019049D01*
X152636905Y-85066668D01*
X152351190Y-85066668D01*
X152255952Y-85019049D01*
X152208333Y-84971430D01*
X152160714Y-84876192D01*
X152160714Y-84685715D01*
X152208333Y-84590477D01*
X152779762Y-84161906D02*
X152827381Y-84066668D01*
X152827381Y-83876192D01*
X152779762Y-83780953D01*
X152684524Y-83733334D01*
X152636905Y-83733334D01*
X152541667Y-83780953D01*
X152494048Y-83876192D01*
X152494048Y-84019049D01*
X152446429Y-84114287D01*
X152351190Y-84161906D01*
X152303571Y-84161906D01*
X152208333Y-84114287D01*
X152160714Y-84019049D01*
X152160714Y-83876192D01*
X152208333Y-83780953D01*
X152779762Y-82923810D02*
X152827381Y-83019048D01*
X152827381Y-83209525D01*
X152779762Y-83304763D01*
X152684524Y-83352382D01*
X152303571Y-83352382D01*
X152208333Y-83304763D01*
X152160714Y-83209525D01*
X152160714Y-83019048D01*
X152208333Y-82923810D01*
X152303571Y-82876191D01*
X152398810Y-82876191D01*
X152494048Y-83352382D01*
X152160714Y-82447620D02*
X152827381Y-82447620D01*
X152255952Y-82447620D02*
X152208333Y-82400001D01*
X152160714Y-82304763D01*
X152160714Y-82161905D01*
X152208333Y-82066667D01*
X152303571Y-82019048D01*
X152827381Y-82019048D01*
X152779762Y-81590477D02*
X152827381Y-81495239D01*
X152827381Y-81304763D01*
X152779762Y-81209524D01*
X152684524Y-81161905D01*
X152636905Y-81161905D01*
X152541667Y-81209524D01*
X152494048Y-81304763D01*
X152494048Y-81447620D01*
X152446429Y-81542858D01*
X152351190Y-81590477D01*
X152303571Y-81590477D01*
X152208333Y-81542858D01*
X152160714Y-81447620D01*
X152160714Y-81304763D01*
X152208333Y-81209524D01*
X152827381Y-80590477D02*
X152779762Y-80685715D01*
X152732143Y-80733334D01*
X152636905Y-80780953D01*
X152351190Y-80780953D01*
X152255952Y-80733334D01*
X152208333Y-80685715D01*
X152160714Y-80590477D01*
X152160714Y-80447619D01*
X152208333Y-80352381D01*
X152255952Y-80304762D01*
X152351190Y-80257143D01*
X152636905Y-80257143D01*
X152732143Y-80304762D01*
X152779762Y-80352381D01*
X152827381Y-80447619D01*
X152827381Y-80590477D01*
X152827381Y-79828572D02*
X152160714Y-79828572D01*
X152351190Y-79828572D02*
X152255952Y-79780953D01*
X152208333Y-79733334D01*
X152160714Y-79638096D01*
X152160714Y-79542857D01*
X151779762Y-78495238D02*
X153065476Y-79352381D01*
D12*
X141142857Y-81452381D02*
X141761905Y-81452381D01*
X141428571Y-81833333D01*
X141571429Y-81833333D01*
X141666667Y-81880952D01*
X141714286Y-81928571D01*
X141761905Y-82023810D01*
X141761905Y-82261905D01*
X141714286Y-82357143D01*
X141666667Y-82404762D01*
X141571429Y-82452381D01*
X141285714Y-82452381D01*
X141190476Y-82404762D01*
X141142857Y-82357143D01*
X142190476Y-82357143D02*
X142238095Y-82404762D01*
X142190476Y-82452381D01*
X142142857Y-82404762D01*
X142190476Y-82357143D01*
X142190476Y-82452381D01*
X142571428Y-81452381D02*
X143190476Y-81452381D01*
X142857142Y-81833333D01*
X143000000Y-81833333D01*
X143095238Y-81880952D01*
X143142857Y-81928571D01*
X143190476Y-82023810D01*
X143190476Y-82261905D01*
X143142857Y-82357143D01*
X143095238Y-82404762D01*
X143000000Y-82452381D01*
X142714285Y-82452381D01*
X142619047Y-82404762D01*
X142571428Y-82357143D01*
X143476190Y-81452381D02*
X143809523Y-82452381D01*
X144142857Y-81452381D01*
X141142857Y-84052381D02*
X141761905Y-84052381D01*
X141428571Y-84433333D01*
X141571429Y-84433333D01*
X141666667Y-84480952D01*
X141714286Y-84528571D01*
X141761905Y-84623810D01*
X141761905Y-84861905D01*
X141714286Y-84957143D01*
X141666667Y-85004762D01*
X141571429Y-85052381D01*
X141285714Y-85052381D01*
X141190476Y-85004762D01*
X141142857Y-84957143D01*
X142190476Y-84957143D02*
X142238095Y-85004762D01*
X142190476Y-85052381D01*
X142142857Y-85004762D01*
X142190476Y-84957143D01*
X142190476Y-85052381D01*
X142571428Y-84052381D02*
X143190476Y-84052381D01*
X142857142Y-84433333D01*
X143000000Y-84433333D01*
X143095238Y-84480952D01*
X143142857Y-84528571D01*
X143190476Y-84623810D01*
X143190476Y-84861905D01*
X143142857Y-84957143D01*
X143095238Y-85004762D01*
X143000000Y-85052381D01*
X142714285Y-85052381D01*
X142619047Y-85004762D01*
X142571428Y-84957143D01*
X143476190Y-84052381D02*
X143809523Y-85052381D01*
X144142857Y-84052381D01*
X141761905Y-86500000D02*
X141666667Y-86452381D01*
X141523810Y-86452381D01*
X141380952Y-86500000D01*
X141285714Y-86595238D01*
X141238095Y-86690476D01*
X141190476Y-86880952D01*
X141190476Y-87023810D01*
X141238095Y-87214286D01*
X141285714Y-87309524D01*
X141380952Y-87404762D01*
X141523810Y-87452381D01*
X141619048Y-87452381D01*
X141761905Y-87404762D01*
X141809524Y-87357143D01*
X141809524Y-87023810D01*
X141619048Y-87023810D01*
X142238095Y-87452381D02*
X142238095Y-86452381D01*
X142809524Y-87452381D01*
X142809524Y-86452381D01*
X143285714Y-87452381D02*
X143285714Y-86452381D01*
X143523809Y-86452381D01*
X143666667Y-86500000D01*
X143761905Y-86595238D01*
X143809524Y-86690476D01*
X143857143Y-86880952D01*
X143857143Y-87023810D01*
X143809524Y-87214286D01*
X143761905Y-87309524D01*
X143666667Y-87404762D01*
X143523809Y-87452381D01*
X143285714Y-87452381D01*
X141761905Y-89100000D02*
X141666667Y-89052381D01*
X141523810Y-89052381D01*
X141380952Y-89100000D01*
X141285714Y-89195238D01*
X141238095Y-89290476D01*
X141190476Y-89480952D01*
X141190476Y-89623810D01*
X141238095Y-89814286D01*
X141285714Y-89909524D01*
X141380952Y-90004762D01*
X141523810Y-90052381D01*
X141619048Y-90052381D01*
X141761905Y-90004762D01*
X141809524Y-89957143D01*
X141809524Y-89623810D01*
X141619048Y-89623810D01*
X142238095Y-90052381D02*
X142238095Y-89052381D01*
X142809524Y-90052381D01*
X142809524Y-89052381D01*
X143285714Y-90052381D02*
X143285714Y-89052381D01*
X143523809Y-89052381D01*
X143666667Y-89100000D01*
X143761905Y-89195238D01*
X143809524Y-89290476D01*
X143857143Y-89480952D01*
X143857143Y-89623810D01*
X143809524Y-89814286D01*
X143761905Y-89909524D01*
X143666667Y-90004762D01*
X143523809Y-90052381D01*
X143285714Y-90052381D01*
X132228571Y-90052381D02*
X132228571Y-89052381D01*
X132609524Y-89052381D01*
X132704762Y-89100000D01*
X132752381Y-89147619D01*
X132800000Y-89242857D01*
X132800000Y-89385714D01*
X132752381Y-89480952D01*
X132704762Y-89528571D01*
X132609524Y-89576190D01*
X132228571Y-89576190D01*
X133180952Y-89766667D02*
X133657143Y-89766667D01*
X133085714Y-90052381D02*
X133419047Y-89052381D01*
X133752381Y-90052381D01*
X134514286Y-89385714D02*
X134514286Y-90052381D01*
X134276190Y-89004762D02*
X134038095Y-89719048D01*
X134657143Y-89719048D01*
X132228571Y-87452381D02*
X132228571Y-86452381D01*
X132609524Y-86452381D01*
X132704762Y-86500000D01*
X132752381Y-86547619D01*
X132800000Y-86642857D01*
X132800000Y-86785714D01*
X132752381Y-86880952D01*
X132704762Y-86928571D01*
X132609524Y-86976190D01*
X132228571Y-86976190D01*
X133180952Y-87166667D02*
X133657143Y-87166667D01*
X133085714Y-87452381D02*
X133419047Y-86452381D01*
X133752381Y-87452381D01*
X134561905Y-86452381D02*
X134085714Y-86452381D01*
X134038095Y-86928571D01*
X134085714Y-86880952D01*
X134180952Y-86833333D01*
X134419048Y-86833333D01*
X134514286Y-86880952D01*
X134561905Y-86928571D01*
X134609524Y-87023810D01*
X134609524Y-87261905D01*
X134561905Y-87357143D01*
X134514286Y-87404762D01*
X134419048Y-87452381D01*
X134180952Y-87452381D01*
X134085714Y-87404762D01*
X134038095Y-87357143D01*
X132228571Y-85052381D02*
X132228571Y-84052381D01*
X132609524Y-84052381D01*
X132704762Y-84100000D01*
X132752381Y-84147619D01*
X132800000Y-84242857D01*
X132800000Y-84385714D01*
X132752381Y-84480952D01*
X132704762Y-84528571D01*
X132609524Y-84576190D01*
X132228571Y-84576190D01*
X133180952Y-84766667D02*
X133657143Y-84766667D01*
X133085714Y-85052381D02*
X133419047Y-84052381D01*
X133752381Y-85052381D01*
X134514286Y-84052381D02*
X134323809Y-84052381D01*
X134228571Y-84100000D01*
X134180952Y-84147619D01*
X134085714Y-84290476D01*
X134038095Y-84480952D01*
X134038095Y-84861905D01*
X134085714Y-84957143D01*
X134133333Y-85004762D01*
X134228571Y-85052381D01*
X134419048Y-85052381D01*
X134514286Y-85004762D01*
X134561905Y-84957143D01*
X134609524Y-84861905D01*
X134609524Y-84623810D01*
X134561905Y-84528571D01*
X134514286Y-84480952D01*
X134419048Y-84433333D01*
X134228571Y-84433333D01*
X134133333Y-84480952D01*
X134085714Y-84528571D01*
X134038095Y-84623810D01*
X132428571Y-82452381D02*
X132428571Y-81452381D01*
X132809524Y-81452381D01*
X132904762Y-81500000D01*
X132952381Y-81547619D01*
X133000000Y-81642857D01*
X133000000Y-81785714D01*
X132952381Y-81880952D01*
X132904762Y-81928571D01*
X132809524Y-81976190D01*
X132428571Y-81976190D01*
X133380952Y-82166667D02*
X133857143Y-82166667D01*
X133285714Y-82452381D02*
X133619047Y-81452381D01*
X133952381Y-82452381D01*
X134190476Y-81452381D02*
X134857143Y-81452381D01*
X134428571Y-82452381D01*
X139052381Y-72009524D02*
X138052381Y-72009524D01*
X138052381Y-71628571D01*
X138100000Y-71533333D01*
X138147619Y-71485714D01*
X138242857Y-71438095D01*
X138385714Y-71438095D01*
X138480952Y-71485714D01*
X138528571Y-71533333D01*
X138576190Y-71628571D01*
X138576190Y-72009524D01*
X139052381Y-70438095D02*
X138576190Y-70771429D01*
X139052381Y-71009524D02*
X138052381Y-71009524D01*
X138052381Y-70628571D01*
X138100000Y-70533333D01*
X138147619Y-70485714D01*
X138242857Y-70438095D01*
X138385714Y-70438095D01*
X138480952Y-70485714D01*
X138528571Y-70533333D01*
X138576190Y-70628571D01*
X138576190Y-71009524D01*
X138052381Y-69819048D02*
X138052381Y-69628571D01*
X138100000Y-69533333D01*
X138195238Y-69438095D01*
X138385714Y-69390476D01*
X138719048Y-69390476D01*
X138909524Y-69438095D01*
X139004762Y-69533333D01*
X139052381Y-69628571D01*
X139052381Y-69819048D01*
X139004762Y-69914286D01*
X138909524Y-70009524D01*
X138719048Y-70057143D01*
X138385714Y-70057143D01*
X138195238Y-70009524D01*
X138100000Y-69914286D01*
X138052381Y-69819048D01*
X138100000Y-68438095D02*
X138052381Y-68533333D01*
X138052381Y-68676190D01*
X138100000Y-68819048D01*
X138195238Y-68914286D01*
X138290476Y-68961905D01*
X138480952Y-69009524D01*
X138623810Y-69009524D01*
X138814286Y-68961905D01*
X138909524Y-68914286D01*
X139004762Y-68819048D01*
X139052381Y-68676190D01*
X139052381Y-68580952D01*
X139004762Y-68438095D01*
X138957143Y-68390476D01*
X138623810Y-68390476D01*
X138623810Y-68580952D01*
X108100000Y-114838095D02*
X108052381Y-114933333D01*
X108052381Y-115076190D01*
X108100000Y-115219048D01*
X108195238Y-115314286D01*
X108290476Y-115361905D01*
X108480952Y-115409524D01*
X108623810Y-115409524D01*
X108814286Y-115361905D01*
X108909524Y-115314286D01*
X109004762Y-115219048D01*
X109052381Y-115076190D01*
X109052381Y-114980952D01*
X109004762Y-114838095D01*
X108957143Y-114790476D01*
X108623810Y-114790476D01*
X108623810Y-114980952D01*
X109052381Y-114361905D02*
X108052381Y-114361905D01*
X109052381Y-113790476D01*
X108052381Y-113790476D01*
X109052381Y-113314286D02*
X108052381Y-113314286D01*
X108052381Y-113076191D01*
X108100000Y-112933333D01*
X108195238Y-112838095D01*
X108290476Y-112790476D01*
X108480952Y-112742857D01*
X108623810Y-112742857D01*
X108814286Y-112790476D01*
X108909524Y-112838095D01*
X109004762Y-112933333D01*
X109052381Y-113076191D01*
X109052381Y-113314286D01*
X96052381Y-109085714D02*
X96052381Y-109561905D01*
X96528571Y-109609524D01*
X96480952Y-109561905D01*
X96433333Y-109466667D01*
X96433333Y-109228571D01*
X96480952Y-109133333D01*
X96528571Y-109085714D01*
X96623810Y-109038095D01*
X96861905Y-109038095D01*
X96957143Y-109085714D01*
X97004762Y-109133333D01*
X97052381Y-109228571D01*
X97052381Y-109466667D01*
X97004762Y-109561905D01*
X96957143Y-109609524D01*
X96052381Y-108752381D02*
X97052381Y-108419048D01*
X96052381Y-108085714D01*
X131452381Y-102885714D02*
X131452381Y-103361905D01*
X131928571Y-103409524D01*
X131880952Y-103361905D01*
X131833333Y-103266667D01*
X131833333Y-103028571D01*
X131880952Y-102933333D01*
X131928571Y-102885714D01*
X132023810Y-102838095D01*
X132261905Y-102838095D01*
X132357143Y-102885714D01*
X132404762Y-102933333D01*
X132452381Y-103028571D01*
X132452381Y-103266667D01*
X132404762Y-103361905D01*
X132357143Y-103409524D01*
X131452381Y-102552381D02*
X132452381Y-102219048D01*
X131452381Y-101885714D01*
X128852381Y-103504762D02*
X128852381Y-102933333D01*
X129852381Y-103219048D02*
X128852381Y-103219048D01*
X129852381Y-102028571D02*
X129376190Y-102361905D01*
X129852381Y-102600000D02*
X128852381Y-102600000D01*
X128852381Y-102219047D01*
X128900000Y-102123809D01*
X128947619Y-102076190D01*
X129042857Y-102028571D01*
X129185714Y-102028571D01*
X129280952Y-102076190D01*
X129328571Y-102123809D01*
X129376190Y-102219047D01*
X129376190Y-102600000D01*
X129852381Y-101600000D02*
X128852381Y-101600000D01*
X128900000Y-100600000D02*
X128852381Y-100695238D01*
X128852381Y-100838095D01*
X128900000Y-100980953D01*
X128995238Y-101076191D01*
X129090476Y-101123810D01*
X129280952Y-101171429D01*
X129423810Y-101171429D01*
X129614286Y-101123810D01*
X129709524Y-101076191D01*
X129804762Y-100980953D01*
X129852381Y-100838095D01*
X129852381Y-100742857D01*
X129804762Y-100600000D01*
X129757143Y-100552381D01*
X129423810Y-100552381D01*
X129423810Y-100742857D01*
X126928571Y-103361905D02*
X126928571Y-103028571D01*
X127452381Y-102885714D02*
X127452381Y-103361905D01*
X126452381Y-103361905D01*
X126452381Y-102885714D01*
X127357143Y-101885714D02*
X127404762Y-101933333D01*
X127452381Y-102076190D01*
X127452381Y-102171428D01*
X127404762Y-102314286D01*
X127309524Y-102409524D01*
X127214286Y-102457143D01*
X127023810Y-102504762D01*
X126880952Y-102504762D01*
X126690476Y-102457143D01*
X126595238Y-102409524D01*
X126500000Y-102314286D01*
X126452381Y-102171428D01*
X126452381Y-102076190D01*
X126500000Y-101933333D01*
X126547619Y-101885714D01*
X127452381Y-101457143D02*
X126452381Y-101457143D01*
X126928571Y-101457143D02*
X126928571Y-100885714D01*
X127452381Y-100885714D02*
X126452381Y-100885714D01*
X126452381Y-100219048D02*
X126452381Y-100028571D01*
X126500000Y-99933333D01*
X126595238Y-99838095D01*
X126785714Y-99790476D01*
X127119048Y-99790476D01*
X127309524Y-99838095D01*
X127404762Y-99933333D01*
X127452381Y-100028571D01*
X127452381Y-100219048D01*
X127404762Y-100314286D01*
X127309524Y-100409524D01*
X127119048Y-100457143D01*
X126785714Y-100457143D01*
X126595238Y-100409524D01*
X126500000Y-100314286D01*
X126452381Y-100219048D01*
X123900000Y-102838095D02*
X123852381Y-102933333D01*
X123852381Y-103076190D01*
X123900000Y-103219048D01*
X123995238Y-103314286D01*
X124090476Y-103361905D01*
X124280952Y-103409524D01*
X124423810Y-103409524D01*
X124614286Y-103361905D01*
X124709524Y-103314286D01*
X124804762Y-103219048D01*
X124852381Y-103076190D01*
X124852381Y-102980952D01*
X124804762Y-102838095D01*
X124757143Y-102790476D01*
X124423810Y-102790476D01*
X124423810Y-102980952D01*
X124852381Y-102361905D02*
X123852381Y-102361905D01*
X124852381Y-101790476D01*
X123852381Y-101790476D01*
X124852381Y-101314286D02*
X123852381Y-101314286D01*
X123852381Y-101076191D01*
X123900000Y-100933333D01*
X123995238Y-100838095D01*
X124090476Y-100790476D01*
X124280952Y-100742857D01*
X124423810Y-100742857D01*
X124614286Y-100790476D01*
X124709524Y-100838095D01*
X124804762Y-100933333D01*
X124852381Y-101076191D01*
X124852381Y-101314286D01*
X121452381Y-103457143D02*
X121452381Y-102838095D01*
X121833333Y-103171429D01*
X121833333Y-103028571D01*
X121880952Y-102933333D01*
X121928571Y-102885714D01*
X122023810Y-102838095D01*
X122261905Y-102838095D01*
X122357143Y-102885714D01*
X122404762Y-102933333D01*
X122452381Y-103028571D01*
X122452381Y-103314286D01*
X122404762Y-103409524D01*
X122357143Y-103457143D01*
X122357143Y-102409524D02*
X122404762Y-102361905D01*
X122452381Y-102409524D01*
X122404762Y-102457143D01*
X122357143Y-102409524D01*
X122452381Y-102409524D01*
X121452381Y-102028572D02*
X121452381Y-101409524D01*
X121833333Y-101742858D01*
X121833333Y-101600000D01*
X121880952Y-101504762D01*
X121928571Y-101457143D01*
X122023810Y-101409524D01*
X122261905Y-101409524D01*
X122357143Y-101457143D01*
X122404762Y-101504762D01*
X122452381Y-101600000D01*
X122452381Y-101885715D01*
X122404762Y-101980953D01*
X122357143Y-102028572D01*
X121452381Y-101123810D02*
X122452381Y-100790477D01*
X121452381Y-100457143D01*
X119852381Y-103361905D02*
X118852381Y-103361905D01*
X118852381Y-103123810D01*
X118900000Y-102980952D01*
X118995238Y-102885714D01*
X119090476Y-102838095D01*
X119280952Y-102790476D01*
X119423810Y-102790476D01*
X119614286Y-102838095D01*
X119709524Y-102885714D01*
X119804762Y-102980952D01*
X119852381Y-103123810D01*
X119852381Y-103361905D01*
X119852381Y-102361905D02*
X118852381Y-102361905D01*
X119328571Y-102361905D02*
X119328571Y-101790476D01*
X119852381Y-101790476D02*
X118852381Y-101790476D01*
X118852381Y-101457143D02*
X118852381Y-100885714D01*
X119852381Y-101171429D02*
X118852381Y-101171429D01*
X116300000Y-102838095D02*
X116252381Y-102933333D01*
X116252381Y-103076190D01*
X116300000Y-103219048D01*
X116395238Y-103314286D01*
X116490476Y-103361905D01*
X116680952Y-103409524D01*
X116823810Y-103409524D01*
X117014286Y-103361905D01*
X117109524Y-103314286D01*
X117204762Y-103219048D01*
X117252381Y-103076190D01*
X117252381Y-102980952D01*
X117204762Y-102838095D01*
X117157143Y-102790476D01*
X116823810Y-102790476D01*
X116823810Y-102980952D01*
X117252381Y-102361905D02*
X116252381Y-102361905D01*
X117252381Y-101790476D01*
X116252381Y-101790476D01*
X117252381Y-101314286D02*
X116252381Y-101314286D01*
X116252381Y-101076191D01*
X116300000Y-100933333D01*
X116395238Y-100838095D01*
X116490476Y-100790476D01*
X116680952Y-100742857D01*
X116823810Y-100742857D01*
X117014286Y-100790476D01*
X117109524Y-100838095D01*
X117204762Y-100933333D01*
X117252381Y-101076191D01*
X117252381Y-101314286D01*
D11*
X131339286Y-94221429D02*
X130589286Y-94221429D01*
X130589286Y-93935714D01*
X130625000Y-93864286D01*
X130660714Y-93828571D01*
X130732143Y-93792857D01*
X130839286Y-93792857D01*
X130910714Y-93828571D01*
X130946429Y-93864286D01*
X130982143Y-93935714D01*
X130982143Y-94221429D01*
X131339286Y-93471429D02*
X130839286Y-93471429D01*
X130589286Y-93471429D02*
X130625000Y-93507143D01*
X130660714Y-93471429D01*
X130625000Y-93435714D01*
X130589286Y-93471429D01*
X130660714Y-93471429D01*
X133903571Y-94257143D02*
X133939286Y-94150000D01*
X133939286Y-93971429D01*
X133903571Y-93900000D01*
X133867857Y-93864286D01*
X133796429Y-93828571D01*
X133725000Y-93828571D01*
X133653571Y-93864286D01*
X133617857Y-93900000D01*
X133582143Y-93971429D01*
X133546429Y-94114286D01*
X133510714Y-94185714D01*
X133475000Y-94221429D01*
X133403571Y-94257143D01*
X133332143Y-94257143D01*
X133260714Y-94221429D01*
X133225000Y-94185714D01*
X133189286Y-94114286D01*
X133189286Y-93935714D01*
X133225000Y-93828571D01*
X133189286Y-93614285D02*
X133189286Y-93185714D01*
X133939286Y-93400000D02*
X133189286Y-93400000D01*
X133939286Y-92935714D02*
X133189286Y-92935714D01*
X133725000Y-92685714D01*
X133189286Y-92435714D01*
X133939286Y-92435714D01*
X127939286Y-90421429D02*
X127189286Y-90421429D01*
X127189286Y-90135714D01*
X127225000Y-90064286D01*
X127260714Y-90028571D01*
X127332143Y-89992857D01*
X127439286Y-89992857D01*
X127510714Y-90028571D01*
X127546429Y-90064286D01*
X127582143Y-90135714D01*
X127582143Y-90421429D01*
X127939286Y-89671429D02*
X127439286Y-89671429D01*
X127189286Y-89671429D02*
X127225000Y-89707143D01*
X127260714Y-89671429D01*
X127225000Y-89635714D01*
X127189286Y-89671429D01*
X127260714Y-89671429D01*
X130503571Y-90457143D02*
X130539286Y-90350000D01*
X130539286Y-90171429D01*
X130503571Y-90100000D01*
X130467857Y-90064286D01*
X130396429Y-90028571D01*
X130325000Y-90028571D01*
X130253571Y-90064286D01*
X130217857Y-90100000D01*
X130182143Y-90171429D01*
X130146429Y-90314286D01*
X130110714Y-90385714D01*
X130075000Y-90421429D01*
X130003571Y-90457143D01*
X129932143Y-90457143D01*
X129860714Y-90421429D01*
X129825000Y-90385714D01*
X129789286Y-90314286D01*
X129789286Y-90135714D01*
X129825000Y-90028571D01*
X129789286Y-89814285D02*
X129789286Y-89385714D01*
X130539286Y-89600000D02*
X129789286Y-89600000D01*
X130539286Y-89135714D02*
X129789286Y-89135714D01*
X130325000Y-88885714D01*
X129789286Y-88635714D01*
X130539286Y-88635714D01*
X121103571Y-94257143D02*
X121139286Y-94150000D01*
X121139286Y-93971429D01*
X121103571Y-93900000D01*
X121067857Y-93864286D01*
X120996429Y-93828571D01*
X120925000Y-93828571D01*
X120853571Y-93864286D01*
X120817857Y-93900000D01*
X120782143Y-93971429D01*
X120746429Y-94114286D01*
X120710714Y-94185714D01*
X120675000Y-94221429D01*
X120603571Y-94257143D01*
X120532143Y-94257143D01*
X120460714Y-94221429D01*
X120425000Y-94185714D01*
X120389286Y-94114286D01*
X120389286Y-93935714D01*
X120425000Y-93828571D01*
X120389286Y-93614285D02*
X120389286Y-93185714D01*
X121139286Y-93400000D02*
X120389286Y-93400000D01*
X121139286Y-92935714D02*
X120389286Y-92935714D01*
X120925000Y-92685714D01*
X120389286Y-92435714D01*
X121139286Y-92435714D01*
X118539286Y-94221429D02*
X117789286Y-94221429D01*
X117789286Y-93935714D01*
X117825000Y-93864286D01*
X117860714Y-93828571D01*
X117932143Y-93792857D01*
X118039286Y-93792857D01*
X118110714Y-93828571D01*
X118146429Y-93864286D01*
X118182143Y-93935714D01*
X118182143Y-94221429D01*
X118539286Y-93471429D02*
X118039286Y-93471429D01*
X117789286Y-93471429D02*
X117825000Y-93507143D01*
X117860714Y-93471429D01*
X117825000Y-93435714D01*
X117789286Y-93471429D01*
X117860714Y-93471429D01*
X126503571Y-86500000D02*
X126539286Y-86392857D01*
X126539286Y-86214286D01*
X126503571Y-86142857D01*
X126467857Y-86107143D01*
X126396429Y-86071428D01*
X126325000Y-86071428D01*
X126253571Y-86107143D01*
X126217857Y-86142857D01*
X126182143Y-86214286D01*
X126146429Y-86357143D01*
X126110714Y-86428571D01*
X126075000Y-86464286D01*
X126003571Y-86500000D01*
X125932143Y-86500000D01*
X125860714Y-86464286D01*
X125825000Y-86428571D01*
X125789286Y-86357143D01*
X125789286Y-86178571D01*
X125825000Y-86071428D01*
X126503571Y-85464285D02*
X126539286Y-85535714D01*
X126539286Y-85678571D01*
X126503571Y-85750000D01*
X126432143Y-85785714D01*
X126146429Y-85785714D01*
X126075000Y-85750000D01*
X126039286Y-85678571D01*
X126039286Y-85535714D01*
X126075000Y-85464285D01*
X126146429Y-85428571D01*
X126217857Y-85428571D01*
X126289286Y-85785714D01*
X126039286Y-85107143D02*
X126539286Y-85107143D01*
X126110714Y-85107143D02*
X126075000Y-85071428D01*
X126039286Y-85000000D01*
X126039286Y-84892857D01*
X126075000Y-84821428D01*
X126146429Y-84785714D01*
X126539286Y-84785714D01*
X126503571Y-84464286D02*
X126539286Y-84392857D01*
X126539286Y-84250000D01*
X126503571Y-84178572D01*
X126432143Y-84142857D01*
X126396429Y-84142857D01*
X126325000Y-84178572D01*
X126289286Y-84250000D01*
X126289286Y-84357143D01*
X126253571Y-84428572D01*
X126182143Y-84464286D01*
X126146429Y-84464286D01*
X126075000Y-84428572D01*
X126039286Y-84357143D01*
X126039286Y-84250000D01*
X126075000Y-84178572D01*
X126503571Y-83535714D02*
X126539286Y-83607143D01*
X126539286Y-83750000D01*
X126503571Y-83821429D01*
X126432143Y-83857143D01*
X126146429Y-83857143D01*
X126075000Y-83821429D01*
X126039286Y-83750000D01*
X126039286Y-83607143D01*
X126075000Y-83535714D01*
X126146429Y-83500000D01*
X126217857Y-83500000D01*
X126289286Y-83857143D01*
X126989286Y-85410713D02*
X126989286Y-85267856D01*
X127025000Y-85196428D01*
X127096429Y-85124999D01*
X127239286Y-85089285D01*
X127489286Y-85089285D01*
X127632143Y-85124999D01*
X127703571Y-85196428D01*
X127739286Y-85267856D01*
X127739286Y-85410713D01*
X127703571Y-85482142D01*
X127632143Y-85553571D01*
X127489286Y-85589285D01*
X127239286Y-85589285D01*
X127096429Y-85553571D01*
X127025000Y-85482142D01*
X126989286Y-85410713D01*
X127239286Y-84767857D02*
X127739286Y-84767857D01*
X127310714Y-84767857D02*
X127275000Y-84732142D01*
X127239286Y-84660714D01*
X127239286Y-84553571D01*
X127275000Y-84482142D01*
X127346429Y-84446428D01*
X127739286Y-84446428D01*
X122939286Y-86564286D02*
X122189286Y-86564286D01*
X122189286Y-86278571D01*
X122225000Y-86207143D01*
X122260714Y-86171428D01*
X122332143Y-86135714D01*
X122439286Y-86135714D01*
X122510714Y-86171428D01*
X122546429Y-86207143D01*
X122582143Y-86278571D01*
X122582143Y-86564286D01*
X122939286Y-85814286D02*
X122439286Y-85814286D01*
X122189286Y-85814286D02*
X122225000Y-85850000D01*
X122260714Y-85814286D01*
X122225000Y-85778571D01*
X122189286Y-85814286D01*
X122260714Y-85814286D01*
X122189286Y-84742856D02*
X122189286Y-84599999D01*
X122225000Y-84528571D01*
X122296429Y-84457142D01*
X122439286Y-84421428D01*
X122689286Y-84421428D01*
X122832143Y-84457142D01*
X122903571Y-84528571D01*
X122939286Y-84599999D01*
X122939286Y-84742856D01*
X122903571Y-84814285D01*
X122832143Y-84885714D01*
X122689286Y-84921428D01*
X122439286Y-84921428D01*
X122296429Y-84885714D01*
X122225000Y-84814285D01*
X122189286Y-84742856D01*
X122439286Y-84100000D02*
X122939286Y-84100000D01*
X122510714Y-84100000D02*
X122475000Y-84064285D01*
X122439286Y-83992857D01*
X122439286Y-83885714D01*
X122475000Y-83814285D01*
X122546429Y-83778571D01*
X122939286Y-83778571D01*
D12*
X109323809Y-82652381D02*
X109942857Y-82652381D01*
X109609523Y-83033333D01*
X109752381Y-83033333D01*
X109847619Y-83080952D01*
X109895238Y-83128571D01*
X109942857Y-83223810D01*
X109942857Y-83461905D01*
X109895238Y-83557143D01*
X109847619Y-83604762D01*
X109752381Y-83652381D01*
X109466666Y-83652381D01*
X109371428Y-83604762D01*
X109323809Y-83557143D01*
X110323809Y-82747619D02*
X110371428Y-82700000D01*
X110466666Y-82652381D01*
X110704762Y-82652381D01*
X110800000Y-82700000D01*
X110847619Y-82747619D01*
X110895238Y-82842857D01*
X110895238Y-82938095D01*
X110847619Y-83080952D01*
X110276190Y-83652381D01*
X110895238Y-83652381D01*
X111228571Y-82652381D02*
X111895238Y-82652381D01*
X111466666Y-83652381D01*
X112704762Y-82652381D02*
X112514285Y-82652381D01*
X112419047Y-82700000D01*
X112371428Y-82747619D01*
X112276190Y-82890476D01*
X112228571Y-83080952D01*
X112228571Y-83461905D01*
X112276190Y-83557143D01*
X112323809Y-83604762D01*
X112419047Y-83652381D01*
X112609524Y-83652381D01*
X112704762Y-83604762D01*
X112752381Y-83557143D01*
X112800000Y-83461905D01*
X112800000Y-83223810D01*
X112752381Y-83128571D01*
X112704762Y-83080952D01*
X112609524Y-83033333D01*
X112419047Y-83033333D01*
X112323809Y-83080952D01*
X112276190Y-83128571D01*
X112228571Y-83223810D01*
X113371428Y-83080952D02*
X113276190Y-83033333D01*
X113228571Y-82985714D01*
X113180952Y-82890476D01*
X113180952Y-82842857D01*
X113228571Y-82747619D01*
X113276190Y-82700000D01*
X113371428Y-82652381D01*
X113561905Y-82652381D01*
X113657143Y-82700000D01*
X113704762Y-82747619D01*
X113752381Y-82842857D01*
X113752381Y-82890476D01*
X113704762Y-82985714D01*
X113657143Y-83033333D01*
X113561905Y-83080952D01*
X113371428Y-83080952D01*
X113276190Y-83128571D01*
X113228571Y-83176190D01*
X113180952Y-83271429D01*
X113180952Y-83461905D01*
X113228571Y-83557143D01*
X113276190Y-83604762D01*
X113371428Y-83652381D01*
X113561905Y-83652381D01*
X113657143Y-83604762D01*
X113704762Y-83557143D01*
X113752381Y-83461905D01*
X113752381Y-83271429D01*
X113704762Y-83176190D01*
X113657143Y-83128571D01*
X113561905Y-83080952D01*
X114180952Y-83652381D02*
X114180952Y-82652381D01*
X114180952Y-83128571D02*
X114752381Y-83128571D01*
X114752381Y-83652381D02*
X114752381Y-82652381D01*
X115133333Y-82985714D02*
X115657143Y-82985714D01*
X115133333Y-83652381D01*
X115657143Y-83652381D01*
X103728571Y-83038095D02*
X103776190Y-82895238D01*
X103823810Y-82847619D01*
X103919048Y-82800000D01*
X104061905Y-82800000D01*
X104157143Y-82847619D01*
X104204762Y-82895238D01*
X104252381Y-82990476D01*
X104252381Y-83371429D01*
X103252381Y-83371429D01*
X103252381Y-83038095D01*
X103300000Y-82942857D01*
X103347619Y-82895238D01*
X103442857Y-82847619D01*
X103538095Y-82847619D01*
X103633333Y-82895238D01*
X103680952Y-82942857D01*
X103728571Y-83038095D01*
X103728571Y-83371429D01*
X103252381Y-82180953D02*
X103252381Y-81990476D01*
X103300000Y-81895238D01*
X103395238Y-81800000D01*
X103585714Y-81752381D01*
X103919048Y-81752381D01*
X104109524Y-81800000D01*
X104204762Y-81895238D01*
X104252381Y-81990476D01*
X104252381Y-82180953D01*
X104204762Y-82276191D01*
X104109524Y-82371429D01*
X103919048Y-82419048D01*
X103585714Y-82419048D01*
X103395238Y-82371429D01*
X103300000Y-82276191D01*
X103252381Y-82180953D01*
X103252381Y-81133334D02*
X103252381Y-80942857D01*
X103300000Y-80847619D01*
X103395238Y-80752381D01*
X103585714Y-80704762D01*
X103919048Y-80704762D01*
X104109524Y-80752381D01*
X104204762Y-80847619D01*
X104252381Y-80942857D01*
X104252381Y-81133334D01*
X104204762Y-81228572D01*
X104109524Y-81323810D01*
X103919048Y-81371429D01*
X103585714Y-81371429D01*
X103395238Y-81323810D01*
X103300000Y-81228572D01*
X103252381Y-81133334D01*
X103252381Y-80419048D02*
X103252381Y-79847619D01*
X104252381Y-80133334D02*
X103252381Y-80133334D01*
X103252381Y-79323810D02*
X103252381Y-79228571D01*
X103300000Y-79133333D01*
X103347619Y-79085714D01*
X103442857Y-79038095D01*
X103633333Y-78990476D01*
X103871429Y-78990476D01*
X104061905Y-79038095D01*
X104157143Y-79085714D01*
X104204762Y-79133333D01*
X104252381Y-79228571D01*
X104252381Y-79323810D01*
X104204762Y-79419048D01*
X104157143Y-79466667D01*
X104061905Y-79514286D01*
X103871429Y-79561905D01*
X103633333Y-79561905D01*
X103442857Y-79514286D01*
X103347619Y-79466667D01*
X103300000Y-79419048D01*
X103252381Y-79323810D01*
X108652381Y-75114286D02*
X108176190Y-75447620D01*
X108652381Y-75685715D02*
X107652381Y-75685715D01*
X107652381Y-75304762D01*
X107700000Y-75209524D01*
X107747619Y-75161905D01*
X107842857Y-75114286D01*
X107985714Y-75114286D01*
X108080952Y-75161905D01*
X108128571Y-75209524D01*
X108176190Y-75304762D01*
X108176190Y-75685715D01*
X108128571Y-74685715D02*
X108128571Y-74352381D01*
X108652381Y-74209524D02*
X108652381Y-74685715D01*
X107652381Y-74685715D01*
X107652381Y-74209524D01*
X108604762Y-73828572D02*
X108652381Y-73685715D01*
X108652381Y-73447619D01*
X108604762Y-73352381D01*
X108557143Y-73304762D01*
X108461905Y-73257143D01*
X108366667Y-73257143D01*
X108271429Y-73304762D01*
X108223810Y-73352381D01*
X108176190Y-73447619D01*
X108128571Y-73638096D01*
X108080952Y-73733334D01*
X108033333Y-73780953D01*
X107938095Y-73828572D01*
X107842857Y-73828572D01*
X107747619Y-73780953D01*
X107700000Y-73733334D01*
X107652381Y-73638096D01*
X107652381Y-73400000D01*
X107700000Y-73257143D01*
X108128571Y-72828572D02*
X108128571Y-72495238D01*
X108652381Y-72352381D02*
X108652381Y-72828572D01*
X107652381Y-72828572D01*
X107652381Y-72352381D01*
X107652381Y-72066667D02*
X107652381Y-71495238D01*
X108652381Y-71780953D02*
X107652381Y-71780953D01*
X97114286Y-73900000D02*
X97019048Y-73852381D01*
X96876191Y-73852381D01*
X96733333Y-73900000D01*
X96638095Y-73995238D01*
X96590476Y-74090476D01*
X96542857Y-74280952D01*
X96542857Y-74423810D01*
X96590476Y-74614286D01*
X96638095Y-74709524D01*
X96733333Y-74804762D01*
X96876191Y-74852381D01*
X96971429Y-74852381D01*
X97114286Y-74804762D01*
X97161905Y-74757143D01*
X97161905Y-74423810D01*
X96971429Y-74423810D01*
X97590476Y-74852381D02*
X97590476Y-73852381D01*
X98161905Y-74852381D01*
X98161905Y-73852381D01*
X98638095Y-74852381D02*
X98638095Y-73852381D01*
X98876190Y-73852381D01*
X99019048Y-73900000D01*
X99114286Y-73995238D01*
X99161905Y-74090476D01*
X99209524Y-74280952D01*
X99209524Y-74423810D01*
X99161905Y-74614286D01*
X99114286Y-74709524D01*
X99019048Y-74804762D01*
X98876190Y-74852381D01*
X98638095Y-74852381D01*
X96104762Y-76452381D02*
X96723810Y-76452381D01*
X96390476Y-76833333D01*
X96533334Y-76833333D01*
X96628572Y-76880952D01*
X96676191Y-76928571D01*
X96723810Y-77023810D01*
X96723810Y-77261905D01*
X96676191Y-77357143D01*
X96628572Y-77404762D01*
X96533334Y-77452381D01*
X96247619Y-77452381D01*
X96152381Y-77404762D01*
X96104762Y-77357143D01*
X97152381Y-77357143D02*
X97200000Y-77404762D01*
X97152381Y-77452381D01*
X97104762Y-77404762D01*
X97152381Y-77357143D01*
X97152381Y-77452381D01*
X97533333Y-76452381D02*
X98152381Y-76452381D01*
X97819047Y-76833333D01*
X97961905Y-76833333D01*
X98057143Y-76880952D01*
X98104762Y-76928571D01*
X98152381Y-77023810D01*
X98152381Y-77261905D01*
X98104762Y-77357143D01*
X98057143Y-77404762D01*
X97961905Y-77452381D01*
X97676190Y-77452381D01*
X97580952Y-77404762D01*
X97533333Y-77357143D01*
X98438095Y-76452381D02*
X98771428Y-77452381D01*
X99104762Y-76452381D01*
X94971429Y-72404762D02*
X95114286Y-72452381D01*
X95352382Y-72452381D01*
X95447620Y-72404762D01*
X95495239Y-72357143D01*
X95542858Y-72261905D01*
X95542858Y-72166667D01*
X95495239Y-72071429D01*
X95447620Y-72023810D01*
X95352382Y-71976190D01*
X95161905Y-71928571D01*
X95066667Y-71880952D01*
X95019048Y-71833333D01*
X94971429Y-71738095D01*
X94971429Y-71642857D01*
X95019048Y-71547619D01*
X95066667Y-71500000D01*
X95161905Y-71452381D01*
X95400001Y-71452381D01*
X95542858Y-71500000D01*
X95876191Y-71452381D02*
X96114286Y-72452381D01*
X96304763Y-71738095D01*
X96495239Y-72452381D01*
X96733334Y-71452381D01*
X97114286Y-72452381D02*
X97114286Y-71452381D01*
X97352381Y-71452381D01*
X97495239Y-71500000D01*
X97590477Y-71595238D01*
X97638096Y-71690476D01*
X97685715Y-71880952D01*
X97685715Y-72023810D01*
X97638096Y-72214286D01*
X97590477Y-72309524D01*
X97495239Y-72404762D01*
X97352381Y-72452381D01*
X97114286Y-72452381D01*
X98114286Y-72452381D02*
X98114286Y-71452381D01*
X98780952Y-71452381D02*
X98971429Y-71452381D01*
X99066667Y-71500000D01*
X99161905Y-71595238D01*
X99209524Y-71785714D01*
X99209524Y-72119048D01*
X99161905Y-72309524D01*
X99066667Y-72404762D01*
X98971429Y-72452381D01*
X98780952Y-72452381D01*
X98685714Y-72404762D01*
X98590476Y-72309524D01*
X98542857Y-72119048D01*
X98542857Y-71785714D01*
X98590476Y-71595238D01*
X98685714Y-71500000D01*
X98780952Y-71452381D01*
X94685714Y-69804762D02*
X94828571Y-69852381D01*
X95066667Y-69852381D01*
X95161905Y-69804762D01*
X95209524Y-69757143D01*
X95257143Y-69661905D01*
X95257143Y-69566667D01*
X95209524Y-69471429D01*
X95161905Y-69423810D01*
X95066667Y-69376190D01*
X94876190Y-69328571D01*
X94780952Y-69280952D01*
X94733333Y-69233333D01*
X94685714Y-69138095D01*
X94685714Y-69042857D01*
X94733333Y-68947619D01*
X94780952Y-68900000D01*
X94876190Y-68852381D01*
X95114286Y-68852381D01*
X95257143Y-68900000D01*
X95590476Y-68852381D02*
X95828571Y-69852381D01*
X96019048Y-69138095D01*
X96209524Y-69852381D01*
X96447619Y-68852381D01*
X97400000Y-69757143D02*
X97352381Y-69804762D01*
X97209524Y-69852381D01*
X97114286Y-69852381D01*
X96971428Y-69804762D01*
X96876190Y-69709524D01*
X96828571Y-69614286D01*
X96780952Y-69423810D01*
X96780952Y-69280952D01*
X96828571Y-69090476D01*
X96876190Y-68995238D01*
X96971428Y-68900000D01*
X97114286Y-68852381D01*
X97209524Y-68852381D01*
X97352381Y-68900000D01*
X97400000Y-68947619D01*
X98304762Y-69852381D02*
X97828571Y-69852381D01*
X97828571Y-68852381D01*
X98638095Y-69852381D02*
X98638095Y-68852381D01*
X99209524Y-69852381D02*
X98780952Y-69280952D01*
X99209524Y-68852381D02*
X98638095Y-69423810D01*
D11*
X154578000Y-72982000D02*
X154578000Y-71982000D01*
X152878000Y-71982000D02*
X152878000Y-72982000D01*
X110144000Y-108610000D02*
X111144000Y-108610000D01*
X111144000Y-106910000D02*
X110144000Y-106910000D01*
X111144000Y-108942000D02*
X110144000Y-108942000D01*
X110144000Y-110642000D02*
X111144000Y-110642000D01*
X102116000Y-98894000D02*
X103116000Y-98894000D01*
X103116000Y-97194000D02*
X102116000Y-97194000D01*
X117182000Y-75684000D02*
X117182000Y-74684000D01*
X115482000Y-74684000D02*
X115482000Y-75684000D01*
X112118000Y-93972000D02*
X112118000Y-92972000D01*
X110418000Y-92972000D02*
X110418000Y-93972000D01*
X116848000Y-81114000D02*
X117848000Y-81114000D01*
X117848000Y-79414000D02*
X116848000Y-79414000D01*
X116848000Y-86702000D02*
X117848000Y-86702000D01*
X117848000Y-85002000D02*
X116848000Y-85002000D01*
X117514000Y-74684000D02*
X117514000Y-75684000D01*
X119214000Y-75684000D02*
X119214000Y-74684000D01*
X128866000Y-78966000D02*
X128866000Y-77966000D01*
X127166000Y-77966000D02*
X127166000Y-78966000D01*
X124500000Y-69762000D02*
X123500000Y-69762000D01*
X123500000Y-71462000D02*
X124500000Y-71462000D01*
X121778000Y-86660000D02*
X121778000Y-83960000D01*
X120278000Y-86660000D02*
X120278000Y-83960000D01*
X121178000Y-85160000D02*
X120928000Y-85160000D01*
X120928000Y-85160000D02*
X121078000Y-85310000D01*
X120678000Y-85410000D02*
X121378000Y-85410000D01*
X121028000Y-85060000D02*
X121028000Y-84710000D01*
X121028000Y-85410000D02*
X120678000Y-85060000D01*
X120678000Y-85060000D02*
X121378000Y-85060000D01*
X121378000Y-85060000D02*
X121028000Y-85410000D01*
X125334000Y-86660000D02*
X125334000Y-83960000D01*
X123834000Y-86660000D02*
X123834000Y-83960000D01*
X124734000Y-85160000D02*
X124484000Y-85160000D01*
X124484000Y-85160000D02*
X124634000Y-85310000D01*
X124234000Y-85410000D02*
X124934000Y-85410000D01*
X124584000Y-85060000D02*
X124584000Y-84710000D01*
X124584000Y-85410000D02*
X124234000Y-85060000D01*
X124234000Y-85060000D02*
X124934000Y-85060000D01*
X124934000Y-85060000D02*
X124584000Y-85410000D01*
X98272800Y-104879600D02*
X101727200Y-104879600D01*
X98272800Y-101120400D02*
X101727200Y-101120400D01*
X90501100Y-97503600D02*
X90501100Y-113003600D01*
X94501100Y-96503600D02*
X91501100Y-96503600D01*
X95501100Y-80503600D02*
X95501100Y-95503600D01*
X91501100Y-79503600D02*
X94501100Y-79503600D01*
X90501100Y-63003600D02*
X90501100Y-78503600D01*
X152501100Y-60003600D02*
X94001100Y-60003600D01*
X94001100Y-60003600D02*
X93501100Y-60003600D01*
X155501100Y-113003600D02*
X155501100Y-63003600D01*
X93501100Y-116003600D02*
X152501100Y-116003600D01*
X93501100Y-60003600D02*
G75*
G03X90501100Y-63003600I0J-3000000D01*
G01*
X155501100Y-63003600D02*
G75*
G03X152501100Y-60003600I-3000000J0D01*
G01*
X152501100Y-116003600D02*
G75*
G03X155501100Y-113003600I0J3000000D01*
G01*
X90501100Y-113003600D02*
G75*
G03X93501100Y-116003600I3000000J0D01*
G01*
X90501100Y-78503600D02*
G75*
G03X91501100Y-79503600I1000000J0D01*
G01*
X95501100Y-80503600D02*
G75*
G03X94501100Y-79503600I-1000000J0D01*
G01*
X94501100Y-96503600D02*
G75*
G03X95501100Y-95503600I0J1000000D01*
G01*
X91501100Y-96503600D02*
G75*
G03X90501100Y-97503600I0J-1000000D01*
G01*
X136501100Y-112003600D02*
X136501100Y-97003600D01*
X134501100Y-97003600D02*
X134501100Y-112003600D01*
X135501100Y-113003600D02*
G75*
G03X136501100Y-112003600I0J1000000D01*
G01*
X134501100Y-112003600D02*
G75*
G03X135501100Y-113003600I1000000J0D01*
G01*
X136501100Y-97003600D02*
G75*
G03X135501100Y-96003600I-1000000J0D01*
G01*
X135501100Y-96003600D02*
G75*
G03X134501100Y-97003600I0J-1000000D01*
G01*
X148401100Y-60963600D02*
X97601100Y-60963600D01*
X100141100Y-66043600D02*
X148401100Y-66043600D01*
X148401100Y-60963600D02*
X148401100Y-66043600D01*
X97601100Y-60963600D02*
X97601100Y-63503600D01*
X97321100Y-64773600D02*
X97321100Y-66323600D01*
X97601100Y-63503600D02*
X100141100Y-63503600D01*
X100141100Y-63503600D02*
X100141100Y-66043600D01*
X97321100Y-66323600D02*
X98871100Y-66323600D01*
D12*
X117500000Y-94600000D02*
X121300000Y-94600000D01*
X121300000Y-94600000D02*
X121300000Y-97000000D01*
X121300000Y-97000000D02*
X117500000Y-97000000D01*
X117500000Y-97000000D02*
X117500000Y-94600000D01*
D11*
X102500000Y-115100000D02*
X102500000Y-115600000D01*
X107000000Y-111100000D02*
G75*
G03X107000000Y-111100000I-2000000J0D01*
G01*
X102000000Y-111100000D02*
G75*
G03X102000000Y-111100000I-2000000J0D01*
G01*
X97500000Y-113600000D02*
X107500000Y-113600000D01*
X97500000Y-108700000D02*
X107500000Y-108700000D01*
X97500000Y-115100000D02*
X107500000Y-115100000D01*
X97500000Y-115600000D02*
X107500000Y-115600000D01*
X107500000Y-115600000D02*
X107500000Y-105800000D01*
X107500000Y-105800000D02*
X97500000Y-105800000D01*
X97500000Y-105800000D02*
X97500000Y-115600000D01*
X123470000Y-104110000D02*
X121920000Y-104110000D01*
X123470000Y-105410000D02*
X123470000Y-104110000D01*
X122047000Y-109601000D02*
X122047000Y-115443000D01*
X122047000Y-115443000D02*
X121793000Y-115443000D01*
X121793000Y-115443000D02*
X121793000Y-109601000D01*
X121793000Y-109601000D02*
X121920000Y-109601000D01*
X121920000Y-109601000D02*
X121920000Y-115443000D01*
X122174000Y-106934000D02*
X122174000Y-106553000D01*
X121666000Y-106934000D02*
X121666000Y-106553000D01*
X119634000Y-106934000D02*
X119634000Y-106553000D01*
X119126000Y-106934000D02*
X119126000Y-106553000D01*
X117094000Y-106934000D02*
X117094000Y-106553000D01*
X116586000Y-106934000D02*
X116586000Y-106553000D01*
X114046000Y-106934000D02*
X114046000Y-106553000D01*
X114554000Y-106934000D02*
X114554000Y-106553000D01*
X123190000Y-106934000D02*
X123190000Y-109474000D01*
X120650000Y-106934000D02*
X120650000Y-109474000D01*
X120650000Y-106934000D02*
X118110000Y-106934000D01*
X118110000Y-106934000D02*
X118110000Y-109474000D01*
X119634000Y-109474000D02*
X119634000Y-115570000D01*
X119634000Y-115570000D02*
X119126000Y-115570000D01*
X119126000Y-115570000D02*
X119126000Y-109474000D01*
X118110000Y-109474000D02*
X120650000Y-109474000D01*
X120650000Y-109474000D02*
X123190000Y-109474000D01*
X121666000Y-115570000D02*
X121666000Y-109474000D01*
X122174000Y-115570000D02*
X121666000Y-115570000D01*
X122174000Y-109474000D02*
X122174000Y-115570000D01*
X120650000Y-106934000D02*
X120650000Y-109474000D01*
X123190000Y-106934000D02*
X120650000Y-106934000D01*
X115570000Y-106934000D02*
X115570000Y-109474000D01*
X115570000Y-106934000D02*
X113030000Y-106934000D01*
X113030000Y-106934000D02*
X113030000Y-109474000D01*
X114554000Y-109474000D02*
X114554000Y-115570000D01*
X114554000Y-115570000D02*
X114046000Y-115570000D01*
X114046000Y-115570000D02*
X114046000Y-109474000D01*
X113030000Y-109474000D02*
X115570000Y-109474000D01*
X115570000Y-109474000D02*
X118110000Y-109474000D01*
X116586000Y-115570000D02*
X116586000Y-109474000D01*
X117094000Y-115570000D02*
X116586000Y-115570000D01*
X117094000Y-109474000D02*
X117094000Y-115570000D01*
X115570000Y-106934000D02*
X115570000Y-109474000D01*
X118110000Y-106934000D02*
X115570000Y-106934000D01*
X118110000Y-106934000D02*
X118110000Y-109474000D01*
X133630000Y-104110000D02*
X132080000Y-104110000D01*
X133630000Y-105410000D02*
X133630000Y-104110000D01*
X132207000Y-109601000D02*
X132207000Y-115443000D01*
X132207000Y-115443000D02*
X131953000Y-115443000D01*
X131953000Y-115443000D02*
X131953000Y-109601000D01*
X131953000Y-109601000D02*
X132080000Y-109601000D01*
X132080000Y-109601000D02*
X132080000Y-115443000D01*
X132334000Y-106934000D02*
X132334000Y-106553000D01*
X131826000Y-106934000D02*
X131826000Y-106553000D01*
X129794000Y-106934000D02*
X129794000Y-106553000D01*
X129286000Y-106934000D02*
X129286000Y-106553000D01*
X127254000Y-106934000D02*
X127254000Y-106553000D01*
X126746000Y-106934000D02*
X126746000Y-106553000D01*
X124206000Y-106934000D02*
X124206000Y-106553000D01*
X124714000Y-106934000D02*
X124714000Y-106553000D01*
X133350000Y-106934000D02*
X133350000Y-109474000D01*
X130810000Y-106934000D02*
X130810000Y-109474000D01*
X130810000Y-106934000D02*
X128270000Y-106934000D01*
X128270000Y-106934000D02*
X128270000Y-109474000D01*
X129794000Y-109474000D02*
X129794000Y-115570000D01*
X129794000Y-115570000D02*
X129286000Y-115570000D01*
X129286000Y-115570000D02*
X129286000Y-109474000D01*
X128270000Y-109474000D02*
X130810000Y-109474000D01*
X130810000Y-109474000D02*
X133350000Y-109474000D01*
X131826000Y-115570000D02*
X131826000Y-109474000D01*
X132334000Y-115570000D02*
X131826000Y-115570000D01*
X132334000Y-109474000D02*
X132334000Y-115570000D01*
X130810000Y-106934000D02*
X130810000Y-109474000D01*
X133350000Y-106934000D02*
X130810000Y-106934000D01*
X125730000Y-106934000D02*
X125730000Y-109474000D01*
X125730000Y-106934000D02*
X123190000Y-106934000D01*
X123190000Y-106934000D02*
X123190000Y-109474000D01*
X124714000Y-109474000D02*
X124714000Y-115570000D01*
X124714000Y-115570000D02*
X124206000Y-115570000D01*
X124206000Y-115570000D02*
X124206000Y-109474000D01*
X123190000Y-109474000D02*
X125730000Y-109474000D01*
X125730000Y-109474000D02*
X128270000Y-109474000D01*
X126746000Y-115570000D02*
X126746000Y-109474000D01*
X127254000Y-115570000D02*
X126746000Y-115570000D01*
X127254000Y-109474000D02*
X127254000Y-115570000D01*
X125730000Y-106934000D02*
X125730000Y-109474000D01*
X128270000Y-106934000D02*
X125730000Y-106934000D01*
X128270000Y-106934000D02*
X128270000Y-109474000D01*
X100202000Y-70608000D02*
X100202000Y-78228000D01*
X102742000Y-70608000D02*
X102742000Y-78228000D01*
X103022000Y-67788000D02*
X103022000Y-69338000D01*
X100202000Y-78228000D02*
X102742000Y-78228000D01*
X102742000Y-70608000D02*
X100202000Y-70608000D01*
X99922000Y-69338000D02*
X99922000Y-67788000D01*
X99922000Y-67788000D02*
X103022000Y-67788000D01*
D12*
X130300000Y-94600000D02*
X134100000Y-94600000D01*
X134100000Y-94600000D02*
X134100000Y-97000000D01*
X134100000Y-97000000D02*
X130300000Y-97000000D01*
X130300000Y-97000000D02*
X130300000Y-94600000D01*
X126900000Y-90800000D02*
X130700000Y-90800000D01*
X130700000Y-90800000D02*
X130700000Y-93200000D01*
X130700000Y-93200000D02*
X126900000Y-93200000D01*
X126900000Y-93200000D02*
X126900000Y-90800000D01*
D11*
X139730000Y-70270000D02*
X139730000Y-67730000D01*
X139450000Y-73090000D02*
X139450000Y-71540000D01*
X139730000Y-70270000D02*
X142270000Y-70270000D01*
X142550000Y-71540000D02*
X142550000Y-73090000D01*
X142550000Y-73090000D02*
X139450000Y-73090000D01*
X142270000Y-70270000D02*
X142270000Y-67730000D01*
X142270000Y-67730000D02*
X139730000Y-67730000D01*
X107442000Y-81026000D02*
X107442000Y-83566000D01*
X107722000Y-78206000D02*
X107722000Y-79756000D01*
X107442000Y-81026000D02*
X104902000Y-81026000D01*
X104622000Y-79756000D02*
X104622000Y-78206000D01*
X104622000Y-78206000D02*
X107722000Y-78206000D01*
X104902000Y-81026000D02*
X104902000Y-83566000D01*
X104902000Y-83566000D02*
X107442000Y-83566000D01*
X140310000Y-88270000D02*
X140310000Y-80650000D01*
X140310000Y-80650000D02*
X135230000Y-80650000D01*
X135230000Y-80650000D02*
X135230000Y-90810000D01*
X135230000Y-90810000D02*
X137770000Y-90810000D01*
X139040000Y-91090000D02*
X140590000Y-91090000D01*
X137770000Y-90810000D02*
X137770000Y-88270000D01*
X137770000Y-88270000D02*
X140310000Y-88270000D01*
X140590000Y-91090000D02*
X140590000Y-89540000D01*
X92700840Y-106650240D02*
X92749100Y-106650240D01*
X95499820Y-105949200D02*
X95499820Y-106650240D01*
X95499820Y-106650240D02*
X95250900Y-106650240D01*
X92700840Y-106650240D02*
X92500180Y-106650240D01*
X92500180Y-106650240D02*
X92500180Y-105949200D01*
X99343160Y-90789760D02*
X99294900Y-90789760D01*
X96544180Y-91490800D02*
X96544180Y-90789760D01*
X96544180Y-90789760D02*
X96793100Y-90789760D01*
X99343160Y-90789760D02*
X99543820Y-90789760D01*
X99543820Y-90789760D02*
X99543820Y-91490800D01*
X96744840Y-87518240D02*
X96793100Y-87518240D01*
X99543820Y-86817200D02*
X99543820Y-87518240D01*
X99543820Y-87518240D02*
X99294900Y-87518240D01*
X96744840Y-87518240D02*
X96544180Y-87518240D01*
X96544180Y-87518240D02*
X96544180Y-86817200D01*
X109870240Y-99343160D02*
X109870240Y-99294900D01*
X109169200Y-96544180D02*
X109870240Y-96544180D01*
X109870240Y-96544180D02*
X109870240Y-96793100D01*
X109870240Y-99343160D02*
X109870240Y-99543820D01*
X109870240Y-99543820D02*
X109169200Y-99543820D01*
X113157000Y-96010840D02*
X113157000Y-96059100D01*
X113858040Y-98809820D02*
X113157000Y-98809820D01*
X113157000Y-98809820D02*
X113157000Y-98560900D01*
X113157000Y-96010840D02*
X113157000Y-95810180D01*
X113157000Y-95810180D02*
X113858040Y-95810180D01*
X145692000Y-72341000D02*
X144492000Y-72341000D01*
X144492000Y-70591000D02*
X145692000Y-70591000D01*
X145692000Y-74373000D02*
X144492000Y-74373000D01*
X144492000Y-72623000D02*
X145692000Y-72623000D01*
X145692000Y-70309000D02*
X144492000Y-70309000D01*
X144492000Y-68559000D02*
X145692000Y-68559000D01*
X98600000Y-98875000D02*
X97400000Y-98875000D01*
X97400000Y-97125000D02*
X98600000Y-97125000D01*
X93400000Y-97125000D02*
X94600000Y-97125000D01*
X94600000Y-98875000D02*
X93400000Y-98875000D01*
X97444000Y-93613000D02*
X98644000Y-93613000D01*
X98644000Y-95363000D02*
X97444000Y-95363000D01*
X122600000Y-94975000D02*
X123800000Y-94975000D01*
X123800000Y-96725000D02*
X122600000Y-96725000D01*
X127925000Y-96146000D02*
X127925000Y-94946000D01*
X129675000Y-94946000D02*
X129675000Y-96146000D01*
X125385000Y-96146000D02*
X125385000Y-94946000D01*
X127135000Y-94946000D02*
X127135000Y-96146000D01*
X110328000Y-80631000D02*
X109128000Y-80631000D01*
X109128000Y-78881000D02*
X110328000Y-78881000D01*
X120153000Y-89724000D02*
X120153000Y-88524000D01*
X121903000Y-88524000D02*
X121903000Y-89724000D01*
X107047000Y-97444000D02*
X107047000Y-98644000D01*
X105297000Y-98644000D02*
X105297000Y-97444000D01*
X123709000Y-89724000D02*
X123709000Y-88524000D01*
X125459000Y-88524000D02*
X125459000Y-89724000D01*
X112760000Y-73660000D02*
G75*
G03X112760000Y-73660000I-1000000J0D01*
G01*
X113560000Y-72460000D02*
X113560000Y-74860000D01*
X112960000Y-71860000D02*
X113560000Y-72460000D01*
X110560000Y-71860000D02*
X112960000Y-71860000D01*
X109960000Y-72460000D02*
X110560000Y-71860000D01*
X109960000Y-74860000D02*
X109960000Y-72460000D01*
X110560000Y-75460000D02*
X109960000Y-74860000D01*
X112960000Y-75460000D02*
X110560000Y-75460000D01*
X113560000Y-74860000D02*
X112960000Y-75460000D01*
X114460000Y-72210000D02*
X114460000Y-75110000D01*
X114010000Y-71760000D02*
X114460000Y-72210000D01*
X110760000Y-70960000D02*
X112760000Y-70960000D01*
X109060000Y-72210000D02*
X109510000Y-71760000D01*
X109060000Y-75110000D02*
X109060000Y-72210000D01*
X109510000Y-75560000D02*
X109060000Y-75110000D01*
X112760000Y-76360000D02*
X110760000Y-76360000D01*
X114460000Y-75110000D02*
X114010000Y-75560000D01*
X147124000Y-70196000D02*
X152204000Y-70196000D01*
X152204000Y-70196000D02*
X152204000Y-74768000D01*
X152204000Y-74768000D02*
X147124000Y-74768000D01*
X147124000Y-74768000D02*
X147124000Y-70196000D01*
X147124000Y-71720000D02*
X147632000Y-71720000D01*
X147632000Y-71720000D02*
X147632000Y-72990000D01*
X147632000Y-72990000D02*
X147124000Y-72990000D01*
X94350520Y-102600200D02*
X94350520Y-102109980D01*
X93649480Y-102600200D02*
X94350520Y-102600200D01*
X93649480Y-99399800D02*
X94350520Y-99399800D01*
X107388660Y-95371920D02*
X107088940Y-95123000D01*
X107088940Y-95123000D02*
X106939080Y-95021400D01*
X106939080Y-95021400D02*
X107787440Y-95021400D01*
X105887520Y-95722440D02*
X107688380Y-95722440D01*
X105887520Y-95722440D02*
X105887520Y-95072200D01*
X105887520Y-91221560D02*
X107688380Y-91221560D01*
X105887520Y-91221560D02*
X105887520Y-91871800D01*
X126894000Y-79441000D02*
X126894000Y-74991000D01*
X119994000Y-80966000D02*
X119994000Y-74991000D01*
X109721000Y-100496080D02*
X110020720Y-100745000D01*
X110020720Y-100745000D02*
X110170580Y-100846600D01*
X110170580Y-100846600D02*
X109322220Y-100846600D01*
X111222140Y-100145560D02*
X109421280Y-100145560D01*
X111222140Y-100145560D02*
X111222140Y-100795800D01*
X111222140Y-104646440D02*
X109421280Y-104646440D01*
X111222140Y-104646440D02*
X111222140Y-103996200D01*
X117114320Y-81470500D02*
X108513880Y-81470500D01*
X108513880Y-81470500D02*
X108513880Y-84670900D01*
X108513880Y-84670900D02*
X117114320Y-84670900D01*
X117114320Y-83921600D02*
X117114320Y-84670900D01*
X117114320Y-82171540D02*
X117114320Y-81470500D01*
X117114320Y-83370420D02*
X117414040Y-83469480D01*
X117114320Y-82770980D02*
X117414040Y-82671920D01*
X117114320Y-82171540D02*
X117114320Y-83969860D01*
X103730000Y-102730000D02*
X103730000Y-100190000D01*
X103450000Y-105550000D02*
X103450000Y-104000000D01*
X103730000Y-102730000D02*
X106270000Y-102730000D01*
X106550000Y-104000000D02*
X106550000Y-105550000D01*
X106550000Y-105550000D02*
X103450000Y-105550000D01*
X106270000Y-102730000D02*
X106270000Y-100190000D01*
X106270000Y-100190000D02*
X103730000Y-100190000D01*
X100838000Y-93218000D02*
X100838000Y-90678000D01*
X100558000Y-96038000D02*
X100558000Y-94488000D01*
X100838000Y-93218000D02*
X103378000Y-93218000D01*
X103658000Y-94488000D02*
X103658000Y-96038000D01*
X103658000Y-96038000D02*
X100558000Y-96038000D01*
X103378000Y-93218000D02*
X103378000Y-90678000D01*
X103378000Y-90678000D02*
X100838000Y-90678000D01*
X139870000Y-112730000D02*
X139870000Y-115270000D01*
X140150000Y-109910000D02*
X140150000Y-111460000D01*
X139870000Y-112730000D02*
X137330000Y-112730000D01*
X137050000Y-111460000D02*
X137050000Y-109910000D01*
X137050000Y-109910000D02*
X140150000Y-109910000D01*
X137330000Y-112730000D02*
X137330000Y-115270000D01*
X137330000Y-115270000D02*
X139870000Y-115270000D01*
X153433334Y-70357143D02*
X153385715Y-70404762D01*
X153242858Y-70452381D01*
X153147620Y-70452381D01*
X153004762Y-70404762D01*
X152909524Y-70309524D01*
X152861905Y-70214286D01*
X152814286Y-70023810D01*
X152814286Y-69880952D01*
X152861905Y-69690476D01*
X152909524Y-69595238D01*
X153004762Y-69500000D01*
X153147620Y-69452381D01*
X153242858Y-69452381D01*
X153385715Y-69500000D01*
X153433334Y-69547619D01*
X154385715Y-70452381D02*
X153814286Y-70452381D01*
X154100000Y-70452381D02*
X154100000Y-69452381D01*
X154004762Y-69595238D01*
X153909524Y-69690476D01*
X153814286Y-69738095D01*
X108657143Y-107866666D02*
X108704762Y-107914285D01*
X108752381Y-108057142D01*
X108752381Y-108152380D01*
X108704762Y-108295238D01*
X108609524Y-108390476D01*
X108514286Y-108438095D01*
X108323810Y-108485714D01*
X108180952Y-108485714D01*
X107990476Y-108438095D01*
X107895238Y-108390476D01*
X107800000Y-108295238D01*
X107752381Y-108152380D01*
X107752381Y-108057142D01*
X107800000Y-107914285D01*
X107847619Y-107866666D01*
X107847619Y-107485714D02*
X107800000Y-107438095D01*
X107752381Y-107342857D01*
X107752381Y-107104761D01*
X107800000Y-107009523D01*
X107847619Y-106961904D01*
X107942857Y-106914285D01*
X108038095Y-106914285D01*
X108180952Y-106961904D01*
X108752381Y-107533333D01*
X108752381Y-106914285D01*
X108657143Y-110066666D02*
X108704762Y-110114285D01*
X108752381Y-110257142D01*
X108752381Y-110352380D01*
X108704762Y-110495238D01*
X108609524Y-110590476D01*
X108514286Y-110638095D01*
X108323810Y-110685714D01*
X108180952Y-110685714D01*
X107990476Y-110638095D01*
X107895238Y-110590476D01*
X107800000Y-110495238D01*
X107752381Y-110352380D01*
X107752381Y-110257142D01*
X107800000Y-110114285D01*
X107847619Y-110066666D01*
X107752381Y-109733333D02*
X107752381Y-109114285D01*
X108133333Y-109447619D01*
X108133333Y-109304761D01*
X108180952Y-109209523D01*
X108228571Y-109161904D01*
X108323810Y-109114285D01*
X108561905Y-109114285D01*
X108657143Y-109161904D01*
X108704762Y-109209523D01*
X108752381Y-109304761D01*
X108752381Y-109590476D01*
X108704762Y-109685714D01*
X108657143Y-109733333D01*
X102433334Y-99925143D02*
X102385715Y-99972762D01*
X102242858Y-100020381D01*
X102147620Y-100020381D01*
X102004762Y-99972762D01*
X101909524Y-99877524D01*
X101861905Y-99782286D01*
X101814286Y-99591810D01*
X101814286Y-99448952D01*
X101861905Y-99258476D01*
X101909524Y-99163238D01*
X102004762Y-99068000D01*
X102147620Y-99020381D01*
X102242858Y-99020381D01*
X102385715Y-99068000D01*
X102433334Y-99115619D01*
X103290477Y-99353714D02*
X103290477Y-100020381D01*
X103052381Y-98972762D02*
X102814286Y-99687048D01*
X103433334Y-99687048D01*
X118265334Y-73001143D02*
X118217715Y-73048762D01*
X118074858Y-73096381D01*
X117979620Y-73096381D01*
X117836762Y-73048762D01*
X117741524Y-72953524D01*
X117693905Y-72858286D01*
X117646286Y-72667810D01*
X117646286Y-72524952D01*
X117693905Y-72334476D01*
X117741524Y-72239238D01*
X117836762Y-72144000D01*
X117979620Y-72096381D01*
X118074858Y-72096381D01*
X118217715Y-72144000D01*
X118265334Y-72191619D01*
X119170096Y-72096381D02*
X118693905Y-72096381D01*
X118646286Y-72572571D01*
X118693905Y-72524952D01*
X118789143Y-72477333D01*
X119027239Y-72477333D01*
X119122477Y-72524952D01*
X119170096Y-72572571D01*
X119217715Y-72667810D01*
X119217715Y-72905905D01*
X119170096Y-73001143D01*
X119122477Y-73048762D01*
X119027239Y-73096381D01*
X118789143Y-73096381D01*
X118693905Y-73048762D01*
X118646286Y-73001143D01*
X113357143Y-93638666D02*
X113404762Y-93686285D01*
X113452381Y-93829142D01*
X113452381Y-93924380D01*
X113404762Y-94067238D01*
X113309524Y-94162476D01*
X113214286Y-94210095D01*
X113023810Y-94257714D01*
X112880952Y-94257714D01*
X112690476Y-94210095D01*
X112595238Y-94162476D01*
X112500000Y-94067238D01*
X112452381Y-93924380D01*
X112452381Y-93829142D01*
X112500000Y-93686285D01*
X112547619Y-93638666D01*
X112452381Y-92781523D02*
X112452381Y-92972000D01*
X112500000Y-93067238D01*
X112547619Y-93114857D01*
X112690476Y-93210095D01*
X112880952Y-93257714D01*
X113261905Y-93257714D01*
X113357143Y-93210095D01*
X113404762Y-93162476D01*
X113452381Y-93067238D01*
X113452381Y-92876761D01*
X113404762Y-92781523D01*
X113357143Y-92733904D01*
X113261905Y-92686285D01*
X113023810Y-92686285D01*
X112928571Y-92733904D01*
X112880952Y-92781523D01*
X112833333Y-92876761D01*
X112833333Y-93067238D01*
X112880952Y-93162476D01*
X112928571Y-93210095D01*
X113023810Y-93257714D01*
X115165143Y-80430666D02*
X115212762Y-80478285D01*
X115260381Y-80621142D01*
X115260381Y-80716380D01*
X115212762Y-80859238D01*
X115117524Y-80954476D01*
X115022286Y-81002095D01*
X114831810Y-81049714D01*
X114688952Y-81049714D01*
X114498476Y-81002095D01*
X114403238Y-80954476D01*
X114308000Y-80859238D01*
X114260381Y-80716380D01*
X114260381Y-80621142D01*
X114308000Y-80478285D01*
X114355619Y-80430666D01*
X114260381Y-80097333D02*
X114260381Y-79430666D01*
X115260381Y-79859238D01*
X115165143Y-86018666D02*
X115212762Y-86066285D01*
X115260381Y-86209142D01*
X115260381Y-86304380D01*
X115212762Y-86447238D01*
X115117524Y-86542476D01*
X115022286Y-86590095D01*
X114831810Y-86637714D01*
X114688952Y-86637714D01*
X114498476Y-86590095D01*
X114403238Y-86542476D01*
X114308000Y-86447238D01*
X114260381Y-86304380D01*
X114260381Y-86209142D01*
X114308000Y-86066285D01*
X114355619Y-86018666D01*
X114688952Y-85447238D02*
X114641333Y-85542476D01*
X114593714Y-85590095D01*
X114498476Y-85637714D01*
X114450857Y-85637714D01*
X114355619Y-85590095D01*
X114308000Y-85542476D01*
X114260381Y-85447238D01*
X114260381Y-85256761D01*
X114308000Y-85161523D01*
X114355619Y-85113904D01*
X114450857Y-85066285D01*
X114498476Y-85066285D01*
X114593714Y-85113904D01*
X114641333Y-85161523D01*
X114688952Y-85256761D01*
X114688952Y-85447238D01*
X114736571Y-85542476D01*
X114784190Y-85590095D01*
X114879429Y-85637714D01*
X115069905Y-85637714D01*
X115165143Y-85590095D01*
X115212762Y-85542476D01*
X115260381Y-85447238D01*
X115260381Y-85256761D01*
X115212762Y-85161523D01*
X115165143Y-85113904D01*
X115069905Y-85066285D01*
X114879429Y-85066285D01*
X114784190Y-85113904D01*
X114736571Y-85161523D01*
X114688952Y-85256761D01*
X116165334Y-73001143D02*
X116117715Y-73048762D01*
X115974858Y-73096381D01*
X115879620Y-73096381D01*
X115736762Y-73048762D01*
X115641524Y-72953524D01*
X115593905Y-72858286D01*
X115546286Y-72667810D01*
X115546286Y-72524952D01*
X115593905Y-72334476D01*
X115641524Y-72239238D01*
X115736762Y-72144000D01*
X115879620Y-72096381D01*
X115974858Y-72096381D01*
X116117715Y-72144000D01*
X116165334Y-72191619D01*
X116641524Y-73096381D02*
X116832000Y-73096381D01*
X116927239Y-73048762D01*
X116974858Y-73001143D01*
X117070096Y-72858286D01*
X117117715Y-72667810D01*
X117117715Y-72286857D01*
X117070096Y-72191619D01*
X117022477Y-72144000D01*
X116927239Y-72096381D01*
X116736762Y-72096381D01*
X116641524Y-72144000D01*
X116593905Y-72191619D01*
X116546286Y-72286857D01*
X116546286Y-72524952D01*
X116593905Y-72620190D01*
X116641524Y-72667810D01*
X116736762Y-72715429D01*
X116927239Y-72715429D01*
X117022477Y-72667810D01*
X117070096Y-72620190D01*
X117117715Y-72524952D01*
X130357143Y-79108857D02*
X130404762Y-79156476D01*
X130452381Y-79299333D01*
X130452381Y-79394571D01*
X130404762Y-79537429D01*
X130309524Y-79632667D01*
X130214286Y-79680286D01*
X130023810Y-79727905D01*
X129880952Y-79727905D01*
X129690476Y-79680286D01*
X129595238Y-79632667D01*
X129500000Y-79537429D01*
X129452381Y-79394571D01*
X129452381Y-79299333D01*
X129500000Y-79156476D01*
X129547619Y-79108857D01*
X130452381Y-78156476D02*
X130452381Y-78727905D01*
X130452381Y-78442191D02*
X129452381Y-78442191D01*
X129595238Y-78537429D01*
X129690476Y-78632667D01*
X129738095Y-78727905D01*
X129452381Y-77537429D02*
X129452381Y-77442190D01*
X129500000Y-77346952D01*
X129547619Y-77299333D01*
X129642857Y-77251714D01*
X129833333Y-77204095D01*
X130071429Y-77204095D01*
X130261905Y-77251714D01*
X130357143Y-77299333D01*
X130404762Y-77346952D01*
X130452381Y-77442190D01*
X130452381Y-77537429D01*
X130404762Y-77632667D01*
X130357143Y-77680286D01*
X130261905Y-77727905D01*
X130071429Y-77775524D01*
X129833333Y-77775524D01*
X129642857Y-77727905D01*
X129547619Y-77680286D01*
X129500000Y-77632667D01*
X129452381Y-77537429D01*
X123257143Y-69257143D02*
X123209524Y-69304762D01*
X123066667Y-69352381D01*
X122971429Y-69352381D01*
X122828571Y-69304762D01*
X122733333Y-69209524D01*
X122685714Y-69114286D01*
X122638095Y-68923810D01*
X122638095Y-68780952D01*
X122685714Y-68590476D01*
X122733333Y-68495238D01*
X122828571Y-68400000D01*
X122971429Y-68352381D01*
X123066667Y-68352381D01*
X123209524Y-68400000D01*
X123257143Y-68447619D01*
X124209524Y-69352381D02*
X123638095Y-69352381D01*
X123923809Y-69352381D02*
X123923809Y-68352381D01*
X123828571Y-68495238D01*
X123733333Y-68590476D01*
X123638095Y-68638095D01*
X125161905Y-69352381D02*
X124590476Y-69352381D01*
X124876190Y-69352381D02*
X124876190Y-68352381D01*
X124780952Y-68495238D01*
X124685714Y-68590476D01*
X124590476Y-68638095D01*
X99866667Y-102928571D02*
X99533333Y-102928571D01*
X99533333Y-103452381D02*
X99533333Y-102452381D01*
X100009524Y-102452381D01*
X100914286Y-103452381D02*
X100342857Y-103452381D01*
X100628571Y-103452381D02*
X100628571Y-102452381D01*
X100533333Y-102595238D01*
X100438095Y-102690476D01*
X100342857Y-102738095D01*
X127472381Y-106148095D02*
X126472381Y-106148095D01*
X126472381Y-105767142D01*
X126520000Y-105671904D01*
X126567619Y-105624285D01*
X126662857Y-105576666D01*
X126805714Y-105576666D01*
X126900952Y-105624285D01*
X126948571Y-105671904D01*
X126996190Y-105767142D01*
X126996190Y-106148095D01*
X126472381Y-105243333D02*
X126472381Y-104624285D01*
X126853333Y-104957619D01*
X126853333Y-104814761D01*
X126900952Y-104719523D01*
X126948571Y-104671904D01*
X127043810Y-104624285D01*
X127281905Y-104624285D01*
X127377143Y-104671904D01*
X127424762Y-104719523D01*
X127472381Y-104814761D01*
X127472381Y-105100476D01*
X127424762Y-105195714D01*
X127377143Y-105243333D01*
X93904762Y-108797619D02*
X93809524Y-108750000D01*
X93714286Y-108654762D01*
X93571429Y-108511905D01*
X93476190Y-108464286D01*
X93380952Y-108464286D01*
X93428571Y-108702381D02*
X93333333Y-108654762D01*
X93238095Y-108559524D01*
X93190476Y-108369048D01*
X93190476Y-108035714D01*
X93238095Y-107845238D01*
X93333333Y-107750000D01*
X93428571Y-107702381D01*
X93619048Y-107702381D01*
X93714286Y-107750000D01*
X93809524Y-107845238D01*
X93857143Y-108035714D01*
X93857143Y-108369048D01*
X93809524Y-108559524D01*
X93714286Y-108654762D01*
X93619048Y-108702381D01*
X93428571Y-108702381D01*
X94809524Y-108702381D02*
X94238095Y-108702381D01*
X94523809Y-108702381D02*
X94523809Y-107702381D01*
X94428571Y-107845238D01*
X94333333Y-107940476D01*
X94238095Y-107988095D01*
X97948762Y-89737619D02*
X97853524Y-89690000D01*
X97758286Y-89594762D01*
X97615429Y-89451905D01*
X97520190Y-89404286D01*
X97424952Y-89404286D01*
X97472571Y-89642381D02*
X97377333Y-89594762D01*
X97282095Y-89499524D01*
X97234476Y-89309048D01*
X97234476Y-88975714D01*
X97282095Y-88785238D01*
X97377333Y-88690000D01*
X97472571Y-88642381D01*
X97663048Y-88642381D01*
X97758286Y-88690000D01*
X97853524Y-88785238D01*
X97901143Y-88975714D01*
X97901143Y-89309048D01*
X97853524Y-89499524D01*
X97758286Y-89594762D01*
X97663048Y-89642381D01*
X97472571Y-89642381D01*
X98282095Y-88737619D02*
X98329714Y-88690000D01*
X98424952Y-88642381D01*
X98663048Y-88642381D01*
X98758286Y-88690000D01*
X98805905Y-88737619D01*
X98853524Y-88832857D01*
X98853524Y-88928095D01*
X98805905Y-89070952D01*
X98234476Y-89642381D01*
X98853524Y-89642381D01*
X97948762Y-84875619D02*
X97853524Y-84828000D01*
X97758286Y-84732762D01*
X97615429Y-84589905D01*
X97520190Y-84542286D01*
X97424952Y-84542286D01*
X97472571Y-84780381D02*
X97377333Y-84732762D01*
X97282095Y-84637524D01*
X97234476Y-84447048D01*
X97234476Y-84113714D01*
X97282095Y-83923238D01*
X97377333Y-83828000D01*
X97472571Y-83780381D01*
X97663048Y-83780381D01*
X97758286Y-83828000D01*
X97853524Y-83923238D01*
X97901143Y-84113714D01*
X97901143Y-84447048D01*
X97853524Y-84637524D01*
X97758286Y-84732762D01*
X97663048Y-84780381D01*
X97472571Y-84780381D01*
X98234476Y-83780381D02*
X98853524Y-83780381D01*
X98520190Y-84161333D01*
X98663048Y-84161333D01*
X98758286Y-84208952D01*
X98805905Y-84256571D01*
X98853524Y-84351810D01*
X98853524Y-84589905D01*
X98805905Y-84685143D01*
X98758286Y-84732762D01*
X98663048Y-84780381D01*
X98377333Y-84780381D01*
X98282095Y-84732762D01*
X98234476Y-84685143D01*
X112017619Y-98095238D02*
X111970000Y-98190476D01*
X111874762Y-98285714D01*
X111731905Y-98428571D01*
X111684286Y-98523810D01*
X111684286Y-98619048D01*
X111922381Y-98571429D02*
X111874762Y-98666667D01*
X111779524Y-98761905D01*
X111589048Y-98809524D01*
X111255714Y-98809524D01*
X111065238Y-98761905D01*
X110970000Y-98666667D01*
X110922381Y-98571429D01*
X110922381Y-98380952D01*
X110970000Y-98285714D01*
X111065238Y-98190476D01*
X111255714Y-98142857D01*
X111589048Y-98142857D01*
X111779524Y-98190476D01*
X111874762Y-98285714D01*
X111922381Y-98380952D01*
X111922381Y-98571429D01*
X111255714Y-97285714D02*
X111922381Y-97285714D01*
X110874762Y-97523810D02*
X111589048Y-97761905D01*
X111589048Y-97142857D01*
X116879619Y-97339238D02*
X116832000Y-97434476D01*
X116736762Y-97529714D01*
X116593905Y-97672571D01*
X116546286Y-97767810D01*
X116546286Y-97863048D01*
X116784381Y-97815429D02*
X116736762Y-97910667D01*
X116641524Y-98005905D01*
X116451048Y-98053524D01*
X116117714Y-98053524D01*
X115927238Y-98005905D01*
X115832000Y-97910667D01*
X115784381Y-97815429D01*
X115784381Y-97624952D01*
X115832000Y-97529714D01*
X115927238Y-97434476D01*
X116117714Y-97386857D01*
X116451048Y-97386857D01*
X116641524Y-97434476D01*
X116736762Y-97529714D01*
X116784381Y-97624952D01*
X116784381Y-97815429D01*
X115784381Y-96482095D02*
X115784381Y-96958286D01*
X116260571Y-97005905D01*
X116212952Y-96958286D01*
X116165333Y-96863048D01*
X116165333Y-96624952D01*
X116212952Y-96529714D01*
X116260571Y-96482095D01*
X116355810Y-96434476D01*
X116593905Y-96434476D01*
X116689143Y-96482095D01*
X116736762Y-96529714D01*
X116784381Y-96624952D01*
X116784381Y-96863048D01*
X116736762Y-96958286D01*
X116689143Y-97005905D01*
X143512381Y-71632666D02*
X143036190Y-71966000D01*
X143512381Y-72204095D02*
X142512381Y-72204095D01*
X142512381Y-71823142D01*
X142560000Y-71727904D01*
X142607619Y-71680285D01*
X142702857Y-71632666D01*
X142845714Y-71632666D01*
X142940952Y-71680285D01*
X142988571Y-71727904D01*
X143036190Y-71823142D01*
X143036190Y-72204095D01*
X143512381Y-70680285D02*
X143512381Y-71251714D01*
X143512381Y-70966000D02*
X142512381Y-70966000D01*
X142655238Y-71061238D01*
X142750476Y-71156476D01*
X142798095Y-71251714D01*
X143512381Y-73664666D02*
X143036190Y-73998000D01*
X143512381Y-74236095D02*
X142512381Y-74236095D01*
X142512381Y-73855142D01*
X142560000Y-73759904D01*
X142607619Y-73712285D01*
X142702857Y-73664666D01*
X142845714Y-73664666D01*
X142940952Y-73712285D01*
X142988571Y-73759904D01*
X143036190Y-73855142D01*
X143036190Y-74236095D01*
X142607619Y-73283714D02*
X142560000Y-73236095D01*
X142512381Y-73140857D01*
X142512381Y-72902761D01*
X142560000Y-72807523D01*
X142607619Y-72759904D01*
X142702857Y-72712285D01*
X142798095Y-72712285D01*
X142940952Y-72759904D01*
X143512381Y-73331333D01*
X143512381Y-72712285D01*
X143512381Y-69600666D02*
X143036190Y-69934000D01*
X143512381Y-70172095D02*
X142512381Y-70172095D01*
X142512381Y-69791142D01*
X142560000Y-69695904D01*
X142607619Y-69648285D01*
X142702857Y-69600666D01*
X142845714Y-69600666D01*
X142940952Y-69648285D01*
X142988571Y-69695904D01*
X143036190Y-69791142D01*
X143036190Y-70172095D01*
X142512381Y-69267333D02*
X142512381Y-68648285D01*
X142893333Y-68981619D01*
X142893333Y-68838761D01*
X142940952Y-68743523D01*
X142988571Y-68695904D01*
X143083810Y-68648285D01*
X143321905Y-68648285D01*
X143417143Y-68695904D01*
X143464762Y-68743523D01*
X143512381Y-68838761D01*
X143512381Y-69124476D01*
X143464762Y-69219714D01*
X143417143Y-69267333D01*
X100652381Y-98166666D02*
X100176190Y-98500000D01*
X100652381Y-98738095D02*
X99652381Y-98738095D01*
X99652381Y-98357142D01*
X99700000Y-98261904D01*
X99747619Y-98214285D01*
X99842857Y-98166666D01*
X99985714Y-98166666D01*
X100080952Y-98214285D01*
X100128571Y-98261904D01*
X100176190Y-98357142D01*
X100176190Y-98738095D01*
X99985714Y-97309523D02*
X100652381Y-97309523D01*
X99604762Y-97547619D02*
X100319048Y-97785714D01*
X100319048Y-97166666D01*
X91952381Y-98166666D02*
X91476190Y-98500000D01*
X91952381Y-98738095D02*
X90952381Y-98738095D01*
X90952381Y-98357142D01*
X91000000Y-98261904D01*
X91047619Y-98214285D01*
X91142857Y-98166666D01*
X91285714Y-98166666D01*
X91380952Y-98214285D01*
X91428571Y-98261904D01*
X91476190Y-98357142D01*
X91476190Y-98738095D01*
X90952381Y-97261904D02*
X90952381Y-97738095D01*
X91428571Y-97785714D01*
X91380952Y-97738095D01*
X91333333Y-97642857D01*
X91333333Y-97404761D01*
X91380952Y-97309523D01*
X91428571Y-97261904D01*
X91523810Y-97214285D01*
X91761905Y-97214285D01*
X91857143Y-97261904D01*
X91904762Y-97309523D01*
X91952381Y-97404761D01*
X91952381Y-97642857D01*
X91904762Y-97738095D01*
X91857143Y-97785714D01*
X97877334Y-96652381D02*
X97544000Y-96176190D01*
X97305905Y-96652381D02*
X97305905Y-95652381D01*
X97686858Y-95652381D01*
X97782096Y-95700000D01*
X97829715Y-95747619D01*
X97877334Y-95842857D01*
X97877334Y-95985714D01*
X97829715Y-96080952D01*
X97782096Y-96128571D01*
X97686858Y-96176190D01*
X97305905Y-96176190D01*
X98734477Y-95652381D02*
X98544000Y-95652381D01*
X98448762Y-95700000D01*
X98401143Y-95747619D01*
X98305905Y-95890476D01*
X98258286Y-96080952D01*
X98258286Y-96461905D01*
X98305905Y-96557143D01*
X98353524Y-96604762D01*
X98448762Y-96652381D01*
X98639239Y-96652381D01*
X98734477Y-96604762D01*
X98782096Y-96557143D01*
X98829715Y-96461905D01*
X98829715Y-96223810D01*
X98782096Y-96128571D01*
X98734477Y-96080952D01*
X98639239Y-96033333D01*
X98448762Y-96033333D01*
X98353524Y-96080952D01*
X98305905Y-96128571D01*
X98258286Y-96223810D01*
X123033334Y-94606381D02*
X122700000Y-94130190D01*
X122461905Y-94606381D02*
X122461905Y-93606381D01*
X122842858Y-93606381D01*
X122938096Y-93654000D01*
X122985715Y-93701619D01*
X123033334Y-93796857D01*
X123033334Y-93939714D01*
X122985715Y-94034952D01*
X122938096Y-94082571D01*
X122842858Y-94130190D01*
X122461905Y-94130190D01*
X123604762Y-94034952D02*
X123509524Y-93987333D01*
X123461905Y-93939714D01*
X123414286Y-93844476D01*
X123414286Y-93796857D01*
X123461905Y-93701619D01*
X123509524Y-93654000D01*
X123604762Y-93606381D01*
X123795239Y-93606381D01*
X123890477Y-93654000D01*
X123938096Y-93701619D01*
X123985715Y-93796857D01*
X123985715Y-93844476D01*
X123938096Y-93939714D01*
X123890477Y-93987333D01*
X123795239Y-94034952D01*
X123604762Y-94034952D01*
X123509524Y-94082571D01*
X123461905Y-94130190D01*
X123414286Y-94225429D01*
X123414286Y-94415905D01*
X123461905Y-94511143D01*
X123509524Y-94558762D01*
X123604762Y-94606381D01*
X123795239Y-94606381D01*
X123890477Y-94558762D01*
X123938096Y-94511143D01*
X123985715Y-94415905D01*
X123985715Y-94225429D01*
X123938096Y-94130190D01*
X123890477Y-94082571D01*
X123795239Y-94034952D01*
X128633334Y-98452381D02*
X128300000Y-97976190D01*
X128061905Y-98452381D02*
X128061905Y-97452381D01*
X128442858Y-97452381D01*
X128538096Y-97500000D01*
X128585715Y-97547619D01*
X128633334Y-97642857D01*
X128633334Y-97785714D01*
X128585715Y-97880952D01*
X128538096Y-97928571D01*
X128442858Y-97976190D01*
X128061905Y-97976190D01*
X129109524Y-98452381D02*
X129300000Y-98452381D01*
X129395239Y-98404762D01*
X129442858Y-98357143D01*
X129538096Y-98214286D01*
X129585715Y-98023810D01*
X129585715Y-97642857D01*
X129538096Y-97547619D01*
X129490477Y-97500000D01*
X129395239Y-97452381D01*
X129204762Y-97452381D01*
X129109524Y-97500000D01*
X129061905Y-97547619D01*
X129014286Y-97642857D01*
X129014286Y-97880952D01*
X129061905Y-97976190D01*
X129109524Y-98023810D01*
X129204762Y-98071429D01*
X129395239Y-98071429D01*
X129490477Y-98023810D01*
X129538096Y-97976190D01*
X129585715Y-97880952D01*
X125557143Y-98452381D02*
X125223809Y-97976190D01*
X124985714Y-98452381D02*
X124985714Y-97452381D01*
X125366667Y-97452381D01*
X125461905Y-97500000D01*
X125509524Y-97547619D01*
X125557143Y-97642857D01*
X125557143Y-97785714D01*
X125509524Y-97880952D01*
X125461905Y-97928571D01*
X125366667Y-97976190D01*
X124985714Y-97976190D01*
X126509524Y-98452381D02*
X125938095Y-98452381D01*
X126223809Y-98452381D02*
X126223809Y-97452381D01*
X126128571Y-97595238D01*
X126033333Y-97690476D01*
X125938095Y-97738095D01*
X127128571Y-97452381D02*
X127223810Y-97452381D01*
X127319048Y-97500000D01*
X127366667Y-97547619D01*
X127414286Y-97642857D01*
X127461905Y-97833333D01*
X127461905Y-98071429D01*
X127414286Y-98261905D01*
X127366667Y-98357143D01*
X127319048Y-98404762D01*
X127223810Y-98452381D01*
X127128571Y-98452381D01*
X127033333Y-98404762D01*
X126985714Y-98357143D01*
X126938095Y-98261905D01*
X126890476Y-98071429D01*
X126890476Y-97833333D01*
X126938095Y-97642857D01*
X126985714Y-97547619D01*
X127033333Y-97500000D01*
X127128571Y-97452381D01*
X112652381Y-80398857D02*
X112176190Y-80732191D01*
X112652381Y-80970286D02*
X111652381Y-80970286D01*
X111652381Y-80589333D01*
X111700000Y-80494095D01*
X111747619Y-80446476D01*
X111842857Y-80398857D01*
X111985714Y-80398857D01*
X112080952Y-80446476D01*
X112128571Y-80494095D01*
X112176190Y-80589333D01*
X112176190Y-80970286D01*
X112652381Y-79446476D02*
X112652381Y-80017905D01*
X112652381Y-79732191D02*
X111652381Y-79732191D01*
X111795238Y-79827429D01*
X111890476Y-79922667D01*
X111938095Y-80017905D01*
X112652381Y-78494095D02*
X112652381Y-79065524D01*
X112652381Y-78779810D02*
X111652381Y-78779810D01*
X111795238Y-78875048D01*
X111890476Y-78970286D01*
X111938095Y-79065524D01*
X119852381Y-89742857D02*
X119376190Y-90076191D01*
X119852381Y-90314286D02*
X118852381Y-90314286D01*
X118852381Y-89933333D01*
X118900000Y-89838095D01*
X118947619Y-89790476D01*
X119042857Y-89742857D01*
X119185714Y-89742857D01*
X119280952Y-89790476D01*
X119328571Y-89838095D01*
X119376190Y-89933333D01*
X119376190Y-90314286D01*
X119852381Y-88790476D02*
X119852381Y-89361905D01*
X119852381Y-89076191D02*
X118852381Y-89076191D01*
X118995238Y-89171429D01*
X119090476Y-89266667D01*
X119138095Y-89361905D01*
X118947619Y-88409524D02*
X118900000Y-88361905D01*
X118852381Y-88266667D01*
X118852381Y-88028571D01*
X118900000Y-87933333D01*
X118947619Y-87885714D01*
X119042857Y-87838095D01*
X119138095Y-87838095D01*
X119280952Y-87885714D01*
X119852381Y-88457143D01*
X119852381Y-87838095D01*
X105052381Y-98686857D02*
X104576190Y-99020191D01*
X105052381Y-99258286D02*
X104052381Y-99258286D01*
X104052381Y-98877333D01*
X104100000Y-98782095D01*
X104147619Y-98734476D01*
X104242857Y-98686857D01*
X104385714Y-98686857D01*
X104480952Y-98734476D01*
X104528571Y-98782095D01*
X104576190Y-98877333D01*
X104576190Y-99258286D01*
X105052381Y-97734476D02*
X105052381Y-98305905D01*
X105052381Y-98020191D02*
X104052381Y-98020191D01*
X104195238Y-98115429D01*
X104290476Y-98210667D01*
X104338095Y-98305905D01*
X104052381Y-97401143D02*
X104052381Y-96782095D01*
X104433333Y-97115429D01*
X104433333Y-96972571D01*
X104480952Y-96877333D01*
X104528571Y-96829714D01*
X104623810Y-96782095D01*
X104861905Y-96782095D01*
X104957143Y-96829714D01*
X105004762Y-96877333D01*
X105052381Y-96972571D01*
X105052381Y-97258286D01*
X105004762Y-97353524D01*
X104957143Y-97401143D01*
X123452381Y-89766857D02*
X122976190Y-90100191D01*
X123452381Y-90338286D02*
X122452381Y-90338286D01*
X122452381Y-89957333D01*
X122500000Y-89862095D01*
X122547619Y-89814476D01*
X122642857Y-89766857D01*
X122785714Y-89766857D01*
X122880952Y-89814476D01*
X122928571Y-89862095D01*
X122976190Y-89957333D01*
X122976190Y-90338286D01*
X123452381Y-88814476D02*
X123452381Y-89385905D01*
X123452381Y-89100191D02*
X122452381Y-89100191D01*
X122595238Y-89195429D01*
X122690476Y-89290667D01*
X122738095Y-89385905D01*
X122452381Y-87909714D02*
X122452381Y-88385905D01*
X122928571Y-88433524D01*
X122880952Y-88385905D01*
X122833333Y-88290667D01*
X122833333Y-88052571D01*
X122880952Y-87957333D01*
X122928571Y-87909714D01*
X123023810Y-87862095D01*
X123261905Y-87862095D01*
X123357143Y-87909714D01*
X123404762Y-87957333D01*
X123452381Y-88052571D01*
X123452381Y-88290667D01*
X123404762Y-88385905D01*
X123357143Y-88433524D01*
X148902095Y-72052381D02*
X148902095Y-72861905D01*
X148949714Y-72957143D01*
X148997333Y-73004762D01*
X149092571Y-73052381D01*
X149283048Y-73052381D01*
X149378286Y-73004762D01*
X149425905Y-72957143D01*
X149473524Y-72861905D01*
X149473524Y-72052381D01*
X150473524Y-73052381D02*
X149902095Y-73052381D01*
X150187809Y-73052381D02*
X150187809Y-72052381D01*
X150092571Y-72195238D01*
X149997333Y-72290476D01*
X149902095Y-72338095D01*
X90952381Y-101833025D02*
X91761905Y-101833025D01*
X91857143Y-101785406D01*
X91904762Y-101737787D01*
X91952381Y-101642549D01*
X91952381Y-101452072D01*
X91904762Y-101356834D01*
X91857143Y-101309215D01*
X91761905Y-101261596D01*
X90952381Y-101261596D01*
X91047619Y-100833025D02*
X91000000Y-100785406D01*
X90952381Y-100690168D01*
X90952381Y-100452072D01*
X91000000Y-100356834D01*
X91047619Y-100309215D01*
X91142857Y-100261596D01*
X91238095Y-100261596D01*
X91380952Y-100309215D01*
X91952381Y-100880644D01*
X91952381Y-100261596D01*
X107038095Y-89852381D02*
X107038095Y-90661905D01*
X107085714Y-90757143D01*
X107133333Y-90804762D01*
X107228571Y-90852381D01*
X107419048Y-90852381D01*
X107514286Y-90804762D01*
X107561905Y-90757143D01*
X107609524Y-90661905D01*
X107609524Y-89852381D01*
X107990476Y-89852381D02*
X108609524Y-89852381D01*
X108276190Y-90233333D01*
X108419048Y-90233333D01*
X108514286Y-90280952D01*
X108561905Y-90328571D01*
X108609524Y-90423810D01*
X108609524Y-90661905D01*
X108561905Y-90757143D01*
X108514286Y-90804762D01*
X108419048Y-90852381D01*
X108133333Y-90852381D01*
X108038095Y-90804762D01*
X107990476Y-90757143D01*
X122896381Y-77977905D02*
X123705905Y-77977905D01*
X123801143Y-77930286D01*
X123848762Y-77882667D01*
X123896381Y-77787429D01*
X123896381Y-77596952D01*
X123848762Y-77501714D01*
X123801143Y-77454095D01*
X123705905Y-77406476D01*
X122896381Y-77406476D01*
X123229714Y-76501714D02*
X123896381Y-76501714D01*
X122848762Y-76739810D02*
X123563048Y-76977905D01*
X123563048Y-76358857D01*
X111588095Y-100052381D02*
X111588095Y-100861905D01*
X111635714Y-100957143D01*
X111683333Y-101004762D01*
X111778571Y-101052381D01*
X111969048Y-101052381D01*
X112064286Y-101004762D01*
X112111905Y-100957143D01*
X112159524Y-100861905D01*
X112159524Y-100052381D01*
X113111905Y-100052381D02*
X112635714Y-100052381D01*
X112588095Y-100528571D01*
X112635714Y-100480952D01*
X112730952Y-100433333D01*
X112969048Y-100433333D01*
X113064286Y-100480952D01*
X113111905Y-100528571D01*
X113159524Y-100623810D01*
X113159524Y-100861905D01*
X113111905Y-100957143D01*
X113064286Y-101004762D01*
X112969048Y-101052381D01*
X112730952Y-101052381D01*
X112635714Y-101004762D01*
X112588095Y-100957143D01*
%LPC*%
D13*
X153728000Y-71482000D03*
X153728000Y-73482000D03*
D14*
X111644000Y-107760000D03*
X109644000Y-107760000D03*
X109644000Y-109792000D03*
X111644000Y-109792000D03*
X103616000Y-98044000D03*
X101616000Y-98044000D03*
D13*
X116332000Y-74184000D03*
X116332000Y-76184000D03*
X111268000Y-92472000D03*
X111268000Y-94472000D03*
D14*
X118348000Y-80264000D03*
X116348000Y-80264000D03*
X118348000Y-85852000D03*
X116348000Y-85852000D03*
D13*
X118364000Y-76184000D03*
X118364000Y-74184000D03*
X128016000Y-77466000D03*
X128016000Y-79466000D03*
D14*
X123000000Y-70612000D03*
X125000000Y-70612000D03*
D15*
X121028000Y-84010980D03*
X121028000Y-86109020D03*
X124584000Y-84010980D03*
X124584000Y-86109020D03*
D16*
X97561600Y-103000000D03*
X102438400Y-103000000D03*
D17*
X98871100Y-64773600D03*
D18*
X98871100Y-62233600D03*
X101411100Y-64773600D03*
X101411100Y-62233600D03*
X103951100Y-64773600D03*
X103951100Y-62233600D03*
X106491100Y-64773600D03*
X106491100Y-62233600D03*
X109031100Y-64773600D03*
X109031100Y-62233600D03*
X111571100Y-64773600D03*
X111571100Y-62233600D03*
X114111100Y-64773600D03*
X114111100Y-62233600D03*
X116651100Y-64773600D03*
X116651100Y-62233600D03*
X119191100Y-64773600D03*
X119191100Y-62233600D03*
X121731100Y-64773600D03*
X121731100Y-62233600D03*
X124271100Y-64773600D03*
X124271100Y-62233600D03*
X126811100Y-64773600D03*
X126811100Y-62233600D03*
X129351100Y-64773600D03*
X129351100Y-62233600D03*
X131891100Y-64773600D03*
X131891100Y-62233600D03*
X134431100Y-64773600D03*
X134431100Y-62233600D03*
X136971100Y-64773600D03*
X136971100Y-62233600D03*
X139511100Y-64773600D03*
X139511100Y-62233600D03*
X142051100Y-64773600D03*
X142051100Y-62233600D03*
X144591100Y-64773600D03*
X144591100Y-62233600D03*
X147131100Y-64773600D03*
X147131100Y-62233600D03*
D19*
X94001100Y-63503600D03*
X152001100Y-63503600D03*
X94001100Y-112503600D03*
X152001100Y-112503600D03*
D20*
X118200000Y-95800000D03*
D21*
X119400000Y-95800000D03*
D20*
X120600000Y-95800000D03*
D22*
X100000000Y-111000000D03*
D23*
X105000000Y-111000000D03*
D24*
X121920000Y-105410000D03*
D25*
X119380000Y-105410000D03*
X116840000Y-105410000D03*
X114300000Y-105410000D03*
D24*
X132080000Y-105410000D03*
D25*
X129540000Y-105410000D03*
X127000000Y-105410000D03*
X124460000Y-105410000D03*
D26*
X101472000Y-69338000D03*
D27*
X101472000Y-71878000D03*
X101472000Y-74418000D03*
X101472000Y-76958000D03*
D20*
X131000000Y-95800000D03*
D21*
X132200000Y-95800000D03*
D20*
X133400000Y-95800000D03*
X127600000Y-92000000D03*
D21*
X128800000Y-92000000D03*
D20*
X130000000Y-92000000D03*
D28*
X141000000Y-71540000D03*
D29*
X141000000Y-69000000D03*
D28*
X106172000Y-79756000D03*
D29*
X106172000Y-82296000D03*
D17*
X139040000Y-89540000D03*
D18*
X136500000Y-89540000D03*
X139040000Y-87000000D03*
X136500000Y-87000000D03*
X139040000Y-84460000D03*
X136500000Y-84460000D03*
X139040000Y-81920000D03*
X136500000Y-81920000D03*
D30*
X94950000Y-104999240D03*
X93050000Y-104999240D03*
X94000000Y-106998220D03*
X97094000Y-92440760D03*
X98994000Y-92440760D03*
X98044000Y-90441780D03*
X98994000Y-85867240D03*
X97094000Y-85867240D03*
X98044000Y-87866220D03*
X108219240Y-97094000D03*
X108219240Y-98994000D03*
X110218220Y-98044000D03*
X114808000Y-98260000D03*
X114808000Y-96360000D03*
X112809020Y-97310000D03*
D31*
X144142000Y-71466000D03*
X146042000Y-71466000D03*
X144142000Y-73498000D03*
X146042000Y-73498000D03*
X144142000Y-69434000D03*
X146042000Y-69434000D03*
X97050000Y-98000000D03*
X98950000Y-98000000D03*
X94950000Y-98000000D03*
X93050000Y-98000000D03*
X98994000Y-94488000D03*
X97094000Y-94488000D03*
X124150000Y-95850000D03*
X122250000Y-95850000D03*
D32*
X128800000Y-94596000D03*
X128800000Y-96496000D03*
X126260000Y-94596000D03*
X126260000Y-96496000D03*
D31*
X108778000Y-79756000D03*
X110678000Y-79756000D03*
D32*
X121028000Y-88174000D03*
X121028000Y-90074000D03*
X106172000Y-98994000D03*
X106172000Y-97094000D03*
X124584000Y-88174000D03*
X124584000Y-90074000D03*
D33*
X113610000Y-70560000D03*
X113610000Y-76760000D03*
X109910000Y-70560000D03*
X109910000Y-76760000D03*
D34*
X147759000Y-69307000D03*
X149029000Y-69307000D03*
X150299000Y-69307000D03*
X151569000Y-69307000D03*
X151569000Y-75657000D03*
X150299000Y-75657000D03*
X149029000Y-75657000D03*
X147759000Y-75657000D03*
D35*
X95300480Y-101949960D03*
X95300480Y-101000000D03*
X95300480Y-100050040D03*
X92699520Y-100050040D03*
X92699520Y-101000000D03*
X92699520Y-101949960D03*
D36*
X109039660Y-94973140D03*
X109039660Y-93472000D03*
X109039660Y-91970860D03*
D37*
X106088180Y-93472000D03*
D10*
G36*
X107362650Y-92271240D02*
X108511950Y-92771620D01*
X108511950Y-94172380D01*
X107362650Y-94672760D01*
X107362650Y-92271240D01*
X107362650Y-92271240D01*
G37*
D38*
X120519000Y-80166000D03*
X121169000Y-80166000D03*
X121819000Y-80166000D03*
X122469000Y-80166000D03*
X123119000Y-80166000D03*
X123769000Y-80166000D03*
X124419000Y-80166000D03*
X125069000Y-80166000D03*
X125719000Y-80166000D03*
X126369000Y-80166000D03*
X126369000Y-74266000D03*
X125719000Y-74266000D03*
X125069000Y-74266000D03*
X124419000Y-74266000D03*
X123769000Y-74266000D03*
X123119000Y-74266000D03*
X122469000Y-74266000D03*
X121819000Y-74266000D03*
X121169000Y-74266000D03*
X120519000Y-74266000D03*
D36*
X108070000Y-100894860D03*
X108070000Y-102396000D03*
X108070000Y-103897140D03*
D37*
X111021480Y-102396000D03*
D10*
G36*
X109747010Y-103596760D02*
X108597710Y-103096380D01*
X108597710Y-101695620D01*
X109747010Y-101195240D01*
X109747010Y-103596760D01*
X109747010Y-103596760D01*
G37*
D39*
X118364000Y-83820000D03*
X118364000Y-82321400D03*
D28*
X105000000Y-104000000D03*
D29*
X105000000Y-101460000D03*
D28*
X102108000Y-94488000D03*
D29*
X102108000Y-91948000D03*
D28*
X138600000Y-111460000D03*
D29*
X138600000Y-114000000D03*
M02*
