G04 #@! TF.FileFunction,Soldermask,Top*
%FSLAX46Y46*%
G04 Gerber Fmt 4.6, Leading zero omitted, Abs format (unit mm)*
G04 Created by KiCad (PCBNEW 4.0.2+e4-6225~38~ubuntu15.04.1-stable) date Sat 22 Oct 2016 20:53:22 ACDT*
%MOMM*%
G01*
G04 APERTURE LIST*
%ADD10C,0.100000*%
%ADD11R,1.650000X1.400000*%
%ADD12R,1.400000X1.650000*%
%ADD13R,1.598880X1.598880*%
%ADD14R,2.000000X3.900000*%
%ADD15R,2.127200X2.127200*%
%ADD16O,2.127200X2.127200*%
%ADD17C,6.250000*%
%ADD18R,1.400000X2.400000*%
%ADD19R,1.600000X2.600000*%
%ADD20R,2.900000X2.900000*%
%ADD21C,2.900000*%
%ADD22R,2.127200X2.432000*%
%ADD23O,2.127200X2.432000*%
%ADD24R,2.432000X2.127200*%
%ADD25O,2.432000X2.127200*%
%ADD26R,2.432000X2.432000*%
%ADD27O,2.432000X2.432000*%
%ADD28R,1.200100X1.200100*%
%ADD29R,1.100000X1.700000*%
%ADD30R,1.700000X1.100000*%
%ADD31R,1.500000X2.200000*%
%ADD32R,0.908000X1.543000*%
%ADD33R,1.400760X1.090880*%
%ADD34R,1.901140X1.400760*%
%ADD35R,3.399740X2.398980*%
%ADD36R,0.850000X1.850000*%
%ADD37C,1.400760*%
%ADD38C,2.500000*%
G04 APERTURE END LIST*
D10*
D11*
X153228000Y-71482000D03*
X153228000Y-73482000D03*
D12*
X111144000Y-107760000D03*
X109144000Y-107760000D03*
X109144000Y-109792000D03*
X111144000Y-109792000D03*
X103116000Y-98044000D03*
X101116000Y-98044000D03*
D11*
X115832000Y-74184000D03*
X115832000Y-76184000D03*
X110768000Y-92472000D03*
X110768000Y-94472000D03*
D12*
X117848000Y-80264000D03*
X115848000Y-80264000D03*
X117848000Y-85852000D03*
X115848000Y-85852000D03*
D11*
X117864000Y-76184000D03*
X117864000Y-74184000D03*
X127516000Y-77466000D03*
X127516000Y-79466000D03*
D12*
X122500000Y-71500000D03*
X124500000Y-71500000D03*
D13*
X120528000Y-84010980D03*
X120528000Y-86109020D03*
X124084000Y-84010980D03*
X124084000Y-86109020D03*
D14*
X97061600Y-103000000D03*
X101938400Y-103000000D03*
D15*
X98371100Y-64773600D03*
D16*
X98371100Y-62233600D03*
X100911100Y-64773600D03*
X100911100Y-62233600D03*
X103451100Y-64773600D03*
X103451100Y-62233600D03*
X105991100Y-64773600D03*
X105991100Y-62233600D03*
X108531100Y-64773600D03*
X108531100Y-62233600D03*
X111071100Y-64773600D03*
X111071100Y-62233600D03*
X113611100Y-64773600D03*
X113611100Y-62233600D03*
X116151100Y-64773600D03*
X116151100Y-62233600D03*
X118691100Y-64773600D03*
X118691100Y-62233600D03*
X121231100Y-64773600D03*
X121231100Y-62233600D03*
X123771100Y-64773600D03*
X123771100Y-62233600D03*
X126311100Y-64773600D03*
X126311100Y-62233600D03*
X128851100Y-64773600D03*
X128851100Y-62233600D03*
X131391100Y-64773600D03*
X131391100Y-62233600D03*
X133931100Y-64773600D03*
X133931100Y-62233600D03*
X136471100Y-64773600D03*
X136471100Y-62233600D03*
X139011100Y-64773600D03*
X139011100Y-62233600D03*
X141551100Y-64773600D03*
X141551100Y-62233600D03*
X144091100Y-64773600D03*
X144091100Y-62233600D03*
X146631100Y-64773600D03*
X146631100Y-62233600D03*
D17*
X93501100Y-63503600D03*
X151501100Y-63503600D03*
X93501100Y-112503600D03*
X151501100Y-112503600D03*
D18*
X117700000Y-95800000D03*
D19*
X118900000Y-95800000D03*
D18*
X120100000Y-95800000D03*
D20*
X99500000Y-111000000D03*
D21*
X104500000Y-111000000D03*
D22*
X121420000Y-105410000D03*
D23*
X118880000Y-105410000D03*
X116340000Y-105410000D03*
X113800000Y-105410000D03*
D22*
X131580000Y-105410000D03*
D23*
X129040000Y-105410000D03*
X126500000Y-105410000D03*
X123960000Y-105410000D03*
D24*
X100972000Y-69338000D03*
D25*
X100972000Y-71878000D03*
X100972000Y-74418000D03*
X100972000Y-76958000D03*
D18*
X130500000Y-95800000D03*
D19*
X131700000Y-95800000D03*
D18*
X132900000Y-95800000D03*
X127100000Y-92000000D03*
D19*
X128300000Y-92000000D03*
D18*
X129500000Y-92000000D03*
D26*
X140500000Y-71540000D03*
D27*
X140500000Y-69000000D03*
D26*
X105672000Y-79756000D03*
D27*
X105672000Y-82296000D03*
D15*
X138540000Y-89540000D03*
D16*
X136000000Y-89540000D03*
X138540000Y-87000000D03*
X136000000Y-87000000D03*
X138540000Y-84460000D03*
X136000000Y-84460000D03*
X138540000Y-81920000D03*
X136000000Y-81920000D03*
D28*
X94450000Y-104999240D03*
X92550000Y-104999240D03*
X93500000Y-106998220D03*
X96594000Y-92440760D03*
X98494000Y-92440760D03*
X97544000Y-90441780D03*
X98494000Y-85867240D03*
X96594000Y-85867240D03*
X97544000Y-87866220D03*
X107719240Y-97094000D03*
X107719240Y-98994000D03*
X109718220Y-98044000D03*
X114308000Y-98260000D03*
X114308000Y-96360000D03*
X112309020Y-97310000D03*
D29*
X143642000Y-71466000D03*
X145542000Y-71466000D03*
X143642000Y-73498000D03*
X145542000Y-73498000D03*
X143642000Y-69434000D03*
X145542000Y-69434000D03*
X96550000Y-98000000D03*
X98450000Y-98000000D03*
X94450000Y-98000000D03*
X92550000Y-98000000D03*
X98494000Y-94488000D03*
X96594000Y-94488000D03*
X123650000Y-95850000D03*
X121750000Y-95850000D03*
D30*
X128300000Y-94596000D03*
X128300000Y-96496000D03*
X125760000Y-94596000D03*
X125760000Y-96496000D03*
D29*
X108278000Y-79756000D03*
X110178000Y-79756000D03*
D30*
X120528000Y-88174000D03*
X120528000Y-90074000D03*
X105672000Y-98994000D03*
X105672000Y-97094000D03*
X124084000Y-88174000D03*
X124084000Y-90074000D03*
D31*
X113110000Y-70560000D03*
X113110000Y-76760000D03*
X109410000Y-70560000D03*
X109410000Y-76760000D03*
D32*
X147259000Y-69307000D03*
X148529000Y-69307000D03*
X149799000Y-69307000D03*
X151069000Y-69307000D03*
X151069000Y-75657000D03*
X149799000Y-75657000D03*
X148529000Y-75657000D03*
X147259000Y-75657000D03*
D33*
X94800480Y-101949960D03*
X94800480Y-101000000D03*
X94800480Y-100050040D03*
X92199520Y-100050040D03*
X92199520Y-101000000D03*
X92199520Y-101949960D03*
D34*
X108539660Y-94973140D03*
X108539660Y-93472000D03*
X108539660Y-91970860D03*
D35*
X105588180Y-93472000D03*
D10*
G36*
X106862650Y-92271240D02*
X108011950Y-92771620D01*
X108011950Y-94172380D01*
X106862650Y-94672760D01*
X106862650Y-92271240D01*
X106862650Y-92271240D01*
G37*
D36*
X120019000Y-80166000D03*
X120669000Y-80166000D03*
X121319000Y-80166000D03*
X121969000Y-80166000D03*
X122619000Y-80166000D03*
X123269000Y-80166000D03*
X123919000Y-80166000D03*
X124569000Y-80166000D03*
X125219000Y-80166000D03*
X125869000Y-80166000D03*
X125869000Y-74266000D03*
X125219000Y-74266000D03*
X124569000Y-74266000D03*
X123919000Y-74266000D03*
X123269000Y-74266000D03*
X122619000Y-74266000D03*
X121969000Y-74266000D03*
X121319000Y-74266000D03*
X120669000Y-74266000D03*
X120019000Y-74266000D03*
D34*
X107570000Y-100894860D03*
X107570000Y-102396000D03*
X107570000Y-103897140D03*
D35*
X110521480Y-102396000D03*
D10*
G36*
X109247010Y-103596760D02*
X108097710Y-103096380D01*
X108097710Y-101695620D01*
X109247010Y-101195240D01*
X109247010Y-103596760D01*
X109247010Y-103596760D01*
G37*
D37*
X117864000Y-83820000D03*
X117864000Y-82321400D03*
D26*
X104500000Y-104000000D03*
D27*
X104500000Y-101460000D03*
D26*
X101608000Y-94488000D03*
D27*
X101608000Y-91948000D03*
D26*
X138100000Y-111460000D03*
D27*
X138100000Y-114000000D03*
D38*
X98000000Y-114000000D03*
X145000000Y-76000000D03*
X129500000Y-82000000D03*
X116000000Y-72000000D03*
M02*
